<?xml version="1.0" encoding="utf-8"?>
<!-- Generator: Adobe Illustrator 24.0.1, SVG Export Plug-In . SVG Version: 6.00 Build 0)  -->
<svg version="1.1" id="Layer_1" xmlns="http://www.w3.org/2000/svg" xmlns:xlink="http://www.w3.org/1999/xlink" x="0px" y="0px"
	 viewBox="0 0 315.4 287.3" style="enable-background:new 0 0 315.4 287.3;" xml:space="preserve">
<style type="text/css">
	.st0{fill:#FFFFFF;}
	.st1{display:none;}
	.st2{display:inline;fill-rule:evenodd;clip-rule:evenodd;fill:#FFFFFF;}
	.st3{display:inline;}
	.st4{fill-rule:evenodd;clip-rule:evenodd;fill:#757576;}
	.st5{fill-rule:evenodd;clip-rule:evenodd;fill:#ED1C24;}
	.st6{fill:#ED1C24;}
	.st7{fill:#757576;}
	.st8{fill:#0B0B0B;}
	.st9{clip-path:url(#SVGID_2_);fill:url(#SVGID_3_);}
	.st10{clip-path:url(#SVGID_5_);}
	.st11{clip-path:url(#SVGID_7_);}
	.st12{clip-path:url(#SVGID_9_);}
	.st13{clip-path:url(#SVGID_11_);}
	.st14{clip-path:url(#SVGID_13_);}
	.st15{clip-path:url(#SVGID_15_);}
	.st16{clip-path:url(#SVGID_17_);}
	.st17{clip-path:url(#SVGID_19_);}
	.st18{fill-rule:evenodd;clip-rule:evenodd;}
</style>
<g id="Layer_4">
	<rect class="st0" width="315.4" height="287.3"/>
</g>
<g id="Layer_1_1_" class="st1">
	<rect class="st2" width="315.4" height="287.3"/>
	<g class="st3">
		<path class="st4" d="M126.9,52.5c13.8,3,24.4,10,30.4,22.3c0,21.6,0,43.2,0,64.9c-1.7-0.4-3.8-1.9-5.6-3.7c-0.3-0.2-0.6-0.5-0.9-1
			v-33v-0.1l0,0c-0.3-4.5-1.8-8.5-4.2-11.8c-0.1-0.9-0.2-1.9-0.3-2.8C145.2,74.8,143.4,63.9,126.9,52.5L126.9,52.5z M187.7,52.5
			c-13.8,3-24.4,10-30.4,22.3c0,21.6,0,43.2,0,64.9c1.7-0.4,3.8-1.9,5.6-3.7c0.3-0.2,0.6-0.5,0.8-1v-33v-0.1l0,0
			c0.3-4.5,1.8-8.5,4.3-11.8c0.1-0.9,0.2-1.9,0.3-2.8C169.5,74.8,171.3,63.9,187.7,52.5L187.7,52.5z"/>
		<path class="st5" d="M147.9,52.2c1.6-3.5,4.8-6.6,9.4-9.3c4.7,2.5,7.6,5.7,9.4,9.3c-2.6,4.2-5.6,7.5-9.4,9.3
			C153.8,59.1,150.3,56.7,147.9,52.2L147.9,52.2z"/>
		<path class="st5" d="M181.7,82.6c-8.2,1.8-16.2,8-16.9,19.3c0,12.8,0,19.6,0,32.4c3.7-3.2,5.2-5.3,6.4-11.1
			c0.2-10.5,0.5-17.8,0.4-20.4C171.6,95.5,174.6,87.7,181.7,82.6L181.7,82.6z"/>
		<path class="st5" d="M132.9,82.6c8.2,1.8,16.2,8,17,19.3c0,12.8,0,19.6,0,32.4c-3.8-3.2-5.3-5.3-6.4-11.1
			c-0.1-10.5-0.5-17.8-0.4-20.4C143.1,95.5,140.1,87.7,132.9,82.6L132.9,82.6z"/>
		<g>
			<g>
				<path class="st5" d="M166,233.7c0,0,0.3-0.4,0.7-0.1c0.1,0.1,0.2,0,0.3-0.1c0,0,0.3-0.2,0.6,0.1s3.5,4.9,3.5,4.9
					s0.4,0.4,0.1,1.1c-0.4,0.8-1.4,3.2-1.4,3.2s-0.1,0.2,0.1,0.4c0.3,0.2,0.8,1.1,0.8,1.1h-3.5c0,0-0.2,0-0.3-0.3s-0.1-0.4-0.1-0.4
					l-0.1,0.6c0,0-0.1,0.2-0.2,0.1c-0.2,0-3.5,0-3.5,0l0.9-1.2c0,0,0.1-0.1,0-0.3s-1.5-3.3-1.5-3.3s-0.3-0.5,0.1-1
					C162.9,238.1,166,233.7,166,233.7L166,233.7z M166.8,236.8L166.8,236.8l-0.4,4.1c0,0,0.3,0.2,0.4,0.5c0.1-0.2,0.4-0.5,0.4-0.5
					L166.8,236.8z"/>
				<g>
					<path class="st6" d="M174.9,241.3h1.4c0,0.5,0.2,1,0.5,1.3s0.7,0.5,1.1,0.5c0.5,0,0.9-0.2,1.3-0.5c0.3-0.3,0.5-0.8,0.5-1.3
						s-0.1-0.8-0.3-1.1s-0.7-0.5-1.4-0.7c0,0-0.1,0-0.2-0.1c-0.9-0.2-1.5-0.6-1.9-1.1c-0.2-0.2-0.3-0.5-0.4-0.7
						c-0.1-0.3-0.1-0.5-0.1-0.8c0-0.9,0.3-1.6,0.8-2.1c0.5-0.6,1.2-0.8,2.1-0.8c0.8,0,1.4,0.3,1.9,0.7c0.5,0.5,0.8,1.2,0.8,2h-1.4
						c0-0.4-0.2-0.8-0.4-1s-0.6-0.4-1-0.4s-0.8,0.1-1,0.4s-0.4,0.6-0.4,1.1c0,0.1,0,0.3,0.1,0.4s0.1,0.3,0.2,0.4
						c0.2,0.2,0.6,0.4,1.3,0.6c0.3,0.1,0.6,0.1,0.7,0.2c0.7,0.3,1.2,0.6,1.6,1.1c0.4,0.5,0.5,1.1,0.5,1.8c0,1-0.3,1.8-0.9,2.4
						s-1.3,0.9-2.3,0.9c-0.9,0-1.6-0.3-2.2-0.9C175.2,243,174.9,242.2,174.9,241.3z"/>
					<path class="st6" d="M187.8,244.2h-5.4v-10.4h5.4v1.4h-3.9v3.1h3.9v1.4h-3.9v3.1h3.9V244.2z"/>
					<path class="st6" d="M193.8,244.2h-0.9l-4-10.4h1.6l2.9,7.7l2.9-7.7h1.6L193.8,244.2z"/>
					<path class="st6" d="M199,241.2l-1.2,3h-1.6l4.1-10.4h1.5l4.1,10.4h-1.6l-1.1-3H199z M202.5,239.8l-1.5-3.9l-1.5,3.9H202.5z"/>
					<path class="st6" d="M214.3,239h6.5c-0.1,1.6-0.6,2.9-1.6,3.9s-2.2,1.5-3.7,1.5c-0.8,0-1.5-0.1-2.2-0.4s-1.3-0.7-1.8-1.3
						c-0.4-0.5-0.8-1-1-1.7c-0.2-0.6-0.3-1.3-0.3-2s0.1-1.4,0.4-2.1s0.7-1.2,1.2-1.8c0.5-0.5,1.1-0.9,1.7-1.1
						c0.6-0.3,1.3-0.4,2.1-0.4c1.1,0,2,0.2,2.8,0.7s1.4,1.2,1.8,2.1h-1.9c-0.3-0.4-0.8-0.8-1.2-1c-0.5-0.2-1-0.3-1.6-0.3
						c-0.5,0-1,0.1-1.4,0.3s-0.8,0.4-1.2,0.8c-0.4,0.4-0.6,0.8-0.8,1.3s-0.3,1-0.3,1.5s0.1,1.1,0.3,1.5c0.2,0.5,0.4,0.9,0.8,1.3
						c0.4,0.4,0.8,0.7,1.2,0.9c0.5,0.2,0.9,0.3,1.4,0.3c0.8,0,1.5-0.2,2.1-0.6c0.6-0.4,1.1-1,1.5-1.9h-4.7L214.3,239L214.3,239z"/>
					<path class="st6" d="M223.6,244.2h-1.5v-10.4h3c1.3,0,2.2,0.3,2.9,0.9s1,1.4,1,2.5c0,0.8-0.3,1.6-0.8,2.1
						c-0.6,0.6-1.3,0.9-2.1,0.9l2.9,4h-1.9l-3.4-4.8L223.6,244.2L223.6,244.2z M223.6,239.3h0.8c1,0,1.8-0.2,2.3-0.5
						s0.8-0.9,0.8-1.5c0-0.7-0.2-1.2-0.7-1.5s-1.1-0.5-2.1-0.5h-1.1V239.3z"/>
					<path class="st6" d="M229.9,239c0-0.7,0.1-1.4,0.4-2.1c0.3-0.6,0.7-1.2,1.2-1.8c0.5-0.5,1.1-0.9,1.7-1.1c0.6-0.3,1.3-0.4,2-0.4
						s1.4,0.1,2,0.4s1.2,0.6,1.7,1.1s0.9,1.1,1.2,1.7c0.3,0.6,0.4,1.3,0.4,2.1c0,0.7-0.1,1.4-0.3,2s-0.6,1.2-1,1.7
						c-0.5,0.6-1.1,1-1.8,1.3s-1.4,0.4-2.2,0.4s-1.5-0.1-2.2-0.4s-1.3-0.7-1.8-1.3c-0.4-0.5-0.8-1-1-1.7
						C230,240.4,229.9,239.7,229.9,239z M231.5,239c0,0.5,0.1,1.1,0.3,1.5c0.2,0.5,0.4,0.9,0.8,1.3c0.4,0.4,0.8,0.7,1.2,0.9
						c0.5,0.2,0.9,0.3,1.4,0.3c1.1,0,2-0.4,2.7-1.1s1.1-1.7,1.1-2.8c0-0.5-0.1-0.9-0.3-1.4c-0.2-0.4-0.4-0.8-0.8-1.2
						c-0.4-0.4-0.8-0.7-1.3-0.9c-0.4-0.2-0.9-0.3-1.5-0.3c-0.5,0-1,0.1-1.4,0.3s-0.8,0.4-1.2,0.8c-0.4,0.4-0.6,0.8-0.8,1.3
						C231.6,238,231.5,238.5,231.5,239z"/>
					<path class="st6" d="M241.8,233.9h1.5v6.6c0,0.9,0.1,1.6,0.4,1.9c0.3,0.4,0.8,0.6,1.4,0.6c0.6,0,1.1-0.2,1.4-0.6
						c0.3-0.4,0.4-1,0.4-1.9v-6.6h1.5v6.6c0,0.7,0,1.2-0.1,1.6s-0.2,0.7-0.4,1c-0.3,0.5-0.7,0.8-1.1,1.1s-1,0.3-1.6,0.3
						c-0.7,0-1.2-0.1-1.7-0.3s-0.9-0.6-1.2-1.1c-0.2-0.3-0.3-0.6-0.4-0.9c-0.1-0.3-0.1-0.9-0.1-1.7L241.8,233.9L241.8,233.9z"/>
					<path class="st6" d="M251.7,244.2h-1.5v-10.4h2.4c0.7,0,1.2,0,1.6,0.1s0.7,0.2,0.9,0.3c0.4,0.3,0.8,0.6,1,1.1s0.4,1,0.4,1.5
						c0,1-0.3,1.7-1,2.3c-0.6,0.6-1.5,0.9-2.6,0.9h-1.2L251.7,244.2L251.7,244.2z M251.7,238.7h1.1c0.8,0,1.3-0.1,1.7-0.4
						c0.4-0.3,0.5-0.7,0.5-1.3s-0.2-1-0.5-1.3c-0.4-0.3-0.9-0.4-1.6-0.4h-1.1L251.7,238.7L251.7,238.7z"/>
				</g>
			</g>
		</g>
		<rect x="60.2" y="228.1" class="st7" width="195.5" height="1.4"/>
		<g>
			<g>
				<path class="st6" d="M86.8,179.9h-8.2c-0.4-1.1-0.6-2.6-0.7-4.4c0,0,0-1.5,0-4.5c0-2-0.6-3.3-1.7-3.9c-0.9-0.5-2.7-0.7-5.2-0.7
					h-2.3v13.5H62V149h12.3c3.6,0,6.2,0.6,7.9,1.8c1.8,1.3,2.7,3.4,2.7,6.3c0,4.1-1.8,6.4-5.3,6.8c2.1,0.4,3.6,1.3,4.4,2.6
					c0.6,1,0.8,2.4,0.8,4.2c0,3.4,0,5,0,5C85,177.5,85.7,178.9,86.8,179.9z M77.9,157.4c0-1.6-0.5-2.8-1.5-3.4
					c-0.9-0.5-2.3-0.8-4.4-0.8h-3.4v8.8h4c2,0,3.4-0.3,4.2-1C77.5,160.3,77.9,159.1,77.9,157.4z"/>
				<path class="st6" d="M113.5,170.3c0,3.6-0.8,6.1-2.5,7.7c-1.8,1.7-4.8,2.6-9.1,2.6c-4.4,0-7.4-0.8-9.1-2.5
					c-1.6-1.5-2.4-4.1-2.4-7.8V149h6.9v20.8c0,2,0.2,3.4,0.6,4.2c0.7,1.3,2,1.9,4.1,1.9s3.4-0.6,4.1-1.9c0.4-0.8,0.6-2.2,0.6-4.2
					V149h6.8V170.3L113.5,170.3z"/>
				<path class="st6" d="M141.1,171.8c0,2.9-1,5.1-2.9,6.6c-2,1.5-4.7,2.2-8.2,2.2c-7.3,0-11-3.2-11-9.7c0-0.4,0-1.1,0.1-1.9h6.9
					c0,0.2,0,0.6-0.1,1.1c0,0.5,0,0.9,0,1.2c0,3.1,1.3,4.6,3.8,4.6c3,0,4.5-1.2,4.5-3.7c0-1.6-1.3-3.2-3.9-4.8
					c-2.4-1.4-4.8-2.8-7.1-4.2c-2.5-1.9-3.8-4.2-3.8-6.8s0.9-4.6,2.8-6.1s4.4-2.2,7.5-2.2c3.5,0,6.1,0.8,7.9,2.4
					c1.8,1.6,2.7,3.8,2.7,6.7c0,0.5,0,0.9-0.1,1.1h-6.5c0-1.8-0.2-3.1-0.5-3.8c-0.6-1.1-1.8-1.7-3.7-1.7c-2.3,0-3.5,1-3.5,3.1
					c0,1.4,1.3,2.8,3.9,4.2c4.2,2.3,6.6,3.7,7.2,4.2C139.8,166.4,141.1,168.9,141.1,171.8z"/>
				<path class="st6" d="M169.8,179.9H163v-14h-9.4v14h-6.8V149h6.8v12.1h9.4V149h6.9L169.8,179.9L169.8,179.9z"/>
				<path class="st6" d="M199.4,179.9h-7.5l-1.8-7.8h-7.9l-1.8,7.8h-7l8.3-30.9h9.3L199.4,179.9z M189.1,167.5l-3-13l-2.9,13H189.1z
					"/>
				<path class="st6" d="M224.4,170.4c0,3.1-0.7,5.4-2.2,7c-1.6,1.7-4.3,2.6-7.9,2.6H203v-31h11c6.3,0,9.4,2.5,9.4,7.5
					c0,4.1-1.5,6.4-4.6,6.8c1.9,0.2,3.4,1.1,4.4,2.6C224,167,224.4,168.5,224.4,170.4z M216.6,157.1c0-1.5-0.3-2.6-1-3.1
					c-0.7-0.6-1.9-0.8-3.8-0.8h-2.1v8.4h2.3c1.9,0,3.1-0.4,3.8-1.1C216.3,159.8,216.6,158.7,216.6,157.1z M217.4,170.6
					c0-1.9-0.4-3.2-1.2-3.9s-2.3-1.1-4.5-1.1h-2v9.8h2.8c1.9,0,3.2-0.4,4-1.3C217.1,173.5,217.4,172.3,217.4,170.6z"/>
				<path class="st6" d="M252.9,179.9H246v-14h-9.4v14h-6.8V149h6.8v12.1h9.4V149h6.9V179.9z"/>
			</g>
		</g>
		<g>
			<path class="st7" d="M112.7,219.1H106v-13.6h-9v13.6h-6.6v-29.9H97v11.7h9.1v-11.7h6.6V219.1z"/>
			<path class="st7" d="M141.1,204.1c0,5.1-0.5,8.7-1.5,10.6c-1.6,3.4-5,5-10.1,5c-5.1,0-8.5-1.7-10.1-5c-0.9-2-1.4-5.6-1.4-10.6
				c0-5.1,0.5-8.7,1.4-10.6c1.7-3.4,5-5,10.1-5c5.1,0,8.5,1.7,10.1,5C140.6,195.5,141.1,199,141.1,204.1z M134.3,204.1
				c0-0.3,0-0.8,0.1-1.6c0-0.8,0.1-1.4,0.1-1.9c0-5.2-1.6-7.8-4.9-7.8c-3.2,0-4.9,2.6-4.9,7.8c0,0.5,0,1.1,0.1,1.9
				c0,0.8,0.1,1.3,0.1,1.6c0,0.2,0,0.8-0.1,1.5c0,0.8-0.1,1.4-0.1,1.9c0,5.2,1.6,7.8,4.9,7.8c3.2,0,4.8-2.6,4.8-7.7
				c0-0.5,0-1.1-0.1-1.9C134.3,204.9,134.3,204.4,134.3,204.1z"/>
			<path class="st7" d="M168.7,219.1h-6.8l-9.3-21l0.2,21h-6.3v-29.9h6.8l9.3,20.9l-0.2-20.9h6.3V219.1z"/>
			<path class="st7" d="M197.2,202.3c0,3.3-0.1,5.6-0.2,6.9c-0.3,2.8-1,5-2.1,6.5c-1.1,1.6-2.7,2.6-4.8,3c-1.2,0.2-3.2,0.4-6.2,0.4
				h-9.1v-29.9h10.6c5,0,8.3,1.2,10,3.6C196.6,194.6,197.2,197.7,197.2,202.3z M190.5,203.8c0-5.1-0.7-8.2-2-9.3
				c-0.7-0.6-2.2-0.9-4.4-0.9h-2.8v21.1h2.9c1.2,0,2.1,0,2.5-0.1c0.9-0.2,1.6-0.5,2.1-1.1C189.9,212.1,190.5,208.9,190.5,203.8z"/>
			<path class="st7" d="M225.1,219.1h-7.2l-1.7-7.5h-7.6l-1.7,7.5H200l8-29.9h8.9L225.1,219.1z M215.2,207.1l-2.9-12.6l-2.8,12.6
				H215.2L215.2,207.1z"/>
		</g>
	</g>
</g>
<g id="Layer_2_1_" class="st1">
	<g class="st3">
		<rect class="st0" width="315.4" height="287.3"/>
		<g>
			<g>
				<path class="st8" d="M191.7,58c2.7,2.5,4.1,4.1,4.1,4.9c-0.3,0.9-2.2,2.5-5.6,4.9c0,0.6-4.9,4.1-14.6,10.3
					c-8.3,5.8-16.9,11.5-25.8,17.1c0-0.2-0.1-0.3-0.4-0.3c-0.8,1.1-4.6,3.8-11.6,8.2c-6.3,4.2-11.8,7.7-16.5,10.3
					c0,0.2,6,3.4,18,9.5c8.2,5.5,12.3,9.6,12.3,12.5c0.4,0,0.8,0.6,1.1,1.9l-0.4,1.3v1.9h-0.7v1.1l0.4,0.5c-0.5,0.1-0.8,0.3-0.8,0.6
					c0.3,0.3,0.4,0.6,0.4,0.8c-0.5,0-0.8,0.2-0.8,0.5l0.8,0.3c-0.9,2-1.8,3-2.6,3l0.8,0.8c-0.9,0.6-2.2,2.4-3.8,5.2
					c-0.3,0-1.9,1.6-4.8,4.9c-0.6,0-2.1,1.4-4.5,4.1l-5.2,3c-1.5,0.3-2.3,0.5-2.3,0.9c0.5,0,0.7,0.2,0.7,0.5
					c-1.8,0.9-2.9,1.3-3.4,1.3c-1-0.3-1.5-0.5-1.5-0.8c1.8-0.9,2.6-1.4,2.6-1.6c-0.3,0-0.4-0.1-0.4-0.3c0.4,0,0.9-0.3,1.5-1.1
					l-1.9,0.2h-2.3v-0.2c2.2-1.6,3.4-2.4,3.7-2.4h0.4v0.5c1-0.5,1.7-0.8,2.3-0.8v0.3l-1.1,1.6h1.1c1.5-0.6,2.3-1.1,2.3-1.4
					c-0.3,0-0.4-0.1-0.4-0.2c0.8,0,2.5-1.1,5.2-3.3c3-2.7,5.3-5.3,7.1-7.9H145l-1.1,0.6V151l0.7-1.1h-0.4l-0.7,0.3l-0.4-0.5
					c0.8-2.2,1.7-3.3,2.6-3.3c0,0.2,0.1,0.2,0.3,0.2c0-0.2,0.1-0.5,0.4-0.8l0.8,0.3c1-0.4,1.5-0.7,1.5-0.8c-0.3-0.3-0.4-0.6-0.4-0.8
					l0.8,0.2v-0.5l-0.4-1.3l-0.7,0.2c0-0.2-0.1-0.2-0.4-0.2l-0.4,0.5c0.3,0,0.4,0.1,0.4,0.3c-0.5,0-0.8,0.5-0.8,1.3H146l2.3-6.3
					l-0.3-0.5v-0.8h0.7v1.1h0.4v-2.2l-0.8,0.3c-1.8-5.3-6.1-9.3-12.7-12c0-0.3-4-2.3-12-6l-4.9-3c-1.2,0.5-1.9,0.8-1.9,1.1
					c4.5,3.6,6.8,7.5,6.8,11.7l-0.4,0.6l0.4,1.3l-0.4,1.1c0.3,0.3,0.4,0.7,0.4,1.1c-0.5,0.2-0.9,0.2-1.1,0.2v0.6
					c0.8,0,1.1,0.1,1.1,0.2c0,0.9-0.3,1.4-0.8,1.4l0.4,0.5c0,0.7-0.5,1.1-1.5,1.1l0.7,0.8v0.3l-1.1,1.1h0.4c-2.7,5.6-4.7,8.7-6,9.3
					l0.3,0.5v0.3l-4.5,4.6c-0.6,0.9-1.6,1.9-3,3c-0.3,0.7-1.1,1.4-2.6,2.1l-0.7-0.2c0,1.7-1.6,2.7-4.9,3.3c0-0.5-0.2-0.8-0.7-0.8
					v0.2c0.5,0.4,0.7,0.9,0.7,1.7c-2.7,0.8-4.1,1.4-4.1,1.6l0.4,0.5c-0.5,0.2-0.8,0.3-1.1,0.3l-0.8-0.3h-0.4v0.3h0.8v0.2
					c0,0.4-0.4,0.6-1.1,0.6c-0.5-0.2-0.8-0.3-1.1-0.3v-0.3l2.6-1.6l2.2-1.6H97v-0.5c0.7,0,1.1-0.3,1.1-0.8H97v-1.4
					c0-0.3,0.5-0.5,1.5-0.8l0.4,0.6c-0.3,0-0.7,0.3-1.1,0.8v0.2c0.4,0,0.9,0.2,1.5,0.6c0.1-0.4,0.3-0.6,0.7-0.6l1.1,0.6l0.7-0.8
					h-0.7v-0.3c0.1-0.3,0.3-0.5,0.7-0.5l0.8,0.2l3.4-3c0.3-0.9,0.7-1.4,1.1-1.4c0.5,0.2,0.8,0.3,1.1,0.3l0.4-0.5v-0.3h-1.1
					c3-2.4,4.5-4,4.5-4.6c-0.3,0-0.7,0.3-1.1,0.8c-1.5-0.1-2.3-0.3-2.3-0.5c0.3-0.6,0.9-1.2,1.9-1.9c1,0,1.5,0.5,1.5,1.4
					c1,0,2.8-2.4,5.3-7.1v-0.3h-0.4c-1.2,2-1.9,3.2-1.9,3.5h-0.8c0-0.4-0.1-0.8-0.4-1.1c0.3,0,0.7-0.1,1.1-0.2
					c-0.3-0.9-0.7-1.4-1.1-1.4c1.3-2.3,2.3-3.5,3-3.5c0,0.2,0.1,0.3,0.4,0.3l0.4-1.3l-0.8,0.2H116c0.4-2.2,1.4-3.3,3-3.3
					c0-0.5-0.4-0.8-1.1-0.8c0-0.3,0.3-3,0.8-8.1c-1.7-5.5-3.3-8.2-4.9-8.2c-23.4,15.3-36.1,22.9-38.1,22.9l-2.2-2.2v-1.3
					c1.8-1.8,5.1-3.9,9.7-6.3c6-4.8,10.7-7.7,14.2-8.7c1.1-1.7,3.3-3.3,6.3-4.9l0.8,0.2c0.7-1.1,1.2-1.6,1.5-1.6l0.8,0.3l0.4-0.5
					c-1.5-0.3-2.3-0.5-2.3-0.9c0.3,0,0.4-0.1,0.4-0.2l-0.8-0.3c0,0.2-0.1,0.3-0.4,0.3c0-0.2-0.1-0.3-0.4-0.3c0,0.5-0.2,0.8-0.7,0.8
					c0-0.2-0.1-0.5-0.4-0.8c-0.8,0.3-1.4,0.5-1.9,0.5l-1.9-0.2l0.4,0.5l-1.5,0.6L97,116c-3.8,1.4-6.7,2.6-8.6,3.5
					c-8.2,4.3-14.7,9.4-19.4,15.5c-1.9,1.9-3.8,4.5-5.6,7.6c-0.4,0-0.8,0.3-1.1,0.8c0.3,0,0.4,0.1,0.4,0.3c-0.3,0-0.8,1.3-1.5,3.8
					c-2.3,4.6-3.4,9-3.4,13.1l0.4,2.4h-0.4c1.5,5.7,3.1,8.5,4.9,8.5c1.4,1.9,5.3,3.4,11.6,4.6H75l1.9-0.3c0.5,0.3,0.7,0.9,0.7,1.7
					h-0.3v0.2c3,0.1,4.5,0.4,4.5,0.8v0.3h-0.3c-0.8-0.2-1.1-0.4-1.1-0.5c-0.5,0.2-0.8,0.2-1.1,0.2c-2.5-0.3-4.8-0.5-6.8-0.5v0.3
					c-4,0-8.3-2.3-13.1-6.8c-2.3-2.9-3.8-5.3-4.5-7.4l0.4-0.5c0-0.2-0.1-0.5-0.4-0.8l0.4-1.4l-0.4-2.4c0.3,0,0.4-0.1,0.4-0.3
					c-0.3,0-0.4-0.1-0.4-0.2c0.3,0,0.4-0.1,0.4-0.3c-0.5,0-0.8-0.2-0.8-0.5c0.2-1.7,0.4-2.5,0.8-2.5l-0.4-0.5c0.8-3.4,1.5-5.4,2.3-6
					h-0.8c1.3-2.6,2.5-3.8,3.4-3.8l-0.7-1.9c1-1.8,1.8-2.9,2.6-3l-0.3-0.5c0.5-1.3,1.8-3.3,4.1-6H67c0,0.2,0.1,0.5,0.4,0.8
					c-0.6,0.2-2.2,2.2-4.9,6H63c3-4.7,6.5-8.9,10.5-12.5v-0.2l-6.4,6V133c0-0.7,0.9-1.8,2.6-3.5h-0.3c-0.5,0.5-0.8,0.8-0.8,1.1h-0.7
					c0.8-2.5,3.1-4.7,6.8-6.6l0.8,0.3h0.3c0-0.3,0.3-0.7,0.8-1.1h-0.4c0,0.2-0.1,0.3-0.4,0.3V123l5.7-4.4c2-0.2,3-0.8,3-1.6l0.8,0.2
					c0-0.3,0.5-0.5,1.5-0.8l-0.4-0.5v-0.6c0.6,0,1.1-0.1,1.5-0.2c0,0.2,0.1,0.2,0.4,0.2l-0.4-0.5v-0.3c1,0,1.7-0.2,2.3-0.5h1.1v0.5
					c0.7,0,1.1-0.3,1.1-0.8l1.1,0.6c0-0.5,1.2-1.2,3.7-1.9c0-0.2,0.1-0.3,0.4-0.3l0.7,0.3c1.2-0.2,2.2-0.6,3-1.1v0.3
					c0.3,0,0.4-0.1,0.4-0.3c2,0,5.4,0.5,10.1,1.6c1-1.1,1.8-1.6,2.6-1.6c-1.7-2.2-2.6-4.5-2.6-6.8c0.7-3.4,1.5-5.2,2.6-5.2l0.8,0.3
					c0-1.1,1.2-2.6,3.7-4.4c0-0.5,0.8-1.1,2.3-1.6c1.5-1.4,2.3-2.2,2.3-2.4v-0.9c2.2-2,3.4-3,3.7-3h2.3c0.1-0.7,0.5-1.1,1.1-1.1h0.4
					v0.6c3.3-2.1,4.9-3.2,4.9-3.3h-0.4l-1.1,0.6v-0.3c0.8-0.6,1.1-1.1,1.1-1.3h1.1V83c5.1-3.1,8.2-4.9,9.4-5.5
					c1.6-1.2,2.7-1.9,3.4-1.9L149,75c0.1-0.3,0.3-0.5,0.8-0.5c0.1,0.3,0.3,0.5,0.7,0.5c6.8-4,13.9-7.2,21.4-9.8c2-0.4,3-0.9,3-1.3
					c-0.2-0.3-0.3-0.6-0.3-0.8h0.7v0.8h0.8l2.3-0.8l-0.4-0.5v-0.3h0.8v-0.5h-0.4c-0.8,0.3-1.5,0.5-1.9,0.5v-0.5
					c2.7-0.7,4.1-1.3,4.1-1.7h-0.4c-0.8,0.4-1.6,0.6-2.3,0.6c3.9-1.6,7.1-2.4,9.7-2.4h3.7L191.7,58z M56,155.4v1.1h0.4v-1.1H56z
					 M58.6,145.9v0.6h0.8L59,147v0.3h0.4l0.3-1.4l-0.7,0.3C59,145.9,58.8,145.9,58.6,145.9z M61.2,142.3c-0.8,1.1-1.1,1.8-1.1,2.2
					v0.2h0.4c0-0.2,0.4-0.9,1.1-2.1v-0.3L61.2,142.3L61.2,142.3z M61.9,141.3v0.2h0.4l0.4-1.1C62.2,140.4,61.9,140.7,61.9,141.3z
					 M64.9,134.4v0.6c0.6,0,0.9-0.5,1.1-1.4C65.7,133.6,65.3,133.9,64.9,134.4z M65.3,175.5h0.3c0.5,0,0.8-0.2,0.8-0.6H66
					C65.6,175,65.3,175.2,65.3,175.5z M67.2,130.9h0.7v0.3c-0.9,1.1-1.5,1.6-1.9,1.6h-0.4v-0.2C66.7,131.8,67.2,131.3,67.2,130.9z
					 M69.8,176.9v0.6c0.6,0,1.3,0.2,1.9,0.5H72v-0.3C72,177.4,71.3,177.1,69.8,176.9z M75.4,125.5v0.2h0.3c0-0.5,1-1.3,3-2.4
					l0.4-0.5h-0.4C78.4,122.7,77.3,123.6,75.4,125.5z M79.5,122.2h0.3c0.4,0,0.8-0.3,1.1-0.8h-0.4C80.3,121.4,79.9,121.7,79.5,122.2
					z M79.5,176.3h1.9v0.5h-1.9V176.3z M82.5,177.2h6v0.3c-0.9,0.2-1.4,0.2-1.5,0.2v0.3h1.1v0.5h-1.9c0-0.5-0.2-0.8-0.7-0.8
					l-1.5,1.1h-1.1c-0.5,0-0.8-0.2-0.8-0.5c0.4-0.2,1-0.3,1.9-0.3v-0.3h-1.5V177.2z M82.9,176.3h2.6v0.5h-2.6V176.3z M84.4,167.9
					h1.1v0.5h-1.1V167.9z M87.7,166.8h1.1c0.5,0.1,0.8,0.2,0.8,0.5c-1,0.4-1.9,0.6-2.6,0.6C87.5,167.5,87.7,167.1,87.7,166.8z
					 M92.6,165.7v0.6c-0.6,0-1.3,0.3-2.3,0.8c-0.5-0.2-0.8-0.3-1.1-0.3C89.3,166.4,90.4,166,92.6,165.7z M93.4,177.4h1.1
					c0,0.3,0.3,0.6,0.8,1.1h-0.8c-0.3,0-0.4-0.1-0.4-0.2l-1.9,0.2h-1.1C91.1,178.3,91.9,177.9,93.4,177.4z M93.7,176.3h0.4
					c0.3,0,0.4,0.1,0.4,0.3l0.8-0.3h0.4v0.5h-1.9L93.7,176.3L93.7,176.3z M94.5,177.2H96v0.8C95,177.7,94.5,177.4,94.5,177.2z
					 M101.2,175.2c0,0.5,0.2,0.8,0.7,0.8c0,0.2-0.1,0.3-0.3,0.3c0,0.5,0.4,0.8,1.1,0.8v0.5h-1.5c0-0.2,0.1-0.2,0.4-0.2
					c-0.3-0.3-0.4-0.6-0.4-0.8h-0.8c0,0.7-0.5,1.2-1.5,1.6h-1.1v-1.1C98.6,177.2,99.8,176.5,101.2,175.2z M99.4,159.2h0.4
					c0,0.3-0.3,0.5-0.8,0.5h-0.4C98.7,159.4,99,159.2,99.4,159.2z M103.1,176.1c1.8,0.3,2.6,0.5,2.6,0.8h-0.4l-2.6-0.2L103.1,176.1z
					 M125.5,167.9v1.1c-1.2,0.9-2.9,1.5-5.3,1.9c0,0.3-0.8,0.8-2.3,1.4l-0.3-0.6c-1,0.5-1.6,0.8-1.9,0.8v0.3h0.3l1.5-0.5v0.2
					c0,0.6-3.6,1.6-10.9,3l0.4,0.5v0.3c-0.6,0-1.1,0.1-1.5,0.3c0-0.3-0.5-0.7-1.5-1.1c0.5,0,0.8-0.2,0.8-0.6H104v-0.2l0.4-0.6
					l-0.8,0.3h-0.7c0-0.3,0.4-0.5,1.1-0.5c0-0.4-0.4-0.6-1.1-0.6v-0.5c0.8-0.2,1.7-0.3,2.6-0.3l0.3,0.6h-0.3
					c0.2,0.3,0.3,0.6,0.3,0.8l2.6-0.3l0.8,0.3c0.4-0.2,0.9-0.3,1.5-0.3v-0.3l-0.4-0.5l0.8-0.3h0.4c0,0.4,0.1,0.6,0.3,0.6
					c1.8-0.5,2.6-0.8,2.6-1.1c-0.3,0-0.4-0.1-0.4-0.3c1-0.7,1.8-1.1,2.3-1.1l1.5,0.3h0.4v-0.3h-1.1c0-0.3,0.5-0.5,1.5-0.8
					c0.5,0.2,0.8,0.3,1.1,0.3c0-0.3,0.4-0.5,1.1-0.8v0.5h0.8C122,168.5,123.3,167.9,125.5,167.9z M108.3,150.7h0.4l-1.1,1.1v0.3
					c1-0.3,1.8-0.5,2.3-0.5v0.8h-0.4l-0.8-0.3c-1.2,1.1-1.9,1.9-1.9,2.4h-0.4l-0.7-0.3c0,0.9-0.4,1.4-1.1,1.4h-0.4l1.1-1.4H105
					c-0.5,0.2-0.9,0.3-1.1,0.3c1.2-0.6,1.8-1.2,1.9-1.9L108.3,150.7z M106.1,153.2v0.2c0.5,0,0.8-0.2,0.8-0.5v-0.3
					C106.3,152.7,106.1,152.9,106.1,153.2z M106.4,112.4v0.3h1.5v-0.3H106.4z M106.4,115.1v0.2c0.3,0,0.6,0.1,1.1,0.3v-0.5H106.4z
					 M112.8,146.1c0.5,0.1,0.8,0.2,0.8,0.5v0.3c-0.5,0-0.8-0.2-0.8-0.5V146.1z M116.6,168.4c0.5,0.2,0.9,0.3,1.1,0.3v0.5l-0.8-0.3
					c-0.5,0.1-0.8,0.3-0.8,0.6l-0.7-0.3H115l0.4,0.5c-0.8,0.4-1.5,0.6-1.9,0.6c0-0.4,0.4-0.6,1.1-0.6v-0.2h-0.8
					C113.9,169.1,114.8,168.7,116.6,168.4z M151.3,75.7v-0.3H151v0.5c0.3,0,0.4,0.1,0.4,0.3c-5.8,3.3-11.8,7-18,11.2h-0.8l0.4,0.5
					c-6.5,4.5-11.1,8.8-13.8,12.8c-0.5,0-1,0.7-1.5,2.2c-0.6,2-1.1,3-1.5,3c0.5,2,0.8,3,1.1,3c0.6,0,4.2-2.3,10.8-6.8h0.8l-1.1,1.1
					h0.3c0.8-0.5,1.8-1.5,3-3c1.6-0.7,2.5-1.1,2.6-1.1l0.7,0.8c-0.4,0.2-1,0.3-1.9,0.3v0.8h0.4l2.6-1.6h0.7v0.5
					c-0.7,0-1.1,0.2-1.1,0.6h0.4c0.6-0.4,1.1-0.6,1.5-0.6l-0.4-0.5l0.4-0.5c-0.5-0.2-0.9-0.3-1.5-0.3c0.5-0.5,0.7-0.8,0.7-1.1h0.4
					l1.1,0.6v-0.3c-0.4,0-0.8-0.3-1.1-0.8c0-0.3,0.9-0.9,2.6-1.9h0.7l0.4,1.1l1.5-0.8c0,0.5,0.1,0.8,0.3,0.8c0.3,0,1.4-0.6,3.4-1.9
					h0.3v-0.5h-0.3l-1.9,1.1h-0.8c0-0.3-0.3-0.5-0.8-0.5c0.1-0.3,0.3-0.5,0.8-0.5h0.4c0.3,0,0.4,0.1,0.4,0.2
					c0.5-0.2,0.8-0.2,1.1-0.2V93c-0.7,0-1.1-0.1-1.1-0.2c0.4-1,2-2.3,4.8-3.8l0.8,0.3c0.5-0.2,0.8-0.3,1.1-0.3l-0.7,0.8v0.3l2.6-1.6
					h0.4l-1.9,1.9h0.4c0-0.2,0.1-0.2,0.4-0.2c0,0.2,0.1,0.2,0.4,0.2l2.2-1.9v-0.3l-0.7,0.3h-0.8l0.4-0.6c-0.3,0-0.4-0.1-0.4-0.2
					c0.5-0.2,0.9-0.3,1.5-0.3v-0.5h-0.3c-0.2,0-1.1,0.6-2.6,1.9h-0.4v-0.2c1.5-1.1,2.3-1.8,2.3-2.2l0.8,0.3l1.1-1.1
					c-0.3,0-0.4-0.1-0.4-0.3c1-0.3,1.9-0.5,2.6-0.5l-0.4,0.5v0.3h0.8c0-0.4,0.5-0.8,1.5-1.1v0.3c0,0.2-1.2,1.1-3.7,2.7h0.7
					c7.6-5.3,12-8.1,13.1-8.4v0.5c3-0.7,4.5-1.7,4.5-3l-0.8,0.2h-0.4v-0.2c0-0.3,0.5-0.7,1.5-1.1h0.3v0.3c-0.2,0.3-0.3,0.6-0.3,0.8
					l0.7,0.2c0-0.3,0.7-1,2.3-1.9c0-0.3,0.3-0.6,0.8-1.1h-0.4l-2.3,1.6h-0.4v-0.3l0.4-0.5H174l0.3-0.6c-0.3,0-0.7-0.3-1.1-0.8
					c4.3-3.5,7.5-5.8,9.7-6.8c0,0.3,0.4,0.5,1.1,0.8l0.7-0.8c-0.3-0.3-0.4-0.6-0.4-0.8l-0.7,0.3v-0.3c0-0.3,0.4-0.5,1.1-0.8l0.8,0.3
					c0-0.5,0.4-0.8,1.1-0.8l-0.4-0.6v-0.2h1.1v0.8h0.4l0.7-0.3v0.3c-0.2,0.3-0.3,0.6-0.3,0.8c0.3,0,0.9-0.5,1.9-1.4v-0.5l-0.8,0.3
					h-0.4l0.4-0.6l-0.8,0.3h-0.3v-0.3l0.3-0.5H188c-6.4,1-16.8,4.6-31.1,10.9C154.5,74.9,152.6,75.7,151.3,75.7z M118.8,138.5
					c0,0.7-0.4,1.1-1.1,1.1v0.6l0.7-0.3c0,0.2,0.1,0.3,0.4,0.3l0.4-1.4v-0.2h-0.4V138.5z M118,140.4c0,0.2-0.1,0.5-0.3,0.9v0.2h0.3
					c0-0.2,0.1-0.5,0.4-0.8v-0.3L118,140.4L118,140.4z M118.4,97.2c0,0.2-0.1,0.5-0.4,0.8h0.4l0.4-0.6v-0.2
					C118.8,97.2,118.4,97.2,118.4,97.2z M119.6,134.2v1.1l0.7,0.3c-0.3-0.3-0.4-0.7-0.4-1.3h-0.3V134.2z M121.8,168.2h0.3v0.6H121
					C121.1,168.3,121.4,168.2,121.8,168.2z M123.7,106.4v0.3h0.3c0.4,0,0.8-0.3,1.1-0.8h-0.8C123.9,105.9,123.7,106.1,123.7,106.4z
					 M124.4,107.2h0.4c0.3,0,0.7-0.3,1.1-0.8C124.9,106.7,124.4,106.9,124.4,107.2z M125.2,108.6h0.4c0.5,0,0.7-0.2,0.7-0.5H126
					C125.4,108.1,125.2,108.3,125.2,108.6z M126.3,104.8l-0.7,0.8h0.4c0-0.4,0.4-0.6,1.1-0.6v-0.2
					C127,104.8,126.3,104.8,126.3,104.8z M128.9,105.6v0.3c0.3,0,0.4,0.1,0.4,0.2c-0.3,0-0.4,0.1-0.4,0.3h0.4l0.4-0.5L128.9,105.6z
					 M133.8,159.7v0.3c0,0.3-0.3,0.5-0.8,0.5h-0.4C132.6,160.3,133,160,133.8,159.7z M133.8,101.2l-0.4,0.5c0.5-0.2,0.8-0.2,1.1-0.2
					v-0.3H133.8z M135.6,98.5v0.3c0,0.3-0.4,0.5-1.1,0.8v-0.8C134.8,98.8,135.2,98.7,135.6,98.5z M142.7,150.7h0.8l-0.4,0.6
					c0.5,0.1,0.8,0.2,0.8,0.5l-0.4,0.6l-0.8-0.3h-0.4c0,0.5-0.1,0.8-0.3,0.8l0.3,0.5v0.6H142c-0.3,0-0.4-0.1-0.4-0.3l-0.8,0.3h-0.4
					v-0.3l1.1-1.3v-0.3h-0.4c0,0.6-1.4,1.9-4.1,3.8h-0.4v-0.2c2.8-3,4.8-4.5,6-4.6L142.7,150.7L142.7,150.7z M138.2,98.5h1.1V98H139
					C138.5,98,138.2,98.2,138.2,98.5z M140.1,154.3h0.4v0.3l-1.5,1.1v0.2l1.5-0.8h0.4v0.6c-1,0.1-1.5,0.4-1.5,0.8
					c-0.8-0.2-1.1-0.4-1.1-0.6C138.6,155.2,139.2,154.6,140.1,154.3z M139.4,99l0.7,0.3c0.4,0,0.8-0.3,1.1-0.8h-0.4v0.3l-0.8-0.3
					C139.6,98.6,139.4,98.7,139.4,99z M144.6,95.8h1.1v-0.5h-0.4C144.9,95.3,144.6,95.5,144.6,95.8z M146.5,147.5h0.4l-0.4,0.6v0.2
					h0.4v-0.5l0.8,0.3v-0.3c-0.3-0.3-0.4-0.6-0.4-0.8C146.7,147,146.5,147.2,146.5,147.5z M154,89.3l-1.1,1.6h0.4l1.1-1.6H154z
					 M160,85.4c0,0.1-0.8,0.7-2.3,1.6v0.6h0.4c0.5,0,1.2-0.7,2.2-2.2H160z M161.4,82.7h0.4v0.6c-0.8,0-1.1,0.3-1.1,0.8H160v-0.3
					C160,83.5,160.5,83.2,161.4,82.7z M161.8,84.3v0.3c0.3,0,0.7-0.3,1.1-0.8v-0.3C162.6,83.5,162.2,83.8,161.8,84.3z M165.2,79.2
					c0.6,0.4,1.1,0.6,1.5,0.6c-0.9,1-2.3,1.9-4.1,2.7h-0.3v-0.3c0-0.2,0.7-0.7,2.2-1.6l-0.3-0.6C164.1,79.7,164.4,79.5,165.2,79.2z
					 M166.3,78.1h0.8v0.2c0,0.4-0.3,0.6-0.8,0.6H166C166.2,78.6,166.3,78.3,166.3,78.1z M173.4,73.8V74c0,0.3-0.4,0.6-1.1,0.8v-0.2
					C172.3,74.3,172.7,74.1,173.4,73.8z M176.4,73.2c0,0.3-0.4,0.7-1.1,1.1h0.4c0.4,0,0.9-0.4,1.5-1.1H176.4z M178.3,72.4h0.3
					l1.5-1.3h-0.4C179.4,71,178.9,71.5,178.3,72.4z M179.8,71.8l-1.5,1.3h1.9l0.3-1.1L179.8,71.8z M179.8,61.8l-0.8-0.3h-0.4v0.3
					c0.3,0,0.7,0.1,1.1,0.2l1.5-1.1h-0.4C180.5,61,180.2,61.3,179.8,61.8z M180.5,71.6v0.3h0.8V71C180.8,71.1,180.5,71.3,180.5,71.6
					z M183.5,60.4v0.3h0.8c0.5-0.2,0.8-0.3,1.1-0.3v-0.3H185C184.6,60.3,184.1,60.4,183.5,60.4z M186.2,66.1l-2.3,2.2h0.4l2.6-2.2
					H186.2z"/>
			</g>
			<g>
				<path class="st8" d="M245,57.8L245,57.8h0.3h1.8c0.1,0,0.2,0,0.2,0.1c0.1,0,0.1,0,0.1-0.1c2.9,0.3,5.2,1.2,6.9,2.7
					c2.8,4.1,4.2,7.8,4.2,11.1c-0.1,0.2-0.1,0.4-0.1,0.7c0.1,0.2,0.1,0.4,0.1,0.6c-0.2,0-0.3,0.1-0.3,0.3v0.1l0.3,0.5
					c-0.2,0-0.3,0.1-0.3,0.3c0,0.1,0.1,0.3,0.2,0.5l-0.2,0.8l0.2,0.6c-0.3,0.4-0.7,1.3-1,2.8c0,0.2-0.3,0.5-1,1v0.3
					c0.3,0,0.5,0.1,0.5,0.3l-2,3.7c0,0.2-0.4,0.9-1.3,2.3c-1.7,2.4-3.6,5-5.9,7.8c-1.7,1.9-2.7,2.9-3.1,3.1
					c-0.9,1.3-2.1,2.5-3.7,3.5c0.3,0.5,0.5,0.9,0.5,1.5h0.5l-0.2-0.8v-0.2h0.3c3.7,1.3,6,2.3,6.8,3.1c2.2,0.8,4.8,3.6,7.8,8.4
					c1.8,3.8,2.7,7.2,2.7,10v2.1L259,126c0.1,0.2,0.2,0.4,0.2,0.5c-0.2,0-0.3,0.2-0.5,0.5l0.1,0.3c-0.1,0.9-0.3,1.3-0.7,1.3l0.2,0.8
					l-0.5,0.3l0.1,0.3c-0.4,0.7-0.6,1.1-0.6,1.3l-0.8-0.1v0.5h0.1l0.3-0.2l0.1,0.3c-0.2,0-0.3,0.2-0.5,0.5l0.2,0.8
					c-0.5,0.1-1.2,1.3-2.3,3.5h-0.3v-0.3c-0.2,0-0.6,0.5-1.3,1.5v0.5l0.8-0.8h0.1c-0.1,0.5-0.6,1-1.3,1.6c0-0.1,0-0.1-0.1-0.1v0.3
					h0.3v0.3c-0.3,0-0.5,0.3-0.6,0.8c-0.1,0-1.1,1-3.1,3.1h-0.5l-0.1,0.8c-0.3-0.2-0.5-0.3-0.5-0.3h-0.2l0.2,0.8
					c-0.5,0.3-1,0.5-1.6,0.5v0.2c0,0.2,0.1,0.3,0.3,0.3c0-0.1,0-0.1,0.1-0.1v0.1c-0.3,0.3-0.5,0.5-0.5,0.7H246l-0.3-0.2
					c0,0.2-0.2,0.3-0.5,0.3c0,0.1,0.1,0.2,0.3,0.5v0.2c-0.2,0.3-0.8,0.8-1.8,1.3c-0.6,0.8-1.9,1.9-4,3.2c-0.2,0.3-0.8,0.8-1.8,1.3
					c-0.9,0.7-1.7,1.1-2.3,1.1l0.2,0.3h-0.2l-0.5-0.3c0,0.1,0,0.2-0.1,0.2c0-0.1-0.2-0.3-0.5-0.5c0.1-0.5,0.3-0.7,0.6-0.7v-0.3h-0.6
					l-1.3,0.7H233c-0.2,0-0.3-0.1-0.3-0.3c0.1,0,0.1,0,0.1-0.1c-0.3,0-0.5-0.1-0.8-0.3c-0.4,0.3-0.9,0.5-1.4,0.5l0.1,0.3l-0.3,0.1
					h-0.2l-0.3-0.1c0,0.5-0.4,0.8-1.3,1v0.1h-0.3l-0.3-0.1v0.1l0.2,0.3c-0.6,0.5-1.1,0.7-1.6,0.7v-0.3c0.4,0,0.6-0.1,0.6-0.3
					l-0.3-0.5v-0.1h1l-0.2-0.3l0.3-0.1c0,0.1,0.1,0.1,0.2,0.1l0.1-0.7h-0.1l-0.8,0.3l-0.2-0.3c0.3,0,0.5-0.2,0.5-0.6h0.3
					c0.1,0,0.2,0,0.2,0.1c0.2-0.1,0.4-0.1,0.6-0.1v-0.3c-0.2,0-0.3,0-0.3-0.1c-0.6,0.2-1.2,0.6-1.6,1.3c-0.3,0-0.6,0.1-0.8,0.3h-0.8
					c0,0.2-0.1,0.3-0.3,0.3h-0.1l-0.3-0.1c0,0.1,0,0.3-0.1,0.5l-0.8-0.1h-0.1l0.1,0.3c0,0.2-0.1,0.3-0.3,0.3l-0.8-0.1
					c-1.1,1.2-1.9,1.8-2.4,1.8v0.3h0.1c1.3-0.3,2-0.7,2-1H222v-0.3c0.1,0,0.3,0,0.6,0.1c0.6-0.3,1.5-0.6,2.6-0.8v0.5h-1
					c-0.3,0.3-0.7,0.5-1,0.5v0.2c1.1,0.3,1.7,0.5,1.8,0.5v0.3l-1,0.3v0.2h0.5l0.5-0.3h0.1v0.1c-0.1,0.3-0.4,0.5-1,0.5v0.3h0.1
					l0.8-0.1c0,0.2,0.1,0.3,0.3,0.3c-0.2,0.3-0.9,0.7-2.3,1.3v0.2h-0.5l-1.1,0.1V160c0.8-0.2,1.1-0.5,1.1-1h-0.2l-0.5,0.3h-0.1v-0.5
					l-2.3,0.6c0-0.1,0-0.1-0.1-0.1c0,0.1-0.1,0.1-0.2,0.1v-0.1c-0.3,0.2-0.6,0.3-0.8,0.3v0.1h0.5l0.3-0.1v0.3l-0.1,0.3l0.8-0.1h0.1
					v0.1l-1,0.1c0,0.2,0.2,0.3,0.5,0.5c0.8-0.3,1.2-0.5,1.4-0.5c0,0.3-0.5,0.5-1.4,0.8c-1.1,0.5-1.6,0.9-1.6,1
					c-0.2-0.1-0.3-0.1-0.5-0.1c-0.7,0.4-1.3,0.6-1.6,0.6h-0.3c0-0.1,0.8-0.5,2.3-1.1v-0.1h-0.3c-0.2,0.1-0.3,0.1-0.5,0.1v-0.1
					c0-0.2,0.1-0.3,0.3-0.3l0.8,0.1c0-0.1,0-0.1,0.1-0.1v0.3h0.1c0.3-0.2,0.5-0.3,0.7-0.3c0-0.2-0.2-0.3-0.5-0.3v-0.3h0.3v-0.1h-1
					c0,0.3-0.1,0.5-0.3,0.5v-0.1l-2.1,0.8l-0.5-0.3l-1.5,0.8l-0.8-0.2v0.2l0.3,0.5l-2.4,0.5l-0.1-0.3v-0.1h0.6l-0.1-0.3v-0.1h0.3
					l0.3,0.1c0-0.1,0.1-0.3,0.2-0.5c-0.1,0-0.2,0-0.2-0.1c-0.2,0-0.7,0.3-1.6,1c-0.1,0-0.4,0-1,0.1c0-0.1,0-0.1-0.1-0.1v0.3h0.3v0.3
					c-0.3,0-1.5,0.3-3.4,0.8v0.3h0.1c0.4,0,0.8-0.2,1.1-0.5h0.1l1.1,0.1c0.2-0.4,0.5-0.6,1.1-0.6l0.2,0.3c-0.1,0.2-0.2,0.4-0.2,0.5
					c0.2,0.1,0.4,0.2,0.7,0.2c0,0.2-0.1,0.3-0.3,0.3h0.5l-0.3-0.1v0.3c0.3,0,0.5,0,0.5,0.1c0,0.3-0.2,0.5-0.5,0.5v0.2h0.1l0.3-0.2
					c0.2,0.1,0.4,0.2,0.5,0.2c0-0.2,0.2-0.3,0.5-0.3c0-0.2-0.2-0.3-0.6-0.3v-0.5h0.3c0.3,0.3,0.8,0.4,1.4,0.5v-0.3h0.3l0.1,1.1v0.1
					c-0.5,0-0.8-0.2-0.8-0.5h-0.3l0.2,0.8l-1.1,0.3v-0.2l-0.3,0.2h-0.5l0.3-0.5H210c-0.6,0.1-1.1,0.1-1.4,0.1c0,0.6-0.4,1-1.1,1V167
					h0.5v-0.3c-0.4,0-0.9,0.3-1.4,0.8c-0.2,0-0.3-0.2-0.3-0.5H206c0,0.3-0.1,0.5-0.3,0.5c-0.2-0.1-0.4-0.2-0.5-0.2
					c0,0.1-0.4,0.4-1.1,0.8l-0.8-0.1H203c-0.8,0-1.4,0.1-1.8,0.3l-0.3-0.1l-0.3,0.1c-0.2-0.1-0.4-0.1-0.6-0.1c0,0.1,0,0.1-0.1,0.1
					l-0.2-0.3l0.2-0.3h-0.7c0-0.2,0.2-0.3,0.7-0.3v-0.3c-0.3,0-0.5-0.1-0.5-0.2c-0.2,0.1-0.4,0.2-0.6,0.2l0.1,0.3v0.2h-0.5
					c0-0.3-0.1-0.5-0.3-0.5h-1v-0.3H197c-0.3,0-0.5,0-0.6,0.1c-0.4-0.2-0.7-0.3-1-0.3h-0.5l-0.5,0.3v-0.5c0-0.3,0.5-0.5,1.6-0.5
					v-0.3h-1.3l-1.1-0.3v-0.2l0.2-0.3h-0.3v-0.3c0.2,0,0.6-0.1,1.1-0.3l-0.2-0.3v-0.3c0-0.2,0.1-0.3,0.3-0.3h0.1l0.3,0.1l0.1-0.3
					h-0.5c-0.1,0-0.5,0.1-1.3,0.3h-0.6l-0.3-0.1c0,0.4-0.1,0.6-0.3,0.6v-0.3c-0.1,0-0.5,0.1-1.2,0.3c0-0.2-0.1-0.3-0.3-0.3h-0.3
					c0,0.5-0.4,0.8-1.1,0.8v0.2h1.2v0.3h-0.8v0.3h0.3v0.3h-2.1c-0.3,0-0.5,0-0.7,0.1c-0.2-0.1-0.3-0.1-0.5-0.1l0.1,0.3v0.1h-0.1
					l-0.8-0.1l-0.1,0.3v0.2h0.8c0.2,0,0.3,0.2,0.3,0.5h0.2c0-0.3,0.1-0.5,0.3-0.5h0.1c0,0.2,0.1,0.3,0.3,0.5
					c0.5-0.1,0.8-0.3,0.8-0.5h-0.3v-0.2c0-0.1,0.2-0.3,0.5-0.5c0.4,0.2,0.6,0.3,0.6,0.5c-0.2,0-0.3,0.1-0.3,0.3
					c0.1,0.3,0.2,0.5,0.3,0.5l0.3-0.1c0.2,0.1,0.4,0.1,0.6,0.1v0.3h-0.1l-0.3-0.1c-0.2,0.1-0.4,0.1-0.6,0.1c0-0.2-0.1-0.3-0.3-0.3
					h-1v0.7l0.5-0.3c0.1,0.2,0.1,0.3,0.1,0.5l1.1-0.1h0.1c0.2,0.2,0.8,0.3,2,0.5l0.3-0.2h0.2v0.3h-1.6l-0.8,0.1
					c-0.2-0.4-0.3-0.6-0.5-0.6l-0.1,0.3c0.2,0,0.3,0.1,0.3,0.3l-0.3,0.2l-0.5-0.3c-0.4,0.3-0.7,0.5-1,0.5l-0.2-0.3h0.3v-0.1
					l-0.8,0.1c-0.1,0-0.5,0-1.3-0.1c0,0.1,0,0.1-0.1,0.1c-0.1-0.2-0.1-0.3-0.1-0.5c-1,0-1.7,0.3-2,1c0-0.1,0-0.2-0.1-0.2
					c0,1-0.5,1.9-1.4,2.7c0,0.5-0.2,0.8-0.5,0.8l0.2,0.3c-1.1,2.7-2.2,4-3.4,4c-0.7-1.2-1.2-1.8-1.6-1.8c0-0.3-0.3-0.6-0.8-1
					c-0.1-0.2-0.2-0.5-0.2-1h-0.1l-0.3,0.1c-0.9-1-1.3-1.9-1.3-2.7c0.2,0,0.3-0.1,0.3-0.3v-1c0-0.3,0.4-2,1.1-5.2
					c-1.2-0.6-2.1-1.2-2.6-1.8l-0.7,0.2c-1.2-0.5-2.3-1.5-3.2-3.1c-1.3-0.7-2.5-2.9-3.7-6.8c0-0.6-0.1-1.1-0.3-1.6
					c0.1-0.2,0.1-0.4,0.1-0.5h0.3c0,0.3,0,0.7,0.1,1.1h0.2l0.3-0.1l-0.2-0.3v-0.6h0.2l0.1,0.8v0.8c0,0.2-0.1,0.3-0.3,0.3V151h-0.1
					v0.3c0.5,0.2,0.8,0.8,0.8,1.8h0.1c0-0.3,0-0.5,0.1-0.5l-0.1-0.3c0-0.2,0.3-0.4,0.8-0.5v0.3c0,0.8,0.3,1.5,0.8,2.1
					c0,0.1-0.1,0.1-0.2,0.1c1.1,2.1,2.2,3.4,3.3,3.7c0.2,0.5,1.5,1.1,4,2c0.2,0.1,0.4,0.1,0.8,0.1c0.9-2,2.1-5.5,3.9-10.5
					c0.2-0.4,0.4-0.6,0.5-0.6l-0.1-0.3c0.7-2.5,1.3-3.8,1.6-4.2l-0.2-0.3c0.2-0.1,0.4-0.1,0.7-0.1V143c0.6-1.2,0.9-1.8,1.1-1.8
					l-0.1-0.3v-0.1h0.8v0.5c-0.2,0-0.5,0.2-0.8,0.5v0.5c0.2,0,0.3-0.2,0.3-0.5c0.2,0,0.3,0.1,0.3,0.3v0.3c-0.2,0.3-0.3,0.5-0.3,0.6
					h-0.3v-0.1c0.1-0.2,0.1-0.4,0.1-0.5h-0.3c-0.2,0.7-0.3,1-0.3,1.1h0.1l0.3-0.1l0.1,0.3c0,0.2-0.1,0.3-0.3,0.3h-0.5l-0.1,0.3
					l0.8-0.1c0.2,0,0.3,0.2,0.5,0.5l-0.1,0.8h-0.3V145l0.1-0.3h-0.5c-0.1,0.6-0.1,0.9-0.1,1c0.2,0.1,0.4,0.1,0.6,0.1v0.3
					c-0.4,0.5-0.6,0.8-0.6,0.8c0.2,0,0.3,0.2,0.5,0.5c-0.2,0-0.3,0.1-0.3,0.3h0.5c0-0.5,0.1-0.8,0.3-0.8h0.5v-0.1h0.1l0.5,0.3
					l0.7-1.1c-0.1-0.2-0.1-0.4-0.1-0.5h-0.2c-0.1,0-0.4,0.3-0.8,1v-0.2c0-0.1,0.1-0.1,0.2-0.1l-0.2-0.3c0.2-0.3,0.3-0.7,0.3-1
					l-0.3,0.2l-0.6-0.8c0.5-2,0.8-3.1,1-3.1c0.2,0.3,0.3,0.7,0.3,1l-0.3-0.1H185l0.1,0.8l-0.6,0.8c0.1,0.2,0.1,0.5,0.1,0.8h0.1
					c0-0.3,0.3-0.8,0.8-1.3h0.3v0.2l-0.3,0.5c0.2,0,0.3,0.2,0.3,0.6c0.3,0,0.5-0.6,0.6-1.9c0.3,0,0.7-0.8,1-2.3
					c0.1-0.3,0.3-0.5,0.6-0.5v-0.2c-0.1-0.2-0.1-0.3-0.1-0.5h0.1l-0.1-0.3v-0.1c0.4,0,0.7-0.5,0.8-1.4c0.2-0.6,0.4-1,0.7-1l0.1,0.3
					v0.2c0,0.1,0,0.1-0.1,0.1l0.1,0.3c0,0.2-0.2,0.3-0.6,0.3l0.5,0.7v0.6c-0.5,0.6-0.7,1.1-0.7,1.5l0.2,1.1c-0.2,0-0.5,0.3-0.7,1
					c0.1,0,0.3,0.1,0.5,0.2c-0.2,0.7-0.5,1.2-1,1.6c0.2,0,0.3,0.1,0.3,0.3c-0.4,0.2-0.6,0.5-0.6,1c0.5-0.2,1.5-2,3.2-5.5
					c1.1-2,1.8-3.1,2.1-3.1l-0.2-0.3V136c1.7-2.9,3.2-6.2,4.7-9.7h-0.3c-0.3,0-1,0.3-2.1,0.8l-0.3-0.2c-1.6,0.6-2.6,1-3.1,1.3h-0.3
					l-0.3-0.1c0,0.3,0,0.5-0.1,0.5l-0.3-0.2l-0.6,0.3l-0.3-0.1c-0.6,0.3-1.5,0.6-2.9,0.8c0-0.1,0-0.2-0.1-0.2c0,0.2-0.7,0.5-2.1,0.8
					c0,0.1,0,0.1-0.1,0.1h-0.8v0.3h-1.1c-1.3,0.5-2.9,0.8-5,0.8c-0.8,0-1.7-1.4-2.6-4.2c-0.3,0-0.5-0.7-0.8-2.1
					c0.5-2.8,1.2-4.2,2.1-4.2c1.4-1.3,2.3-1.9,2.8-1.9v0.1c0.2,0,0.5-0.3,0.8-1c0.3,0,0.6-0.2,1-0.5h0.1v0.3h-0.3v0.5h0.2
					c0.5,0,0.9-0.2,1-0.5v-0.1h-0.5v-0.2c0-0.2,0.2-0.3,0.5-0.5h0.1c0,0.3,0,0.5,0.1,0.5c1.2-0.3,1.8-0.8,1.8-1.4h-0.1l-0.5,0.3H183
					v-0.2c0-0.2,0.2-0.4,0.6-0.6l0.5,0.3h0.2c0-0.6,0.8-1.2,2.3-1.8c0-0.2,0.2-0.3,0.5-0.3h0.5c0-0.2,0.1-0.3,0.3-0.3
					c0.1,0.2,0.1,0.4,0.1,0.5h0.3v-0.8c0-1.9-1.5-5.3-4.4-10.2c-1.4-2.9-2.1-5.3-2.1-7.1V95c0-2.7,2.3-6.4,6.9-11.1h0.1V84l-1.8,2.1
					v0.1h0.3c1.2-1.8,2.7-3.3,4.6-4.6c0.3-0.5,2.5-2.4,6.6-5.5c5.2-3.6,9.6-6.2,13.2-7.8h0.1c0,0.1-0.3,0.3-1,0.8h0.2
					c0.5,0,0.9-0.3,1.1-0.8h-0.3c0-0.2,0.2-0.3,0.5-0.5h0.5v0.5c-0.7,0.8-1.3,1.2-1.8,1.2c0-0.1-0.1-0.1-0.2-0.1
					c0,0.6-0.5,1-1.4,1.1h-0.2v-0.3h0.5v-0.7c-0.6,0.3-1,0.7-1.3,1v0.1l0.3-0.1h0.5c0,0.3,0,0.5,0.1,0.5l2.3-1v0.3
					c0.2,0,0.3-0.1,0.3-0.3h-0.3c0-0.2,0.1-0.3,0.3-0.3l0.3,0.5c0,0.3-0.4,0.5-1.1,0.6V71h0.1c0.9-0.3,1.4-0.5,1.6-0.5v0.3
					c-0.4,0-0.6,0.1-0.6,0.3h0.8v0.1h0.3c0-0.4,0.6-0.6,1.6-0.6V71c-0.5,0-0.8,0.4-1,1.1c0.3,0.2,0.5,0.3,0.7,0.3l2.7-1.4v-0.2H217
					v-0.1c0.1,0,0.3,0,0.5-0.1l0.7,0.3c0-0.2,0.6-0.5,1.8-1v-0.1l-0.8-0.2c-0.2,0.1-0.3,0.2-0.5,0.2l-0.1-0.3
					c0.2-0.1,0.3-0.1,0.5-0.1v-0.3c-0.3,0-0.7,0.4-1.3,1.3h-0.5c0-0.2-0.1-0.3-0.3-0.3V70c0-0.2,0.1-0.3,0.3-0.3h0.1v0.5
					c0.5-0.2,0.7-0.3,0.7-0.5h-0.3V69c0.4,0,0.6-0.2,0.6-0.5c-0.2,0-0.4-0.1-0.6-0.3l-1.1,0.6c-0.2,0-0.4-0.2-0.6-0.6
					c0.2,0,0.3-0.2,0.3-0.7l0.5,0.3c0.2,0,0.3-0.4,0.5-1.1c-0.3,0-0.8,0.3-1.3,0.8l-0.3-0.1c-0.2,0.1-0.4,0.1-0.6,0.1l-0.3-0.1
					c0,0.2-0.1,0.3-0.3,0.3l-0.1-0.3c0.5-0.6,0.7-1,0.8-1l4.2-2c0.2,0,0.3,0.1,0.3,0.3c-0.8,0.3-1.1,0.5-1.1,0.6v0.2l1.8-1l0.2,0.3
					c-1.9,1-2.9,1.6-2.9,1.8l0.8-0.1h0.5V67h0.3c0-0.7,0.1-1,0.3-1h0.2l-0.2,0.8c0.4-0.3,0.8-0.5,1.1-0.5h0.5v0.2l-0.1,0.3l-0.3-0.1
					h-0.1c-0.5,0.2-0.7,0.5-0.7,1L220,68h0.3c0-0.3,1-0.7,2.9-1.1c-1.2,0.9-2.2,1.4-3.1,1.6v0.1h0.5c0-0.2,0.2-0.3,0.6-0.5l0.2,0.3
					c-0.5,0.3-0.9,0.5-1.3,0.5l0.1,0.3l-0.1,0.3h0.1l5.5-2.1h0.7c0,0.2-0.6,0.5-1.8,0.8l0.1,0.3v0.3h-0.5v-0.2l0.1-0.3h-0.1
					c-0.1,0-0.8,0.3-2.1,0.8v0.1h0.3V70h-1c0,0.2-1.1,0.8-3.4,1.8l-1,1c0-0.1,0-0.2-0.1-0.2l0.1-0.3v-0.5h-0.5v0.1l0.1,0.3
					c-0.2,0.1-0.3,0.1-0.5,0.1v0.1l0.2,0.3c-0.1,0-0.2,0-0.2,0.1l-0.3-0.1h-0.5c0,0.2,0.2,0.3,0.5,0.3v0.3c-0.4,0-0.7,0-0.8,0.1
					c-0.2-0.1-0.4-0.1-0.5-0.1c0,0.2-0.4,0.3-1.3,0.5v0.1c0.1,0.2,0.1,0.4,0.1,0.5h-0.1c-0.2-0.1-0.4-0.1-0.7-0.1h-0.1v0.1
					c0.1,0.2,0.1,0.4,0.1,0.5h-0.3c0-0.2-0.1-0.3-0.2-0.3c-0.5,0.3-0.9,0.5-1.1,0.5c0-0.1-0.1-0.2-0.2-0.2c0,0.2-0.1,0.3-0.3,0.3
					l-0.5-0.3c-0.2,0-0.3,0.2-0.5,0.5h0.2c0.2-0.1,0.3-0.1,0.5-0.1l0.3,0.5c-0.3,0-0.7,0.4-1.3,1.1h-0.2v-0.5h-0.5
					c-0.2,0.1-0.3,0.2-0.3,0.3c0.1,0.2,0.1,0.4,0.1,0.7c-0.2,0-0.3-0.2-0.3-0.5c-0.3,0.2-0.5,0.3-0.6,0.3v0.3h0.3
					c0,0.2-0.3,0.4-0.8,0.6l-0.5-0.3c-0.2,0-0.3,0.1-0.3,0.3h0.3v0.2c-1.6,1.2-2.8,2-3.5,2.3c0,0.2-0.2,0.3-0.5,0.5L202,81h-0.2v0.1
					h0.3l-1.8,1.4c-0.2,0-0.3-0.1-0.3-0.3c0.5,0,0.7-0.1,0.7-0.3H200c0,0.2-0.1,0.3-0.3,0.3v0.3l0.1,0.3c-1.5,1.2-2.8,2.3-3.9,3.1
					c-0.8,0.9-1.6,1.6-2.3,1.9c-1.3,1.4-2,2.1-2.1,2.1c-1.3,1.5-2.6,3.1-3.8,4.7c-1.4,2-2.1,4.2-2.1,6.6c0,1.8,1.2,5,3.5,9.5
					c0.1,0.7,0.4,1.1,1,1.1c2-1.2,3.8-2.2,5.5-2.9h0.1l0.5,0.3c0-0.6,1.9-1.5,5.8-2.8c0-0.1,0.4-0.2,1.1-0.5
					c0.2,0.1,0.3,0.2,0.5,0.2c0-0.2,0.1-0.3,0.3-0.3h0.5v0.3h0.2c0.2,0,0.3-0.1,0.3-0.3v-0.1h-0.3c0-0.2,0.9-0.5,2.6-1
					c0-0.3,1.1-2.8,3.2-7.2c1-1.6,2.1-4,3.5-7.4c1.5-2.9,2.3-4.4,2.3-4.5c0.2,0,1.2-2,3.2-5.8c0.2,0,0.6-0.3,1.3-0.8l0.3-0.1
					c1.1,0,1.8,0.9,2.4,2.7c0.2,0,0.3,0.2,0.5,0.5c-0.1,0.2-0.1,0.4-0.1,0.5c0.6,0.5,1,0.9,1,1.1c-2.9,5.3-5.5,10.4-7.7,15.1
					c0,0.4-0.5,1.4-1.4,3.1c0,0.2-0.2,0.3-0.5,0.3v0.3l0.3-0.1l0.3,0.1c1.9-0.4,3.1-0.6,3.7-0.6c0,0.1,0.1,0.1,0.2,0.1
					c0-0.2,0.2-0.3,0.5-0.5h0.5l0.6,0.5c0.2-0.4,0.3-0.6,0.5-0.6s0.3,0.2,0.5,0.5c-0.3,0.2-0.7,0.3-1,0.3v0.1h0.2l0.8-0.1l0.8,0.1
					c0-0.2,0.1-0.3,0.3-0.3c0.1,0,0.1,0.1,0.1,0.2l2.1-0.5l0.3,0.1c0.6-0.2,1-0.4,1-0.7V101h-0.1v0.3h-0.5V101
					c0-0.3,0.8-0.5,2.4-0.6l0.3,0.1c1-0.4,2.1-1.2,3.4-2.3c0.5,0,1.2-0.6,2.3-1.9c3.2-2.3,7.1-6.4,11.9-12.1
					c4.6-6.4,7.2-11.6,7.8-15.6h0.1c0-0.1,0-0.1-0.1-0.1c0.2-0.8,0.3-1.4,0.3-2V66c-0.3-0.8-1.5-1.5-3.4-2.1c-2.6-0.3-4-0.6-4.2-0.8
					l-0.5,0.3h-0.1c-0.2,0-0.3-0.1-0.3-0.3v-0.2c0.4,0,0.7,0,0.8-0.1l-0.1-0.3v-0.1h0.3l1-0.2c0.2,0.1,0.4,0.2,0.6,0.2l0.1-0.3
					c-0.8,0-1.6-0.2-2.5-0.5c0,0.2-0.1,0.3-0.3,0.3H246c-0.1,0-0.2-0.1-0.2-0.2l-0.3,0.2h-0.1v-0.3l1.6-0.1h0.6l0.3,0.1v-0.1
					c-0.1-0.2-0.1-0.4-0.1-0.7c0.2,0,0.3-0.1,0.3-0.3v-0.1H248l-0.7,0.5H247v-0.3l0.8-0.1v-0.1c-0.3,0-0.7-0.2-1.1-0.5l-0.5,0.3
					c-0.5-0.2-0.8-0.4-0.8-0.6l0.3-0.1h0.3c0.3,0,0.5,0,0.7,0.1c0.2-0.1,0.4-0.1,0.6-0.1c0.3,0.2,0.6,0.3,0.8,0.3l0.1-0.3
					c-0.2-0.2-0.6-0.3-1.1-0.3V59l0.1-0.3h-1.1c0,0.3-0.1,0.5-0.3,0.5V59c-0.5,0.2-0.8,0.3-1,0.3c-0.1-0.4-0.6-0.6-1.5-0.6
					c0,0.2,0.3,0.3,0.8,0.3c0,0.2-0.1,0.3-0.3,0.3c-0.7-0.1-1.2-0.3-1.6-0.6v0.5c0.1,0,0.5,0.2,1,0.5c0.2-0.1,0.4-0.1,0.6-0.1
					l0.3,0.1c0.2-0.1,0.4-0.1,0.7-0.1l0.3,0.5c-0.1,0-0.1,0-0.1,0.1l-0.3-0.2h-0.1c0,0.3-0.1,0.5-0.3,0.5s-0.3-0.2-0.5-0.7
					c-0.5,0.2-0.9,0.3-1.1,0.3l-0.3-0.1c-0.2,0.1-0.4,0.1-0.7,0.1l-0.1-0.3l0.3-0.1h0.3l0.3,0.1v-0.1c0-0.2-0.6-0.4-1.9-0.7
					c0,0.2-0.1,0.3-0.3,0.3S240,59.2,240,59v-0.1c0.3,0,0.5-0.1,0.5-0.3h-0.1c-0.2,0.1-0.3,0.2-0.5,0.2l-0.1-0.3
					C240.1,57.9,241.8,57.8,245,57.8z M166.6,150.7h0.5c0.2,0,0.3,0.1,0.3,0.3c-0.1,0-0.3,0.2-0.6,0.7l-0.1-0.3L166.6,150.7
					L166.6,150.7z M170.3,158.1v0.3c0.5,0,0.8,0.2,0.8,0.5h0.3v-0.3c-0.2,0-0.5-0.2-0.8-0.5H170.3z M171.7,159.1
					c0,0.7,1.4,1.5,4.2,2.4c0-0.2-0.7-0.5-2-1v-0.3l1.6,0.5h0.3v-0.1c-0.3,0-1.8-0.5-4.2-1.6L171.7,159.1L171.7,159.1z M173.3,162.1
					h0.1c0.2,0.1,0.3,0.2,0.3,0.3v0.2h-0.1c-0.2,0-0.3-0.1-0.3-0.3V162.1z M175.3,161.9v0.3L175,162h-0.2v0.2l0.8,0.1l-0.1-0.3
					c0.1,0,0.1,0,0.1-0.1H175.3z M180.4,156.1c-0.4,1.2-0.7,1.9-1,1.9c0-0.1-0.1-0.1-0.2-0.1c0.1-0.5,0.2-0.8,0.5-0.8
					c-0.1-0.2-0.1-0.3-0.1-0.5c-0.1,0-0.4,0.5-0.8,1.4v0.3h0.3l0.3-0.1l0.1,0.3c-0.2,0.1-0.3,0.2-0.3,0.3c0,0.2,0.1,0.3,0.3,0.3
					l0.5-1l0.3,0.1c0.2,0,0.3-0.2,0.5-0.5l-0.5-0.8l0.5-0.6L180.4,156.1z M179,159.8v0.3h0.1c0.2,0,0.3-0.1,0.3-0.3H179z
					 M180.1,119.9l-0.5,0.7h0.1c0.3-0.2,0.5-0.3,0.7-0.3C180.4,120,180.3,119.9,180.1,119.9z M179.6,127.7L179.6,127.7l0.5,0.1
					c0.2,0,0.3-0.1,0.3-0.3h-0.3C179.9,127.6,179.7,127.7,179.6,127.7z M179.6,153.2v0.2c0.2,0,0.3-0.1,0.3-0.3V153
					C179.7,153,179.6,153.1,179.6,153.2z M179.9,159.2v0.1h0.3v-0.5C180.1,158.9,179.9,159,179.9,159.2z M180.6,153.9v0.1h0.3
					l-0.1,1.1h0.3c0-0.4,0.1-0.7,0.3-1v-0.3L180.6,153.9L180.6,153.9z M180.8,152.7v0.2h0.1c0.2,0,0.3-0.1,0.3-0.3v-0.1H181
					C180.9,152.5,180.8,152.6,180.8,152.7z M180.9,119.3L180.9,119.3l0.3,0.1c0.2,0,0.3-0.1,0.3-0.3V119h-0.3
					C181,119,180.9,119.1,180.9,119.3z M181.2,156v0.1l0.1,0.8h-0.5v0.3h0.5c0-0.3,0.2-0.6,0.5-1v-0.5h-0.1
					C181.5,155.9,181.3,156,181.2,156z M181.2,151.4c0,0.1-0.1,0.3-0.2,0.5l0.3,0.1c0-0.1,0-0.3,0.1-0.5L181.2,151.4z M183.5,151
					c0,0.5-0.2,0.7-0.5,0.7l0.1,0.3v0.5c0,0.2-0.1,0.3-0.3,0.3l-0.1-0.3c0.1-0.2,0.1-0.4,0.1-0.7h-0.3l-0.2,0.8
					c-0.3,0-0.5-0.3-0.5-0.8h-0.1c0,0.3-0.2,0.8-0.5,1.4l0.3,0.2h0.3c0-0.3,0.2-0.6,0.7-0.8v1l-1.1,1.4v0.2c0.2,0,0.4,0.2,0.7,0.5
					c0.5-0.6,1.1-2.1,1.8-4.5L183.5,151z M201.5,114.8c0,0.3-0.5,0.6-1.5,1h-0.1l0.3-0.5v-0.2h-0.3c-0.2,0-0.3,0.2-0.5,0.5v0.2h0.5
					c-0.1,0.3-0.4,0.5-1,0.5V116h0.3v-0.1h-0.5c0,0.3-0.4,0.8-1.3,1.3h-0.8c0,0.3-0.5,0.7-1.5,1.1l-0.3-0.1l-2.9,1.8
					c0,0.2-0.2,0.3-0.5,0.3v0.1h0.3v0.3h-0.3v0.1c0,0.2,0.1,0.3,0.3,0.3h0.5l0.3-0.2l0.1,0.3l-1.3,0.5v0.8c0,0.1,0,0.1-0.1,0.1
					c0.1,0.5,0.2,0.7,0.3,0.7c0.3,0,1.1-0.2,2.1-0.7l0.5,0.8l-0.3,0.2c-0.1-0.2-0.1-0.4-0.1-0.5h-0.3c-0.1,0-0.3,0.2-0.5,0.5h0.2
					c0.2-0.1,0.3-0.2,0.5-0.2v0.3c-0.5,0-1,0.2-1.5,0.6h-0.8c0,0.3-0.1,0.5-0.3,0.5c-0.1,0-0.1-0.1-0.1-0.2
					c-1.1,0.3-1.8,0.6-2.1,0.8c-0.2-0.1-0.4-0.1-0.7-0.1c0,0.1-0.6,0.4-1.8,0.8c0-0.1,0-0.1-0.1-0.1c0,0.2-0.1,0.3-0.3,0.3
					c-0.1,0-0.1-0.1-0.1-0.2c-1.6,0.3-3,0.7-4.2,1.1h-0.1v0.1h0.8l0.6-0.3l0.3,0.1c0.5-0.2,0.9-0.3,1.1-0.3v0.3l-1.5,0.3v0.1h0.3
					c0.6-0.1,1.1-0.1,1.6-0.1c0,0.1,0,0.1,0.1,0.1c0-0.3,0.2-0.5,0.5-0.5v-0.1c-0.1,0-0.3-0.1-0.5-0.2c0,0.1,0,0.2-0.1,0.2v-0.3
					c1.2-0.3,2-0.5,2.3-0.7h0.5v0.2l-0.3,0.5c0.2,0,0.3,0.1,0.3,0.3c-0.1,0-0.1,0-0.1,0.1h0.3c0-0.3,0.4-0.6,1.3-1.1
					c-0.2,0-0.3-0.1-0.3-0.3c0.3,0,0.6-0.1,0.8-0.3h0.2v0.3c0.3,0,0.8-0.2,1.3-0.7c0.2,0,0.3,0.1,0.3,0.3c-0.1,0-0.1,0-0.1,0.1
					l0.3,0.2h0.1c0-0.3,0.2-0.6,0.5-0.8c0.5,0,1,0.3,1.6,1h-0.3c-0.2,0-0.3-0.1-0.3-0.3c-0.6,0-1.1,0.3-1.4,0.8
					c-0.4,0-0.6,0.1-0.6,0.3h0.1c0.2-0.1,0.4-0.1,0.6-0.1l0.2,0.3c-0.6,0.3-1,0.5-1,0.7v0.1l1.2-0.6c-0.1-0.2-0.1-0.4-0.1-0.5l1-0.5
					c0,0.2,0.1,0.3,0.3,0.3c0.2-0.1,0.3-0.1,0.5-0.1c0,0.2,0.1,0.3,0.3,0.3v-0.2l-0.2-0.3h0.3l0.5,0.3h0.3c-0.4-0.5-0.6-0.8-0.6-0.8
					v-0.1h0.3V125l-1.1-0.1c0,0.2-0.1,0.3-0.3,0.3l-0.3-0.5c0.4,0,0.7-0.1,1-0.3l0.5,0.3h0.3c0-0.3,0.7-0.5,2-0.7v0.3
					c-1.2,0-1.8,0.5-1.8,1.4l0.3,0.1h0.2c0-0.1,0-0.3,0.1-0.5l0.3,0.2h0.3l-0.2-0.3c0.2-0.4,0.5-0.6,0.8-0.6l0.3,0.1h0.1v-0.1H197
					c0-0.2,0.1-0.3,0.3-0.3h0.5v0.3h0.2l0.6-0.5c-0.1-0.2-0.1-0.3-0.1-0.5c-0.7,0.2-1.1,0.3-1.3,0.3l-0.2-0.3v-0.1
					c1.6,0,2.5-0.8,2.8-2.4l-0.3-0.2c-0.4,0.3-0.8,0.5-1.1,0.5c-0.2,0-0.3-0.1-0.3-0.3c0.9-0.5,1.4-0.9,1.6-1.1
					c0.2,0.1,0.4,0.1,0.5,0.1l-0.1-0.3l0.6-0.5l0.3,0.1c0-0.4,0.6-1.9,1.9-4.7v-0.3c-0.2,0.1-0.3,0.1-0.5,0.1L201.5,114.8z
					 M181.7,118.9h0.3l0.3-0.1h0.5c0-0.5,0.5-0.8,1.5-1v-0.2H184v-0.3c0.2,0.1,0.3,0.2,0.5,0.2c0.5,0,0.9-0.2,1-0.7h-0.3v-0.1
					c1.2-0.7,1.8-1.1,1.8-1.3h-0.1c-0.9,0.3-1.9,0.9-2.9,1.6c-0.5,0-1.2,0.6-2.1,1.8v0.1H181.7z M181.7,150v0.2h0.1l0.2-0.7
					C181.8,149.5,181.7,149.7,181.7,150z M181.9,151.2v0.5h0.2c0.2,0,0.3-0.1,0.3-0.3v-0.1L181.9,151.2L181.9,151.2z M182.3,116.6
					h0.2v0.1c0,0.2-0.1,0.3-0.3,0.3l-0.1-0.3L182.3,116.6z M182.1,127.8L182.1,127.8l0.6,0.1v-0.1H182.1z M182.2,144.6v0.1
					c0.2,0,0.3-0.1,0.3-0.3v-0.1C182.3,144.3,182.2,144.4,182.2,144.6z M182.2,145.2c0,0.2,0.1,0.3,0.3,0.3c0-0.2,0.1-0.4,0.3-0.6
					v-0.2h-0.1C182.5,144.7,182.4,144.9,182.2,145.2z M182.7,148.6c0,0.4-0.1,0.6-0.3,0.6v0.2c0,0.2,0.2,0.3,0.5,0.5
					c0.2-0.5,0.3-0.9,0.3-1.1l-0.3-0.1L182.7,148.6L182.7,148.6z M182.7,151.3v0.1h0.3V151C182.8,151,182.7,151.1,182.7,151.3z
					 M182.8,125.4L182.8,125.4l0.7,0.1c0.2-0.1,0.3-0.1,0.5-0.1l-0.1-0.3C183.4,125.3,183.1,125.4,182.8,125.4z M182.8,148.1v0.3
					h0.5v-0.3H182.8z M183.3,128.1v0.1c0.7,0.2,1.1,0.3,1.3,0.3v-0.7h-0.1L183.3,128.1z M183.5,149.4c0.1,0.2,0.1,0.4,0.1,0.6h0.3
					l0.5-0.3c-0.1-0.2-0.1-0.3-0.1-0.5h-0.5L183.5,149.4z M183.6,119.4c0,0.2,0.1,0.3,0.3,0.3h0.1c0.2,0,0.3-0.1,0.3-0.3v-0.1
					L183.6,119.4z M190.2,120.6l-0.5,0.8c0.1,0.2,0.1,0.3,0.1,0.5l-0.3,0.1c0-0.1-0.1-0.1-0.2-0.1l0.2-0.3c0-0.2-0.1-0.3-0.3-0.3
					c0,0.2-0.1,0.3-0.3,0.3h-0.1l-0.3-0.1c0,0.3-0.7,0.8-2.1,1.2c-1.6,1-2.5,1.7-2.5,2v0.1h0.1l0.6-0.5l0.5,0.3
					c0-0.2,0.1-0.3,0.3-0.3h0.2v0.3c0,0.2-0.2,0.3-0.7,0.3v0.1h0.5c0.7,0,1.3-0.4,1.8-1.1c1-0.1,1.4-0.3,1.4-0.6
					c0-0.2,0.2-0.3,0.5-0.5l0.1,0.3l-0.1,0.3c0.4,0,0.7,0.1,1,0.3c0.2,0,0.4-0.5,0.8-1.6c-0.2,0-0.3-0.2-0.5-0.5
					c0-0.1,0.1-0.1,0.2-0.1c-0.1-0.2-0.2-0.4-0.2-0.5c0.1-0.2,0.2-0.4,0.2-0.5L190.2,120.6L190.2,120.6z M184,116.1L184,116.1
					l0.3,0.1c0-0.2,0.2-0.3,0.5-0.3v-0.3C184.4,115.9,184.1,116.1,184,116.1z M184.1,89.3v0.2h0.3V89
					C184.2,89,184.1,89.1,184.1,89.3z M184.6,138.9h0.2v0.1c0,0.2-0.2,0.3-0.5,0.5l-0.2-0.3L184.6,138.9z M184.3,118.1v0.2h0.5
					l0.3-0.5v-0.2C184.7,118,184.5,118.1,184.3,118.1z M184.9,143.9l-0.1,0.3h0.5C185.3,144,185.1,143.9,184.9,143.9z M184.9,87.9
					v0.3h0.1c0.2,0,0.3-0.2,0.5-0.5v-0.2C185.3,87.8,185.1,87.9,184.9,87.9z M185.3,134.1c0.2,0,0.3,0.1,0.3,0.3v0.5
					c0,0.1-0.1,0.1-0.2,0.1l0.2,0.3v0.1h-0.3l0.1,0.3c0,0.1,0,0.2-0.1,0.2l0.1,0.3c0,0.2-0.1,0.3-0.3,0.3H185v-0.1
					C185.1,135,185.3,134.2,185.3,134.1z M185.1,125.7v0.2c0.5-0.1,0.8-0.2,1.1-0.2v-0.3h-0.5C185.5,125.6,185.3,125.7,185.1,125.7z
					 M185.1,127.9l0.7,0.2l0.1-0.3l-0.3-0.1h-0.2C185.2,127.7,185.1,127.8,185.1,127.9z M186.7,119.8c0,0.2-0.4,0.6-1.3,1.1v0.2h0.3
					c0-0.3,0.5-0.7,1.6-1v-0.3L186.7,119.8L186.7,119.8z M186.1,141.5c0,0.3,0,0.5,0.1,0.6l-0.6,0.5l-0.2-0.3v-0.2l0.3,0.2
					c0-0.1,0-0.2,0.1-0.2l-0.1-0.3C185.8,141.6,185.9,141.5,186.1,141.5z M185.9,133.1v0.5c-0.2,0-0.3-0.1-0.3-0.3L185.9,133.1z
					 M185.6,166.3v0.1h0.6v-0.1H185.6z M185.7,126.8v0.5h0.1c0.2,0,0.3-0.2,0.5-0.5H185.7z M186.2,131l0.3,0.5
					c-0.2,0.3-0.3,0.5-0.3,0.7h-0.3v-0.8C185.9,131.1,186,131,186.2,131z M186.1,117.8v0.3l0.6,0.2c0-0.2-0.2-0.3-0.5-0.5H186.1z
					 M186.2,116.2v0.5c0.2,0,0.3-0.2,0.5-0.5H186.2z M186.4,129.9h0.3v0.8h-0.1c-0.2,0-0.3-0.1-0.3-0.3
					C186.3,130.2,186.4,130,186.4,129.9z M186.2,163.7v0.3h1.4c0-0.2-0.1-0.3-0.3-0.3H186.2z M186.4,128.3h0.2
					c0.2,0,0.3-0.1,0.3-0.3h-0.1C186.5,128,186.4,128.1,186.4,128.3z M186.7,150.5c0,0.2-0.1,0.4-0.3,0.7v0.1c0.2,0,0.5-0.3,0.7-0.8
					H186.7L186.7,150.5z M186.6,114.4v0.3h0.1c0.2,0,0.3-0.1,0.3-0.3H186.6z M186.6,152.7v0.5c0.2,0,0.3-0.1,0.3-0.3v-0.2H186.6z
					 M187.4,150.7c0,0.7-0.2,1.1-0.7,1.1l0.1,0.8c0.2,0,0.5-0.6,1-1.8l-0.3-0.1H187.4z M186.7,163.1v0.3h0.7v-0.3H186.7z
					 M230.2,109.6h-0.5c0,0.3-0.5,0.6-1.4,0.8c0,0.3-0.9,1-2.6,2.1c-0.2,0-0.4,0.2-0.6,0.6c-2.7,1.2-4.8,2.5-6.5,3.9
					c-0.3,0-1.7,0.7-4.2,2.1c-0.7,0-2.4,0.9-5.3,2.6c-0.2-0.1-0.4-0.1-0.5-0.1c-0.3,0.5-0.9,0.9-1.6,1.1c-1.3,2.6-2.5,4.6-3.5,6v0.3
					l0.3-0.2v0.3c0,0.2-0.2,0.3-0.5,0.5h-0.5c0,0.3-0.3,0.8-0.8,1.3l0.1,0.3c-0.3,0.5-0.5,0.9-0.5,1.3h-0.1l-0.3-0.2
					c0,0.7-0.3,1.2-0.8,1.6c0.2,0,0.3,0.3,0.5,0.8l-0.3,0.1l-0.3-0.1v0.1c0.1,0.2,0.1,0.4,0.1,0.5c-0.2,0-0.3,0.2-0.5,0.5
					c0.1,0.2,0.1,0.4,0.1,0.5c-0.2,0.5-0.3,0.7-0.5,0.7v-0.2c-0.2,0.1-0.3,0.2-0.5,0.2l0.1,0.8c0,0.5-0.4,1-1.1,1.8l0.3,0.5
					c-0.7,0.3-1,0.8-1,1.6c-0.2,0-0.5,0.4-1.1,1.3c0.1,0.2,0.1,0.4,0.1,0.7c-0.5,0.2-0.8,0.3-1,0.3v0.5c0,0.6-0.2,1-0.6,1.1l0.1,0.3
					c-0.5,0.6-1.4,2.2-2.7,4.8l-1.3,2.3l0.3,0.8c-0.3,0-0.6,0.3-1,0.8l0.2,0.3v0.1c-0.5,0-0.7,0.3-0.7,1c0.1,0,0.2,0,0.2,0.1
					l-0.7,0.8c0-0.1,0-0.2-0.1-0.2c0,0.5-0.2,0.8-0.5,0.8l0.1,0.3v0.1h-0.3v0.2l0.2,0.3c-0.3,0.1-0.6,0.5-0.8,1.1h-0.1l0.1,0.3
					l-0.3,0.1l0.2,0.3v0.1l-0.3-0.1h-0.1c0,0.4-0.1,0.6-0.3,0.6v0.2h0.3v0.1l-0.2,0.3c0.5,0.1,0.8,0.3,0.8,0.6h-0.5
					c-0.1,0-0.1,0-0.1-0.1c-0.2,0.1-0.4,0.1-0.5,0.1v0.3h2.9v-0.1c-0.3,0-0.8-0.3-1.6-0.8v-0.3h1v0.1l-0.2,0.3c0.5,0,0.9,0,1.3,0.1
					c0.2-0.4,0.3-0.6,0.5-0.6h0.2v0.1l-0.2,0.3v0.1h0.2v-0.3c0,0,0.2,0.1,0.5,0.3h1.1c0.6-0.4,1-0.6,1.3-0.6v0.3h-0.3v0.3
					c0.8-0.3,1.2-0.5,1.3-0.5c0.2,0.1,0.4,0.2,0.5,0.2c0-0.2,0.1-0.3,0.3-0.3h0.3c0.3,0.2,0.6,0.3,1.1,0.3v0.3c-0.6,0-1,0.2-1,0.7
					c0.1,0,0.3,0,0.5,0.1l1-0.5v0.2l0.3-0.2c0.2,0,0.3,0.1,0.3,0.3v0.1c-0.3,0-0.5,0.1-0.5,0.3v0.1c0.1,0,0.3,0,0.5-0.1l1,0.1v0.2
					l-0.6,0.1v0.1h0.3c0.2-0.1,0.4-0.1,0.5-0.1v0.3c-0.2,0-0.4,0.1-0.6,0.3l-1.4-0.2v0.2c0,0.5,0.3,0.8,1,0.8c0-0.2,0.1-0.3,0.3-0.3
					h0.3l-0.5,0.8h0.2l1.1-0.1c0.2,0.5,0.3,0.7,0.5,0.7c0.1,0,0.3-0.1,0.5-0.2l0.8,0.2l0.3-0.2c0.2,0.1,0.3,0.2,0.5,0.2l-0.1-0.3
					v-0.2h0.6c0.5,0.3,0.9,0.5,1.3,0.5v-0.3c-0.3,0-0.5-0.2-0.5-0.5H203c-0.3,0-0.5-0.1-0.7-0.2c-0.4,0.2-0.7,0.3-1,0.3v-0.3h0.5
					v-0.3c-0.3,0-0.5-0.1-0.5-0.2l-0.3,0.2l-0.8-0.2c0-0.3,1-0.5,2.9-0.5v0.5H202v0.2l1.1,0.1c0.1,0,0.5-0.1,1.3-0.3h0.1
					c-0.1,0.3-0.4,0.5-1,0.5c0,0.2,0.3,0.4,0.8,0.7l0.8-0.2v0.2c0.2-0.1,0.8-0.2,1.8-0.3l0.3,0.1c1.4-0.4,2.1-0.7,2.1-0.8
					c-0.3,0-0.5-0.1-0.5-0.3s0.2-0.3,0.7-0.3v0.5h-0.3c-0.4,0.2-0.6,0.3-0.6,0.5l-0.8-0.1l-0.8,0.1v-0.3c1.5-0.1,2.3-0.4,2.3-0.8
					c-0.8,0.2-1.2,0.3-1.3,0.3l-0.1-0.3c-0.9,0.5-1.9,0.8-3.3,0.8v-0.3c0.3,0,0.7,0,1.1-0.1v-0.3h-0.5l-0.8,0.2v-0.3h0.3v-0.5
					l-0.3,0.1h-0.3v-0.1c0-0.1,0.5-0.5,1.6-1.1c0.1,0,0.1,0.1,0.1,0.2l0.3-0.2h0.1c0,0.3,0.1,0.5,0.3,0.5l0.3-0.5h-0.7
					c0-0.2,0.2-0.3,0.5-0.3l0.3,0.1l0.3-0.1l1.1,0.5c0-0.3,0.3-0.4,0.8-0.5v0.1c0.6-0.2,1.2-0.5,1.6-1l0.3,0.1h0.5
					c0.4-0.3,1-0.5,1.8-0.5c0,0.2-0.2,0.3-0.5,0.3v0.3l0.8-0.2h0.5c0-0.2,0.2-0.3,0.5-0.3l-0.2-0.3v-0.3c0.2,0,1-0.4,2.6-1.1v-0.3h0
					c-0.5,0.3-0.8,0.5-1.1,0.5v-0.2c0-0.2,0.2-0.3,0.5-0.3V158c-1.5,0.5-2.4,0.9-2.7,1.1l-0.3-0.2c0,0.2-0.2,0.3-0.5,0.5h-0.3V159
					h-0.3l0.1,0.3v0.2H212c-0.2,0-0.3-0.1-0.3-0.3V159h0.3v-0.3h-0.1c-0.6,0.9-1.4,1.3-2.3,1.3l-0.2-0.3c0.2,0,0.5-0.2,1.1-0.6
					c0.2,0.1,0.3,0.1,0.5,0.1c0-0.2,0.4-0.5,1.1-1l0.8,0.1h0.3c0-0.4,0.3-0.6,1-0.6l-0.1-0.3l0.3-0.1h0.1v0.5h0.6
					c0.3-0.2,0.5-0.3,0.7-0.3l-0.2-0.3V157l0.3,0.1h0.2c0.5-0.3,0.8-0.5,0.8-0.6c-0.1,0-0.1-0.1-0.1-0.2l0.3-0.1l0.3,0.1l0.8-0.5
					h0.2v0.2l-0.3,0.5h0.3c0.2,0,0.3-0.2,0.5-0.5c-0.1,0-0.2-0.1-0.2-0.2c0.4-0.2,0.8-0.3,1.3-0.3h0.2l0.3,0.1c1.3-1.1,2-1.6,2-1.8
					h0.5c0.1,0,0.1,0,0.1,0.1c0.5-0.4,0.8-0.6,1-0.6L224,153c0-0.2,0.1-0.3,0.3-0.3h0.6l0.3,0.2l0.1-0.3l-0.1-0.3l0.8,0.2
					c0.7-0.5,1.1-0.8,1.1-1.1c0.2,0,0.5-0.2,0.8-0.5h0.5c0.3-0.1,0.5-0.3,0.5-0.6c0.3,0,0.8-0.1,1.3-0.3l0.3,0.1l0.3-0.1
					c0.2,0.1,0.3,0.1,0.5,0.1h0.1V150h-0.3v-0.2c0.5-0.5,0.8-0.8,0.8-1l0.3,0.2c0-0.3,0.4-0.7,1.1-1.1v-0.1h1l-0.2-0.3
					c1.2-0.9,1.8-1.3,1.8-1.4h0.2c0.2,0,0.3,0.1,0.3,0.3l-0.3,0.7c0.2,0,0.3,0.1,0.3,0.3v0.1c-0.4,0-0.7,0.1-1,0.3v-0.3h-0.1
					c-0.2,0-0.3,0.1-0.3,0.3v0.1l0.3-0.1h0.1l-1.6,1.4h0.3c0.9-0.5,1.3-0.8,1.3-1l0.8,0.1h0.1V148H236v-0.3c0.2,0,0.3-0.1,0.3-0.3
					h0.2c0.3,0.2,0.5,0.3,0.6,0.3c0.2-0.1,0.4-0.2,0.5-0.2v-0.1h-0.5V147c0.9-0.2,1.3-0.4,1.3-0.8c0-0.2,0.3-0.5,0.8-1v-0.1h-0.1
					c-0.2,0.1-0.4,0.1-0.5,0.1c0-0.2-0.1-0.3-0.3-0.3c0,0.2-0.2,0.4-0.7,0.5c0,0.2-0.1,0.3-0.3,0.3h-0.2v-0.1l0.3-0.5V145h-0.3v-0.3
					c0.2,0,0.6-0.2,1.1-0.7h0.1v0.2l-0.1,0.3h0.5v-0.1l-0.3-0.5c6-5.3,9.7-9.1,11.1-11.4l2.3-3.5c0-0.3,0.6-1.6,1.8-4.2
					c0-0.9,0.2-1.3,0.7-1.3l-0.2-0.3l0.3-0.5v-0.3c0-0.6,0.2-2.3,0.5-5c0-1.1-0.5-2.1-1.6-2.7v-0.3h0.3c-1.2-1.4-2.1-2.1-2.7-2.1
					l0.1-0.3c-0.4-0.4-1.1-0.7-2.1-0.8c0-0.2-0.3-0.5-1-0.8v0.1l-0.3-0.1l-0.3,0.1v-0.1l0.1-0.3c-0.5-0.1-0.8-0.3-0.8-0.6H246
					c-0.3,0-0.5-0.2-0.5-0.7c-0.1,0-0.3,0.1-0.5,0.2c-0.8-0.1-1.1-0.2-1.1-0.3c0.1-0.2,0.1-0.3,0.1-0.5c-0.3,0.2-0.7,0.3-1,0.3h-0.5
					c-0.2,0-0.3-0.1-0.3-0.3L242,108l-0.7-0.3l-0.1,0.3c-1.3-0.2-1.9-0.4-1.9-0.6l-0.3,0.1l-1-0.1c-0.2,0.1-0.4,0.1-0.5,0.1v-0.1
					c-0.1,0-0.2,0-0.2,0.1c-0.1,0-0.4,0-1-0.1l-1.1,0.1v-0.1c-0.1,0-0.1,0-0.1,0.1l-0.8-0.1H234C231.9,108.2,230.7,109,230.2,109.6z
					 M187,142.1h0.5v-0.3h-0.1C187.1,141.9,187,142,187,142.1z M187.5,114.9L187.5,114.9c0.1,0.3,0.1,0.5,0.1,0.6
					c-0.2,0.1-0.3,0.2-0.5,0.2v0.1h0.5l0.3-0.5c-0.1-0.2-0.1-0.3-0.1-0.5L187.5,114.9L187.5,114.9z M187.2,128.4v0.2
					c0.2,0,0.3-0.1,0.3-0.3v-0.1C187.3,128.2,187.2,128.3,187.2,128.4z M187.7,154.5c0,0.1,0,0.3-0.1,0.5h0.3v-0.5H187.7z
					 M187.7,89.5l0.3,0.1l0.8-1.1C188.5,88.6,188.2,88.9,187.7,89.5z M188.3,152.3c0,0.1-0.1,0.4-0.3,1c0.3,0,0.4-0.3,0.5-0.8v-0.2
					H188.3L188.3,152.3z M188.3,126.8v0.6h0.3v-0.6H188.3z M189.9,145.8c-0.2,0.2-0.3,0.8-0.5,1.6c-0.5,0-0.8,0.3-0.8,0.8l0.2,0.3
					c-0.1,0.2-0.2,0.3-0.2,0.5c0.2,0,0.3-0.2,0.5-0.5v-0.3h-0.3v-0.3c0.6,0,1.1-0.6,1.4-1.9L189.9,145.8z M189.3,126.8l-0.5,0.6
					l0.3,0.2h0.1c0-0.3,0.1-0.5,0.3-0.5s0.3,0.1,0.3,0.3c-0.2,0-0.3,0.1-0.3,0.3v0.1l0.8-0.1v-0.1
					C190.2,127.1,189.9,126.8,189.3,126.8z M190.4,130.1v0.1c0,0.4,0,0.7-0.1,0.8l0.1,1v0.3h-0.3c0,0.2,0.1,0.3,0.3,0.3
					c-0.3,1.5-0.6,2.3-0.8,2.3h-0.2c0-0.5-0.2-0.7-0.6-0.8v-0.5l0.5,0.3c0.2,0,0.3-0.1,0.3-0.3V133c-0.5,0-0.7-0.1-0.7-0.3v-0.1
					c0.2-0.5,0.4-0.7,0.8-0.7v-0.6l-0.3,0.1l-0.1-0.3c0-0.2,0.1-0.3,0.3-0.3v0.1C189.7,130.9,190,130.6,190.4,130.1z M189.1,135h0.5
					v0.3c0,0.2-0.1,0.3-0.3,0.3h-0.1L189.1,135L189.1,135z M189.4,148.7v0.2l0.3,0.6l0.3-0.1h0.1l0.3,0.1v-0.8h-0.2l-0.5,0.3
					L189.4,148.7z M189.6,144.7l0.3,0.2v-0.5C189.7,144.4,189.6,144.5,189.6,144.7z M190.1,147.4c0,0.2-0.2,0.5-0.5,0.8v0.2
					c0.3-0.2,0.5-0.3,0.6-0.3v-0.7H190.1L190.1,147.4z M189.8,87.2v0.2h0.1c0.2,0,0.3-0.1,0.3-0.3v-0.3
					C190.1,86.7,189.9,86.9,189.8,87.2z M189.9,149.7v0.5h0.2c0.2,0,0.3-0.1,0.3-0.3l-0.3-0.2H189.9z M191.1,142
					c-0.3,1.2-0.7,1.8-1,1.8v0.6h0.1c0-0.3,0.4-1,1.1-2.3L191.1,142z M191.4,164h0.1v0.5l-0.8,0.1h-0.3v-0.3
					C190.8,164.4,191.1,164.3,191.4,164z M190.6,146.1c0.1,0.2,0.1,0.4,0.1,0.5c0.2,0,0.5-0.4,0.7-1.3
					C191.2,145.4,191,145.6,190.6,146.1z M190.7,112.3v0.2h0.7v-0.2H190.7z M190.9,88.5v0.2c0.1,0,0.3-0.2,0.5-0.5V88
					C191.2,88,191.1,88.2,190.9,88.5z M190.9,113.2c0.2,0.3,0.3,0.5,0.3,0.8h0.7l-0.2-0.3c0-0.3,0.7-0.6,2.3-1
					c0-0.5-0.1-0.8-0.3-0.8C191.9,112.7,191,113.2,190.9,113.2z M190.9,124.3h0.1c0.5-0.1,0.8-0.3,0.8-0.5h-0.3
					C191.1,123.9,190.9,124.1,190.9,124.3z M190.9,147.3c0.2,0,0.3,0.1,0.3,0.3c-0.2,0.3-0.3,0.6-0.3,0.8h0.3c0-0.5,0.2-0.7,0.5-0.7
					h0.2c0-0.2-0.1-0.3-0.3-0.3l1-1.9l-0.1-0.3C192.2,145.2,191.7,145.9,190.9,147.3z M192,140.2c0,0.2-0.2,0.6-0.6,1.1h0.3
					c0.2,0,0.3-0.3,0.5-1v-0.1H192z M191.5,112.2h0.5c0.2,0,0.3-0.1,0.3-0.3h-0.5C191.6,111.9,191.5,112,191.5,112.2z M193,139.6
					c-0.3,1-0.5,1.4-0.8,1.4l0.2,0.3v0.1c-0.3,0-0.5,0.2-0.7,0.6v0.3c0.5,0,1.1-1,1.6-2.9L193,139.6L193,139.6z M191.9,148.4
					l-0.2,0.3l0.3,0.2l0.1-0.3L191.9,148.4z M192,163.6h0.7c0.1,0.5,0.1,0.9,0.1,1H192v-0.1l0.3-0.5h-0.7
					C191.7,163.7,191.8,163.6,192,163.6z M193.8,85.4c-1.2,1-1.8,1.6-1.8,1.8v0.3c1.3-0.9,1.9-1.3,1.9-1.4s0.1-0.3,0.2-0.5
					L193.8,85.4z M192.2,85h0.2c0.2,0,0.3-0.1,0.3-0.3h-0.2C192.3,84.7,192.2,84.8,192.2,85z M193.9,116.1c0,0.3-0.6,0.5-1.8,0.8
					v0.3c0.7,0,1.4-0.4,2.1-1.1C194.3,116.1,193.9,116.1,193.9,116.1z M192.2,165.8h0.5v0.3h-0.5V165.8z M192.7,82.9h0.5v-0.3H193
					C192.8,82.6,192.7,82.7,192.7,82.9z M192.8,165.1l0.8,0.2v0.3l-0.8-0.1V165.1z M193,127v0.2h0.3c0.2,0,0.3-0.1,0.3-0.3l-0.3-0.1
					C193.1,126.7,193,126.8,193,127z M193.2,110.9v0.6c0.2,0,0.3-0.2,0.5-0.6H193.2z M193.8,140.2l-0.6,1.4h0.3
					c0-0.3,0.2-0.7,0.7-1.3v-0.1L193.8,140.2L193.8,140.2z M193.4,81.4v0.2h0.3v0.3c-0.3,0-0.5,0.1-0.5,0.3h0.5
					c0-0.2,0.1-0.3,0.3-0.3v-0.3c-0.1,0-0.3-0.1-0.5-0.2H193.4z M193.3,166.9h0.5v0.3h-0.5V166.9z M193.4,80.7L193.4,80.7
					c0.2,0.1,0.4-0.1,0.7-0.6h-0.2C193.8,80.1,193.6,80.3,193.4,80.7z M193.6,136.5v0.3h0.3c0-0.2,0.2-0.5,0.7-1v-0.3
					c-0.2,0-0.5,0.3-0.8,1H193.6L193.6,136.5z M193.6,141.8v0.1h0.1c0.2,0,0.3-0.1,0.3-0.3v-0.1h-0.2
					C193.7,141.5,193.6,141.6,193.6,141.8z M194.3,81.4v0.2c0,0.2,0.1,0.3,0.3,0.3v-0.5H194.3z M195.2,166.9v0.2l0.5-0.3h0.5
					c0,0.1-0.1,0.1-0.2,0.1l0.2,0.3v0.1h-0.5c-0.2,0-0.4,0-0.6-0.1c-0.2,0.1-0.4,0.1-0.6,0.1l-0.2-0.3
					C194.4,167,194.7,166.9,195.2,166.9z M194.4,82.7h0.6v-0.3h-0.3C194.5,82.5,194.4,82.5,194.4,82.7z M195.6,121.5L195.6,121.5
					l-0.1,0.4h0.3l-0.1,0.3l0.1,0.3h-0.1c-0.1,0-0.1,0-0.1-0.1l-0.3,0.1h-0.1V122h0.3v0H195v-0.3L195.6,121.5z M194.9,81.4v0.3
					l0.8,0.1v-0.1c0-0.2-0.1-0.3-0.3-0.3v0.2l-0.3-0.2H194.9z M195.1,133l-0.1,0.3v0.2h0.1c0.2,0,0.3-0.1,0.3-0.3L195.1,133z
					 M195.4,135.7c-0.2,0.3-0.3,0.7-0.3,1c0.2,0,0.4-0.3,0.6-0.8L195.4,135.7z M195.1,163.2c0,0.2,0.1,0.3,0.3,0.3l0.3-0.2l0.3,0.2
					l0.3-0.2c0.2,0.1,0.3,0.2,0.5,0.2l0.1-0.3v-0.1l-0.6,0.1l-0.7-0.1C195.5,163.2,195.3,163.2,195.1,163.2z M195.2,80h0.2
					c0.2-0.1,0.4-0.1,0.6-0.1v-0.3h-0.1C195.4,79.7,195.2,79.8,195.2,80z M195.7,78.9l-0.1,0.3v0.2h0.1c0-0.1,0.1-0.3,0.2-0.5H195.7
					L195.7,78.9z M195.7,110.9c0,0.1,0,0.3-0.1,0.5v0.1h0.1c0-0.2,0.1-0.3,0.3-0.3v-0.3C196,110.9,195.7,110.9,195.7,110.9z
					 M195.6,133.4h0.1l0.3-0.2l0.2,0.3l-0.5,0.7v0.3l0.3-0.1c0.2,0,0.3,0.2,0.3,0.5h0.3c0-0.4,0.3-0.7,1-1c0.1,0.1,0.4,0.1,0.8,0.1
					c0.2-0.8,0.3-1.4,0.3-1.8h-0.3l0.1,0.3v0.1c-0.3,0.5-0.6,0.8-1,0.8c-0.2-0.1-0.4-0.1-0.5-0.1c0,0.2-0.1,0.3-0.3,0.3h-0.1V133
					h0.3v-0.3h-0.3c0,0.3-0.2,0.5-0.7,0.5V133c0.3-0.3,0.5-0.8,0.7-1.6C195.9,132.2,195.6,132.9,195.6,133.4z M195.6,164v0.1h1
					c0-0.2-0.1-0.3-0.3-0.3C196,164,195.8,164,195.6,164z M195.7,110.4h0.5v-0.3H196C195.8,110.1,195.7,110.2,195.7,110.4z
					 M197.3,121.4h0.5l0.2,0.8c-0.4,0-0.9,0.2-1.5,0.7h-0.1c-0.2,0-0.4-0.2-0.7-0.7c0.3,0,0.5-0.1,0.5-0.3h0.5c0,0.2,0,0.3,0.1,0.3
					C197.2,122.2,197.3,121.9,197.3,121.4z M195.9,81.8c0,0.2,0.1,0.3,0.3,0.3c0-0.1,0-0.2,0.1-0.2c-0.1-0.2-0.1-0.3-0.1-0.5
					C196,81.4,195.9,81.6,195.9,81.8z M196.7,114.8v0.3h0.5c0.3-0.2,1-0.5,1.9-0.8c0-0.3,0.6-0.5,1.8-0.7v-0.3
					c-0.4,0-1.5,0.4-3.2,1.1L196.7,114.8z M197.5,166.6h0.2v0.3c0,0.2-0.2,0.4-0.7,0.7c-0.2,0-0.3-0.1-0.3-0.3L197.5,166.6z
					 M196.8,79.4h0.1c0.2,0,0.3-0.1,0.3-0.3V79C197.2,78.9,197,79,196.8,79.4z M196.8,130.5h0.1c0.2,0,0.3-0.1,0.3-0.3h-0.1
					C197,130.3,196.8,130.4,196.8,130.5z M197,82.7l0.3,0.2h0.1c0.2,0,0.4-0.3,0.7-1c-0.2,0-0.3,0-0.3-0.1
					C197.6,81.8,197.3,82.1,197,82.7z M197.3,131c0,0.2-0.1,0.4-0.3,0.7v0.1c0.2,0,0.5-0.3,0.7-0.8H197.3L197.3,131z M197.5,134.3
					v0.1l0.2,0.3c-0.3,0-0.5,0.4-0.7,1.1h0.3l0.7-0.5c0.1,0.2,0.1,0.4,0.1,0.5l0.5-0.3l-0.1-0.3c0-0.3,0.2-0.5,0.6-0.5v-0.3H199
					c-0.4,0.3-0.7,0.5-1,0.5l0.1-0.3v-0.1C197.9,134.4,197.7,134.4,197.5,134.3z M199.2,118.6v0.3c-0.9,0.2-1.5,0.4-1.8,0.7h-0.3
					v-0.2C197.9,118.9,198.6,118.6,199.2,118.6z M197.3,80.5h0.5v-0.3h-0.1C197.4,80.2,197.3,80.3,197.3,80.5z M197.3,109v0.3h0.3
					l-0.2,0.3h0.7c0.2,0,0.3-0.2,0.5-0.5h-0.1l-0.8,0.1C197.7,109.1,197.5,109,197.3,109z M198.6,109.8l0.1,0.3v0.1h-0.1l-1.1-0.1
					l-0.1,0.3l0.7,0.5l1-0.5c0.2,0.1,0.4,0.1,0.6,0.1c0-0.2,0.2-0.3,0.5-0.3c0-0.2-0.2-0.4-0.6-0.6h-0.5L198.6,109.8z M197.8,79.6
					V80h1v-1l0.8-0.1c0.4,0.1,0.8,0.1,1.1,0.1c0-0.2-0.2-0.3-0.5-0.5l-0.3,0.1l-0.3-0.1c-0.5,0-0.9,0.4-1.4,1.1
					C198.1,79.6,197.8,79.6,197.8,79.6z M197.8,161.3h1v0.3h-0.1c-0.1,0-0.1,0-0.1-0.1l-0.3,0.1H198L197.8,161.3L197.8,161.3z
					 M198.3,166.6c0,0.2,0.1,0.3,0.3,0.3c0.2-0.1,0.3-0.1,0.5-0.1l0.1,0.3c-0.4,0.3-0.8,0.5-1.1,0.5l-0.3-0.5
					C197.8,166.9,198,166.8,198.3,166.6z M198.1,76.6v0.7h0.1l0.2-0.7H198.1z M198.5,83.4c0.1,0.2,0.1,0.3,0.1,0.5h0.3
					c-0.1-0.2-0.2-0.4-0.2-0.5H198.5z M198.8,81.3L198.8,81.3c0,0.3,0.2,0.4,0.5,0.6l0.2-0.3C199.3,81.6,199,81.5,198.8,81.3z
					 M199.1,80.8v0.5c0.6,0,1.5-0.5,2.6-1.4c-0.3,0-0.5-0.1-0.5-0.2c0.1-0.2,0.1-0.3,0.1-0.5h-0.1c-0.3,0-0.6,0.4-1,1.3L199.1,80.8z
					 M199.1,161l1,0.1c0.2-0.1,0.4-0.1,0.5-0.1c0,0.2-0.1,0.3-0.3,0.3h-1.1L199.1,161L199.1,161z M199.6,79.2c0,0.1,0,0.3-0.1,0.5
					h0.3v-0.5H199.6z M199.4,112.3v0.2h0.6v-0.2H199.4z M202.2,160.8l1,0.1c0.2-0.1,0.5-0.1,0.8-0.1c0.2,0.1,0.3,0.1,0.5,0.1v0.1
					c-0.2,0-0.3,0.1-0.3,0.3l-0.6-0.1l-1.1,0.1v0.3c0,0.2,0.2,0.3,0.7,0.3v0.3l-1.6,0.2c-0.3-0.2-0.5-0.3-0.6-0.3v-0.3h0.1l0.5,0.3
					h0.8v-0.2c-0.2-0.3-0.3-0.5-0.3-0.6l-0.3,0.1h-1v0.3H200c-0.2,0-0.3-0.1-0.3-0.3c0.9-0.2,1.6-0.3,2.1-0.3l-0.2-0.3L202.2,160.8z
					 M199.6,118.3h0.5v0.3h-0.5V118.3z M199.6,163.2c0.8,0.3,1.2,0.5,1.4,0.5v0.3h-1.4v-0.2c0-0.1,0.1-0.1,0.2-0.1l-0.2-0.3V163.2z
					 M202.5,108.3c0,0.5-0.2,0.7-0.5,0.7l-0.5-0.3c0,0.4-0.6,0.6-1.8,0.6v0.2c0.2,0,0.4,0.1,0.6,0.3h0.3l0.5-0.3h0.1
					c0.3,0.2,0.5,0.3,0.7,0.3h0.3v-0.1c-0.4,0-0.6-0.1-0.6-0.3h0.1c0.6,0,1,0.2,1,0.5h0.5l-0.2-0.3v-0.2h0.5c0-0.2-0.2-0.3-0.5-0.3
					v-0.3h0.3c-0.1-0.2-0.1-0.4-0.1-0.5l-0.3,0.1L202.5,108.3L202.5,108.3z M199.8,162.6h0.5v0.3h-0.5V162.6z M199.9,76.9v0.2h0.1
					c0-0.2,0.2-0.3,0.7-0.3v-0.2c0-0.2-0.1-0.3-0.3-0.3C200.2,76.3,200.1,76.5,199.9,76.9z M200.5,75c0,0.3-0.2,0.5-0.5,0.5v0.3
					c0.5-0.3,0.8-0.5,0.8-0.7L200.5,75z M202.3,76.1H202c-0.2,0-0.3-0.1-0.3-0.3c-0.5,0.1-0.8,0.3-0.8,0.6c0.1,0,0.3,0,0.5,0.1
					c0-0.3,0.1-0.5,0.3-0.5h0.1c0,0.2,0.1,0.4,0.3,0.7v0.1c-1,0.3-1.4,0.5-1.4,0.8c0.1,0,0.1,0,0.1,0.1c-0.2,0.1-0.3,0.2-0.5,0.2
					v0.3h0.1c0.5,0,1.2-0.4,2.1-1.1V77l-0.3,0.1l-0.1-0.3c0.3-0.2,0.6-0.3,0.8-0.3v-0.3l-0.3,0.1C202.4,76.4,202.3,76.3,202.3,76.1
					c0.3,0,0.5,0,0.7-0.1l0.1,0.3l0.7-0.3c0,0.2,0.1,0.3,0.3,0.3V76c0-0.2-0.1-0.3-0.3-0.3c-0.2,0.1-0.4,0.2-0.5,0.2l-0.3-0.2
					C202.5,75.7,202.3,75.9,202.3,76.1z M200.4,121.9L200.4,121.9l0.8,0.1c0.2,0,0.3-0.1,0.3-0.3c-0.1,0-0.2,0-0.2-0.1
					C201,121.8,200.7,121.9,200.4,121.9z M200.5,163.1h1c0,0.2-0.1,0.3-0.3,0.3h-0.3C200.6,163.4,200.5,163.3,200.5,163.1z M201,75
					L201,75c1-0.3,1.5-0.7,1.6-1h-0.1C201.9,74,201.4,74.4,201,75z M201.3,77.4l0.2,0.3l-0.3,0.1l-0.2-0.3L201.3,77.4z M201,113.2
					L201,113.2l0.3,0.1c1.3-0.5,2.1-0.8,2.3-0.8v-0.2h-0.3C202,112.9,201.2,113.2,201,113.2z M203,110.4l-0.7-0.2h-0.1v0.2h0.5v0.1
					c-0.4,0-0.7,0.1-1,0.3c-0.2-0.1-0.4-0.1-0.5-0.1c0,0.2,0.1,0.3,0.3,0.3l2.9-0.8c0-0.2-0.1-0.3-0.3-0.3L203,110.4z M201.2,129.1
					h0.1c0.2,0,0.3-0.1,0.3-0.3h-0.1C201.3,128.8,201.2,128.9,201.2,129.1z M201.5,75.5L201.5,75.5c0.2-0.1,0.8-0.2,1.9-0.4
					c0,0.2,0.1,0.3,0.3,0.3v-0.3h0.3l0.2,0.8c0.2-0.1,0.4-0.1,0.8-0.1c0-0.7-0.4-1-1.3-1v0.3c-0.3,0-0.7-0.2-1.1-0.5
					C201.9,75.1,201.5,75.3,201.5,75.5z M201.7,107.5c0,0.1,0,0.3-0.1,0.5c0.1,0,0.1,0.1,0.1,0.2c0.2-0.1,0.3-0.2,0.5-0.2
					C202.2,107.9,202,107.7,201.7,107.5z M203.6,162.6l0.2,0.3l-1.5,0.3l0.2,0.3v0.1l-0.3-0.1l-0.5,0.3l-0.1-0.3
					C202,163,202.6,162.7,203.6,162.6z M202.2,119.4v0.5c0.3,0,0.4-0.3,0.5-0.8h-0.1C202.3,119.1,202.2,119.2,202.2,119.4z
					 M202.3,121.4v0.3h0.3l0.1-0.8C202.7,120.9,202.5,121,202.3,121.4z M202.3,166.4v0.2h0.7v-0.2H202.3z M202.5,107.5v0.2h0.8v-0.3
					L202.5,107.5z M202.6,78.7v0.2l0.7,0.1l0.1-0.3l-0.5-0.3C202.7,78.4,202.6,78.5,202.6,78.7z M203,109l0.1,0.3h-0.5
					C202.7,109.1,202.8,109,203,109z M205.6,71.8c0,0.3,0.2,0.5,0.5,0.5v0.1c-0.6,0.6-1.2,1-1.8,1v-0.1c0.6-0.4,1-0.7,1-0.8h-0.7
					l-1.4,1.3h0.2c0.3-0.2,0.6-0.3,0.8-0.3v0.2c0,0-0.4,0.4-1.1,1.1h0.1c0.6,0,1-0.2,1-0.5h0.3l0.3,0.1v-0.1
					c-0.1-0.2-0.2-0.4-0.2-0.5h0.3v0.3l0.3-0.2c0.5,0.5,0.8,0.7,0.8,0.7l0.3-0.2c0.3,0.1,0.5,0.2,0.5,0.3c0.3-0.2,0.7-0.3,1-0.3
					c0-0.3-0.3-0.5-1-0.5v-0.3c0.5-0.5,0.8-0.7,1-0.7v-0.3h-0.2c-0.3,0.2-0.6,0.3-0.8,0.3l-0.2-0.3v-0.1h0.3v-0.1
					c0-0.2-0.1-0.3-0.3-0.3l-0.5,0.3H206v-0.2l0.1-0.3C206.2,71.8,205.6,71.8,205.6,71.8z M203,119.8c0.1,0.2,0.1,0.3,0.1,0.5
					c0.3-0.2,0.6-0.3,0.8-0.3l-0.3-0.5L203,119.8z M203.3,76.8h0.5v-0.3h-0.2C203.4,76.5,203.3,76.6,203.3,76.8z M203.3,78.2
					l0.3,0.1c0.4-0.3,0.7-0.5,1-0.5h0.5c0-0.2,0.1-0.3,0.3-0.3V77h-0.5C203.8,77.7,203.3,78.1,203.3,78.2z M203.9,111.2
					c0,0.3-0.1,0.5-0.3,0.8c0,0.2,0.1,0.3,0.3,0.3s0.4-0.2,0.6-0.6c0-0.2-0.2-0.3-0.5-0.5C204.1,111.2,203.9,111.2,203.9,111.2z
					 M203.8,107.8v0.3c0.2,0,0.4,0.1,0.6,0.3h0.1V108L203.8,107.8z M205.2,161.3h0.3c0,0.3-0.5,0.4-1.5,0.5v-0.3L205.2,161.3z
					 M204.3,107.2c0.4-0.2,0.6-0.4,0.6-0.5h-0.1C204.6,106.7,204.4,106.9,204.3,107.2z M204.3,166.1v0.1c0,0.2,0.1,0.3,0.3,0.3h0.3
					v-0.2c0-0.2-0.1-0.3-0.3-0.3L204.3,166.1L204.3,166.1z M204.4,120.6v0.3h0.3c0.3-0.8,0.5-1.2,0.5-1.4v-0.1
					C205.1,119.3,204.8,119.7,204.4,120.6z M204.6,107.5v0.3h0.7v-0.3h0.3l0.5,0.3l0.5-0.6c-0.1,0-0.2-0.1-0.2-0.2L204.6,107.5z
					 M204.6,109.6v0.3c0.3,0,0.5,0,0.7,0.1v-0.1c0-0.2-0.1-0.3-0.3-0.3H204.6z M205.1,75.3c0.2,0,0.3,0.2,0.3,0.5h0.3v-0.3l-0.1-0.3
					c0.2-0.1,0.3-0.1,0.5-0.1v-0.3h-0.2C205.4,74.9,205.1,75.1,205.1,75.3z M205.2,120.6h0.5v-0.3h-0.1
					C205.3,120.3,205.2,120.4,205.2,120.6z M205.2,165.1h0.1c0.2,0,0.3,0.1,0.3,0.3h-0.5L205.2,165.1L205.2,165.1z M206.2,73.2
					L206.2,73.2l-0.3,0.6h0.5c0,0.2-0.1,0.3-0.3,0.3c-0.5-0.2-0.7-0.3-0.7-0.5v-0.1C205.6,73.6,205.9,73.5,206.2,73.2z M210.1,74.7
					h-0.2l-0.5-0.3c-1.9,1.2-3,1.8-3.4,1.8h-0.2v0.3h0.7v0.3c-0.6,0.1-1,0.3-1,0.5v0.1h0.3c1.1-0.7,1.8-1.3,2.3-1.9h0.2l-0.2,0.3
					h0.2c0.3-0.7,1-1,1.9-1c0-0.2,0.2-0.3,0.7-0.3v-0.3L210.1,74.7z M207.6,159.7c0,0.2,0.1,0.3,0.3,0.3l0.8-0.2
					c0,0.1,0,0.2,0.1,0.2c0-0.1,0.1-0.2,0.2-0.2l0.1,0.3c-0.2,0-0.3,0.2-0.3,0.5c-0.3-0.2-0.5-0.3-0.6-0.3l-0.8,0.2V160h-0.1
					c-0.2,0-0.3,0.1-0.3,0.3c0.1,0,0.1,0.1,0.1,0.2c-0.7,0.1-1.2,0.3-1.6,0.6v-0.5c0.3,0,0.5-0.2,0.5-0.5l0.3,0.1h0.3l-0.1-0.3
					C206.9,159.8,207.3,159.7,207.6,159.7z M205.7,119.8L205.7,119.8c0.2,0.1,0.3,0,0.3-0.2v-0.2
					C205.8,119.5,205.7,119.6,205.7,119.8z M206,106.4L206,106.4l0.5,0.1c0.2-0.1,0.3-0.1,0.5-0.1v-0.5
					C206.6,106.2,206.3,106.4,206,106.4z M206.2,75.8V76c0.2,0,0.4-0.2,0.7-0.6h-0.2C206.5,75.3,206.3,75.5,206.2,75.8z M207.5,70.6
					c0,0.2-0.2,0.3-0.5,0.3V71c0,0.2,0.1,0.3,0.3,0.3h0.3l-0.1-0.3l0,0l0.6-0.2v-0.1h-0.6V70.6z M207,77.3h0.1c1.1-0.6,1.7-1,2-1V76
					h-0.2C207.6,76.7,207,77.1,207,77.3z M207.3,165h0.3v0.3H207C207,165.1,207.1,165,207.3,165z M207.5,121.5h0.1l0.7-0.5l0.3,0.1
					l0.1-0.3h-0.1C208,120.9,207.6,121.1,207.5,121.5z M209.2,72.3L209.2,72.3c0.1,0.3,0.1,0.5,0.1,0.6c-0.8,0.3-1.4,0.5-1.8,0.5
					c0,0.2,0.1,0.3,0.3,0.3h0.7c0.6,0,1-0.3,1.2-1c-0.1-0.2-0.1-0.4-0.1-0.5L209.2,72.3L209.2,72.3z M223.1,109.5l-0.3-0.2h-0.1v0.3
					h0.3v0.5h-0.7v0.1h0.3v0.3c-0.4,0-1,0.3-1.8,1l-0.3-0.1h-0.3c0,0.2-0.1,0.3-0.3,0.3l0.1,0.3l-0.3,0.2c0-0.1-0.1-0.2-0.2-0.2
					c0,0.2-0.1,0.3-0.3,0.3c-0.2-0.3-0.7-0.5-1.4-0.5l-0.1,0.3c0.1,0,0.1,0,0.1,0.1l-0.3,0.2c0-0.2-0.2-0.4-0.6-0.8v-0.2
					c0.1,0,0.3,0,0.5-0.1c0.2,0.1,0.4,0.1,0.5,0.1l-0.1-0.3V111c0.1,0,0.3,0,0.6-0.1c0,0.1,0.1,0.1,0.2,0.1c0-0.5,0.4-0.8,1.3-1
					v-0.1l0.3,0.1l0.3-0.1c-0.1-0.2-0.1-0.4-0.1-0.5c-0.4,0-1.8,0.8-4.4,2.3h-0.3l0.3-0.5h-0.3c-0.4,0.2-0.6,0.3-0.6,0.5
					c0.2,0,0.3,0.1,0.3,0.3v0.2h-0.6l0.1-0.3h-0.3c-0.2,0.1-0.4,0.1-0.5,0.1v-0.1c0.7-0.6,1-1,1-1.1c-0.1,0-0.3-0.1-0.5-0.2
					c0,0.2-0.3,0.4-1,0.8c-0.2-0.1-0.3-0.1-0.5-0.1c-0.7,0.4-1.3,0.6-1.6,0.6v0.5l0.1,1c-0.1,0.2-0.1,0.4-0.1,0.5l0.3-0.1h0.5
					c0,0.3,0.1,0.5,0.3,0.5l0.3-0.1c0.5,0.1,0.8,0.3,0.8,0.8c1.1-0.2,1.6-0.5,1.6-0.8V114h-0.5l-0.6,0.5H214V114
					c0-0.1,0.6-0.6,1.8-1.3c0.4,0,0.8,0.2,1,0.5c0,0,0.2,0,0.6-0.1c0.2,0.1,0.4,0.1,0.5,0.1v0.3c-0.2,0-1,0.4-2.3,1.3
					c-0.2-0.1-0.4-0.2-0.6-0.2c-1.3,1-2.5,1.5-3.4,1.5c-0.5-0.2-0.8-0.3-1-0.3v-0.2c0.2-0.4,0.7-0.8,1.6-1.1
					c-0.1-0.2-0.2-0.4-0.2-0.5c-0.8,0-1.4,0.5-1.8,1.6h0.2c-0.5,0.7-0.8,1.3-0.8,1.6c0.1,0,0.1,0,0.1,0.1h-0.1l-0.3-0.1
					c0,0.5-0.1,0.7-0.3,0.7c0-0.1,0-0.2-0.1-0.2v0.2l0.1,0.3l-0.6,0.2l0.3,0.5h-0.2l-0.3-0.2l-0.5,0.7l0.3,0.1l0.5-0.3l0.8,1.3
					l0.8-0.1h0.6c0-0.3,0.1-0.7,0.2-1.1h-0.2c-0.2,0-0.6,0.1-1.4,0.3v-0.1c1.6-1.5,3.4-2.5,5.5-3.1l1.8-1.3H216V115
					c0-0.2,0.1-0.3,0.3-0.3s0.3,0.1,0.3,0.3c1.5-0.6,2.7-1.3,3.7-2.1c-0.1,0-0.1,0-0.1-0.1h0.1c0.1,0,0.1,0,0.1,0.1
					c0.2,0,0.7-0.4,1.6-1.1c0,0.1,0,0.2,0.1,0.2c1.6-1.2,2.5-2,2.9-2.4l0.3,0.2V109C223.9,109,223.1,109.2,223.1,109.5z M207.8,71.1
					L207.8,71.1l0.1,0.4c0.2-0.1,0.4-0.1,0.7-0.1v-0.2L207.8,71.1z M208.4,120.1l-0.1,0.3l0.6,0.2
					C208.9,120.4,208.7,120.3,208.4,120.1z M209.2,165.6h0.1v0.3h-0.5C208.9,165.7,209,165.6,209.2,165.6z M209.6,160.3l0.1,0.3
					l-0.3,0.2h-0.3C209.1,160.7,209.3,160.5,209.6,160.3z M210.1,69c0,0.1-0.1,0.3-0.2,0.5h0.3V69H210.1z M209.9,74.2L209.9,74.2
					l0.3,0.1l0.2-0.3C210.2,74.1,210,74.2,209.9,74.2z M210.1,72.1v0.2c0.5,0,0.8,0,1,0.1c0.6-0.4,1.1-0.6,1.3-0.6
					c0-0.2-0.1-0.3-0.3-0.3c0,0.1,0,0.1-0.1,0.1v-0.5h-0.2C210.6,71.7,210.1,72,210.1,72.1z M210.2,70.8V71h0.2
					c0.2-0.1,0.3-0.2,0.5-0.2v-0.3C210.6,70.7,210.4,70.8,210.2,70.8z M210.5,162.7h0.5c0,0.2-0.1,0.3-0.3,0.3h-0.1L210.5,162.7
					L210.5,162.7z M210.9,73.7c0.1,0.2,0.1,0.3,0.1,0.5h0.5v-0.1c-0.1-0.2-0.1-0.4-0.1-0.5c0.2,0,0.3-0.1,0.3-0.3h-0.1L210.9,73.7z
					 M211,115.6h0.5c0.2,0,0.3-0.1,0.3-0.3h-0.5C211.1,115.3,211,115.4,211,115.6z M211,119.1h0.3l1.4-1l0.8,0.2l2.6-2.1H216
					C213,117.7,211.3,118.6,211,119.1z M211.8,119.1c0,0.5-0.3,0.7-0.8,0.7v0.1h0.5c0.5-0.5,0.7-0.8,0.7-0.8L211.8,119.1
					L211.8,119.1z M232.4,154.8c0,0.2,0.1,0.3,0.3,0.3c0-0.2,0.1-0.3,0.3-0.3h0.3v0.1c0,0.3-0.2,0.5-0.6,0.5l0.1,0.8l-0.8,0.2
					c0-0.2,0.2-0.3,0.5-0.3v-0.5h-0.2c-0.9,0.6-1.3,1-1.3,1.1v0.2c-0.3-0.2-0.5-0.3-0.6-0.3c-0.2,0.1-0.4,0.1-0.5,0.1v0.3
					c0.5,0,0.8,0.1,0.8,0.3v0.1c-0.2,0-0.7,0.3-1.6,0.8c-0.3,0-0.7,0.3-1.4,0.8c-0.8,0.2-1.4,0.6-1.8,1.1c-1.8,0.8-2.9,1.3-3.3,1.6
					h-0.1v-0.1l0.3-0.5h-0.2c-0.7,0.6-1.7,1.1-3.2,1.6v-0.3h-0.6v0.3h0.6c-0.3,0.3-1.3,0.7-2.9,1.1c0-0.2-0.1-0.3-0.3-0.3
					c0,0.5-0.4,0.8-1.1,1c-0.2-0.1-0.3-0.1-0.5-0.1c0,0.2-0.1,0.3-0.3,0.3c-0.8-0.3-1.3-0.7-1.5-1l0.3-0.1h0.1v0.3h0.2
					c0.2,0,0.3-0.1,0.3-0.3s-0.2-0.3-0.5-0.5h-0.3l-0.5,0.3c0-0.1-0.1-0.2-0.2-0.2c0,0.2-0.1,0.3-0.3,0.3l-0.5-0.3l-0.3,0.2v-0.3
					c1-0.3,1.6-0.5,1.8-0.5c0,0.1,0,0.1,0.1,0.1l0.8-1.3c0.2,0.1,0.4,0.2,0.6,0.2c0-0.2,0.1-0.3,0.3-0.3h0.6v0.3h-0.5v0.1
					c0.5,0,0.7,0.1,0.7,0.3c-0.4,0-0.9,0.3-1.4,0.8c-0.2-0.1-0.4-0.2-0.7-0.2c0.3,0.5,0.5,0.8,0.7,0.8l0.6-0.6l0.3,0.1
					c1.6,0,2.4-0.4,2.4-1.3h0.2c0.1,0,0.1,0,0.1,0.1l0.3-0.1l0.8,0.1v-0.1c-0.1-0.2-0.1-0.3-0.1-0.5l0.3,0.1h0.1
					c0.3,0,0.5,0,0.7-0.1l0.3,0.1l1-0.3c0,0.1,0,0.1,0.1,0.1l-0.1,0.3v0.1c0.1,0,0.3-0.2,0.5-0.5c-0.1-0.2-0.2-0.4-0.2-0.5
					c0.2-0.5,0.3-0.7,0.5-0.7l0.3,0.2c0-0.2,0.3-0.4,1-0.5v-0.2l-0.1-0.3c0.7,0,1.4-0.3,2.1-0.8c0.3-0.2,0.6-0.3,0.8-0.3l0.3,0.1
					c0.5,0,0.7-0.3,0.7-0.8l0.8,0.1v-0.1l-0.1-0.3c1.5-0.5,2.3-1,2.3-1.4h0.2c0,0.2,0.1,0.3,0.3,0.3c0.1-0.2,0.2-0.3,0.2-0.5
					l0.3,0.2c0.8-0.3,1.1-0.5,1.1-0.7l-0.1-0.3L232.4,154.8z M211.8,74.5h0.1c0.2,0,0.3-0.1,0.3-0.3h-0.1
					C211.9,74.2,211.8,74.3,211.8,74.5z M212.8,112.5h0.1c0,0.1-0.3,0.3-0.8,0.6h-0.3V113C211.9,112.7,212.2,112.5,212.8,112.5z
					 M212.3,69.5h0.1c0,0.2,0.2,0.4,0.7,0.8h-0.2c-0.5-0.3-0.8-0.5-1-0.5C212,69.6,212.1,69.5,212.3,69.5z M212,73
					c0,0.2,0.1,0.3,0.3,0.3h0.3c0.5-0.3,0.8-0.5,1.1-0.5c0-0.2-0.2-0.4-0.6-0.6C212.5,72.8,212.1,73,212,73z M212.2,115.3v0.3h0.1
					c0.4-0.2,0.6-0.3,0.6-0.5V115h-0.1C212.5,115.1,212.3,115.3,212.2,115.3z M212.4,68.5c0.2,0,0.3,0.1,0.3,0.3V69h-0.3V68.5z
					 M214.2,66.8V67c0,0.1-0.2,0.2-0.5,0.5c0.2,0.3,0.3,0.7,0.3,1l0.3-0.1h0.1v0.1l-0.1,0.3c0.2,0,0.3,0.1,0.3,0.3v0.2h-0.5
					c0-0.2-0.2-0.5-0.5-1l-0.3,0.1H213v-0.3l0.3-0.5h-0.1c-0.2,0.1-0.3,0.1-0.5,0.1v-0.3L214.2,66.8z M213.7,69.4v0.3l-0.8,0.1v-0.3
					L213.7,69.4z M213.4,111.9c0.2,0.1,0.4,0.1,0.5,0.1c0,0.2-0.1,0.3-0.3,0.3L213.4,111.9L213.4,111.9z M213.7,159.8h0.1
					c0.2,0,0.3,0.2,0.5,0.5H214c-0.2,0-0.3-0.1-0.3-0.3V159.8z M214.4,72.9l-0.2,0.3h0.2c0.2-0.1,0.3-0.2,0.5-0.2v-0.1
					C214.9,72.9,214.4,72.9,214.4,72.9z M214.7,158.7h0.2c0.2,0,0.3,0.1,0.3,0.3l-0.3,0.1l-0.2-0.3V158.7z M215.7,70h0.3v0.3
					c-0.3,0-0.5,0.1-0.8,0.3H215C215,70.5,215.2,70.3,215.7,70z M215.2,72.4v0.3h0.2c0.3-0.2,0.5-0.3,0.6-0.3v-0.3
					C215.6,72.3,215.4,72.4,215.2,72.4z M215.2,104.3v0.5c0.5,0,1.2,0.1,2,0.3v-0.3c-0.3,0-0.6-0.2-1-0.5H215.2z M215.8,159.5
					c0,0.2-0.2,0.3-0.7,0.3l0.2,0.3c0.3-0.2,0.6-0.3,0.8-0.3v-0.3H215.8z M215.4,164.2v0.2c0.2,0,0.3-0.1,0.3-0.3v-0.2
					C215.5,163.9,215.4,164,215.4,164.2z M216,103.1c0,0.1,0,0.3-0.1,0.7h0.3l0.1-0.7H216z M216.2,66.3v0.2c0.2,0,0.3-0.1,0.3-0.3
					V66C216.3,66,216.2,66.1,216.2,66.3z M216.5,112.3h0.2v0.3h-0.5C216.2,112.5,216.3,112.3,216.5,112.3z M218.6,103.7
					c0,0.2-0.5,0.3-1.4,0.5c0,0.1-0.1,0.1-0.2,0.1c-0.2-0.1-0.3-0.1-0.5-0.1c0,0.2,0.1,0.3,0.3,0.3h0.1c0.3,0,0.7-0.1,1-0.3
					c0.2,0.1,0.4,0.1,0.6,0.1c0-0.3,0.2-0.5,0.5-0.5v-0.1H218.6z M216.5,159.2v0.3c0.2,0,0.5,0.2,0.8,0.5h0.1l-0.3-0.5v-0.2h0.3
					v-0.1c-0.2,0-0.3,0-0.3-0.1C216.9,159.2,216.7,159.2,216.5,159.2z M216.8,103.7h0.1c0.5-0.2,0.7-0.4,0.7-0.5h-0.2
					C217,103.3,216.8,103.5,216.8,103.7z M217.3,108v0.2h0.1c0.2-0.1,0.4-0.2,0.5-0.2v-0.1h-0.2C217.6,107.9,217.4,108,217.3,108z
					 M217.4,71.6l0.3,0.2c0-0.3,0.5-0.6,1.4-0.8c0-0.2-0.1-0.3-0.3-0.3C217.9,71.2,217.4,71.5,217.4,71.6z M218.2,114.9
					c0,0.2-0.2,0.4-0.5,0.6h0.2c0.1,0,0.3-0.2,0.5-0.5v-0.1H218.2z M218.2,107.8L218.2,107.8l0.5,0.1c0.5-0.2,0.7-0.3,0.7-0.5h-0.2
					C218.8,107.7,218.5,107.8,218.2,107.8z M218.4,67.3l0.1,0.3c-0.1,0.2-0.1,0.4-0.1,0.5h0.5c0-0.2,0.1-0.4,0.3-0.6L218.4,67.3z
					 M218.6,114.8v0.3h0.5c0-0.2-0.1-0.3-0.3-0.3H218.6z M218.9,111.2l0.1,0.8h0.3l0.1-0.8c-0.1,0-0.1-0.1-0.1-0.2
					C219.2,111.2,219,111.2,218.9,111.2z M219.2,102.4L219.2,102.4c0.1,0.3,0.2,0.4,0.3,0.4h0.2v-0.2c0-0.2-0.1-0.3-0.3-0.3
					L219.2,102.4L219.2,102.4z M219.2,114.6v0.2h0.2c0.2-0.1,0.3-0.2,0.5-0.2v-0.1h-0.1C219.5,114.5,219.3,114.6,219.2,114.6z
					 M219.4,104.2l0.1,0.3c0.2-0.1,0.5-0.1,0.8-0.1c0-0.2-0.2-0.3-0.5-0.5h-0.1C219.5,103.9,219.4,104,219.4,104.2z M219.7,64h0.5
					v0.1c0,0.2-0.1,0.3-0.3,0.3h-0.1L219.7,64L219.7,64z M220,102.7c0,0.2,0.5,0.5,1.6,1c2.5-0.3,3.7-0.6,3.7-0.8
					c-0.1,0-0.1-0.1-0.1-0.2c0.1,0,0.1,0,0.1-0.1h-0.5c-0.3,0-1,0.2-1.9,0.5c0-0.2-0.1-0.3-0.3-0.3l-0.3,0.7l-1.1-0.2h-0.3V103
					c0.1,0,0.3-0.1,0.7-0.2v-0.3C220.8,102.6,220.3,102.7,220,102.7z M220,110.4L220,110.4l0.2,0.1l0.6-0.3l0.3,0.2h0.1v-0.2
					c-0.2,0-0.3-0.1-0.3-0.3h-0.1C220.5,110.3,220.2,110.4,220,110.4z M222.6,63.1h0.1v0.3c-1,0.2-1.4,0.4-1.4,0.6h1
					c0-0.3,0.1-0.5,0.3-0.5s0.3,0.1,0.3,0.3l-2,0.8c0,0.1-0.2,0.3-0.6,0.5V65c0.2-0.5,0.5-0.8,0.8-0.8V64h-0.3v-0.1
					C220.8,63.6,221.4,63.4,222.6,63.1z M220.3,109.3v0.2c0.6-0.1,1-0.3,1-0.5l-0.3-0.2C220.6,109,220.3,109.1,220.3,109.3z
					 M220.3,160.8h0.5v0.3h-0.5V160.8z M220.5,70L220.5,70l0.5,0.1l0.2-0.3H221C220.8,70,220.6,70,220.5,70z M220.5,114l0.3,0.1
					c0-0.3,0.2-0.5,0.7-0.5v-0.5h-0.2C221.2,113.2,220.9,113.4,220.5,114z M220.5,114.4L220.5,114.4c0,0.3,0.1,0.4,0.3,0.4l0.1-0.3
					l-0.3-0.1H220.5z M220.8,105.3v0.3h0.5v-0.3H220.8z M221.3,65.7L221.3,65.7c0,0.3-0.1,0.4-0.3,0.4v-0.2
					C221,65.8,221.1,65.7,221.3,65.7z M221.5,113.8v0.3h0.5v-0.3H221.5z M221.6,112.8v0.3h0.5c0-0.2-0.1-0.3-0.3-0.3H221.6z
					 M221.8,65.5h0.3c0.2,0,0.3,0.1,0.3,0.3l-0.3,0.1C221.9,65.9,221.8,65.8,221.8,65.5L221.8,65.5z M221.8,104.3v0.3h0.7v-0.2
					C222.2,104.4,222,104.4,221.8,104.3z M221.8,108.8v0.3c0.4-0.1,0.8-0.1,1.3-0.1v-0.2c-0.1,0-0.3,0-0.5-0.1
					C222.4,108.8,222.2,108.8,221.8,108.8z M222.5,112.3h-0.2V112h-0.1c-0.2,0-0.3,0.1-0.3,0.3h0.5l-0.1,0.3v0.1h0.1
					c0.2,0,1.1-0.5,2.6-1.4V111h-0.1L222.5,112.3z M222.6,64.5h0.3v0.2c0,0.2-0.1,0.3-0.3,0.3h-0.3v-0.1
					C222.3,64.6,222.4,64.5,222.6,64.5z M222.3,156.8v0.3h0.2c0.2,0,0.3-0.1,0.3-0.3H222.3z M222.6,157.8c0,0.1,0,0.3-0.1,0.5h0.1
					c0.2-0.1,0.4-0.2,0.5-0.2c0-0.2-0.1-0.3-0.3-0.3H222.6z M222.6,104v0.3c0.3-0.2,0.5-0.3,0.7-0.3v-0.3
					C223,103.9,222.8,104,222.6,104z M222.7,156c0.1,0.2,0.2,0.3,0.3,0.3h0.2V156H222.7z M223.6,101.4c0,0.2,0.3,0.3,0.8,0.3v0.3
					h-0.1l-0.3-0.1c-0.3,0.2-0.7,0.3-1,0.3v-0.3C223.1,101.9,223.3,101.7,223.6,101.4z M224.2,62.4h0.1v0.2c0,0.3-0.4,0.4-1.3,0.5
					v-0.3C223.6,62.8,224,62.6,224.2,62.4z M223.1,104.8v0.3h0.2c0.2,0,0.3-0.1,0.3-0.3H223.1z M223.7,63.2l0.1,0.3
					c0,0.2-0.1,0.3-0.3,0.3l-0.1-0.3C223.4,63.3,223.6,63.2,223.7,63.2z M223.6,103.7L223.6,103.7l1.1,0.1l-0.2-0.3
					C224.4,103.6,224,103.7,223.6,103.7z M223.6,157.8h0.3c0.2,0,0.3-0.1,0.3-0.3h-0.3C223.7,157.5,223.6,157.6,223.6,157.8z
					 M225,64.4l0.1,0.3c-0.2,0.1-0.7,0.2-1.4,0.3C223.7,64.8,224.2,64.6,225,64.4z M223.7,104.9v0.2h0.1c0.2,0,0.3-0.1,0.3-0.3v-0.1
					H224C223.8,104.7,223.7,104.8,223.7,104.9z M225.3,62.8c0.2,0,0.3,0.1,0.3,0.3l-0.3,0.1h-0.8v-0.3L225.3,62.8z M224.5,110.2v0.3
					h0.3c0.3-0.3,0.5-0.5,0.7-0.5v-0.1h-0.2C225,110.1,224.7,110.2,224.5,110.2z M225,101.1h0.3v0.1c0,0.1,0,0.1-0.1,0.1l0.1,0.3
					v0.2h-0.6v-0.2l0.1-0.3c-0.1,0-0.1,0-0.1-0.1L225,101.1z M228.6,60.8l0.1,0.3c-0.2,0-0.3,0.2-0.5,0.5l-0.3-0.2h-0.5l0.5,0.7
					l-0.3,0.1c0-0.1,0-0.1-0.1-0.1c0,0.2-0.4,0.5-1.3,0.8c-0.5-0.3-0.8-0.5-1.1-0.5v-0.3c0.2,0,0.4-0.1,0.6-0.3h0.1
					c0.2,0,0.3,0.1,0.3,0.3c-0.2,0-0.3,0.1-0.3,0.3l0.3,0.2l0.3-0.5l-0.2-0.3C226.7,61.5,227.5,61.2,228.6,60.8z M226.6,155.3h0.2
					c0,0.3-0.5,0.5-1.5,0.7h-0.1v-0.3C225.9,155.4,226.4,155.3,226.6,155.3z M226.6,102.2l-1.1,0.7v0.3h0.3l0.5-0.3h0.2v0.5h0.1
					c0.2,0,0.4-0.3,0.8-0.8v-0.1h-0.1l-0.3,0.1C227,102.3,226.8,102.2,226.6,102.2z M227.6,65h0.2v0.3c-1.2,0.4-1.8,0.6-2,0.6h-0.1
					v-0.3C225.8,65.7,226.4,65.4,227.6,65z M226.5,101.2l0.3,0.5h-1.1v-0.3L226.5,101.2z M225.7,153.1h0.5v-0.3H226
					C225.8,152.8,225.7,152.9,225.7,153.1z M229.1,155.8c0.2,0,0.3,0.1,0.3,0.3c-2.1,1.1-3.3,1.7-3.5,1.9h-0.1v-0.6
					c0.2,0.1,0.4,0.1,0.5,0.1c1.2-0.7,1.8-1.1,1.8-1.3L229.1,155.8z M227.1,153.9v0.3c-0.3,0-0.5,0.1-0.8,0.3h-0.1v-0.1
					C226.2,154,226.6,153.9,227.1,153.9z M226.1,158.7v0.3l0.8,0.1l0.1-0.3v-0.1c-0.2,0.1-0.3,0.1-0.5,0.1
					C226.4,158.8,226.3,158.7,226.1,158.7z M226.3,152.6v0.3h0.5v-0.3H226.3z M227.6,66.8l0.2,0.3c-0.2,0.1-0.4,0.1-0.5,0.1l0.1,0.3
					c-0.1,0-0.1,0-0.1,0.1c-0.5-0.2-0.7-0.3-0.7-0.5C227,66.9,227.3,66.8,227.6,66.8z M227.4,62.6h0.1c0.2,0,0.3,0.1,0.3,0.3
					l-0.3,0.1h-0.1V62.6z M227.8,63.2l0.3,0.5h-0.3c-0.2,0-0.3-0.1-0.3-0.3L227.8,63.2z M230.4,65.8V66c0,0.1-0.7,0.4-2,0.8l0.2,0.3
					v0.1h-0.3l-0.2-0.6C228.4,66.3,229.1,66,230.4,65.8z M228.6,63.1l0.1,0.3l-0.3,0.1l-0.1-0.3L228.6,63.1z M228.2,64.7h0.5V65
					h-0.5V64.7z M228.4,101.1l0.2,0.3c0.2-0.1,0.4-0.1,0.8-0.1v-0.1h-1V101.1z M229.2,60.6h0.3v0.2c-0.2,0.3-0.3,0.6-0.3,1h-0.6
					c0-0.2,0.2-0.3,0.5-0.3l-0.2-0.3V61C228.9,60.8,229,60.6,229.2,60.6z M228.7,151v0.2h0.3l0.1-0.3C229,150.9,228.9,151,228.7,151
					z M229.3,153.1l-0.5,0.7h0.3c0.2,0,0.3-0.2,0.5-0.5L229.3,153.1z M230,154.7h0.3v0.5H230v0.3h0.1c0.2-0.1,0.4-0.2,0.5-0.2
					c0,0.2-0.2,0.3-0.5,0.5l-0.5-0.3h-0.1v0.3h-0.3v-0.6C229.7,155.2,230,155,230,154.7z M231.1,60.2v0.3l-1.1,0.1h-0.3v-0.3
					L231.1,60.2z M229.8,151.6v0.1h0.3c0.2,0,0.3-0.1,0.3-0.3v-0.1h-0.3C229.9,151.3,229.8,151.4,229.8,151.6z M231,65.5h0.3v0.3
					h-0.7C230.7,65.6,230.8,65.5,231,65.5z M230.6,150.8v0.3h0.2l1.1-0.7h0.5l0.8-0.6v-0.3h-0.1c-0.1,0-0.9,0.4-2.3,1.3H230.6z
					 M231.1,101.2l-0.1,0.3c0.1,0,0.1,0,0.1,0.1c0.2-0.1,0.4-0.1,0.5-0.1v-0.2C231.5,101.4,231.3,101.3,231.1,101.2z M231.9,154.5
					c0,0.3-0.3,0.4-0.8,0.5v-0.3L231.9,154.5z M232.7,59.7V60c-0.4,0-0.7,0.1-1,0.3c-0.2-0.1-0.4-0.2-0.5-0.2
					C231.3,59.9,231.8,59.8,232.7,59.7z M233.6,60c0,0.2,0.2,0.5,0.6,1.1v0.1H234c-0.2,0-0.4-0.2-0.7-0.7c-0.7,0.2-1.3,0.3-1.8,0.3
					c0-0.3,0.4-0.5,1.1-0.8c0.2,0.1,0.4,0.2,0.5,0.2C233.3,60.1,233.4,60,233.6,60z M231.6,149.7h0.2c0.2-0.1,0.3-0.1,0.5-0.1v-0.3
					h-0.1C232,149.2,231.8,149.4,231.6,149.7z M232.6,61.2h0.1l0.5,0.3l0.3-0.1l0.1,0.3c0,0.2-0.1,0.3-0.3,0.3
					c-1.1-0.1-1.6-0.2-1.6-0.5l0.3-0.1h0.1l0.3,0.1L232.6,61.2L232.6,61.2z M231.9,151.2v0.3l0.8,0.2
					C232.7,151.4,232.5,151.2,231.9,151.2z M233.9,64.5h0.8V65h-0.3c-0.3,0-0.9,0.2-1.8,0.5l-0.2-0.3L233.9,64.5z M232.9,150.5
					l0.2,0.3l1.6-1c0.2,0.1,0.4,0.1,0.7,0.1v0.5c-0.5,0.1-0.8,0.3-0.8,0.5v0.5c-1.1,0.4-1.6,0.7-1.6,0.8v0.3h0.7
					c0-0.2,0.4-0.5,1.3-0.8c0-0.1,0-0.1,0.1-0.1c0.2,0,0.3,0.1,0.3,0.3l-0.3,0.5c0.1,0,0.3,0,0.5,0.1c0-0.2,0.3-0.5,0.8-1V151
					l-0.6,0.5h-0.5c0-0.3,0.3-0.5,0.8-0.5l-0.3-0.5v-0.2h0.1l0.5,0.3c0.7-0.6,1.1-1,1.4-1c0-0.2-0.2-0.3-0.5-0.5
					c0,0.2-0.1,0.3-0.3,0.3v-0.5h-0.3c0,0.3-0.3,0.6-1,1h-0.2v-0.5l-0.3,0.2H235v-0.2l0.3-0.5v-0.1
					C233.9,150,233.1,150.5,232.9,150.5z M238.5,58.2h0.7c0.2,0,0.3,0.1,0.3,0.3l-0.3,0.1c-0.2-0.1-0.4-0.1-0.5-0.1l-0.1,0.3
					c0.2,0.1,0.4,0.2,0.7,0.2c0,0.3-0.3,0.4-0.8,0.5l-0.2-0.3c0.1,0,0.2,0,0.2-0.1h-0.3v0.3h-0.3v-0.3h-1.6
					c-0.2,0.2-1.2,0.5-3.1,0.8v-0.5h0.1c0.1,0,0.1,0,0.1,0.1c1.5-0.5,3-0.9,4.4-1.1c0.2,0.1,0.4,0.2,0.5,0.2
					C238.2,58.4,238.3,58.2,238.5,58.2z M233.2,149.4h0.1c0.2,0,0.3-0.1,0.3-0.3h-0.1C233.3,149.1,233.2,149.2,233.2,149.4z
					 M233.9,99.6v0.3c0.4-0.1,0.7-0.4,1-0.8h-0.2C234.3,99.4,234.1,99.6,233.9,99.6z M234.2,155.2v0.5c-0.2,0-0.3-0.1-0.3-0.3
					L234.2,155.2z M234.5,100.3L234.5,100.3l0.5,0.1l0.1-0.3v-0.2C234.9,100.2,234.7,100.3,234.5,100.3z M235.7,64.7h0.1v0.1
					c0,0.2-0.2,0.3-0.5,0.5H235c-0.2,0-0.3-0.1-0.3-0.3C235.1,65,235.4,64.9,235.7,64.7z M235.1,98.2v0.3h0.5c0.1,0,0.3-0.2,0.5-0.5
					v-0.2C235.9,98.1,235.6,98.2,235.1,98.2z M236.1,60.4c0.7,0.2,1.1,0.4,1.1,0.8h-0.3l-0.5-0.3h-0.3l-0.5,0.3h-0.3v-0.3
					C235.3,60.6,235.6,60.5,236.1,60.4z M235.7,62.1h0.1v0.3h-0.5C235.4,62.2,235.5,62.1,235.7,62.1z M235.8,148.6l-0.1,0.3l1.1,0.1
					C236.7,148.7,236.4,148.6,235.8,148.6z M235.8,99.3v0.3h0.5v-0.3H235.8z M236.4,63.7l0.2,0.3c0,0.2-0.1,0.3-0.3,0.3h-0.1V64
					C236.2,63.8,236.3,63.7,236.4,63.7z M236.6,59.4h0.5v0.3l-0.8,0.2v-0.2C236.3,59.5,236.4,59.4,236.6,59.4z M236.3,64.5h0.5
					c0,0.2-0.1,0.3-0.3,0.3h-0.1L236.3,64.5L236.3,64.5z M236.4,105.4h0.7c0-0.2-0.1-0.3-0.3-0.3
					C236.5,105.1,236.4,105.3,236.4,105.4z M236.8,151.6l-0.1,0.3v0.1h0.6C237.2,152,237.1,151.8,236.8,151.6z M237.1,99.8h0.1
					c0.2,0,0.3-0.1,0.3-0.3h-0.1C237.2,99.5,237.1,99.6,237.1,99.8z M238.9,95.1c0,0.4-0.5,0.9-1.6,1.5v0.3h0.3
					c1.1-0.9,1.7-1.4,1.8-1.6v-0.2C239.3,95.1,238.9,95.1,238.9,95.1z M239.8,60v0.3l-0.6,0.1v-0.1c-0.7,0.1-1.2,0.3-1.5,0.5
					c-0.2,0-0.3-0.1-0.3-0.3C237.4,60.2,238.2,60.1,239.8,60z M237.4,148.2c0.2-0.1,0.3-0.1,0.5-0.1v-0.3
					C237.8,147.8,237.6,147.9,237.4,148.2z M237.7,95l-0.1,0.3h0.5C238.1,95.1,237.9,95,237.7,95z M238.9,148.6h-0.2
					c0-0.2,0-0.3-0.1-0.3c-0.5,0.3-0.8,0.5-0.8,0.7c0.1,0.2,0.2,0.3,0.2,0.5h0.8c0-0.3,0.4-0.7,1.1-1.3h-0.3L238.9,148.6z
					 M238.5,149.9v0.3l0.1,0.3h-0.8v0.2c0.2,0,0.3,0,0.3,0.1c0.8-0.2,1.1-0.6,1.1-1.1L238.5,149.9z M238.1,105.1L238.1,105.1
					c0,0.3,0.1,0.4,0.3,0.4h0.1v-0.1c0-0.2-0.1-0.3-0.3-0.3H238.1z M239.5,61.3v0.3l-1.1,0.3v-0.3L239.5,61.3z M238.9,63.4h0.5v0.3
					h-0.1C239,63.7,238.9,63.6,238.9,63.4z M239.3,149.4c0,0.2,0.2,0.3,0.5,0.5v-0.5H239.3z M239.5,62.3h0.5v0.3h-0.5V62.3z
					 M240,102L240,102l0.8,0.1V102c-0.2,0-0.3,0-0.3-0.1C240.3,102,240.1,102,240,102z M240.5,59.7l0.3,0.2c0.2-0.1,0.4-0.2,0.5-0.2
					l0.3,0.5v0.3c-0.2,0-0.3-0.2-0.5-0.5l-0.3,0.1h-0.6V60C240.2,59.8,240.3,59.7,240.5,59.7z M240.2,94.8l0.1,0.8l0.5-0.3
					c-0.1-0.2-0.1-0.4-0.1-0.5H240.2z M240.3,144.1h0.5v-0.3h-0.1C240.4,143.8,240.3,143.9,240.3,144.1z M240.5,145.4h0.2
					c0.2,0,0.3-0.1,0.3-0.3h-0.2C240.6,145.1,240.5,145.2,240.5,145.4z M240.8,94.6v0.2c0,0.2,0.1,0.3,0.3,0.3l0.1-0.3v-0.2H240.8z
					 M241.9,143.9l-0.3-0.1c-0.2,0.1-0.3,0.1-0.5,0.1c0.1,0.2,0.1,0.5,0.1,0.8h0.5c0-0.2,0.2-0.5,0.7-1v-0.1L241.9,143.9z
					 M241.6,92.9v0.2c0.2,0,0.4-0.2,0.6-0.7h-0.1C241.9,92.4,241.8,92.5,241.6,92.9z M242.1,102.2v0.3c0.7,0.2,1.2,0.3,1.4,0.3h0.2
					v-0.2L242.1,102.2z M246.3,142.1c0,0.4-0.3,0.7-1,0.8c-2.1,1.9-3.2,3-3.2,3.2v0.2l1-0.8l0.3,0.1c0.5-1,1.1-1.4,1.6-1.4l-0.2-0.3
					v-0.1c0.2,0,0.7-0.3,1.5-0.8h0.1l-0.1-0.3h0.3v-0.5L246.3,142.1L246.3,142.1z M242.2,60.8h0.5v0.3h-0.5V60.8z M242.4,93.5h0.1
					c0.2,0,0.3-0.1,0.3-0.3h-0.1C242.5,93.2,242.4,93.3,242.4,93.5z M242.7,58.1v0.3h0.6c0-0.2-0.1-0.3-0.3-0.3H242.7z M242.9,146.5
					v0.5c0.2-0.1,0.3-0.1,0.5-0.1v-0.3L242.9,146.5L242.9,146.5z M243,144.4h0.2c0.2,0,0.3-0.1,0.3-0.3h-0.1
					C243.2,144.1,243,144.2,243,144.4z M243.4,146.3h0.1c0.4-0.3,0.9-0.6,1.5-0.8c0.1-0.2,0.1-0.3,0.1-0.5l-0.3-0.1
					C244.6,144.9,244.2,145.4,243.4,146.3z M244,63.2h0.3v0.3h-0.6C243.7,63.3,243.8,63.2,244,63.2z M243.9,142.3h0.5v-0.5
					C244.2,141.8,244,142,243.9,142.3z M244,103.5c0.1,0.2,0.2,0.3,0.3,0.3h0.2c0-0.2-0.1-0.3-0.3-0.3H244z M244.2,93.7L244.2,93.7
					c0.2,0.1,0.3,0,0.3-0.2v-0.2C244.3,93.4,244.2,93.5,244.2,93.7z M244.5,61h0.5v0.3h-0.5V61z M244.5,107v0.2c0.2,0,0.4,0,0.6,0.1
					h0.1v-0.1c-0.1,0-0.3-0.1-0.5-0.2H244.5z M244.7,63.1h0.3l0.8,0.1v0.3h-0.3c-0.2,0-0.3-0.1-0.3-0.3l-0.3,0.2h-0.1L244.7,63.1
					L244.7,63.1z M244.7,93.2h0.5v-0.3H245C244.8,92.9,244.7,93,244.7,93.2z M245,142.6h0.1c0.2,0,0.3-0.1,0.3-0.3v-0.2
					C245.3,142.1,245.2,142.3,245,142.6z M245.3,92.9c0.2,0,0.5-0.3,1-1v-0.3C245.9,91.6,245.6,92,245.3,92.9z M245.5,144.6v0.1h0.1
					c0.5-0.2,0.7-0.5,0.7-1C246.1,143.7,245.9,144,245.5,144.6z M245.6,58.2c0,0.2,0.1,0.3,0.3,0.3s0.3-0.2,0.5-0.5h-0.3
					C245.9,58.2,245.8,58.2,245.6,58.2z M245.6,88.4v0.3c0.2,0,0.3-0.1,0.3-0.3V88C245.7,88.1,245.6,88.2,245.6,88.4z M245.6,107.5
					v0.2h0.5v-0.3C245.9,107.5,245.8,107.5,245.6,107.5z M246,62.6h0.1c0.2,0,0.3,0.1,0.3,0.3V63c-0.2-0.1-0.4-0.1-0.5-0.1L246,62.6
					L246,62.6z M246.8,104c0,0.2,0.2,0.3,0.5,0.5h0.3v-0.1c0-0.2-0.1-0.3-0.3-0.3L246.8,104L246.8,104z M246.8,142.9v0.3
					c0.3-0.2,0.5-0.3,0.6-0.3v-0.3C247.1,142.8,246.9,142.9,246.8,142.9z M247.1,90.5h0.2c0.2,0,0.4-0.2,0.6-0.7h-0.1
					C247.6,89.8,247.3,90,247.1,90.5z M247.7,58.6L247.7,58.6l0.1,0.1l1-0.1v-0.2h-0.6C248,58.5,247.8,58.6,247.7,58.6z M248.1,89.5
					h0.1c1.2-1.1,1.8-2,1.8-2.6C249.7,86.9,249.1,87.8,248.1,89.5z M248.2,104.4v0.2c0,0.2,0.1,0.3,0.3,0.3l0.1-0.3
					C248.6,104.6,248.4,104.6,248.2,104.4z M248.5,61.6L248.5,61.6l0.6,0.1v-0.1H248.5z M248.7,59.5h0.5v-0.3H249
					C248.8,59.2,248.7,59.4,248.7,59.5z M248.8,109.9c0,0.2,0.1,0.3,0.3,0.3h0.1v-0.3H248.8z M249.6,138.4h0.2
					c0.1,0,0.4-0.3,0.8-0.8v-0.1h-0.1C250.3,137.5,250,137.8,249.6,138.4z M250,60.6l-0.1,0.3l0.3,0.2h0.7
					C250.8,61,250.5,60.8,250,60.6z M250.1,86.1v0.6c0.2,0,0.3-0.2,0.5-0.5v-0.1H250.1z M250.6,85.6V86c0.2-0.1,0.4-0.2,0.5-0.2
					v-0.3C250.9,85.6,250.7,85.6,250.6,85.6z M250.6,137.3h0.3c0.2,0,0.3-0.1,0.3-0.3v-0.3H251C250.9,136.7,250.8,136.9,250.6,137.3
					z M250.8,61.9c0,0.2,0.1,0.3,0.3,0.3h0.2c0-0.2-0.1-0.3-0.3-0.3H250.8z M251.8,135.4c0,0.2-0.2,0.5-0.5,1h0.3
					c0-0.3,0.2-0.5,0.5-0.5v-0.5H251.8L251.8,135.4z M251.8,112.7c0.2,0,0.3,0.2,0.5,0.5h-0.1c-0.2,0-0.3-0.1-0.3-0.3L251.8,112.7
					L251.8,112.7z M252.1,83.5c0,0.1-0.1,0.3-0.2,0.5v0.2h0.2c0-0.2,0.1-0.3,0.3-0.3v-0.3L252.1,83.5L252.1,83.5z M253.5,81.4v0.2
					h0.1c0.2,0,0.3-0.1,0.3-0.3V81C253.8,80.9,253.7,81.1,253.5,81.4z M254.3,135.8v0.3c0.2,0,0.3-0.2,0.5-0.5v-0.2h-0.2
					C254.4,135.6,254.3,135.7,254.3,135.8z M254.8,79L254.8,79c0.2,0.1,0.3,0,0.3-0.2v-0.2C254.9,78.7,254.8,78.8,254.8,79z
					 M255.2,78.2l0.3,0.1c0.3-0.8,0.5-1.4,0.5-1.6C255.7,76.8,255.5,77.3,255.2,78.2z"/>
			</g>
		</g>
		<g>
			<path class="st8" d="M71,196.7c0-0.7,0-1.5,0.1-2.5c0.3,0,0.5,0.4,0.7,1.3l3.5,7.9l0.3,1.1c-0.3-0.1-0.7-0.5-1.2-1.1
				c-0.9-1.8-2.2-3.3-4.1-4.6c-1.8-1.3-3.8-2-6-2c-1.4,0.1-2.6,0.6-3.6,1.6s-1.5,2.3-1.5,3.8c0.1,0.8,0.4,1.6,0.9,2.2
				c0.5,0.6,1.2,1.1,2,1.5s1.8,0.8,3.1,1.1c1.2,0.4,2.2,0.6,3,0.8c2.1,0.6,3.8,1.3,5.1,2.3c1.3,0.9,2.2,2,2.8,3.2
				c0.6,1.2,0.9,2.4,0.9,3.6c0,1.8-0.5,3.4-1.5,4.7s-2.2,2.3-3.8,2.9c-1.5,0.7-3.2,1-4.8,1c-0.5,0-1.4-0.1-2.7-0.3
				c-1.3-0.2-2.3-0.3-2.9-0.4c-1.7,0.7-2.5,1.8-2.3,3.5c-0.1-0.1-0.5-0.9-1.1-2.3l-3.4-8.7c-0.3-0.6-0.4-1-0.5-1.2
				c0.1-0.1,0.5,0.2,1.1,0.9c0.9,1,1.7,2,2.4,2.9s1.7,1.8,2.8,2.6s2.4,1.4,3.6,1.6c0.6,0.1,1.4,0.2,2.6,0.3c1.7,0,3.1-0.4,4.3-1.2
				c1.2-0.7,1.9-2,2.1-3.7c0.1-0.5,0.1-0.9,0.1-1.3c0-1-0.2-1.8-0.7-2.5s-1.2-1.2-2.1-1.7s-2.2-1-3.9-1.5s-3.2-1-4.4-1.4
				c-2.2-0.7-3.8-1.7-4.9-3.1c-1.1-1.4-1.6-2.9-1.6-4.7c0.1-1.7,0.5-3.1,1.3-4.2c0.8-1.1,1.9-1.9,3.2-2.5c1.3-0.5,2.9-0.8,4.7-0.8
				c0.5,0,0.8,0,1.1,0c0.5,0,1.2,0.1,2.2,0.3c0.9,0.2,1.6,0.3,1.9,0.3C70,196.4,70.5,196.5,71,196.7z"/>
			<path class="st8" d="M88.2,206.2c1.4,0,2.7,0.2,3.9,0.8c1.2,0.5,2.2,1.3,2.8,2.4s1,2.1,1.2,3.3c0.2,1.1,0.2,2.2,0.2,3.2
				c0,1.7-0.4,3.3-1.1,4.8s-1.6,2.7-2.6,3.5c-1,0.9-2.5,1.3-4.4,1.3c-2.2,0.1-3.8-0.4-4.9-1.4c-1.1-1.1-1.9-2.3-2.5-3.8
				s-0.9-3.2-0.9-5.1c0.1-1.5,0.5-3,1.2-4.4s1.6-2.5,2.7-3.3C84.9,206.7,86.4,206.3,88.2,206.2z M88.1,207.2c-1.6,0-2.7,0.8-3.5,2.3
				s-1.2,3.5-1.3,6c0,2.7,0.3,4.9,1.1,6.5c0.7,1.6,2,2.5,3.8,2.5c1.2,0,2.2-0.4,2.9-1.1c0.7-0.7,1.2-1.8,1.6-3.2
				c0.3-1.4,0.5-3,0.5-4.9c0-1.6-0.2-3-0.5-4.2s-0.8-2.1-1.6-2.8C90.4,207.5,89.4,207.2,88.1,207.2z"/>
			<path class="st8" d="M106.5,210c3.1-2.5,5.6-3.7,7.4-3.8c1.1,0,2.1,0.4,2.8,1.1c0.7,0.7,1,1.8,1,3.1v8.3c0,1.4,0.1,2.5,0.2,3.3
				c0.2,0.7,0.4,1.2,0.7,1.4c0.3,0.2,0.8,0.4,1.4,0.5c0.7,0.1,1.1,0.2,1.2,0.2c0.4,0.3,0.6,0.5,0.7,0.6c-3.7,0-7.4,0-11,0
				c0.2-0.3,0.5-0.5,0.9-0.8c0.6-0.1,1-0.2,1.2-0.4s0.5-0.7,0.6-1.4c0.2-0.7,0.3-1.9,0.3-3.4v-7.3c0-2.1-0.7-3.1-2-3.1
				c-1.1,0-3,0.9-5.5,2.6v8.9c0,1.5,0.2,2.6,0.6,3.3s1,1,1.8,1c0.7,0.4,1.1,0.6,1,0.6c-1.4,0.1-5.2,0.1-11.5,0.1
				c0.1-0.2,0.4-0.4,0.9-0.6c0.4,0,0.7-0.1,1-0.2c0.7,0,1.3-0.3,1.7-0.9c0.4-0.6,0.6-1.7,0.6-3.4v-6.4c0-1.4-0.2-2.3-0.6-2.8
				s-1-0.7-1.8-0.7c-0.3,0-0.5-0.1-0.8,0c-0.3,0-0.6,0-1,0c0.1-0.1,0.4-0.3,0.8-0.5c2.3-0.5,4.2-1.2,5.6-2.2
				c0.8-0.7,1.3-1.2,1.5-1.6c0,1.2,0.1,1.7,0.1,1.6C106.5,207,106.5,210,106.5,210z"/>
			<path class="st8" d="M137,221.5c-1.2,0.8-2,1.4-2.4,1.6c-0.4,0.3-0.9,0.6-1.6,1c-0.7,0.4-1.4,0.6-2.1,0.8s-1.5,0.2-2.1,0.2
				c-1.2,0-2.2-0.4-2.7-1.2c-0.6-0.8-0.9-1.8-0.9-3.1v-7c0-1.2-0.1-2-0.3-2.6c-0.2-0.6-0.4-1-0.8-1.2c-0.3-0.2-0.8-0.3-1.3-0.3
				l-2.2,0.1c1.5-0.7,2.9-1.2,4.1-1.7s2.1-0.9,2.7-1.3c0.7-0.1,1.2-0.7,1.6-1.9c-0.1,11.6-0.1,16.5,0,14.8c0,2.3,0.7,3.5,2.2,3.6
				c0.2-0.1,0.5-0.1,0.8-0.1c1.2-0.3,2.9-1.2,5.1-2.7v-7.9c0-1.2-0.2-2-0.7-2.4s-1.1-0.7-1.9-0.7l-2.2,0.1c1.1-0.5,2.4-1,3.9-1.5
				s2.7-1.1,3.6-1.8c0,0.1,0.3-0.3,1-1.3c0,1,0,2,0.1,2.9v11c0,1.5,0.1,2.5,0.3,3.2s0.6,1,1,1s1.5,0.5,3.2,1.4
				c-5.1,0.2-7.6,0.2-7.4,0c-0.6,0-0.9-0.3-0.9-0.8L137,221.5L137,221.5z"/>
			<path class="st8" d="M162,202.5c0-2-0.3-3.4-1-4.1c-0.7-0.7-1.6-1-2.8-1l-0.7-0.2c-0.6-0.3-0.9-0.7-0.9-1c0-0.4,0.2-0.4,0.6,0.1
				h15.2c2.9,0,5,0.5,6.3,1.5c1.4,1,2.1,2.5,2.4,4.5v1c0,3.4-2.2,5.3-6.7,5.8c1.6,0,2.9,0.4,4.2,1c1.2,0.6,2.2,1.5,2.9,2.5
				s1.1,2,1.2,3.1c0,1.1-0.2,2.1-0.5,3.2c-0.3,1-0.8,2-1.6,2.9c-0.7,0.9-1.6,1.6-2.8,2.1s-2.5,0.8-4.1,0.8h-17.4
				c0-0.2,0.4-0.5,1.2-0.8c1.1,0,2-0.1,2.6-0.5c0.6-0.3,1-0.9,1.3-1.8c0.3-0.9,0.5-2.3,0.5-4.3v-14.8H162z M172,208.8
				c1.6,0,2.9-0.5,3.7-1.6c0.8-1,1.2-2.5,1.2-4.3v-1.3c-0.3-2.8-2.2-4.2-5.8-4.2c-1.5,0-2.7,0.3-3.6,0.8s-1.4,1.5-1.4,3v7.6H172
				L172,208.8z M171.7,209.8h-5.5V220c0,1.1,0.3,1.9,0.8,2.4c0.6,0.5,1.2,0.9,1.8,1c0.7,0.1,1.4,0.2,2.2,0.2c2.4,0,4.2-0.7,5.3-2
				s1.6-3.2,1.6-5.5C178,211.9,175.9,209.8,171.7,209.8z"/>
			<path class="st8" d="M196.8,213.9v-3c0-1.1-0.3-2-0.9-2.7s-1.4-1-2.4-1c-0.6,0-1.2,0.1-1.7,0.3c-0.6,0.2-1,0.5-1.4,0.8
				c-0.3,0.4-0.9,1.3-1.7,2.7c0,0.6,0.1,1.2,0.1,1.6c0.1,0.4-0.2,0.7-0.8,0.7c-1.5-0.2-2.3-0.9-2.4-2.2c0-0.8,0.4-1.5,1-2.3
				c0.7-0.8,1.6-1.4,2.7-1.9c1.2-0.5,2.5-0.8,4-0.8c4.8,0,7.2,1.7,7.2,5.2v9.3c0,1.8,0.5,2.7,1.6,2.7c0.3,0,0.5,0,0.7-0.1
				s0.3-0.2,0.4-0.4c0.1-0.2,0.3-0.4,0.4-0.8c0.2-0.4,0.4-0.8,0.6-1.4c0.2,0,0.3,0.4,0.3,1.1c0,1-0.4,1.8-1.2,2.5s-1.7,1-2.6,1
				c-2.6,0-3.9-1.3-4-4c0-0.2,0.1-0.5,0.1-0.8c-0.4,1.5-1.3,2.7-2.6,3.5s-2.7,1.3-4.1,1.3c-1.3,0-2.4-0.4-3.4-1.1
				c-1-0.7-1.5-1.7-1.6-2.8c0-1.4,0.3-2.5,0.9-3.5c0.6-0.9,1.4-1.7,2.5-2.2c1-0.6,2.3-1,3.6-1.2C193.4,214.2,195,214,196.8,213.9z
				 M196.8,214.9c-0.1,0-0.2,0-0.4,0s-0.3,0-0.4,0c-1.2,0-2.3,0.2-3.4,0.6c-1.1,0.4-1.9,0.9-2.6,1.6c-0.7,0.7-1.3,1.7-1.9,2.8
				c0,0.1,0,0.2,0.1,0.5c0,0.2,0,0.4,0.1,0.5c0.2,0.8,0.6,1.5,1.1,2c0.6,0.5,1.5,0.7,2.8,0.6c0.8,0,1.5-0.3,2.2-0.8s1.3-1.2,1.7-2
				s0.7-1.9,0.7-3.2L196.8,214.9L196.8,214.9z"/>
			<path class="st8" d="M206.1,207.4l1.6-0.5c0.9,0,1.4-0.4,1.4-1.2c0-1.1,0.1-2.4,0.4-3.9c0.3-1.5,1-3,2.2-4.4s2.9-2.1,5.1-2.2
				c2.5-0.1,3.9,1.1,4.2,3.6c0,0.6-0.1,0.9-0.2,1.1c-0.1,0.1-0.5,0.5-1.1,0.9c-0.6-0.1-0.8-0.4-0.9-1.1c0-0.7-0.1-1.3-0.1-1.9
				c0.1-0.9-0.1-1.4-0.8-1.5c-0.6-0.1-1.2-0.1-1.8-0.2c-0.8,0-1.5,0.5-2.2,1.4s-1.1,2.1-1.1,3.5v5.8l3.5,0.3c0.6,0,0.9,0.1,0.9,0.4
				c-0.4,0.1-0.7,0.2-0.9,0.2h-3.5v11.8c0,1.1,0.1,2,0.4,2.6c0.2,0.6,0.6,1,1,1.2s1,0.3,1.8,0.3c0.2-0.1,0.6-0.1,0.9-0.1
				c0.7,0.2,1.1,0.5,1.1,0.9c-0.4,0.2-4.8,0.2-13.2,0c0-0.4,0.3-0.7,0.9-0.9c1,0,1.8-0.1,2.2-0.3c0.5-0.2,0.8-0.6,0.9-1.1
				c0.2-0.6,0.2-1.4,0.2-2.7v-11.8h-3.1c-0.5,0-0.8-0.1-0.8-0.4C205.2,207.4,205.5,207.4,206.1,207.4z"/>
			<path class="st8" d="M225.6,210c3.1-2.5,5.6-3.7,7.4-3.8c1.1,0,2.1,0.4,2.8,1.1c0.7,0.7,1,1.8,1,3.1v8.3c0,1.4,0.1,2.5,0.2,3.3
				c0.2,0.7,0.4,1.2,0.7,1.4s0.8,0.4,1.4,0.5c0.7,0.1,1.1,0.2,1.2,0.2c0.4,0.3,0.6,0.5,0.7,0.6c-3.7,0-7.4,0-11,0
				c0.2-0.3,0.5-0.5,0.9-0.8c0.6-0.1,1-0.2,1.2-0.4s0.5-0.7,0.6-1.4c0.2-0.7,0.3-1.9,0.3-3.4v-7.3c0-2.1-0.7-3.1-2-3.1
				c-1.1,0-3,0.9-5.5,2.6v8.9c0,1.5,0.2,2.6,0.6,3.3c0.4,0.7,1,1,1.8,1c0.7,0.4,1.1,0.6,1,0.6c-1.4,0.1-5.2,0.1-11.5,0.1
				c0.1-0.2,0.4-0.4,0.9-0.6c0.4,0,0.7-0.1,1-0.2c0.7,0,1.3-0.3,1.7-0.9c0.4-0.6,0.6-1.7,0.6-3.4v-6.4c0-1.4-0.2-2.3-0.6-2.8
				c-0.4-0.5-1-0.7-1.8-0.7c-0.3,0-0.5-0.1-0.8,0c-0.3,0-0.6,0-1,0c0.1-0.1,0.4-0.3,0.8-0.5c2.3-0.5,4.2-1.2,5.6-2.2
				c0.8-0.7,1.3-1.2,1.5-1.6c0,1.2,0.1,1.7,0.1,1.6L225.6,210L225.6,210z"/>
			<path class="st8" d="M253.7,213.9v-3c0-1.1-0.3-2-0.9-2.7s-1.4-1-2.4-1c-0.6,0-1.2,0.1-1.7,0.3c-0.6,0.2-1,0.5-1.3,0.8
				c-0.3,0.4-0.9,1.3-1.7,2.7c0,0.6,0,1.2,0.1,1.6c0.1,0.4-0.2,0.7-0.8,0.7c-1.5-0.2-2.3-0.9-2.4-2.2c0-0.8,0.4-1.5,1-2.3
				c0.7-0.8,1.6-1.4,2.7-1.9c1.2-0.5,2.5-0.8,4-0.8c4.8,0,7.2,1.7,7.2,5.2v9.3c0,1.8,0.5,2.7,1.6,2.7c0.3,0,0.5,0,0.7-0.1
				s0.3-0.2,0.4-0.4s0.3-0.4,0.4-0.8s0.4-0.8,0.6-1.4c0.2,0,0.3,0.4,0.3,1.1c0,1-0.4,1.8-1.2,2.5c-0.8,0.7-1.7,1-2.6,1
				c-2.6,0-3.9-1.3-4-4c0-0.2,0.1-0.5,0.1-0.8c-0.4,1.5-1.3,2.7-2.6,3.5s-2.7,1.3-4.1,1.3c-1.3,0-2.4-0.4-3.4-1.1
				c-1-0.7-1.5-1.7-1.6-2.8c0-1.4,0.3-2.5,0.9-3.5c0.6-0.9,1.4-1.7,2.5-2.2c1-0.6,2.3-1,3.6-1.2C250.4,214.2,251.9,214,253.7,213.9z
				 M253.7,214.9c-0.1,0-0.2,0-0.4,0s-0.3,0-0.4,0c-1.2,0-2.3,0.2-3.4,0.6c-1.1,0.4-1.9,0.9-2.6,1.6c-0.7,0.7-1.3,1.7-1.9,2.8
				c0,0.1,0,0.2,0.1,0.5c0,0.2,0,0.4,0.1,0.5c0.2,0.8,0.6,1.5,1.1,2c0.6,0.5,1.5,0.7,2.8,0.6c0.8,0,1.5-0.3,2.2-0.8s1.3-1.2,1.7-2
				c0.4-0.9,0.7-1.9,0.7-3.2L253.7,214.9L253.7,214.9z"/>
		</g>
	</g>
</g>
<g id="Layer_3" class="st1">
	<g class="st3">
		<g>
			<g>
				<g>
					<g>
						<g>
							<defs>
								<path id="SVGID_1_" d="M157.3,71.9h5.2c12.5,0,22.8,10.3,22.8,22.8v22.8H170c-13.4,0-27.7-12.9-32.1-28.8
									c0.3,10.1,3.4,20.7,13.2,28.8h-5.2c-12.5,0-22.8-10.3-22.8-22.8V71.9h15.3c13.4,0,27.7,12.9,32.1,28.8
									C170.1,90.6,167,80,157.3,71.9 M115.9,64.8v30c0,16.5,13.5,30,30,30h46.6v-30c0-16.5-13.5-30-30-30
									C162.4,64.8,115.9,64.8,115.9,64.8z"/>
							</defs>
							<clipPath id="SVGID_2_">
								<use xlink:href="#SVGID_1_"  style="overflow:visible;"/>
							</clipPath>
							
								<linearGradient id="SVGID_3_" gradientUnits="userSpaceOnUse" x1="795.7584" y1="-575.9483" x2="795.98" y2="-575.9483" gradientTransform="matrix(-302.2244 -257.8459 257.8459 -302.2244 389191.5313 31241.0625)">
								<stop  offset="0" style="stop-color:#48BFAB"/>
								<stop  offset="1" style="stop-color:#93C83E"/>
							</linearGradient>
							<polygon class="st9" points="160.2,162.5 86.3,99.5 148.1,27 222,90 							"/>
						</g>
					</g>
				</g>
			</g>
		</g>
	</g>
	<polygon class="st3" points="21.8,136.7 29.2,136.7 46.5,163.3 46.5,136.7 54.2,136.7 54.2,177.1 46.8,177.1 29.5,150.6 
		29.5,177.1 21.8,177.1 	"/>
	<g class="st3">
		<g>
			<g>
				<g>
					<g>
						<g>
							<defs>
								<polygon id="SVGID_4_" points="11.3,61 305.3,61 306.3,350 12.3,350 								"/>
							</defs>
							<clipPath id="SVGID_5_">
								<use xlink:href="#SVGID_4_"  style="overflow:visible;"/>
							</clipPath>
							<path class="st10" d="M64,147.2h7.6v14.4c0,2.8,0.2,4.8,0.6,5.8c0.4,1.1,1,1.9,1.9,2.5s1.9,0.9,3.2,0.9
								c1.2,0,2.3-0.3,3.2-0.9c0.9-0.6,1.5-1.5,1.9-2.6c0.3-0.9,0.5-2.7,0.5-5.5v-14.7h7.5v12.7c0,5.2-0.4,8.8-1.2,10.7
								c-1,2.3-2.5,4.1-4.5,5.4c-2,1.3-4.5,1.9-7.5,1.9c-3.3,0-5.9-0.7-8-2.2c-2-1.5-3.5-3.5-4.3-6.1c-0.6-1.8-0.9-5.1-0.9-9.9
								L64,147.2L64,147.2z"/>
						</g>
					</g>
				</g>
			</g>
		</g>
		<g>
			<g>
				<g>
					<g>
						<g>
							<defs>
								<polygon id="SVGID_6_" points="11.3,61 305.3,61 306.3,350 12.3,350 								"/>
							</defs>
							<clipPath id="SVGID_7_">
								<use xlink:href="#SVGID_6_"  style="overflow:visible;"/>
							</clipPath>
							<polygon class="st11" points="100.1,136.2 107.6,136.2 107.6,147.2 112,147.2 112,153.7 107.6,153.7 107.6,177.1 
								100.1,177.1 100.1,153.7 96.2,153.7 96.2,147.2 100.1,147.2 							"/>
						</g>
					</g>
				</g>
			</g>
		</g>
		<g>
			<g>
				<g>
					<g>
						<g>
							<defs>
								<polygon id="SVGID_8_" points="11.3,61 305.3,61 306.3,350 12.3,350 								"/>
							</defs>
							<clipPath id="SVGID_9_">
								<use xlink:href="#SVGID_8_"  style="overflow:visible;"/>
							</clipPath>
							<path class="st12" d="M115.7,147.2h6.4v3.8c0.7-1.5,1.6-2.6,2.8-3.4c1.2-0.8,2.4-1.2,3.8-1.2c1,0,2,0.3,3.1,0.8l-2.3,6.5
								c-0.9-0.4-1.6-0.7-2.2-0.7c-1.2,0-2.1,0.7-2.9,2.1c-0.8,1.4-1.2,4.2-1.2,8.4v1.5v12.1h-7.5L115.7,147.2L115.7,147.2z"/>
						</g>
					</g>
				</g>
			</g>
		</g>
		<g>
			<g>
				<g>
					<g>
						<g>
							<defs>
								<polygon id="SVGID_10_" points="11.3,61 305.3,61 306.3,350 12.3,350 								"/>
							</defs>
							<clipPath id="SVGID_11_">
								<use xlink:href="#SVGID_10_"  style="overflow:visible;"/>
							</clipPath>
							<path class="st13" d="M139.8,134.9c1.3,0,2.4,0.5,3.4,1.4c0.9,1,1.4,2.1,1.4,3.5c0,1.3-0.5,2.5-1.4,3.4s-2,1.4-3.3,1.4
								s-2.5-0.5-3.4-1.4c-0.9-1-1.4-2.1-1.4-3.5c0-1.3,0.5-2.4,1.4-3.4C137.4,135.4,138.5,134.9,139.8,134.9 M136,147.2h7.5v29.9
								H136V147.2z"/>
						</g>
					</g>
				</g>
			</g>
		</g>
		<g>
			<g>
				<g>
					<g>
						<g>
							<defs>
								<polygon id="SVGID_12_" points="11.3,61 305.3,61 306.3,350 12.3,350 								"/>
							</defs>
							<clipPath id="SVGID_13_">
								<use xlink:href="#SVGID_12_"  style="overflow:visible;"/>
							</clipPath>
							<path class="st14" d="M173.8,135.7h7.5v41.5h-7.5V174c-1.5,1.4-2.9,2.4-4.4,3s-3.1,0.9-4.8,0.9c-3.9,0-7.2-1.5-10-4.5
								s-4.2-6.7-4.2-11.2c0-4.6,1.4-8.4,4.1-11.4c2.7-3,6-4.4,9.9-4.4c1.8,0,3.5,0.3,5.1,1s3,1.7,4.4,3.1L173.8,135.7L173.8,135.7
								L173.8,135.7z M165.9,153.4c-2.3,0-4.2,0.8-5.8,2.5c-1.5,1.6-2.3,3.7-2.3,6.3s0.8,4.7,2.3,6.4c1.6,1.7,3.5,2.5,5.8,2.5
								c2.4,0,4.3-0.8,5.9-2.5c1.6-1.6,2.3-3.8,2.3-6.4c0-2.6-0.8-4.7-2.3-6.3C170.3,154.2,168.3,153.4,165.9,153.4"/>
						</g>
					</g>
				</g>
			</g>
		</g>
		<g>
			<g>
				<g>
					<g>
						<g>
							<defs>
								<polygon id="SVGID_14_" points="11.3,61 305.3,61 306.3,350 12.3,350 								"/>
							</defs>
							<clipPath id="SVGID_15_">
								<use xlink:href="#SVGID_14_"  style="overflow:visible;"/>
							</clipPath>
							<path class="st15" d="M204.4,146.4c2.8,0,5.5,0.7,8,2.1c2.5,1.4,4.4,3.3,5.8,5.7c1.4,2.4,2.1,5,2.1,7.8s-0.7,5.5-2.1,7.9
								c-1.4,2.5-3.3,4.4-5.7,5.8c-2.4,1.4-5.1,2.1-8,2.1c-4.3,0-8-1.5-11-4.6s-4.5-6.8-4.5-11.1c0-4.7,1.7-8.6,5.1-11.7
								C197,147.8,200.5,146.4,204.4,146.4 M204.5,153.5c-2.3,0-4.3,0.8-5.8,2.4c-1.6,1.6-2.3,3.7-2.3,6.2c0,2.6,0.8,4.7,2.3,6.3
								s3.5,2.4,5.8,2.4c2.4,0,4.3-0.8,5.9-2.4c1.6-1.6,2.3-3.7,2.3-6.3s-0.8-4.7-2.3-6.3C208.9,154.3,206.9,153.5,204.5,153.5"/>
						</g>
					</g>
				</g>
			</g>
		</g>
		<g>
			<g>
				<g>
					<g>
						<g>
							<defs>
								<polygon id="SVGID_16_" points="11.3,61 305.3,61 306.3,350 12.3,350 								"/>
							</defs>
							<clipPath id="SVGID_17_">
								<use xlink:href="#SVGID_16_"  style="overflow:visible;"/>
							</clipPath>
							<path class="st16" d="M257.1,153.3l-6.2,3.4c-1.2-1.2-2.3-2.1-3.5-2.6c-1.1-0.5-2.5-0.7-4-0.7c-2.8,0-5.1,0.8-6.8,2.5
								s-2.6,3.8-2.6,6.4c0,2.5,0.8,4.6,2.5,6.2c1.7,1.6,3.9,2.4,6.6,2.4c3.4,0,6-1.1,7.8-3.4l5.9,4.1c-3.2,4.2-7.7,6.3-13.6,6.3
								c-5.3,0-9.4-1.6-12.4-4.7c-3-3.1-4.5-6.8-4.5-10.9c0-2.9,0.7-5.6,2.2-8c1.4-2.4,3.5-4.4,6.1-5.7c2.6-1.4,5.5-2.1,8.7-2.1
								c3,0,5.6,0.6,8,1.8C253.6,149.4,255.6,151.1,257.1,153.3"/>
						</g>
					</g>
				</g>
			</g>
		</g>
		<g>
			<g>
				<g>
					<g>
						<g>
							<defs>
								<polygon id="SVGID_18_" points="11.3,61 305.3,61 306.3,350 12.3,350 								"/>
							</defs>
							<clipPath id="SVGID_19_">
								<use xlink:href="#SVGID_18_"  style="overflow:visible;"/>
							</clipPath>
							<polygon class="st17" points="265.3,135.7 272.8,135.7 272.8,159.5 283.8,147.2 293.3,147.2 280.4,161.5 294.8,177.1 
								285.5,177.1 272.8,163.3 272.8,177.1 265.3,177.1 							"/>
						</g>
					</g>
				</g>
			</g>
		</g>
	</g>
</g>
<g id="Layer_5">
</g>
<g id="Layer_2_2_">
	<g>
		<path class="st18" d="M253.4,167.9h-4.9c0,3.1-1.6,2.2,13.1,2.2c0.9,0,0.7-0.4,0.7-1.5c0-1.2-2.8-0.7-5.3-0.7l7.4-17.2h16.8
			c0.6,2.2,7.1,15,7.5,17.2c-5.6,0-6.5-0.7-6.5,1.5c0,0.6,0.1,0.7,0.7,0.7h22.8c1,0,0.9-0.4,0.9-1.5c0-1.3-4-0.7-6.3-0.7
			c-0.3-0.6-0.4-1-0.7-1.6l-10.6-24c-0.9-2-1.9-4.1-2.8-6.4c-1-2.2-1.9-4.1-2.9-6.4c-0.4-1-0.9-1.9-1.3-3.1
			c-0.6-1.2-0.9-2.2-1.5-3.2l-2.1-4.7c-0.6-1.6-0.3-1.3-3.2-1.3c-0.9,0-1.2,1.3-1.8,2.6c-5.9,14.7-12.8,30-18.7,44.6
			C254.3,165.5,253.5,166.8,253.4,167.9L253.4,167.9z M265.2,148h15.3L273,130L265.2,148z"/>
		<path class="st18" d="M8.7,120.4h5v47.5c-5.7,0-5-0.6-5,1.9h14.6v-1.9H18v-42.2l11.6,16.2c2.1,2.9,18.9,26.4,19,27.2h3.8v-48.6h5
			v-2H42.9v2h5.3v30.3c-0.9-0.6-22-31.6-22.1-32.3H8.7V120.4z"/>
		<path class="st18" d="M167.8,120.4c7.8,0,5-1.2,9.9,6.1c1.5,2.2,2.8,4.4,4.3,6.6l8.3,13.1c-1.9,2.9-10,12.5-12.8,16.2l-4.3,5.5
			c-0.7,0-1.6,0-2.5,0c-1.9-0.1-1.9-0.3-1.9,1.5c0,0.6,0.1,0.7,0.7,0.7h11.5c1,0,0.7-0.6,0.7-2.2h-4l11-13.7c0.6-0.9,3.1-4.2,4-4.5
			c0.3,0.7,0.9,1.6,1.3,2.2c0.4,0.9,1,1.6,1.5,2.3c1,1.5,1.9,2.9,2.9,4.5l5.9,9.2h-5.7v2.2h22.5c1,0,0.7-0.6,0.7-2.2
			c-6.6,0-4.6,0.7-7.1-3.1c-0.9-1.2-1.5-2.3-2.2-3.5l-13.1-20.4c0.7-1.2,7.2-8.9,8.4-10.3l7.2-9c1-1.6,0.6-1.2,4.9-1.2v-2h-12.8v2
			h4.3L197,137.6c-0.2-1-1.9-3.3-2.7-4.4l-8.4-12.8h5.6v-2h-23.7L167.8,120.4L167.8,120.4z"/>
		<path class="st18" d="M90.5,120.4h6.5v47.5h-6.5v1.9h42.7v-16.3h-1c-1.8,7.3-6.8,14.4-15.9,14.4h-8.7v-24.3
			c7.7,0,11.2-0.6,14.1,8.3c0.3,1.2,0,1.3,1.5,1.3v-21.8h-1c-0.6,2.3-1.6,4.7-2.9,6.6c-2.7,3.8-7.5,3.1-11.6,3.1v-20.5
			c4.1,0,12.8-0.4,16.2,0.9c2.8,1.2,3.8,2.3,5.5,4.2c3.1,3.8,1.6,5.8,4,5.8v-13H90.5V120.4z"/>
	</g>
</g>
</svg>
