<?xml version="1.0" encoding="utf-8"?>
<!-- Generator: Adobe Illustrator 24.0.1, SVG Export Plug-In . SVG Version: 6.00 Build 0)  -->
<svg version="1.1" id="Layer_1" xmlns="http://www.w3.org/2000/svg" xmlns:xlink="http://www.w3.org/1999/xlink" x="0px" y="0px"
	 viewBox="0 0 286.2 260.7" style="enable-background:new 0 0 286.2 260.7;" xml:space="preserve">
<style type="text/css">
	.st0{display:none;}
	.st1{display:inline;fill-rule:evenodd;clip-rule:evenodd;fill:#FFFFFF;}
	.st2{display:inline;}
	.st3{fill-rule:evenodd;clip-rule:evenodd;fill:#757576;}
	.st4{fill-rule:evenodd;clip-rule:evenodd;fill:#ED1C24;}
	.st5{fill:#ED1C24;}
	.st6{fill:#757576;}
	.st7{fill:#FFFFFF;}
	.st8{fill:#0B0B0B;}
	.st9{display:inline;fill-rule:evenodd;clip-rule:evenodd;fill:#2B388F;}
	.st10{display:inline;fill:#2B388F;}
	.st11{fill-rule:evenodd;clip-rule:evenodd;fill:#767676;}
	.st12{fill-rule:evenodd;clip-rule:evenodd;fill:#EC1C24;}
	.st13{fill:#EC1C24;}
	.st14{fill:#767676;}
</style>
<g id="Layer_1_1_" class="st0">
	<rect x="-14.6" y="-13.3" class="st1" width="315.4" height="287.3"/>
	<g class="st2">
		<path class="st3" d="M112.3,39.2c13.8,3,24.4,10,30.4,22.3c0,21.6,0,43.2,0,64.9c-1.7-0.4-3.8-1.9-5.6-3.7c-0.3-0.2-0.6-0.5-0.9-1
			v-33v-0.1l0,0c-0.3-4.5-1.8-8.5-4.2-11.8c-0.1-0.9-0.2-1.9-0.3-2.8C130.6,61.5,128.8,50.6,112.3,39.2L112.3,39.2z M173.1,39.2
			c-13.8,3-24.4,10-30.4,22.3c0,21.6,0,43.2,0,64.9c1.7-0.4,3.8-1.9,5.6-3.7c0.3-0.2,0.6-0.5,0.8-1v-33v-0.1l0,0
			c0.3-4.5,1.8-8.5,4.3-11.8c0.1-0.9,0.2-1.9,0.3-2.8C154.9,61.5,156.7,50.6,173.1,39.2L173.1,39.2z"/>
		<path class="st4" d="M133.3,38.9c1.6-3.5,4.8-6.6,9.4-9.3c4.7,2.5,7.6,5.7,9.4,9.3c-2.6,4.2-5.6,7.5-9.4,9.3
			C139.2,45.8,135.7,43.4,133.3,38.9L133.3,38.9z"/>
		<path class="st4" d="M167.1,69.3c-8.2,1.8-16.2,8-16.9,19.3c0,12.8,0,19.6,0,32.4c3.7-3.2,5.2-5.3,6.4-11.1
			c0.2-10.5,0.5-17.8,0.4-20.4C157,82.2,160,74.4,167.1,69.3L167.1,69.3z"/>
		<path class="st4" d="M118.3,69.3c8.2,1.8,16.2,8,17,19.3c0,12.8,0,19.6,0,32.4c-3.8-3.2-5.3-5.3-6.4-11.1
			c-0.1-10.5-0.5-17.8-0.4-20.4C128.5,82.2,125.5,74.4,118.3,69.3L118.3,69.3z"/>
		<g>
			<g>
				<path class="st4" d="M151.4,220.4c0,0,0.3-0.4,0.7-0.1c0.1,0.1,0.2,0,0.3-0.1c0,0,0.3-0.2,0.6,0.1s3.5,4.9,3.5,4.9
					s0.4,0.4,0.1,1.1c-0.4,0.8-1.4,3.2-1.4,3.2s-0.1,0.2,0.1,0.4c0.3,0.2,0.8,1.1,0.8,1.1h-3.5c0,0-0.2,0-0.3-0.3s-0.1-0.4-0.1-0.4
					l-0.1,0.6c0,0-0.1,0.2-0.2,0.1c-0.2,0-3.5,0-3.5,0l0.9-1.2c0,0,0.1-0.1,0-0.3s-1.5-3.3-1.5-3.3s-0.3-0.5,0.1-1
					C148.3,224.8,151.4,220.4,151.4,220.4L151.4,220.4z M152.2,223.5L152.2,223.5l-0.4,4.1c0,0,0.3,0.2,0.4,0.5
					c0.1-0.2,0.4-0.5,0.4-0.5L152.2,223.5z"/>
				<g>
					<path class="st5" d="M160.3,228h1.4c0,0.5,0.2,1,0.5,1.3s0.7,0.5,1.1,0.5c0.5,0,0.9-0.2,1.3-0.5c0.3-0.3,0.5-0.8,0.5-1.3
						s-0.1-0.8-0.3-1.1s-0.7-0.5-1.4-0.7c0,0-0.1,0-0.2-0.1c-0.9-0.2-1.5-0.6-1.9-1.1c-0.2-0.2-0.3-0.5-0.4-0.7
						c-0.1-0.3-0.1-0.5-0.1-0.8c0-0.9,0.3-1.6,0.8-2.1c0.5-0.6,1.2-0.8,2.1-0.8c0.8,0,1.4,0.3,1.9,0.7c0.5,0.5,0.8,1.2,0.8,2H165
						c0-0.4-0.2-0.8-0.4-1s-0.6-0.4-1-0.4s-0.8,0.1-1,0.4s-0.4,0.6-0.4,1.1c0,0.1,0,0.3,0.1,0.4s0.1,0.3,0.2,0.4
						c0.2,0.2,0.6,0.4,1.3,0.6c0.3,0.1,0.6,0.1,0.7,0.2c0.7,0.3,1.2,0.6,1.6,1.1c0.4,0.5,0.5,1.1,0.5,1.8c0,1-0.3,1.8-0.9,2.4
						s-1.3,0.9-2.3,0.9c-0.9,0-1.6-0.3-2.2-0.9C160.6,229.7,160.3,228.9,160.3,228z"/>
					<path class="st5" d="M173.2,230.9h-5.4v-10.4h5.4v1.4h-3.9v3.1h3.9v1.4h-3.9v3.1h3.9V230.9z"/>
					<path class="st5" d="M179.2,230.9h-0.9l-4-10.4h1.6l2.9,7.7l2.9-7.7h1.6L179.2,230.9z"/>
					<path class="st5" d="M184.4,227.9l-1.2,3h-1.6l4.1-10.4h1.5l4.1,10.4h-1.6l-1.1-3H184.4z M187.9,226.5l-1.5-3.9l-1.5,3.9H187.9
						z"/>
					<path class="st5" d="M199.7,225.7h6.5c-0.1,1.6-0.6,2.9-1.6,3.9s-2.2,1.5-3.7,1.5c-0.8,0-1.5-0.1-2.2-0.4s-1.3-0.7-1.8-1.3
						c-0.4-0.5-0.8-1-1-1.7c-0.2-0.6-0.3-1.3-0.3-2s0.1-1.4,0.4-2.1s0.7-1.2,1.2-1.8c0.5-0.5,1.1-0.9,1.7-1.1
						c0.6-0.3,1.3-0.4,2.1-0.4c1.1,0,2,0.2,2.8,0.7s1.4,1.2,1.8,2.1h-1.9c-0.3-0.4-0.8-0.8-1.2-1c-0.5-0.2-1-0.3-1.6-0.3
						c-0.5,0-1,0.1-1.4,0.3s-0.8,0.4-1.2,0.8c-0.4,0.4-0.6,0.8-0.8,1.3s-0.3,1-0.3,1.5s0.1,1.1,0.3,1.5c0.2,0.5,0.4,0.9,0.8,1.3
						c0.4,0.4,0.8,0.7,1.2,0.9c0.5,0.2,0.9,0.3,1.4,0.3c0.8,0,1.5-0.2,2.1-0.6c0.6-0.4,1.1-1,1.5-1.9h-4.7L199.7,225.7L199.7,225.7z
						"/>
					<path class="st5" d="M209,230.9h-1.5v-10.4h3c1.3,0,2.2,0.3,2.9,0.9s1,1.4,1,2.5c0,0.8-0.3,1.6-0.8,2.1
						c-0.6,0.6-1.3,0.9-2.1,0.9l2.9,4h-1.9l-3.4-4.8L209,230.9L209,230.9z M209,226h0.8c1,0,1.8-0.2,2.3-0.5s0.8-0.9,0.8-1.5
						c0-0.7-0.2-1.2-0.7-1.5s-1.1-0.5-2.1-0.5H209V226z"/>
					<path class="st5" d="M215.3,225.7c0-0.7,0.1-1.4,0.4-2.1c0.3-0.6,0.7-1.2,1.2-1.8c0.5-0.5,1.1-0.9,1.7-1.1
						c0.6-0.3,1.3-0.4,2-0.4s1.4,0.1,2,0.4s1.2,0.6,1.7,1.1s0.9,1.1,1.2,1.7c0.3,0.6,0.4,1.3,0.4,2.1c0,0.7-0.1,1.4-0.3,2
						s-0.6,1.2-1,1.7c-0.5,0.6-1.1,1-1.8,1.3s-1.4,0.4-2.2,0.4s-1.5-0.1-2.2-0.4s-1.3-0.7-1.8-1.3c-0.4-0.5-0.8-1-1-1.7
						C215.4,227.1,215.3,226.4,215.3,225.7z M216.9,225.7c0,0.5,0.1,1.1,0.3,1.5c0.2,0.5,0.4,0.9,0.8,1.3c0.4,0.4,0.8,0.7,1.2,0.9
						c0.5,0.2,0.9,0.3,1.4,0.3c1.1,0,2-0.4,2.7-1.1s1.1-1.7,1.1-2.8c0-0.5-0.1-0.9-0.3-1.4c-0.2-0.4-0.4-0.8-0.8-1.2
						c-0.4-0.4-0.8-0.7-1.3-0.9c-0.4-0.2-0.9-0.3-1.5-0.3c-0.5,0-1,0.1-1.4,0.3s-0.8,0.4-1.2,0.8c-0.4,0.4-0.6,0.8-0.8,1.3
						C217,224.7,216.9,225.2,216.9,225.7z"/>
					<path class="st5" d="M227.2,220.6h1.5v6.6c0,0.9,0.1,1.6,0.4,1.9c0.3,0.4,0.8,0.6,1.4,0.6c0.6,0,1.1-0.2,1.4-0.6
						c0.3-0.4,0.4-1,0.4-1.9v-6.6h1.5v6.6c0,0.7,0,1.2-0.1,1.6s-0.2,0.7-0.4,1c-0.3,0.5-0.7,0.8-1.1,1.1s-1,0.3-1.6,0.3
						c-0.7,0-1.2-0.1-1.7-0.3s-0.9-0.6-1.2-1.1c-0.2-0.3-0.3-0.6-0.4-0.9c-0.1-0.3-0.1-0.9-0.1-1.7L227.2,220.6L227.2,220.6z"/>
					<path class="st5" d="M237.1,230.9h-1.5v-10.4h2.4c0.7,0,1.2,0,1.6,0.1s0.7,0.2,0.9,0.3c0.4,0.3,0.8,0.6,1,1.1s0.4,1,0.4,1.5
						c0,1-0.3,1.7-1,2.3c-0.6,0.6-1.5,0.9-2.6,0.9h-1.2L237.1,230.9L237.1,230.9z M237.1,225.4h1.1c0.8,0,1.3-0.1,1.7-0.4
						c0.4-0.3,0.5-0.7,0.5-1.3s-0.2-1-0.5-1.3c-0.4-0.3-0.9-0.4-1.6-0.4h-1.1L237.1,225.4L237.1,225.4z"/>
				</g>
			</g>
		</g>
		<rect x="45.6" y="214.8" class="st6" width="195.5" height="1.4"/>
		<g>
			<g>
				<path class="st5" d="M72.2,166.6H64c-0.4-1.1-0.6-2.6-0.7-4.4c0,0,0-1.5,0-4.5c0-2-0.6-3.3-1.7-3.9c-0.9-0.5-2.7-0.7-5.2-0.7
					h-2.3v13.5h-6.7v-30.9h12.3c3.6,0,6.2,0.6,7.9,1.8c1.8,1.3,2.7,3.4,2.7,6.3c0,4.1-1.8,6.4-5.3,6.8c2.1,0.4,3.6,1.3,4.4,2.6
					c0.6,1,0.8,2.4,0.8,4.2c0,3.4,0,5,0,5C70.4,164.2,71.1,165.6,72.2,166.6z M63.3,144.1c0-1.6-0.5-2.8-1.5-3.4
					c-0.9-0.5-2.3-0.8-4.4-0.8H54v8.8h4c2,0,3.4-0.3,4.2-1C62.9,147,63.3,145.8,63.3,144.1z"/>
				<path class="st5" d="M98.9,157c0,3.6-0.8,6.1-2.5,7.7c-1.8,1.7-4.8,2.6-9.1,2.6c-4.4,0-7.4-0.8-9.1-2.5
					c-1.6-1.5-2.4-4.1-2.4-7.8v-21.3h6.9v20.8c0,2,0.2,3.4,0.6,4.2c0.7,1.3,2,1.9,4.1,1.9s3.4-0.6,4.1-1.9c0.4-0.8,0.6-2.2,0.6-4.2
					v-20.8h6.8V157L98.9,157z"/>
				<path class="st5" d="M126.5,158.5c0,2.9-1,5.1-2.9,6.6c-2,1.5-4.7,2.2-8.2,2.2c-7.3,0-11-3.2-11-9.7c0-0.4,0-1.1,0.1-1.9h6.9
					c0,0.2,0,0.6-0.1,1.1c0,0.5,0,0.9,0,1.2c0,3.1,1.3,4.6,3.8,4.6c3,0,4.5-1.2,4.5-3.7c0-1.6-1.3-3.2-3.9-4.8
					c-2.4-1.4-4.8-2.8-7.1-4.2c-2.5-1.9-3.8-4.2-3.8-6.8s0.9-4.6,2.8-6.1s4.4-2.2,7.5-2.2c3.5,0,6.1,0.8,7.9,2.4
					c1.8,1.6,2.7,3.8,2.7,6.7c0,0.5,0,0.9-0.1,1.1h-6.5c0-1.8-0.2-3.1-0.5-3.8c-0.6-1.1-1.8-1.7-3.7-1.7c-2.3,0-3.5,1-3.5,3.1
					c0,1.4,1.3,2.8,3.9,4.2c4.2,2.3,6.6,3.7,7.2,4.2C125.2,153.1,126.5,155.6,126.5,158.5z"/>
				<path class="st5" d="M155.2,166.6h-6.8v-14H139v14h-6.8v-30.9h6.8v12.1h9.4v-12.1h6.9L155.2,166.6L155.2,166.6z"/>
				<path class="st5" d="M184.8,166.6h-7.5l-1.8-7.8h-7.9l-1.8,7.8h-7l8.3-30.9h9.3L184.8,166.6z M174.5,154.2l-3-13l-2.9,13H174.5z
					"/>
				<path class="st5" d="M209.8,157.1c0,3.1-0.7,5.4-2.2,7c-1.6,1.7-4.3,2.6-7.9,2.6h-11.3v-31h11c6.3,0,9.4,2.5,9.4,7.5
					c0,4.1-1.5,6.4-4.6,6.8c1.9,0.2,3.4,1.1,4.4,2.6C209.4,153.7,209.8,155.2,209.8,157.1z M202,143.8c0-1.5-0.3-2.6-1-3.1
					c-0.7-0.6-1.9-0.8-3.8-0.8h-2.1v8.4h2.3c1.9,0,3.1-0.4,3.8-1.1C201.7,146.5,202,145.4,202,143.8z M202.8,157.3
					c0-1.9-0.4-3.2-1.2-3.9s-2.3-1.1-4.5-1.1h-2v9.8h2.8c1.9,0,3.2-0.4,4-1.3C202.5,160.2,202.8,159,202.8,157.3z"/>
				<path class="st5" d="M238.3,166.6h-6.9v-14H222v14h-6.8v-30.9h6.8v12.1h9.4v-12.1h6.9V166.6z"/>
			</g>
		</g>
		<g>
			<path class="st6" d="M98.1,205.8h-6.7v-13.6h-9v13.6h-6.6v-29.9h6.6v11.7h9.1v-11.7h6.6V205.8z"/>
			<path class="st6" d="M126.5,190.8c0,5.1-0.5,8.7-1.5,10.6c-1.6,3.4-5,5-10.1,5c-5.1,0-8.5-1.7-10.1-5c-0.9-2-1.4-5.6-1.4-10.6
				c0-5.1,0.5-8.7,1.4-10.6c1.7-3.4,5-5,10.1-5c5.1,0,8.5,1.7,10.1,5C126,182.2,126.5,185.7,126.5,190.8z M119.7,190.8
				c0-0.3,0-0.8,0.1-1.6c0-0.8,0.1-1.4,0.1-1.9c0-5.2-1.6-7.8-4.9-7.8c-3.2,0-4.9,2.6-4.9,7.8c0,0.5,0,1.1,0.1,1.9
				c0,0.8,0.1,1.3,0.1,1.6c0,0.2,0,0.8-0.1,1.5c0,0.8-0.1,1.4-0.1,1.9c0,5.2,1.6,7.8,4.9,7.8c3.2,0,4.8-2.6,4.8-7.7
				c0-0.5,0-1.1-0.1-1.9C119.7,191.6,119.7,191.1,119.7,190.8z"/>
			<path class="st6" d="M154.1,205.8h-6.8l-9.3-21l0.2,21h-6.3v-29.9h6.8l9.3,20.9l-0.2-20.9h6.3V205.8z"/>
			<path class="st6" d="M182.6,189c0,3.3-0.1,5.6-0.2,6.9c-0.3,2.8-1,5-2.1,6.5c-1.1,1.6-2.7,2.6-4.8,3c-1.2,0.2-3.2,0.4-6.2,0.4
				h-9.1v-29.9h10.6c5,0,8.3,1.2,10,3.6C182,181.3,182.6,184.4,182.6,189z M175.9,190.5c0-5.1-0.7-8.2-2-9.3
				c-0.7-0.6-2.2-0.9-4.4-0.9h-2.8v21.1h2.9c1.2,0,2.1,0,2.5-0.1c0.9-0.2,1.6-0.5,2.1-1.1C175.3,198.8,175.9,195.6,175.9,190.5z"/>
			<path class="st6" d="M210.5,205.8h-7.2l-1.7-7.5H194l-1.7,7.5h-6.9l8-29.9h8.9L210.5,205.8z M200.6,193.8l-2.9-12.6l-2.8,12.6
				H200.6L200.6,193.8z"/>
		</g>
	</g>
</g>
<g id="Layer_2_1_" class="st0">
	<g class="st2">
		<rect x="-14.6" y="-13.3" class="st7" width="315.4" height="287.3"/>
		<g>
			<g>
				<path class="st8" d="M177.1,44.7c2.7,2.5,4.1,4.1,4.1,4.9c-0.3,0.9-2.2,2.5-5.6,4.9c0,0.6-4.9,4.1-14.6,10.3
					c-8.3,5.8-16.9,11.5-25.8,17.1c0-0.2-0.1-0.3-0.4-0.3c-0.8,1.1-4.6,3.8-11.6,8.2c-6.3,4.2-11.8,7.7-16.5,10.3
					c0,0.2,6,3.4,18,9.5c8.2,5.5,12.3,9.6,12.3,12.5c0.4,0,0.8,0.6,1.1,1.9l-0.4,1.3v1.9H137v1.1l0.4,0.5c-0.5,0.1-0.8,0.3-0.8,0.6
					c0.3,0.3,0.4,0.6,0.4,0.8c-0.5,0-0.8,0.2-0.8,0.5l0.8,0.3c-0.9,2-1.8,3-2.6,3l0.8,0.8c-0.9,0.6-2.2,2.4-3.8,5.2
					c-0.3,0-1.9,1.6-4.8,4.9c-0.6,0-2.1,1.4-4.5,4.1l-5.2,3c-1.5,0.3-2.3,0.5-2.3,0.9c0.5,0,0.7,0.2,0.7,0.5
					c-1.8,0.9-2.9,1.3-3.4,1.3c-1-0.3-1.5-0.5-1.5-0.8c1.8-0.9,2.6-1.4,2.6-1.6c-0.3,0-0.4-0.1-0.4-0.3c0.4,0,0.9-0.3,1.5-1.1
					l-1.9,0.2h-2.3v-0.2c2.2-1.6,3.4-2.4,3.7-2.4h0.4v0.5c1-0.5,1.7-0.8,2.3-0.8v0.3l-1.1,1.6h1.1c1.5-0.6,2.3-1.1,2.3-1.4
					c-0.3,0-0.4-0.1-0.4-0.2c0.8,0,2.5-1.1,5.2-3.3c3-2.7,5.3-5.3,7.1-7.9h-0.1l-1.1,0.6v-0.2l0.7-1.1h-0.4l-0.7,0.3l-0.4-0.5
					c0.8-2.2,1.7-3.3,2.6-3.3c0,0.2,0.1,0.2,0.3,0.2c0-0.2,0.1-0.5,0.4-0.8l0.8,0.3c1-0.4,1.5-0.7,1.5-0.8c-0.3-0.3-0.4-0.6-0.4-0.8
					l0.8,0.2v-0.5l-0.4-1.3l-0.7,0.2c0-0.2-0.1-0.2-0.4-0.2l-0.4,0.5c0.3,0,0.4,0.1,0.4,0.3c-0.5,0-0.8,0.5-0.8,1.3h-0.8l2.3-6.3
					l-0.3-0.5v-0.8h0.7v1.1h0.4V123l-0.8,0.3c-1.8-5.3-6.1-9.3-12.7-12c0-0.3-4-2.3-12-6l-4.9-3c-1.2,0.5-1.9,0.8-1.9,1.1
					c4.5,3.6,6.8,7.5,6.8,11.7l-0.4,0.6l0.4,1.3l-0.4,1.1c0.3,0.3,0.4,0.7,0.4,1.1c-0.5,0.2-0.9,0.2-1.1,0.2v0.6
					c0.8,0,1.1,0.1,1.1,0.2c0,0.9-0.3,1.4-0.8,1.4l0.4,0.5c0,0.7-0.5,1.1-1.5,1.1l0.7,0.8v0.3l-1.1,1.1h0.4c-2.7,5.6-4.7,8.7-6,9.3
					l0.3,0.5v0.3l-4.5,4.6c-0.6,0.9-1.6,1.9-3,3c-0.3,0.7-1.1,1.4-2.6,2.1l-0.7-0.2c0,1.7-1.6,2.7-4.9,3.3c0-0.5-0.2-0.8-0.7-0.8
					v0.2c0.5,0.4,0.7,0.9,0.7,1.7c-2.7,0.8-4.1,1.4-4.1,1.6l0.4,0.5c-0.5,0.2-0.8,0.3-1.1,0.3l-0.8-0.3h-0.4v0.3h0.8v0.2
					c0,0.4-0.4,0.6-1.1,0.6c-0.5-0.2-0.8-0.3-1.1-0.3V152l2.6-1.6l2.2-1.6h-0.7v-0.5c0.7,0,1.1-0.3,1.1-0.8h-1.1v-1.4
					c0-0.3,0.5-0.5,1.5-0.8l0.4,0.6c-0.3,0-0.7,0.3-1.1,0.8v0.2c0.4,0,0.9,0.2,1.5,0.6c0.1-0.4,0.3-0.6,0.7-0.6l1.1,0.6l0.7-0.8
					h-0.7v-0.3c0.1-0.3,0.3-0.5,0.7-0.5l0.8,0.2l3.4-3c0.3-0.9,0.7-1.4,1.1-1.4c0.5,0.2,0.8,0.3,1.1,0.3l0.4-0.5v-0.3h-1.1
					c3-2.4,4.5-4,4.5-4.6c-0.3,0-0.7,0.3-1.1,0.8c-1.5-0.1-2.3-0.3-2.3-0.5c0.3-0.6,0.9-1.2,1.9-1.9c1,0,1.5,0.5,1.5,1.4
					c1,0,2.8-2.4,5.3-7.1V129h-0.4c-1.2,2-1.9,3.2-1.9,3.5h-0.8c0-0.4-0.1-0.8-0.4-1.1c0.3,0,0.7-0.1,1.1-0.2
					c-0.3-0.9-0.7-1.4-1.1-1.4c1.3-2.3,2.3-3.5,3-3.5c0,0.2,0.1,0.3,0.4,0.3l0.4-1.3l-0.8,0.2h-0.8c0.4-2.2,1.4-3.3,3-3.3
					c0-0.5-0.4-0.8-1.1-0.8c0-0.3,0.3-3,0.8-8.1c-1.7-5.5-3.3-8.2-4.9-8.2C75.8,120.4,63.1,128,61.1,128l-2.2-2.2v-1.3
					c1.8-1.8,5.1-3.9,9.7-6.3c6-4.8,10.7-7.7,14.2-8.7c1.1-1.7,3.3-3.3,6.3-4.9l0.8,0.2c0.7-1.1,1.2-1.6,1.5-1.6l0.8,0.3l0.4-0.5
					c-1.5-0.3-2.3-0.5-2.3-0.9c0.3,0,0.4-0.1,0.4-0.2l-0.8-0.3c0,0.2-0.1,0.3-0.4,0.3c0-0.2-0.1-0.3-0.4-0.3c0,0.5-0.2,0.8-0.7,0.8
					c0-0.2-0.1-0.5-0.4-0.8c-0.8,0.3-1.4,0.5-1.9,0.5l-1.9-0.2l0.4,0.5l-1.5,0.6l-0.7-0.3c-3.8,1.4-6.7,2.6-8.6,3.5
					c-8.2,4.3-14.7,9.4-19.4,15.5c-1.9,1.9-3.8,4.5-5.6,7.6c-0.4,0-0.8,0.3-1.1,0.8c0.3,0,0.4,0.1,0.4,0.3c-0.3,0-0.8,1.3-1.5,3.8
					c-2.3,4.6-3.4,9-3.4,13.1l0.4,2.4h-0.4c1.5,5.7,3.1,8.5,4.9,8.5c1.4,1.9,5.3,3.4,11.6,4.6h0.7l1.9-0.3c0.5,0.3,0.7,0.9,0.7,1.7
					h-0.3v0.2c3,0.1,4.5,0.4,4.5,0.8v0.3h-0.3c-0.8-0.2-1.1-0.4-1.1-0.5c-0.5,0.2-0.8,0.2-1.1,0.2c-2.5-0.3-4.8-0.5-6.8-0.5v0.3
					c-4,0-8.3-2.3-13.1-6.8c-2.3-2.9-3.8-5.3-4.5-7.4l0.4-0.5c0-0.2-0.1-0.5-0.4-0.8l0.4-1.4l-0.4-2.4c0.3,0,0.4-0.1,0.4-0.3
					c-0.3,0-0.4-0.1-0.4-0.2c0.3,0,0.4-0.1,0.4-0.3c-0.5,0-0.8-0.2-0.8-0.5c0.2-1.7,0.4-2.5,0.8-2.5l-0.4-0.5c0.8-3.4,1.5-5.4,2.3-6
					h-0.8c1.3-2.6,2.5-3.8,3.4-3.8l-0.7-1.9c1-1.8,1.8-2.9,2.6-3l-0.3-0.5c0.5-1.3,1.8-3.3,4.1-6h1.5c0,0.2,0.1,0.5,0.4,0.8
					c-0.6,0.2-2.2,2.2-4.9,6h0.5c3-4.7,6.5-8.9,10.5-12.5v-0.2l-6.4,6v-0.6c0-0.7,0.9-1.8,2.6-3.5h-0.3c-0.5,0.5-0.8,0.8-0.8,1.1
					h-0.7c0.8-2.5,3.1-4.7,6.8-6.6l0.8,0.3h0.3c0-0.3,0.3-0.7,0.8-1.1h-0.4c0,0.2-0.1,0.3-0.4,0.3v-0.5l5.7-4.4c2-0.2,3-0.8,3-1.6
					l0.8,0.2c0-0.3,0.5-0.5,1.5-0.8l-0.4-0.5V102c0.6,0,1.1-0.1,1.5-0.2c0,0.2,0.1,0.2,0.4,0.2l-0.4-0.5v-0.3c1,0,1.7-0.2,2.3-0.5
					h1.1v0.5c0.7,0,1.1-0.3,1.1-0.8l1.1,0.6c0-0.5,1.2-1.2,3.7-1.9c0-0.2,0.1-0.3,0.4-0.3l0.7,0.3c1.2-0.2,2.2-0.6,3-1.1v0.3
					c0.3,0,0.4-0.1,0.4-0.3c2,0,5.4,0.5,10.1,1.6c1-1.1,1.8-1.6,2.6-1.6c-1.7-2.2-2.6-4.5-2.6-6.8c0.7-3.4,1.5-5.2,2.6-5.2l0.8,0.3
					c0-1.1,1.2-2.6,3.7-4.4c0-0.5,0.8-1.1,2.3-1.6c1.5-1.4,2.3-2.2,2.3-2.4V77c2.2-2,3.4-3,3.7-3h2.3c0.1-0.7,0.5-1.1,1.1-1.1h0.4
					v0.6c3.3-2.1,4.9-3.2,4.9-3.3h-0.4l-1.1,0.6v-0.3c0.8-0.6,1.1-1.1,1.1-1.3h1.1v0.5c5.1-3.1,8.2-4.9,9.4-5.5
					c1.6-1.2,2.7-1.9,3.4-1.9l-0.4-0.6c0.1-0.3,0.3-0.5,0.8-0.5c0.1,0.3,0.3,0.5,0.7,0.5c6.8-4,13.9-7.2,21.4-9.8c2-0.4,3-0.9,3-1.3
					c-0.2-0.3-0.3-0.6-0.3-0.8h0.7v0.8h0.8l2.3-0.8l-0.4-0.5V49h0.8v-0.5h-0.4c-0.8,0.3-1.5,0.5-1.9,0.5v-0.5
					c2.7-0.7,4.1-1.3,4.1-1.7h-0.4c-0.8,0.4-1.6,0.6-2.3,0.6c3.9-1.6,7.1-2.4,9.7-2.4h3.7L177.1,44.7z M41.4,142.1v1.1h0.4v-1.1
					H41.4z M44,132.6v0.6h0.8l-0.4,0.5v0.3h0.4l0.3-1.4l-0.7,0.3C44.4,132.6,44.2,132.6,44,132.6z M46.6,129
					c-0.8,1.1-1.1,1.8-1.1,2.2v0.2h0.4c0-0.2,0.4-0.9,1.1-2.1V129L46.6,129L46.6,129z M47.3,128v0.2h0.4l0.4-1.1
					C47.6,127.1,47.3,127.4,47.3,128z M50.3,121.1v0.6c0.6,0,0.9-0.5,1.1-1.4C51.1,120.3,50.7,120.6,50.3,121.1z M50.7,162.2H51
					c0.5,0,0.8-0.2,0.8-0.6h-0.4C51,161.7,50.7,161.9,50.7,162.2z M52.6,117.6h0.7v0.3c-0.9,1.1-1.5,1.6-1.9,1.6H51v-0.2
					C52.1,118.5,52.6,118,52.6,117.6z M55.2,163.6v0.6c0.6,0,1.3,0.2,1.9,0.5h0.3v-0.3C57.4,164.1,56.7,163.8,55.2,163.6z
					 M60.8,112.2v0.2h0.3c0-0.5,1-1.3,3-2.4l0.4-0.5h-0.4C63.8,109.4,62.7,110.3,60.8,112.2z M64.9,108.9h0.3c0.4,0,0.8-0.3,1.1-0.8
					h-0.4C65.7,108.1,65.3,108.4,64.9,108.9z M64.9,163h1.9v0.5h-1.9V163z M67.9,163.9h6v0.3c-0.9,0.2-1.4,0.2-1.5,0.2v0.3h1.1v0.5
					h-1.9c0-0.5-0.2-0.8-0.7-0.8l-1.5,1.1h-1.1c-0.5,0-0.8-0.2-0.8-0.5c0.4-0.2,1-0.3,1.9-0.3v-0.3h-1.5V163.9z M68.3,163h2.6v0.5
					h-2.6V163z M69.8,154.6h1.1v0.5h-1.1V154.6z M73.1,153.5h1.1c0.5,0.1,0.8,0.2,0.8,0.5c-1,0.4-1.9,0.6-2.6,0.6
					C72.9,154.2,73.1,153.8,73.1,153.5z M78,152.4v0.6c-0.6,0-1.3,0.3-2.3,0.8c-0.5-0.2-0.8-0.3-1.1-0.3
					C74.7,153.1,75.8,152.7,78,152.4z M78.8,164.1h1.1c0,0.3,0.3,0.6,0.8,1.1h-0.8c-0.3,0-0.4-0.1-0.4-0.2l-1.9,0.2h-1.1
					C76.5,165,77.3,164.6,78.8,164.1z M79.1,163h0.4c0.3,0,0.4,0.1,0.4,0.3l0.8-0.3h0.4v0.5h-1.9L79.1,163L79.1,163z M79.9,163.9
					h1.5v0.8C80.4,164.4,79.9,164.1,79.9,163.9z M86.6,161.9c0,0.5,0.2,0.8,0.7,0.8c0,0.2-0.1,0.3-0.3,0.3c0,0.5,0.4,0.8,1.1,0.8
					v0.5h-1.5c0-0.2,0.1-0.2,0.4-0.2c-0.3-0.3-0.4-0.6-0.4-0.8h-0.8c0,0.7-0.5,1.2-1.5,1.6h-1.1v-1.1
					C84,163.9,85.2,163.2,86.6,161.9z M84.8,145.9h0.4c0,0.3-0.3,0.5-0.8,0.5H84C84.1,146.1,84.4,145.9,84.8,145.9z M88.5,162.8
					c1.8,0.3,2.6,0.5,2.6,0.8h-0.4l-2.6-0.2L88.5,162.8z M110.9,154.6v1.1c-1.2,0.9-2.9,1.5-5.3,1.9c0,0.3-0.8,0.8-2.3,1.4l-0.3-0.6
					c-1,0.5-1.6,0.8-1.9,0.8v0.3h0.3l1.5-0.5v0.2c0,0.6-3.6,1.6-10.9,3l0.4,0.5v0.3c-0.6,0-1.1,0.1-1.5,0.3c0-0.3-0.5-0.7-1.5-1.1
					c0.5,0,0.8-0.2,0.8-0.6h-0.8v-0.2l0.4-0.6l-0.8,0.3h-0.7c0-0.3,0.4-0.5,1.1-0.5c0-0.4-0.4-0.6-1.1-0.6v-0.5
					c0.8-0.2,1.7-0.3,2.6-0.3l0.3,0.6h-0.3c0.2,0.3,0.3,0.6,0.3,0.8l2.6-0.3l0.8,0.3c0.4-0.2,0.9-0.3,1.5-0.3V160l-0.4-0.5l0.8-0.3
					h0.4c0,0.4,0.1,0.6,0.3,0.6c1.8-0.5,2.6-0.8,2.6-1.1c-0.3,0-0.4-0.1-0.4-0.3c1-0.7,1.8-1.1,2.3-1.1l1.5,0.3h0.4v-0.3h-1.1
					c0-0.3,0.5-0.5,1.5-0.8c0.5,0.2,0.8,0.3,1.1,0.3c0-0.3,0.4-0.5,1.1-0.8v0.5h0.8C107.4,155.2,108.7,154.6,110.9,154.6z
					 M93.7,137.4h0.4l-1.1,1.1v0.3c1-0.3,1.8-0.5,2.3-0.5v0.8h-0.4l-0.8-0.3c-1.2,1.1-1.9,1.9-1.9,2.4h-0.4l-0.7-0.3
					c0,0.9-0.4,1.4-1.1,1.4h-0.4l1.1-1.4h-0.3c-0.5,0.2-0.9,0.3-1.1,0.3c1.2-0.6,1.8-1.2,1.9-1.9L93.7,137.4z M91.5,139.9v0.2
					c0.5,0,0.8-0.2,0.8-0.5v-0.3C91.7,139.4,91.5,139.6,91.5,139.9z M91.8,99.1v0.3h1.5v-0.3H91.8z M91.8,101.8v0.2
					c0.3,0,0.6,0.1,1.1,0.3v-0.5H91.8z M98.2,132.8c0.5,0.1,0.8,0.2,0.8,0.5v0.3c-0.5,0-0.8-0.2-0.8-0.5V132.8z M102,155.1
					c0.5,0.2,0.9,0.3,1.1,0.3v0.5l-0.8-0.3c-0.5,0.1-0.8,0.3-0.8,0.6l-0.7-0.3h-0.4l0.4,0.5c-0.8,0.4-1.5,0.6-1.9,0.6
					c0-0.4,0.4-0.6,1.1-0.6v-0.2h-0.8C99.3,155.8,100.2,155.4,102,155.1z M136.7,62.4v-0.3h-0.3v0.5c0.3,0,0.4,0.1,0.4,0.3
					c-5.8,3.3-11.8,7-18,11.2H118l0.4,0.5c-6.5,4.5-11.1,8.8-13.8,12.8c-0.5,0-1,0.7-1.5,2.2c-0.6,2-1.1,3-1.5,3c0.5,2,0.8,3,1.1,3
					c0.6,0,4.2-2.3,10.8-6.8h0.8l-1.1,1.1h0.3c0.8-0.5,1.8-1.5,3-3c1.6-0.7,2.5-1.1,2.6-1.1l0.7,0.8c-0.4,0.2-1,0.3-1.9,0.3v0.8h0.4
					l2.6-1.6h0.7v0.5c-0.7,0-1.1,0.2-1.1,0.6h0.4c0.6-0.4,1.1-0.6,1.5-0.6l-0.4-0.5l0.4-0.5c-0.5-0.2-0.9-0.3-1.5-0.3
					c0.5-0.5,0.7-0.8,0.7-1.1h0.4l1.1,0.6v-0.3c-0.4,0-0.8-0.3-1.1-0.8c0-0.3,0.9-0.9,2.6-1.9h0.7l0.4,1.1l1.5-0.8
					c0,0.5,0.1,0.8,0.3,0.8c0.3,0,1.4-0.6,3.4-1.9h0.3v-0.5h-0.3l-1.9,1.1h-0.8c0-0.3-0.3-0.5-0.8-0.5c0.1-0.3,0.3-0.5,0.8-0.5h0.4
					c0.3,0,0.4,0.1,0.4,0.2c0.5-0.2,0.8-0.2,1.1-0.2v-0.9c-0.7,0-1.1-0.1-1.1-0.2c0.4-1,2-2.3,4.8-3.8l0.8,0.3
					c0.5-0.2,0.8-0.3,1.1-0.3l-0.7,0.8v0.3l2.6-1.6h0.4l-1.9,1.9h0.4c0-0.2,0.1-0.2,0.4-0.2c0,0.2,0.1,0.2,0.4,0.2l2.2-1.9v-0.3
					l-0.7,0.3H138l0.4-0.6c-0.3,0-0.4-0.1-0.4-0.2c0.5-0.2,0.9-0.3,1.5-0.3v-0.5h-0.3c-0.2,0-1.1,0.6-2.6,1.9h-0.4v-0.2
					c1.5-1.1,2.3-1.8,2.3-2.2l0.8,0.3l1.1-1.1c-0.3,0-0.4-0.1-0.4-0.3c1-0.3,1.9-0.5,2.6-0.5l-0.4,0.5v0.3h0.8
					c0-0.4,0.5-0.8,1.5-1.1v0.3c0,0.2-1.2,1.1-3.7,2.7h0.7c7.6-5.3,12-8.1,13.1-8.4v0.5c3-0.7,4.5-1.7,4.5-3l-0.8,0.2h-0.4v-0.2
					c0-0.3,0.5-0.7,1.5-1.1h0.3v0.3c-0.2,0.3-0.3,0.6-0.3,0.8l0.7,0.2c0-0.3,0.7-1,2.3-1.9c0-0.3,0.3-0.6,0.8-1.1h-0.4l-2.3,1.6
					h-0.4v-0.3l0.4-0.5h-1.1l0.3-0.6c-0.3,0-0.7-0.3-1.1-0.8c4.3-3.5,7.5-5.8,9.7-6.8c0,0.3,0.4,0.5,1.1,0.8l0.7-0.8
					c-0.3-0.3-0.4-0.6-0.4-0.8l-0.7,0.3v-0.3c0-0.3,0.4-0.5,1.1-0.8l0.8,0.3c0-0.5,0.4-0.8,1.1-0.8l-0.4-0.6v-0.2h1.1V51h0.4
					l0.7-0.3V51c-0.2,0.3-0.3,0.6-0.3,0.8c0.3,0,0.9-0.5,1.9-1.4v-0.5l-0.8,0.3h-0.4l0.4-0.6l-0.8,0.3h-0.3v-0.3l0.3-0.5h-0.4
					c-6.4,1-16.8,4.6-31.1,10.9C139.9,61.6,138,62.4,136.7,62.4z M104.2,125.2c0,0.7-0.4,1.1-1.1,1.1v0.6l0.7-0.3
					c0,0.2,0.1,0.3,0.4,0.3l0.4-1.4v-0.2h-0.4V125.2z M103.4,127.1c0,0.2-0.1,0.5-0.3,0.9v0.2h0.3c0-0.2,0.1-0.5,0.4-0.8v-0.3
					L103.4,127.1L103.4,127.1z M103.8,83.9c0,0.2-0.1,0.5-0.4,0.8h0.4l0.4-0.6v-0.2C104.2,83.9,103.8,83.9,103.8,83.9z M105,120.9
					v1.1l0.7,0.3c-0.3-0.3-0.4-0.7-0.4-1.3H105V120.9z M107.2,154.9h0.3v0.6h-1.1C106.5,155,106.8,154.9,107.2,154.9z M109.1,93.1
					v0.3h0.3c0.4,0,0.8-0.3,1.1-0.8h-0.8C109.3,92.6,109.1,92.8,109.1,93.1z M109.8,93.9h0.4c0.3,0,0.7-0.3,1.1-0.8
					C110.3,93.4,109.8,93.6,109.8,93.9z M110.6,95.3h0.4c0.5,0,0.7-0.2,0.7-0.5h-0.3C110.8,94.8,110.6,95,110.6,95.3z M111.7,91.5
					l-0.7,0.8h0.4c0-0.4,0.4-0.6,1.1-0.6v-0.2C112.4,91.5,111.7,91.5,111.7,91.5z M114.3,92.3v0.3c0.3,0,0.4,0.1,0.4,0.2
					c-0.3,0-0.4,0.1-0.4,0.3h0.4l0.4-0.5L114.3,92.3z M119.2,146.4v0.3c0,0.3-0.3,0.5-0.8,0.5H118C118,147,118.4,146.7,119.2,146.4z
					 M119.2,87.9l-0.4,0.5c0.5-0.2,0.8-0.2,1.1-0.2v-0.3H119.2z M121,85.2v0.3c0,0.3-0.4,0.5-1.1,0.8v-0.8
					C120.2,85.5,120.6,85.4,121,85.2z M128.1,137.4h0.8l-0.4,0.6c0.5,0.1,0.8,0.2,0.8,0.5l-0.4,0.6l-0.8-0.3h-0.4
					c0,0.5-0.1,0.8-0.3,0.8l0.3,0.5v0.6h-0.3c-0.3,0-0.4-0.1-0.4-0.3l-0.8,0.3h-0.4v-0.3l1.1-1.3v-0.3h-0.4c0,0.6-1.4,1.9-4.1,3.8
					H122v-0.2c2.8-3,4.8-4.5,6-4.6L128.1,137.4L128.1,137.4z M123.6,85.2h1.1v-0.5h-0.3C123.9,84.7,123.6,84.9,123.6,85.2z
					 M125.5,141h0.4v0.3l-1.5,1.1v0.2l1.5-0.8h0.4v0.6c-1,0.1-1.5,0.4-1.5,0.8c-0.8-0.2-1.1-0.4-1.1-0.6
					C124,141.9,124.6,141.3,125.5,141z M124.8,85.7l0.7,0.3c0.4,0,0.8-0.3,1.1-0.8h-0.4v0.3l-0.8-0.3
					C125,85.3,124.8,85.4,124.8,85.7z M130,82.5h1.1V82h-0.4C130.3,82,130,82.2,130,82.5z M131.9,134.2h0.4l-0.4,0.6v0.2h0.4v-0.5
					l0.8,0.3v-0.3c-0.3-0.3-0.4-0.6-0.4-0.8C132.1,133.7,131.9,133.9,131.9,134.2z M139.4,76l-1.1,1.6h0.4l1.1-1.6H139.4z
					 M145.4,72.1c0,0.1-0.8,0.7-2.3,1.6v0.6h0.4c0.5,0,1.2-0.7,2.2-2.2H145.4z M146.8,69.4h0.4V70c-0.8,0-1.1,0.3-1.1,0.8h-0.7v-0.3
					C145.4,70.2,145.9,69.9,146.8,69.4z M147.2,71v0.3c0.3,0,0.7-0.3,1.1-0.8v-0.3C148,70.2,147.6,70.5,147.2,71z M150.6,65.9
					c0.6,0.4,1.1,0.6,1.5,0.6c-0.9,1-2.3,1.9-4.1,2.7h-0.3v-0.3c0-0.2,0.7-0.7,2.2-1.6l-0.3-0.6C149.5,66.4,149.8,66.2,150.6,65.9z
					 M151.7,64.8h0.8V65c0,0.4-0.3,0.6-0.8,0.6h-0.3C151.6,65.3,151.7,65,151.7,64.8z M158.8,60.5v0.2c0,0.3-0.4,0.6-1.1,0.8v-0.2
					C157.7,61,158.1,60.8,158.8,60.5z M161.8,59.9c0,0.3-0.4,0.7-1.1,1.1h0.4c0.4,0,0.9-0.4,1.5-1.1H161.8z M163.7,59.1h0.3l1.5-1.3
					h-0.4C164.8,57.7,164.3,58.2,163.7,59.1z M165.2,58.5l-1.5,1.3h1.9l0.3-1.1L165.2,58.5z M165.2,48.5l-0.8-0.3H164v0.3
					c0.3,0,0.7,0.1,1.1,0.2l1.5-1.1h-0.4C165.9,47.7,165.6,48,165.2,48.5z M165.9,58.3v0.3h0.8v-0.9C166.2,57.8,165.9,58,165.9,58.3
					z M168.9,47.1v0.3h0.8c0.5-0.2,0.8-0.3,1.1-0.3v-0.3h-0.4C170,47,169.5,47.1,168.9,47.1z M171.6,52.8l-2.3,2.2h0.4l2.6-2.2
					H171.6z"/>
			</g>
			<g>
				<path class="st8" d="M230.4,44.5L230.4,44.5h0.3h1.8c0.1,0,0.2,0,0.2,0.1c0.1,0,0.1,0,0.1-0.1c2.9,0.3,5.2,1.2,6.9,2.7
					c2.8,4.1,4.2,7.8,4.2,11.1c-0.1,0.2-0.1,0.4-0.1,0.7c0.1,0.2,0.1,0.4,0.1,0.6c-0.2,0-0.3,0.1-0.3,0.3V60l0.3,0.5
					c-0.2,0-0.3,0.1-0.3,0.3c0,0.1,0.1,0.3,0.2,0.5l-0.2,0.8l0.2,0.6c-0.3,0.4-0.7,1.3-1,2.8c0,0.2-0.3,0.5-1,1v0.3
					c0.3,0,0.5,0.1,0.5,0.3l-2,3.7c0,0.2-0.4,0.9-1.3,2.3c-1.7,2.4-3.6,5-5.9,7.8c-1.7,1.9-2.7,2.9-3.1,3.1
					c-0.9,1.3-2.1,2.5-3.7,3.5c0.3,0.5,0.5,0.9,0.5,1.5h0.5l-0.2-0.8V88h0.3c3.7,1.3,6,2.3,6.8,3.1c2.2,0.8,4.8,3.6,7.8,8.4
					c1.8,3.8,2.7,7.2,2.7,10v2.1l-0.3,1.1c0.1,0.2,0.2,0.4,0.2,0.5c-0.2,0-0.3,0.2-0.5,0.5l0.1,0.3c-0.1,0.9-0.3,1.3-0.7,1.3
					l0.2,0.8l-0.5,0.3l0.1,0.3c-0.4,0.7-0.6,1.1-0.6,1.3l-0.8-0.1v0.5h0.1l0.3-0.2l0.1,0.3c-0.2,0-0.3,0.2-0.5,0.5l0.2,0.8
					c-0.5,0.1-1.2,1.3-2.3,3.5h-0.3V123c-0.2,0-0.6,0.5-1.3,1.5v0.5l0.8-0.8h0.1c-0.1,0.5-0.6,1-1.3,1.6c0-0.1,0-0.1-0.1-0.1v0.3
					h0.3v0.3c-0.3,0-0.5,0.3-0.6,0.8c-0.1,0-1.1,1-3.1,3.1h-0.5l-0.1,0.8c-0.3-0.2-0.5-0.3-0.5-0.3H233l0.2,0.8
					c-0.5,0.3-1,0.5-1.6,0.5v0.2c0,0.2,0.1,0.3,0.3,0.3c0-0.1,0-0.1,0.1-0.1v0.1c-0.3,0.3-0.5,0.5-0.5,0.7h-0.1l-0.3-0.2
					c0,0.2-0.2,0.3-0.5,0.3c0,0.1,0.1,0.2,0.3,0.5v0.2c-0.2,0.3-0.8,0.8-1.8,1.3c-0.6,0.8-1.9,1.9-4,3.2c-0.2,0.3-0.8,0.8-1.8,1.3
					c-0.9,0.7-1.7,1.1-2.3,1.1l0.2,0.3H221l-0.5-0.3c0,0.1,0,0.2-0.1,0.2c0-0.1-0.2-0.3-0.5-0.5c0.1-0.5,0.3-0.7,0.6-0.7v-0.3h-0.6
					l-1.3,0.7h-0.2c-0.2,0-0.3-0.1-0.3-0.3c0.1,0,0.1,0,0.1-0.1c-0.3,0-0.5-0.1-0.8-0.3c-0.4,0.3-0.9,0.5-1.4,0.5l0.1,0.3l-0.3,0.1
					h-0.2l-0.3-0.1c0,0.5-0.4,0.8-1.3,1v0.1h-0.3l-0.3-0.1v0.1l0.2,0.3c-0.6,0.5-1.1,0.7-1.6,0.7v-0.3c0.4,0,0.6-0.1,0.6-0.3
					l-0.3-0.5v-0.1h1l-0.2-0.3l0.3-0.1c0,0.1,0.1,0.1,0.2,0.1l0.1-0.7h-0.1l-0.8,0.3l-0.2-0.3c0.3,0,0.5-0.2,0.5-0.6h0.3
					c0.1,0,0.2,0,0.2,0.1c0.2-0.1,0.4-0.1,0.6-0.1v-0.3c-0.2,0-0.3,0-0.3-0.1c-0.6,0.2-1.2,0.6-1.6,1.3c-0.3,0-0.6,0.1-0.8,0.3h-0.8
					c0,0.2-0.1,0.3-0.3,0.3h-0.1l-0.3-0.1c0,0.1,0,0.3-0.1,0.5l-0.8-0.1H209l0.1,0.3c0,0.2-0.1,0.3-0.3,0.3L208,142
					c-1.1,1.2-1.9,1.8-2.4,1.8v0.3h0.1c1.3-0.3,2-0.7,2-1h-0.3v-0.3c0.1,0,0.3,0,0.6,0.1c0.6-0.3,1.5-0.6,2.6-0.8v0.5h-1
					c-0.3,0.3-0.7,0.5-1,0.5v0.2c1.1,0.3,1.7,0.5,1.8,0.5v0.3l-1,0.3v0.2h0.5l0.5-0.3h0.1v0.1c-0.1,0.3-0.4,0.5-1,0.5v0.3h0.1
					l0.8-0.1c0,0.2,0.1,0.3,0.3,0.3c-0.2,0.3-0.9,0.7-2.3,1.3v0.2h-0.5l-1.1,0.1v-0.3c0.8-0.2,1.1-0.5,1.1-1h-0.2l-0.5,0.3h-0.1
					v-0.5l-2.3,0.6c0-0.1,0-0.1-0.1-0.1c0,0.1-0.1,0.1-0.2,0.1V146c-0.3,0.2-0.6,0.3-0.8,0.3v0.1h0.5l0.3-0.1v0.3l-0.1,0.3l0.8-0.1
					h0.1v0.1l-1,0.1c0,0.2,0.2,0.3,0.5,0.5c0.8-0.3,1.2-0.5,1.4-0.5c0,0.3-0.5,0.5-1.4,0.8c-1.1,0.5-1.6,0.9-1.6,1
					c-0.2-0.1-0.3-0.1-0.5-0.1c-0.7,0.4-1.3,0.6-1.6,0.6h-0.3c0-0.1,0.8-0.5,2.3-1.1v-0.1h-0.3c-0.2,0.1-0.3,0.1-0.5,0.1v-0.1
					c0-0.2,0.1-0.3,0.3-0.3l0.8,0.1c0-0.1,0-0.1,0.1-0.1v0.3h0.1c0.3-0.2,0.5-0.3,0.7-0.3c0-0.2-0.2-0.3-0.5-0.3v-0.3h0.3v-0.1h-1
					c0,0.3-0.1,0.5-0.3,0.5v-0.1l-2.1,0.8l-0.5-0.3l-1.5,0.8l-0.8-0.2v0.2l0.3,0.5l-2.4,0.5l-0.1-0.3v-0.1h0.6l-0.1-0.3V149h0.3
					l0.3,0.1c0-0.1,0.1-0.3,0.2-0.5c-0.1,0-0.2,0-0.2-0.1c-0.2,0-0.7,0.3-1.6,1c-0.1,0-0.4,0-1,0.1c0-0.1,0-0.1-0.1-0.1v0.3h0.3v0.3
					c-0.3,0-1.5,0.3-3.4,0.8v0.3h0.1c0.4,0,0.8-0.2,1.1-0.5h0.1l1.1,0.1c0.2-0.4,0.5-0.6,1.1-0.6l0.2,0.3c-0.1,0.2-0.2,0.4-0.2,0.5
					c0.2,0.1,0.4,0.2,0.7,0.2c0,0.2-0.1,0.3-0.3,0.3h0.5l-0.3-0.1v0.3c0.3,0,0.5,0,0.5,0.1c0,0.3-0.2,0.5-0.5,0.5v0.2h0.1l0.3-0.2
					c0.2,0.1,0.4,0.2,0.5,0.2c0-0.2,0.2-0.3,0.5-0.3c0-0.2-0.2-0.3-0.6-0.3v-0.5h0.3c0.3,0.3,0.8,0.4,1.4,0.5v-0.3h0.3l0.1,1.1v0.1
					c-0.5,0-0.8-0.2-0.8-0.5h-0.3l0.2,0.8l-1.1,0.3v-0.2l-0.3,0.2h-0.5l0.3-0.5h-0.1c-0.6,0.1-1.1,0.1-1.4,0.1c0,0.6-0.4,1-1.1,1
					v-0.3h0.5v-0.3c-0.4,0-0.9,0.3-1.4,0.8c-0.2,0-0.3-0.2-0.3-0.5h-0.3c0,0.3-0.1,0.5-0.3,0.5c-0.2-0.1-0.4-0.2-0.5-0.2
					c0,0.1-0.4,0.4-1.1,0.8l-0.8-0.1h-0.3c-0.8,0-1.4,0.1-1.8,0.3l-0.3-0.1L186,155c-0.2-0.1-0.4-0.1-0.6-0.1c0,0.1,0,0.1-0.1,0.1
					l-0.2-0.3l0.2-0.3h-0.7c0-0.2,0.2-0.3,0.7-0.3v-0.3c-0.3,0-0.5-0.1-0.5-0.2c-0.2,0.1-0.4,0.2-0.6,0.2l0.1,0.3v0.2h-0.5
					c0-0.3-0.1-0.5-0.3-0.5h-1v-0.3h-0.1c-0.3,0-0.5,0-0.6,0.1c-0.4-0.2-0.7-0.3-1-0.3h-0.5l-0.5,0.3v-0.5c0-0.3,0.5-0.5,1.6-0.5
					v-0.3h-1.3L179,152v-0.2l0.2-0.3h-0.3v-0.3c0.2,0,0.6-0.1,1.1-0.3l-0.2-0.3v-0.3c0-0.2,0.1-0.3,0.3-0.3h0.1l0.3,0.1l0.1-0.3
					h-0.5c-0.1,0-0.5,0.1-1.3,0.3h-0.6l-0.3-0.1c0,0.4-0.1,0.6-0.3,0.6v-0.3c-0.1,0-0.5,0.1-1.2,0.3c0-0.2-0.1-0.3-0.3-0.3h-0.3
					c0,0.5-0.4,0.8-1.1,0.8v0.2h1.2v0.3h-0.8v0.3h0.3v0.3h-2.1c-0.3,0-0.5,0-0.7,0.1c-0.2-0.1-0.3-0.1-0.5-0.1l0.1,0.3v0.1h-0.1
					l-0.8-0.1l-0.1,0.3v0.2h0.8c0.2,0,0.3,0.2,0.3,0.5h0.2c0-0.3,0.1-0.5,0.3-0.5h0.1c0,0.2,0.1,0.3,0.3,0.5
					c0.5-0.1,0.8-0.3,0.8-0.5h-0.3v-0.2c0-0.1,0.2-0.3,0.5-0.5c0.4,0.2,0.6,0.3,0.6,0.5c-0.2,0-0.3,0.1-0.3,0.3
					c0.1,0.3,0.2,0.5,0.3,0.5l0.3-0.1c0.2,0.1,0.4,0.1,0.6,0.1v0.3h-0.1l-0.3-0.1c-0.2,0.1-0.4,0.1-0.6,0.1c0-0.2-0.1-0.3-0.3-0.3
					h-1v0.7l0.5-0.3c0.1,0.2,0.1,0.3,0.1,0.5l1.1-0.1h0.1c0.2,0.2,0.8,0.3,2,0.5l0.3-0.2h0.2v0.3h-1.6l-0.8,0.1
					c-0.2-0.4-0.3-0.6-0.5-0.6l-0.1,0.3c0.2,0,0.3,0.1,0.3,0.3l-0.3,0.2l-0.5-0.3c-0.4,0.3-0.7,0.5-1,0.5l-0.2-0.3h0.3v-0.1
					l-0.8,0.1c-0.1,0-0.5,0-1.3-0.1c0,0.1,0,0.1-0.1,0.1c-0.1-0.2-0.1-0.3-0.1-0.5c-1,0-1.7,0.3-2,1c0-0.1,0-0.2-0.1-0.2
					c0,1-0.5,1.9-1.4,2.7c0,0.5-0.2,0.8-0.5,0.8l0.2,0.3c-1.1,2.7-2.2,4-3.4,4c-0.7-1.2-1.2-1.8-1.6-1.8c0-0.3-0.3-0.6-0.8-1
					c-0.1-0.2-0.2-0.5-0.2-1h-0.1l-0.3,0.1c-0.9-1-1.3-1.9-1.3-2.7c0.2,0,0.3-0.1,0.3-0.3v-1c0-0.3,0.4-2,1.1-5.2
					c-1.2-0.6-2.1-1.2-2.6-1.8l-0.7,0.2c-1.2-0.5-2.3-1.5-3.2-3.1c-1.3-0.7-2.5-2.9-3.7-6.8c0-0.6-0.1-1.1-0.3-1.6
					c0.1-0.2,0.1-0.4,0.1-0.5h0.3c0,0.3,0,0.7,0.1,1.1h0.2l0.3-0.1l-0.2-0.3v-0.6h0.2l0.1,0.8v0.8c0,0.2-0.1,0.3-0.3,0.3v-1.1h-0.1
					v0.3c0.5,0.2,0.8,0.8,0.8,1.8h0.1c0-0.3,0-0.5,0.1-0.5L152,139c0-0.2,0.3-0.4,0.8-0.5v0.3c0,0.8,0.3,1.5,0.8,2.1
					c0,0.1-0.1,0.1-0.2,0.1c1.1,2.1,2.2,3.4,3.3,3.7c0.2,0.5,1.5,1.1,4,2c0.2,0.1,0.4,0.1,0.8,0.1c0.9-2,2.1-5.5,3.9-10.5
					c0.2-0.4,0.4-0.6,0.5-0.6l-0.1-0.3c0.7-2.5,1.3-3.8,1.6-4.2l-0.2-0.3c0.2-0.1,0.4-0.1,0.7-0.1v-1.1c0.6-1.2,0.9-1.8,1.1-1.8
					l-0.1-0.3v-0.1h0.8v0.5c-0.2,0-0.5,0.2-0.8,0.5v0.5c0.2,0,0.3-0.2,0.3-0.5c0.2,0,0.3,0.1,0.3,0.3v0.3c-0.2,0.3-0.3,0.5-0.3,0.6
					h-0.3v-0.1c0.1-0.2,0.1-0.4,0.1-0.5h-0.3c-0.2,0.7-0.3,1-0.3,1.1h0.1l0.3-0.1l0.1,0.3c0,0.2-0.1,0.3-0.3,0.3h-0.5L168,131
					l0.8-0.1c0.2,0,0.3,0.2,0.5,0.5l-0.1,0.8h-0.3v-0.5l0.1-0.3h-0.5c-0.1,0.6-0.1,0.9-0.1,1c0.2,0.1,0.4,0.1,0.6,0.1v0.3
					c-0.4,0.5-0.6,0.8-0.6,0.8c0.2,0,0.3,0.2,0.5,0.5c-0.2,0-0.3,0.1-0.3,0.3h0.5c0-0.5,0.1-0.8,0.3-0.8h0.5v-0.1h0.1l0.5,0.3
					l0.7-1.1c-0.1-0.2-0.1-0.4-0.1-0.5h-0.2c-0.1,0-0.4,0.3-0.8,1V133c0-0.1,0.1-0.1,0.2-0.1l-0.2-0.3c0.2-0.3,0.3-0.7,0.3-1
					l-0.3,0.2l-0.6-0.8c0.5-2,0.8-3.1,1-3.1c0.2,0.3,0.3,0.7,0.3,1l-0.3-0.1h-0.1l0.1,0.8l-0.6,0.8c0.1,0.2,0.1,0.5,0.1,0.8h0.1
					c0-0.3,0.3-0.8,0.8-1.3h0.3v0.2l-0.3,0.5c0.2,0,0.3,0.2,0.3,0.6c0.3,0,0.5-0.6,0.6-1.9c0.3,0,0.7-0.8,1-2.3
					c0.1-0.3,0.3-0.5,0.6-0.5v-0.2c-0.1-0.2-0.1-0.3-0.1-0.5h0.1l-0.1-0.3v-0.1c0.4,0,0.7-0.5,0.8-1.4c0.2-0.6,0.4-1,0.7-1l0.1,0.3
					v0.2c0,0.1,0,0.1-0.1,0.1l0.1,0.3c0,0.2-0.2,0.3-0.6,0.3l0.5,0.7v0.6c-0.5,0.6-0.7,1.1-0.7,1.5l0.2,1.1c-0.2,0-0.5,0.3-0.7,1
					c0.1,0,0.3,0.1,0.5,0.2c-0.2,0.7-0.5,1.2-1,1.6c0.2,0,0.3,0.1,0.3,0.3c-0.4,0.2-0.6,0.5-0.6,1c0.5-0.2,1.5-2,3.2-5.5
					c1.1-2,1.8-3.1,2.1-3.1l-0.2-0.3v-0.6c1.7-2.9,3.2-6.2,4.7-9.7h-0.3c-0.3,0-1,0.3-2.1,0.8l-0.3-0.2c-1.6,0.6-2.6,1-3.1,1.3h-0.3
					l-0.3-0.1c0,0.3,0,0.5-0.1,0.5l-0.3-0.2l-0.6,0.3l-0.3-0.1c-0.6,0.3-1.5,0.6-2.9,0.8c0-0.1,0-0.2-0.1-0.2c0,0.2-0.7,0.5-2.1,0.8
					c0,0.1,0,0.1-0.1,0.1h-0.8v0.3h-1.1c-1.3,0.5-2.9,0.8-5,0.8c-0.8,0-1.7-1.4-2.6-4.2c-0.3,0-0.5-0.7-0.8-2.1
					c0.5-2.8,1.2-4.2,2.1-4.2c1.4-1.3,2.3-1.9,2.8-1.9v0.1c0.2,0,0.5-0.3,0.8-1c0.3,0,0.6-0.2,1-0.5h0.1v0.3h-0.3v0.5h0.2
					c0.5,0,0.9-0.2,1-0.5v-0.1h-0.5v-0.2c0-0.2,0.2-0.3,0.5-0.5h0.1c0,0.3,0,0.5,0.1,0.5c1.2-0.3,1.8-0.8,1.8-1.4H169l-0.5,0.3h-0.1
					v-0.2c0-0.2,0.2-0.4,0.6-0.6l0.5,0.3h0.2c0-0.6,0.8-1.2,2.3-1.8c0-0.2,0.2-0.3,0.5-0.3h0.5c0-0.2,0.1-0.3,0.3-0.3
					c0.1,0.2,0.1,0.4,0.1,0.5h0.3v-0.8c0-1.9-1.5-5.3-4.4-10.2c-1.4-2.9-2.1-5.3-2.1-7.1v-0.8c0-2.7,2.3-6.4,6.9-11.1h0.1v0.1
					l-1.8,2.1v0.1h0.3c1.2-1.8,2.7-3.3,4.6-4.6c0.3-0.5,2.5-2.4,6.6-5.5c5.2-3.6,9.6-6.2,13.2-7.8h0.1c0,0.1-0.3,0.3-1,0.8h0.2
					c0.5,0,0.9-0.3,1.1-0.8h-0.3c0-0.2,0.2-0.3,0.5-0.5h0.5V55c-0.7,0.8-1.3,1.2-1.8,1.2c0-0.1-0.1-0.1-0.2-0.1c0,0.6-0.5,1-1.4,1.1
					h-0.2v-0.3h0.5v-0.7c-0.6,0.3-1,0.7-1.3,1v0.1l0.3-0.1h0.5c0,0.3,0,0.5,0.1,0.5l2.3-1V57c0.2,0,0.3-0.1,0.3-0.3H197
					c0-0.2,0.1-0.3,0.3-0.3l0.3,0.5c0,0.3-0.4,0.5-1.1,0.6v0.2h0.1c0.9-0.3,1.4-0.5,1.6-0.5v0.3c-0.4,0-0.6,0.1-0.6,0.3h0.8v0.1h0.3
					c0-0.4,0.6-0.6,1.6-0.6v0.4c-0.5,0-0.8,0.4-1,1.1c0.3,0.2,0.5,0.3,0.7,0.3l2.7-1.4v-0.2h-0.3v-0.1c0.1,0,0.3,0,0.5-0.1l0.7,0.3
					c0-0.2,0.6-0.5,1.8-1v-0.1l-0.8-0.2c-0.2,0.1-0.3,0.2-0.5,0.2l-0.1-0.3c0.2-0.1,0.3-0.1,0.5-0.1v-0.3c-0.3,0-0.7,0.4-1.3,1.3
					h-0.5c0-0.2-0.1-0.3-0.3-0.3v-0.1c0-0.2,0.1-0.3,0.3-0.3h0.1v0.5c0.5-0.2,0.7-0.3,0.7-0.5h-0.3v-0.7c0.4,0,0.6-0.2,0.6-0.5
					c-0.2,0-0.4-0.1-0.6-0.3l-1.1,0.6c-0.2,0-0.4-0.2-0.6-0.6c0.2,0,0.3-0.2,0.3-0.7l0.5,0.3c0.2,0,0.3-0.4,0.5-1.1
					c-0.3,0-0.8,0.3-1.3,0.8l-0.3-0.1c-0.2,0.1-0.4,0.1-0.6,0.1l-0.3-0.1c0,0.2-0.1,0.3-0.3,0.3l-0.1-0.3c0.5-0.6,0.7-1,0.8-1l4.2-2
					c0.2,0,0.3,0.1,0.3,0.3c-0.8,0.3-1.1,0.5-1.1,0.6v0.2l1.8-1l0.2,0.3c-1.9,1-2.9,1.6-2.9,1.8l0.8-0.1h0.5v0.5h0.3
					c0-0.7,0.1-1,0.3-1h0.2l-0.2,0.8c0.4-0.3,0.8-0.5,1.1-0.5h0.5v0.2l-0.1,0.3l-0.3-0.1h-0.1c-0.5,0.2-0.7,0.5-0.7,1l-0.1,0.3h0.3
					c0-0.3,1-0.7,2.9-1.1c-1.2,0.9-2.2,1.4-3.1,1.6v0.1h0.5c0-0.2,0.2-0.3,0.6-0.5l0.2,0.3c-0.5,0.3-0.9,0.5-1.3,0.5l0.1,0.3
					l-0.1,0.3h0.1l5.5-2.1h0.7c0,0.2-0.6,0.5-1.8,0.8l0.1,0.3v0.3h-0.5v-0.2l0.1-0.3h-0.1c-0.1,0-0.8,0.3-2.1,0.8v0.1h0.3v0.8h-1
					c0,0.2-1.1,0.8-3.4,1.8l-1,1c0-0.1,0-0.2-0.1-0.2l0.1-0.3v-0.5h-0.5v0.1l0.1,0.3c-0.2,0.1-0.3,0.1-0.5,0.1v0.1l0.2,0.3
					c-0.1,0-0.2,0-0.2,0.1l-0.3-0.1h-0.5c0,0.2,0.2,0.3,0.5,0.3V60c-0.4,0-0.7,0-0.8,0.1c-0.2-0.1-0.4-0.1-0.5-0.1
					c0,0.2-0.4,0.3-1.3,0.5v0.1c0.1,0.2,0.1,0.4,0.1,0.5h-0.1c-0.2-0.1-0.4-0.1-0.7-0.1h-0.1v0.1c0.1,0.2,0.1,0.4,0.1,0.5h-0.3
					c0-0.2-0.1-0.3-0.2-0.3c-0.5,0.3-0.9,0.5-1.1,0.5c0-0.1-0.1-0.2-0.2-0.2c0,0.2-0.1,0.3-0.3,0.3l-0.5-0.3c-0.2,0-0.3,0.2-0.5,0.5
					h0.2c0.2-0.1,0.3-0.1,0.5-0.1l0.3,0.5c-0.3,0-0.7,0.4-1.3,1.1h-0.2v-0.5h-0.5c-0.2,0.1-0.3,0.2-0.3,0.3c0.1,0.2,0.1,0.4,0.1,0.7
					c-0.2,0-0.3-0.2-0.3-0.5c-0.3,0.2-0.5,0.3-0.6,0.3v0.3h0.3c0,0.2-0.3,0.4-0.8,0.6l-0.5-0.3c-0.2,0-0.3,0.1-0.3,0.3h0.3V65
					c-1.6,1.2-2.8,2-3.5,2.3c0,0.2-0.2,0.3-0.5,0.5l-0.3-0.1h-0.2v0.1h0.3l-1.8,1.4c-0.2,0-0.3-0.1-0.3-0.3c0.5,0,0.7-0.1,0.7-0.3
					h-0.7c0,0.2-0.1,0.3-0.3,0.3v0.3l0.1,0.3c-1.5,1.2-2.8,2.3-3.9,3.1c-0.8,0.9-1.6,1.6-2.3,1.9c-1.3,1.4-2,2.1-2.1,2.1
					c-1.3,1.5-2.6,3.1-3.8,4.7c-1.4,2-2.1,4.2-2.1,6.6c0,1.8,1.2,5,3.5,9.5c0.1,0.7,0.4,1.1,1,1.1c2-1.2,3.8-2.2,5.5-2.9h0.1
					l0.5,0.3c0-0.6,1.9-1.5,5.8-2.8c0-0.1,0.4-0.2,1.1-0.5c0.2,0.1,0.3,0.2,0.5,0.2c0-0.2,0.1-0.3,0.3-0.3h0.5v0.3h0.2
					c0.2,0,0.3-0.1,0.3-0.3v-0.1H190c0-0.2,0.9-0.5,2.6-1c0-0.3,1.1-2.8,3.2-7.2c1-1.6,2.1-4,3.5-7.4c1.5-2.9,2.3-4.4,2.3-4.5
					c0.2,0,1.2-2,3.2-5.8c0.2,0,0.6-0.3,1.3-0.8l0.3-0.1c1.1,0,1.8,0.9,2.4,2.7c0.2,0,0.3,0.2,0.5,0.5c-0.1,0.2-0.1,0.4-0.1,0.5
					c0.6,0.5,1,0.9,1,1.1c-2.9,5.3-5.5,10.4-7.7,15.1c0,0.4-0.5,1.4-1.4,3.1c0,0.2-0.2,0.3-0.5,0.3v0.3l0.3-0.1l0.3,0.1
					c1.9-0.4,3.1-0.6,3.7-0.6c0,0.1,0.1,0.1,0.2,0.1c0-0.2,0.2-0.3,0.5-0.5h0.5l0.6,0.5c0.2-0.4,0.3-0.6,0.5-0.6s0.3,0.2,0.5,0.5
					c-0.3,0.2-0.7,0.3-1,0.3V89h0.2l0.8-0.1l0.8,0.1c0-0.2,0.1-0.3,0.3-0.3c0.1,0,0.1,0.1,0.1,0.2l2.1-0.5l0.3,0.1
					c0.6-0.2,1-0.4,1-0.7v-0.1h-0.1V88h-0.5v-0.3c0-0.3,0.8-0.5,2.4-0.6l0.3,0.1c1-0.4,2.1-1.2,3.4-2.3c0.5,0,1.2-0.6,2.3-1.9
					c3.2-2.3,7.1-6.4,11.9-12.1c4.6-6.4,7.2-11.6,7.8-15.6h0.1c0-0.1,0-0.1-0.1-0.1c0.2-0.8,0.3-1.4,0.3-2v-0.5
					c-0.3-0.8-1.5-1.5-3.4-2.1c-2.6-0.3-4-0.6-4.2-0.8l-0.5,0.3h-0.1c-0.2,0-0.3-0.1-0.3-0.3v-0.2c0.4,0,0.7,0,0.8-0.1l-0.1-0.3
					v-0.1h0.3l1-0.2c0.2,0.1,0.4,0.2,0.6,0.2l0.1-0.3c-0.8,0-1.6-0.2-2.5-0.5c0,0.2-0.1,0.3-0.3,0.3h-0.1c-0.1,0-0.2-0.1-0.2-0.2
					l-0.3,0.2h-0.1v-0.3l1.6-0.1h0.6l0.3,0.1v-0.1c-0.1-0.2-0.1-0.4-0.1-0.7c0.2,0,0.3-0.1,0.3-0.3v-0.1h-0.1l-0.7,0.5h-0.3v-0.3
					l0.8-0.1v-0.1c-0.3,0-0.7-0.2-1.1-0.5l-0.5,0.3c-0.5-0.2-0.8-0.4-0.8-0.6l0.3-0.1h0.3c0.3,0,0.5,0,0.7,0.1
					c0.2-0.1,0.4-0.1,0.6-0.1c0.3,0.2,0.6,0.3,0.8,0.3l0.1-0.3c-0.2-0.2-0.6-0.3-1.1-0.3v-0.2l0.1-0.3h-1.1c0,0.3-0.1,0.5-0.3,0.5
					v-0.2c-0.5,0.2-0.8,0.3-1,0.3c-0.1-0.4-0.6-0.6-1.5-0.6c0,0.2,0.3,0.3,0.8,0.3c0,0.2-0.1,0.3-0.3,0.3c-0.7-0.1-1.2-0.3-1.6-0.6
					v0.5c0.1,0,0.5,0.2,1,0.5c0.2-0.1,0.4-0.1,0.6-0.1l0.3,0.1c0.2-0.1,0.4-0.1,0.7-0.1l0.3,0.5c-0.1,0-0.1,0-0.1,0.1l-0.3-0.2H230
					c0,0.3-0.1,0.5-0.3,0.5s-0.3-0.2-0.5-0.7c-0.5,0.2-0.9,0.3-1.1,0.3l-0.3-0.1c-0.2,0.1-0.4,0.1-0.7,0.1l-0.1-0.3l0.3-0.1h0.3
					l0.3,0.1v-0.1c0-0.2-0.6-0.4-1.9-0.7c0,0.2-0.1,0.3-0.3,0.3s-0.3-0.1-0.3-0.3v-0.1c0.3,0,0.5-0.1,0.5-0.3h-0.1
					c-0.2,0.1-0.3,0.2-0.5,0.2l-0.1-0.3C225.5,44.6,227.2,44.5,230.4,44.5z M152,137.4h0.5c0.2,0,0.3,0.1,0.3,0.3
					c-0.1,0-0.3,0.2-0.6,0.7l-0.1-0.3L152,137.4L152,137.4z M155.7,144.8v0.3c0.5,0,0.8,0.2,0.8,0.5h0.3v-0.3
					c-0.2,0-0.5-0.2-0.8-0.5H155.7z M157.1,145.8c0,0.7,1.4,1.5,4.2,2.4c0-0.2-0.7-0.5-2-1v-0.3l1.6,0.5h0.3v-0.1
					c-0.3,0-1.8-0.5-4.2-1.6L157.1,145.8L157.1,145.8z M158.7,148.8h0.1c0.2,0.1,0.3,0.2,0.3,0.3v0.2H159c-0.2,0-0.3-0.1-0.3-0.3
					V148.8z M160.7,148.6v0.3l-0.3-0.2h-0.2v0.2l0.8,0.1l-0.1-0.3c0.1,0,0.1,0,0.1-0.1H160.7z M165.8,142.8c-0.4,1.2-0.7,1.9-1,1.9
					c0-0.1-0.1-0.1-0.2-0.1c0.1-0.5,0.2-0.8,0.5-0.8c-0.1-0.2-0.1-0.3-0.1-0.5c-0.1,0-0.4,0.5-0.8,1.4v0.3h0.3l0.3-0.1l0.1,0.3
					c-0.2,0.1-0.3,0.2-0.3,0.3c0,0.2,0.1,0.3,0.3,0.3l0.5-1l0.3,0.1c0.2,0,0.3-0.2,0.5-0.5l-0.5-0.8l0.5-0.6L165.8,142.8z
					 M164.4,146.5v0.3h0.1c0.2,0,0.3-0.1,0.3-0.3H164.4z M165.5,106.6l-0.5,0.7h0.1c0.3-0.2,0.5-0.3,0.7-0.3
					C165.8,106.7,165.7,106.6,165.5,106.6z M165,114.4L165,114.4l0.5,0.1c0.2,0,0.3-0.1,0.3-0.3h-0.3
					C165.3,114.3,165.1,114.4,165,114.4z M165,139.9v0.2c0.2,0,0.3-0.1,0.3-0.3v-0.1C165.1,139.7,165,139.8,165,139.9z M165.3,145.9
					v0.1h0.3v-0.5C165.5,145.6,165.3,145.7,165.3,145.9z M166,140.6v0.1h0.3l-0.1,1.1h0.3c0-0.4,0.1-0.7,0.3-1v-0.3L166,140.6
					L166,140.6z M166.2,139.4v0.2h0.1c0.2,0,0.3-0.1,0.3-0.3v-0.1h-0.2C166.3,139.2,166.2,139.3,166.2,139.4z M166.3,106L166.3,106
					l0.3,0.1c0.2,0,0.3-0.1,0.3-0.3v-0.1h-0.3C166.4,105.7,166.3,105.8,166.3,106z M166.6,142.7v0.1l0.1,0.8h-0.5v0.3h0.5
					c0-0.3,0.2-0.6,0.5-1v-0.5h-0.1C166.9,142.6,166.7,142.7,166.6,142.7z M166.6,138.1c0,0.1-0.1,0.3-0.2,0.5l0.3,0.1
					c0-0.1,0-0.3,0.1-0.5L166.6,138.1z M168.9,137.7c0,0.5-0.2,0.7-0.5,0.7l0.1,0.3v0.5c0,0.2-0.1,0.3-0.3,0.3l-0.1-0.3
					c0.1-0.2,0.1-0.4,0.1-0.7h-0.3l-0.2,0.8c-0.3,0-0.5-0.3-0.5-0.8h-0.1c0,0.3-0.2,0.8-0.5,1.4l0.3,0.2h0.3c0-0.3,0.2-0.6,0.7-0.8
					v1l-1.1,1.4v0.2c0.2,0,0.4,0.2,0.7,0.5c0.5-0.6,1.1-2.1,1.8-4.5L168.9,137.7z M186.9,101.5c0,0.3-0.5,0.6-1.5,1h-0.1l0.3-0.5
					v-0.2h-0.3c-0.2,0-0.3,0.2-0.5,0.5v0.2h0.5c-0.1,0.3-0.4,0.5-1,0.5v-0.3h0.3v-0.1h-0.5c0,0.3-0.4,0.8-1.3,1.3H182
					c0,0.3-0.5,0.7-1.5,1.1l-0.3-0.1l-2.9,1.8c0,0.2-0.2,0.3-0.5,0.3v0.1h0.3v0.3h-0.3v0.1c0,0.2,0.1,0.3,0.3,0.3h0.5l0.3-0.2
					l0.1,0.3l-1.3,0.5v0.8c0,0.1,0,0.1-0.1,0.1c0.1,0.5,0.2,0.7,0.3,0.7c0.3,0,1.1-0.2,2.1-0.7l0.5,0.8l-0.3,0.2
					c-0.1-0.2-0.1-0.4-0.1-0.5h-0.3c-0.1,0-0.3,0.2-0.5,0.5h0.2c0.2-0.1,0.3-0.2,0.5-0.2v0.3c-0.5,0-1,0.2-1.5,0.6h-0.8
					c0,0.3-0.1,0.5-0.3,0.5c-0.1,0-0.1-0.1-0.1-0.2c-1.1,0.3-1.8,0.6-2.1,0.8c-0.2-0.1-0.4-0.1-0.7-0.1c0,0.1-0.6,0.4-1.8,0.8
					c0-0.1,0-0.1-0.1-0.1c0,0.2-0.1,0.3-0.3,0.3c-0.1,0-0.1-0.1-0.1-0.2c-1.6,0.3-3,0.7-4.2,1.1h-0.1v0.1h0.8l0.6-0.3l0.3,0.1
					c0.5-0.2,0.9-0.3,1.1-0.3v0.3l-1.5,0.3v0.1h0.3c0.6-0.1,1.1-0.1,1.6-0.1c0,0.1,0,0.1,0.1,0.1c0-0.3,0.2-0.5,0.5-0.5v-0.1
					c-0.1,0-0.3-0.1-0.5-0.2c0,0.1,0,0.2-0.1,0.2v-0.3c1.2-0.3,2-0.5,2.3-0.7h0.5v0.2l-0.3,0.5c0.2,0,0.3,0.1,0.3,0.3
					c-0.1,0-0.1,0-0.1,0.1h0.3c0-0.3,0.4-0.6,1.3-1.1c-0.2,0-0.3-0.1-0.3-0.3c0.3,0,0.6-0.1,0.8-0.3h0.2v0.3c0.3,0,0.8-0.2,1.3-0.7
					c0.2,0,0.3,0.1,0.3,0.3c-0.1,0-0.1,0-0.1,0.1l0.3,0.2h0.1c0-0.3,0.2-0.6,0.5-0.8c0.5,0,1,0.3,1.6,1h-0.3c-0.2,0-0.3-0.1-0.3-0.3
					c-0.6,0-1.1,0.3-1.4,0.8c-0.4,0-0.6,0.1-0.6,0.3h0.1c0.2-0.1,0.4-0.1,0.6-0.1l0.2,0.3c-0.6,0.3-1,0.5-1,0.7v0.1l1.2-0.6
					c-0.1-0.2-0.1-0.4-0.1-0.5l1-0.5c0,0.2,0.1,0.3,0.3,0.3c0.2-0.1,0.3-0.1,0.5-0.1c0,0.2,0.1,0.3,0.3,0.3v-0.2l-0.2-0.3h0.3
					l0.5,0.3h0.3c-0.4-0.5-0.6-0.8-0.6-0.8V112h0.3v-0.3l-1.1-0.1c0,0.2-0.1,0.3-0.3,0.3l-0.3-0.5c0.4,0,0.7-0.1,1-0.3l0.5,0.3h0.3
					c0-0.3,0.7-0.5,2-0.7v0.3c-1.2,0-1.8,0.5-1.8,1.4l0.3,0.1h0.2c0-0.1,0-0.3,0.1-0.5l0.3,0.2h0.3l-0.2-0.3
					c0.2-0.4,0.5-0.6,0.8-0.6l0.3,0.1h0.1v-0.1h-0.3c0-0.2,0.1-0.3,0.3-0.3h0.5v0.3h0.2l0.6-0.5c-0.1-0.2-0.1-0.3-0.1-0.5
					c-0.7,0.2-1.1,0.3-1.3,0.3l-0.2-0.3v-0.1c1.6,0,2.5-0.8,2.8-2.4l-0.3-0.2c-0.4,0.3-0.8,0.5-1.1,0.5c-0.2,0-0.3-0.1-0.3-0.3
					c0.9-0.5,1.4-0.9,1.6-1.1c0.2,0.1,0.4,0.1,0.5,0.1l-0.1-0.3l0.6-0.5l0.3,0.1c0-0.4,0.6-1.9,1.9-4.7v-0.3
					c-0.2,0.1-0.3,0.1-0.5,0.1L186.9,101.5z M167.1,105.6h0.3l0.3-0.1h0.5c0-0.5,0.5-0.8,1.5-1v-0.2h-0.3V104
					c0.2,0.1,0.3,0.2,0.5,0.2c0.5,0,0.9-0.2,1-0.7h-0.3v-0.1c1.2-0.7,1.8-1.1,1.8-1.3h-0.1c-0.9,0.3-1.9,0.9-2.9,1.6
					c-0.5,0-1.2,0.6-2.1,1.8v0.1H167.1z M167.1,136.7v0.2h0.1l0.2-0.7C167.2,136.2,167.1,136.4,167.1,136.7z M167.3,137.9v0.5h0.2
					c0.2,0,0.3-0.1,0.3-0.3V138L167.3,137.9L167.3,137.9z M167.7,103.3h0.2v0.1c0,0.2-0.1,0.3-0.3,0.3l-0.1-0.3L167.7,103.3z
					 M167.5,114.5L167.5,114.5l0.6,0.1v-0.1H167.5z M167.6,131.3v0.1c0.2,0,0.3-0.1,0.3-0.3V131C167.7,131,167.6,131.1,167.6,131.3z
					 M167.6,131.9c0,0.2,0.1,0.3,0.3,0.3c0-0.2,0.1-0.4,0.3-0.6v-0.2h-0.1C167.9,131.4,167.8,131.6,167.6,131.9z M168.1,135.3
					c0,0.4-0.1,0.6-0.3,0.6v0.2c0,0.2,0.2,0.3,0.5,0.5c0.2-0.5,0.3-0.9,0.3-1.1l-0.3-0.1L168.1,135.3L168.1,135.3z M168.1,138v0.1
					h0.3v-0.4C168.2,137.7,168.1,137.8,168.1,138z M168.2,112.1L168.2,112.1l0.7,0.1c0.2-0.1,0.3-0.1,0.5-0.1l-0.1-0.3
					C168.8,112,168.5,112.1,168.2,112.1z M168.2,134.8v0.3h0.5v-0.3H168.2z M168.7,114.8v0.1c0.7,0.2,1.1,0.3,1.3,0.3v-0.7h-0.1
					L168.7,114.8z M168.9,136.1c0.1,0.2,0.1,0.4,0.1,0.6h0.3l0.5-0.3c-0.1-0.2-0.1-0.3-0.1-0.5h-0.5L168.9,136.1z M169,106.1
					c0,0.2,0.1,0.3,0.3,0.3h0.1c0.2,0,0.3-0.1,0.3-0.3V106L169,106.1z M175.6,107.3l-0.5,0.8c0.1,0.2,0.1,0.3,0.1,0.5l-0.3,0.1
					c0-0.1-0.1-0.1-0.2-0.1l0.2-0.3c0-0.2-0.1-0.3-0.3-0.3c0,0.2-0.1,0.3-0.3,0.3h-0.1l-0.3-0.1c0,0.3-0.7,0.8-2.1,1.2
					c-1.6,1-2.5,1.7-2.5,2v0.1h0.1l0.6-0.5l0.5,0.3c0-0.2,0.1-0.3,0.3-0.3h0.2v0.3c0,0.2-0.2,0.3-0.7,0.3v0.1h0.5
					c0.7,0,1.3-0.4,1.8-1.1c1-0.1,1.4-0.3,1.4-0.6c0-0.2,0.2-0.3,0.5-0.5l0.1,0.3l-0.1,0.3c0.4,0,0.7,0.1,1,0.3
					c0.2,0,0.4-0.5,0.8-1.6c-0.2,0-0.3-0.2-0.5-0.5c0-0.1,0.1-0.1,0.2-0.1c-0.1-0.2-0.2-0.4-0.2-0.5c0.1-0.2,0.2-0.4,0.2-0.5
					L175.6,107.3L175.6,107.3z M169.4,102.8L169.4,102.8l0.3,0.1c0-0.2,0.2-0.3,0.5-0.3v-0.3C169.8,102.6,169.5,102.8,169.4,102.8z
					 M169.5,76v0.2h0.3v-0.5C169.6,75.7,169.5,75.8,169.5,76z M170,125.6h0.2v0.1c0,0.2-0.2,0.3-0.5,0.5l-0.2-0.3L170,125.6z
					 M169.7,104.8v0.2h0.5l0.3-0.5v-0.2C170.1,104.7,169.9,104.8,169.7,104.8z M170.3,130.6l-0.1,0.3h0.5
					C170.7,130.7,170.5,130.6,170.3,130.6z M170.3,74.6v0.3h0.1c0.2,0,0.3-0.2,0.5-0.5v-0.2C170.7,74.5,170.5,74.6,170.3,74.6z
					 M170.7,120.8c0.2,0,0.3,0.1,0.3,0.3v0.5c0,0.1-0.1,0.1-0.2,0.1l0.2,0.3v0.1h-0.3l0.1,0.3c0,0.1,0,0.2-0.1,0.2l0.1,0.3
					c0,0.2-0.1,0.3-0.3,0.3h-0.1v-0.1C170.5,121.7,170.7,120.9,170.7,120.8z M170.5,112.4v0.2c0.5-0.1,0.8-0.2,1.1-0.2v-0.3h-0.5
					C170.9,112.3,170.7,112.4,170.5,112.4z M170.5,114.6l0.7,0.2l0.1-0.3l-0.3-0.1h-0.2C170.6,114.4,170.5,114.5,170.5,114.6z
					 M172.1,106.5c0,0.2-0.4,0.6-1.3,1.1v0.2h0.3c0-0.3,0.5-0.7,1.6-1v-0.3L172.1,106.5L172.1,106.5z M171.5,128.2
					c0,0.3,0,0.5,0.1,0.6l-0.6,0.5l-0.2-0.3v-0.2l0.3,0.2c0-0.1,0-0.2,0.1-0.2l-0.1-0.3C171.2,128.3,171.3,128.2,171.5,128.2z
					 M171.3,119.8v0.5c-0.2,0-0.3-0.1-0.3-0.3L171.3,119.8z M171,153v0.1h0.6V153H171z M171.1,113.5v0.5h0.1c0.2,0,0.3-0.2,0.5-0.5
					H171.1z M171.6,117.7l0.3,0.5c-0.2,0.3-0.3,0.5-0.3,0.7h-0.3v-0.8C171.3,117.8,171.4,117.7,171.6,117.7z M171.5,104.5v0.3
					l0.6,0.2c0-0.2-0.2-0.3-0.5-0.5H171.5z M171.6,102.9v0.5c0.2,0,0.3-0.2,0.5-0.5H171.6z M171.8,116.6h0.3v0.8H172
					c-0.2,0-0.3-0.1-0.3-0.3C171.7,116.9,171.8,116.7,171.8,116.6z M171.6,150.4v0.3h1.4c0-0.2-0.1-0.3-0.3-0.3H171.6z M171.8,115
					h0.2c0.2,0,0.3-0.1,0.3-0.3h-0.1C171.9,114.7,171.8,114.8,171.8,115z M172.1,137.2c0,0.2-0.1,0.4-0.3,0.7v0.1
					c0.2,0,0.5-0.3,0.7-0.8H172.1L172.1,137.2z M172,101.1v0.3h0.1c0.2,0,0.3-0.1,0.3-0.3H172z M172,139.4v0.5
					c0.2,0,0.3-0.1,0.3-0.3v-0.2H172z M172.8,137.4c0,0.7-0.2,1.1-0.7,1.1l0.1,0.8c0.2,0,0.5-0.6,1-1.8l-0.3-0.1H172.8z
					 M172.1,149.8v0.3h0.7v-0.3H172.1z M215.6,96.3h-0.5c0,0.3-0.5,0.6-1.4,0.8c0,0.3-0.9,1-2.6,2.1c-0.2,0-0.4,0.2-0.6,0.6
					c-2.7,1.2-4.8,2.5-6.5,3.9c-0.3,0-1.7,0.7-4.2,2.1c-0.7,0-2.4,0.9-5.3,2.6c-0.2-0.1-0.4-0.1-0.5-0.1c-0.3,0.5-0.9,0.9-1.6,1.1
					c-1.3,2.6-2.5,4.6-3.5,6v0.3l0.3-0.2v0.3c0,0.2-0.2,0.3-0.5,0.5h-0.5c0,0.3-0.3,0.8-0.8,1.3l0.1,0.3c-0.3,0.5-0.5,0.9-0.5,1.3
					h-0.1l-0.3-0.2c0,0.7-0.3,1.2-0.8,1.6c0.2,0,0.3,0.3,0.5,0.8l-0.3,0.1l-0.3-0.1v0.1c0.1,0.2,0.1,0.4,0.1,0.5
					c-0.2,0-0.3,0.2-0.5,0.5c0.1,0.2,0.1,0.4,0.1,0.5c-0.2,0.5-0.3,0.7-0.5,0.7v-0.2c-0.2,0.1-0.3,0.2-0.5,0.2l0.1,0.8
					c0,0.5-0.4,1-1.1,1.8l0.3,0.5c-0.7,0.3-1,0.8-1,1.6c-0.2,0-0.5,0.4-1.1,1.3c0.1,0.2,0.1,0.4,0.1,0.7c-0.5,0.2-0.8,0.3-1,0.3v0.5
					c0,0.6-0.2,1-0.6,1.1l0.1,0.3c-0.5,0.6-1.4,2.2-2.7,4.8l-1.3,2.3l0.3,0.8c-0.3,0-0.6,0.3-1,0.8l0.2,0.3v0.1
					c-0.5,0-0.7,0.3-0.7,1c0.1,0,0.2,0,0.2,0.1l-0.7,0.8c0-0.1,0-0.2-0.1-0.2c0,0.5-0.2,0.8-0.5,0.8l0.1,0.3v0.1h-0.3v0.2l0.2,0.3
					c-0.3,0.1-0.6,0.5-0.8,1.1H173l0.1,0.3l-0.3,0.1l0.2,0.3v0.1l-0.3-0.1h-0.1c0,0.4-0.1,0.6-0.3,0.6v0.2h0.3v0.1l-0.2,0.3
					c0.5,0.1,0.8,0.3,0.8,0.6h-0.5c-0.1,0-0.1,0-0.1-0.1c-0.2,0.1-0.4,0.1-0.5,0.1v0.3h2.9v-0.1c-0.3,0-0.8-0.3-1.6-0.8v-0.3h1v0.1
					l-0.2,0.3c0.5,0,0.9,0,1.3,0.1c0.2-0.4,0.3-0.6,0.5-0.6h0.2v0.1l-0.2,0.3v0.1h0.2v-0.3c0,0,0.2,0.1,0.5,0.3h1.1
					c0.6-0.4,1-0.6,1.3-0.6v0.3h-0.3v0.3c0.8-0.3,1.2-0.5,1.3-0.5c0.2,0.1,0.4,0.2,0.5,0.2c0-0.2,0.1-0.3,0.3-0.3h0.3
					c0.3,0.2,0.6,0.3,1.1,0.3v0.3c-0.6,0-1,0.2-1,0.7c0.1,0,0.3,0,0.5,0.1l1-0.5v0.2l0.3-0.2c0.2,0,0.3,0.1,0.3,0.3v0.1
					c-0.3,0-0.5,0.1-0.5,0.3v0.1c0.1,0,0.3,0,0.5-0.1l1,0.1v0.2l-0.6,0.1v0.1h0.3c0.2-0.1,0.4-0.1,0.5-0.1v0.3
					c-0.2,0-0.4,0.1-0.6,0.3l-1.4-0.2v0.2c0,0.5,0.3,0.8,1,0.8c0-0.2,0.1-0.3,0.3-0.3h0.3l-0.5,0.8h0.2l1.1-0.1
					c0.2,0.5,0.3,0.7,0.5,0.7c0.1,0,0.3-0.1,0.5-0.2l0.8,0.2l0.3-0.2c0.2,0.1,0.3,0.2,0.5,0.2l-0.1-0.3v-0.2h0.6
					c0.5,0.3,0.9,0.5,1.3,0.5v-0.3c-0.3,0-0.5-0.2-0.5-0.5h-0.5c-0.3,0-0.5-0.1-0.7-0.2c-0.4,0.2-0.7,0.3-1,0.3v-0.3h0.5v-0.3
					c-0.3,0-0.5-0.1-0.5-0.2l-0.3,0.2l-0.8-0.2c0-0.3,1-0.5,2.9-0.5v0.5h-1.1v0.2l1.1,0.1c0.1,0,0.5-0.1,1.3-0.3h0.1
					c-0.1,0.3-0.4,0.5-1,0.5c0,0.2,0.3,0.4,0.8,0.7l0.8-0.2v0.2c0.2-0.1,0.8-0.2,1.8-0.3l0.3,0.1c1.4-0.4,2.1-0.7,2.1-0.8
					c-0.3,0-0.5-0.1-0.5-0.3s0.2-0.3,0.7-0.3v0.5h-0.3c-0.4,0.2-0.6,0.3-0.6,0.5l-0.8-0.1l-0.8,0.1v-0.3c1.5-0.1,2.3-0.4,2.3-0.8
					c-0.8,0.2-1.2,0.3-1.3,0.3l-0.1-0.3c-0.9,0.5-1.9,0.8-3.3,0.8v-0.3c0.3,0,0.7,0,1.1-0.1v-0.3h-0.5l-0.8,0.2v-0.3h0.3v-0.5
					l-0.3,0.1h-0.3v-0.1c0-0.1,0.5-0.5,1.6-1.1c0.1,0,0.1,0.1,0.1,0.2l0.3-0.2h0.1c0,0.3,0.1,0.5,0.3,0.5l0.3-0.5h-0.7
					c0-0.2,0.2-0.3,0.5-0.3l0.3,0.1l0.3-0.1l1.1,0.5c0-0.3,0.3-0.4,0.8-0.5v0.1c0.6-0.2,1.2-0.5,1.6-1l0.3,0.1h0.5
					c0.4-0.3,1-0.5,1.8-0.5c0,0.2-0.2,0.3-0.5,0.3v0.3l0.8-0.2h0.5c0-0.2,0.2-0.3,0.5-0.3l-0.2-0.3v-0.3c0.2,0,1-0.4,2.6-1.1V145h0
					c-0.5,0.3-0.8,0.5-1.1,0.5v-0.2c0-0.2,0.2-0.3,0.5-0.3v-0.3c-1.5,0.5-2.4,0.9-2.7,1.1l-0.3-0.2c0,0.2-0.2,0.3-0.5,0.5H198v-0.4
					h-0.3l0.1,0.3v0.2h-0.4c-0.2,0-0.3-0.1-0.3-0.3v-0.2h0.3v-0.3h-0.1c-0.6,0.9-1.4,1.3-2.3,1.3l-0.2-0.3c0.2,0,0.5-0.2,1.1-0.6
					c0.2,0.1,0.3,0.1,0.5,0.1c0-0.2,0.4-0.5,1.1-1l0.8,0.1h0.3c0-0.4,0.3-0.6,1-0.6l-0.1-0.3l0.3-0.1h0.1v0.5h0.6
					c0.3-0.2,0.5-0.3,0.7-0.3l-0.2-0.3v-0.2l0.3,0.1h0.2c0.5-0.3,0.8-0.5,0.8-0.6c-0.1,0-0.1-0.1-0.1-0.2l0.3-0.1l0.3,0.1l0.8-0.5
					h0.2v0.2l-0.3,0.5h0.3c0.2,0,0.3-0.2,0.5-0.5c-0.1,0-0.2-0.1-0.2-0.2c0.4-0.2,0.8-0.3,1.3-0.3h0.2l0.3,0.1c1.3-1.1,2-1.6,2-1.8
					h0.5c0.1,0,0.1,0,0.1,0.1c0.5-0.4,0.8-0.6,1-0.6l-0.1-0.3c0-0.2,0.1-0.3,0.3-0.3h0.6l0.3,0.2l0.1-0.3l-0.1-0.3l0.8,0.2
					c0.7-0.5,1.1-0.8,1.1-1.1c0.2,0,0.5-0.2,0.8-0.5h0.5c0.3-0.1,0.5-0.3,0.5-0.6c0.3,0,0.8-0.1,1.3-0.3l0.3,0.1l0.3-0.1
					c0.2,0.1,0.3,0.1,0.5,0.1h0.1v-0.1h-0.3v-0.2c0.5-0.5,0.8-0.8,0.8-1l0.3,0.2c0-0.3,0.4-0.7,1.1-1.1v-0.1h1l-0.2-0.3
					c1.2-0.9,1.8-1.3,1.8-1.4h0.2c0.2,0,0.3,0.1,0.3,0.3l-0.3,0.7c0.2,0,0.3,0.1,0.3,0.3v0.1c-0.4,0-0.7,0.1-1,0.3v-0.3h-0.1
					c-0.2,0-0.3,0.1-0.3,0.3v0.1l0.3-0.1h0.1l-1.6,1.4h0.3c0.9-0.5,1.3-0.8,1.3-1l0.8,0.1h0.1v-0.3h-0.3v-0.3c0.2,0,0.3-0.1,0.3-0.3
					h0.2c0.3,0.2,0.5,0.3,0.6,0.3c0.2-0.1,0.4-0.2,0.5-0.2v-0.1h-0.5v-0.4c0.9-0.2,1.3-0.4,1.3-0.8c0-0.2,0.3-0.5,0.8-1v-0.1h-0.1
					c-0.2,0.1-0.4,0.1-0.5,0.1c0-0.2-0.1-0.3-0.3-0.3c0,0.2-0.2,0.4-0.7,0.5c0,0.2-0.1,0.3-0.3,0.3h-0.2v-0.1l0.3-0.5v-0.1h-0.3
					v-0.3c0.2,0,0.6-0.2,1.1-0.7h0.1v0.2l-0.1,0.3h0.5v-0.1l-0.3-0.5c6-5.3,9.7-9.1,11.1-11.4l2.3-3.5c0-0.3,0.6-1.6,1.8-4.2
					c0-0.9,0.2-1.3,0.7-1.3l-0.2-0.3l0.3-0.5v-0.3c0-0.6,0.2-2.3,0.5-5c0-1.1-0.5-2.1-1.6-2.7v-0.3h0.3c-1.2-1.4-2.1-2.1-2.7-2.1
					l0.1-0.3c-0.4-0.4-1.1-0.7-2.1-0.8c0-0.2-0.3-0.5-1-0.8v0.1l-0.3-0.1l-0.3,0.1v-0.1l0.1-0.3c-0.5-0.1-0.8-0.3-0.8-0.6h-0.6
					c-0.3,0-0.5-0.2-0.5-0.7c-0.1,0-0.3,0.1-0.5,0.2c-0.8-0.1-1.1-0.2-1.1-0.3c0.1-0.2,0.1-0.3,0.1-0.5c-0.3,0.2-0.7,0.3-1,0.3h-0.5
					c-0.2,0-0.3-0.1-0.3-0.3l-0.2-0.2l-0.7-0.3l-0.1,0.3c-1.3-0.2-1.9-0.4-1.9-0.6l-0.3,0.1l-1-0.1c-0.2,0.1-0.4,0.1-0.5,0.1v-0.1
					c-0.1,0-0.2,0-0.2,0.1c-0.1,0-0.4,0-1-0.1l-1.1,0.1v-0.1c-0.1,0-0.1,0-0.1,0.1l-0.8-0.1h-0.3C217.3,94.9,216.1,95.7,215.6,96.3z
					 M172.4,128.8h0.5v-0.3h-0.1C172.5,128.6,172.4,128.7,172.4,128.8z M172.9,101.6L172.9,101.6c0.1,0.3,0.1,0.5,0.1,0.6
					c-0.2,0.1-0.3,0.2-0.5,0.2v0.1h0.5l0.3-0.5c-0.1-0.2-0.1-0.3-0.1-0.5L172.9,101.6L172.9,101.6z M172.6,115.1v0.2
					c0.2,0,0.3-0.1,0.3-0.3v-0.1C172.7,114.9,172.6,115,172.6,115.1z M173.1,141.2c0,0.1,0,0.3-0.1,0.5h0.3v-0.5H173.1z M173.1,76.2
					l0.3,0.1l0.8-1.1C173.9,75.3,173.6,75.6,173.1,76.2z M173.7,139c0,0.1-0.1,0.4-0.3,1c0.3,0,0.4-0.3,0.5-0.8V139H173.7L173.7,139
					z M173.7,113.5v0.6h0.3v-0.6H173.7z M175.3,132.5c-0.2,0.2-0.3,0.8-0.5,1.6c-0.5,0-0.8,0.3-0.8,0.8l0.2,0.3
					c-0.1,0.2-0.2,0.3-0.2,0.5c0.2,0,0.3-0.2,0.5-0.5v-0.3h-0.3v-0.3c0.6,0,1.1-0.6,1.4-1.9L175.3,132.5z M174.7,113.5l-0.5,0.6
					l0.3,0.2h0.1c0-0.3,0.1-0.5,0.3-0.5s0.3,0.1,0.3,0.3c-0.2,0-0.3,0.1-0.3,0.3v0.1l0.8-0.1v-0.1
					C175.6,113.8,175.3,113.5,174.7,113.5z M175.8,116.8v0.1c0,0.4,0,0.7-0.1,0.8l0.1,1v0.3h-0.3c0,0.2,0.1,0.3,0.3,0.3
					c-0.3,1.5-0.6,2.3-0.8,2.3h-0.2c0-0.5-0.2-0.7-0.6-0.8v-0.5l0.5,0.3c0.2,0,0.3-0.1,0.3-0.3v-0.6c-0.5,0-0.7-0.1-0.7-0.3v-0.1
					c0.2-0.5,0.4-0.7,0.8-0.7V118l-0.3,0.1l-0.1-0.3c0-0.2,0.1-0.3,0.3-0.3v0.1C175.1,117.6,175.4,117.3,175.8,116.8z M174.5,121.7
					h0.5v0.3c0,0.2-0.1,0.3-0.3,0.3h-0.1L174.5,121.7L174.5,121.7z M174.8,135.4v0.2l0.3,0.6l0.3-0.1h0.1l0.3,0.1v-0.8h-0.2
					l-0.5,0.3L174.8,135.4z M175,131.4l0.3,0.2v-0.5C175.1,131.1,175,131.2,175,131.4z M175.5,134.1c0,0.2-0.2,0.5-0.5,0.8v0.2
					c0.3-0.2,0.5-0.3,0.6-0.3v-0.7H175.5L175.5,134.1z M175.2,73.9v0.2h0.1c0.2,0,0.3-0.1,0.3-0.3v-0.3
					C175.5,73.4,175.3,73.6,175.2,73.9z M175.3,136.4v0.5h0.2c0.2,0,0.3-0.1,0.3-0.3l-0.3-0.2H175.3z M176.5,128.7
					c-0.3,1.2-0.7,1.8-1,1.8v0.6h0.1c0-0.3,0.4-1,1.1-2.3L176.5,128.7z M176.8,150.7h0.1v0.5l-0.8,0.1h-0.3V151
					C176.2,151.1,176.5,151,176.8,150.7z M176,132.8c0.1,0.2,0.1,0.4,0.1,0.5c0.2,0,0.5-0.4,0.7-1.3
					C176.6,132.1,176.4,132.3,176,132.8z M176.1,99v0.2h0.7V99H176.1z M176.3,75.2v0.2c0.1,0,0.3-0.2,0.5-0.5v-0.2
					C176.6,74.7,176.5,74.9,176.3,75.2z M176.3,99.9c0.2,0.3,0.3,0.5,0.3,0.8h0.7l-0.2-0.3c0-0.3,0.7-0.6,2.3-1
					c0-0.5-0.1-0.8-0.3-0.8C177.3,99.4,176.4,99.9,176.3,99.9z M176.3,111h0.1c0.5-0.1,0.8-0.3,0.8-0.5h-0.3
					C176.5,110.6,176.3,110.8,176.3,111z M176.3,134c0.2,0,0.3,0.1,0.3,0.3c-0.2,0.3-0.3,0.6-0.3,0.8h0.3c0-0.5,0.2-0.7,0.5-0.7h0.2
					c0-0.2-0.1-0.3-0.3-0.3l1-1.9l-0.1-0.3C177.6,131.9,177.1,132.6,176.3,134z M177.4,126.9c0,0.2-0.2,0.6-0.6,1.1h0.3
					c0.2,0,0.3-0.3,0.5-1v-0.1H177.4z M176.9,98.9h0.5c0.2,0,0.3-0.1,0.3-0.3h-0.5C177,98.6,176.9,98.7,176.9,98.9z M178.4,126.3
					c-0.3,1-0.5,1.4-0.8,1.4l0.2,0.3v0.1c-0.3,0-0.5,0.2-0.7,0.6v0.3c0.5,0,1.1-1,1.6-2.9L178.4,126.3L178.4,126.3z M177.3,135.1
					l-0.2,0.3l0.3,0.2l0.1-0.3L177.3,135.1z M177.4,150.3h0.7c0.1,0.5,0.1,0.9,0.1,1h-0.8v-0.1l0.3-0.5H177
					C177.1,150.4,177.2,150.3,177.4,150.3z M179.2,72.1c-1.2,1-1.8,1.6-1.8,1.8v0.3c1.3-0.9,1.9-1.3,1.9-1.4s0.1-0.3,0.2-0.5
					L179.2,72.1z M177.6,71.7h0.2c0.2,0,0.3-0.1,0.3-0.3h-0.2C177.7,71.4,177.6,71.5,177.6,71.7z M179.3,102.8
					c0,0.3-0.6,0.5-1.8,0.8v0.3c0.7,0,1.4-0.4,2.1-1.1C179.7,102.8,179.3,102.8,179.3,102.8z M177.6,152.5h0.5v0.3h-0.5V152.5z
					 M178.1,69.6h0.5v-0.3h-0.2C178.2,69.3,178.1,69.4,178.1,69.6z M178.2,151.8l0.8,0.2v0.3l-0.8-0.1V151.8z M178.4,113.7v0.2h0.3
					c0.2,0,0.3-0.1,0.3-0.3l-0.3-0.1C178.5,113.4,178.4,113.5,178.4,113.7z M178.6,97.6v0.6c0.2,0,0.3-0.2,0.5-0.6H178.6z
					 M179.2,126.9l-0.6,1.4h0.3c0-0.3,0.2-0.7,0.7-1.3v-0.1L179.2,126.9L179.2,126.9z M178.8,68.1v0.2h0.3v0.3
					c-0.3,0-0.5,0.1-0.5,0.3h0.5c0-0.2,0.1-0.3,0.3-0.3v-0.3c-0.1,0-0.3-0.1-0.5-0.2H178.8z M178.7,153.6h0.5v0.3h-0.5V153.6z
					 M178.8,67.4L178.8,67.4c0.2,0.1,0.4-0.1,0.7-0.6h-0.2C179.2,66.8,179,67,178.8,67.4z M179,123.2v0.3h0.3c0-0.2,0.2-0.5,0.7-1
					v-0.3c-0.2,0-0.5,0.3-0.8,1H179L179,123.2z M179,128.5v0.1h0.1c0.2,0,0.3-0.1,0.3-0.3v-0.1h-0.2
					C179.1,128.2,179,128.3,179,128.5z M179.7,68.1v0.2c0,0.2,0.1,0.3,0.3,0.3v-0.5H179.7z M180.6,153.6v0.2l0.5-0.3h0.5
					c0,0.1-0.1,0.1-0.2,0.1l0.2,0.3v0.1h-0.5c-0.2,0-0.4,0-0.6-0.1c-0.2,0.1-0.4,0.1-0.6,0.1l-0.2-0.3
					C179.8,153.7,180.1,153.6,180.6,153.6z M179.8,69.4h0.6v-0.3h-0.3C179.9,69.2,179.8,69.2,179.8,69.4z M181,108.2L181,108.2
					l-0.1,0.4h0.3l-0.1,0.3l0.1,0.3h-0.1c-0.1,0-0.1,0-0.1-0.1l-0.3,0.1h-0.1v-0.5h0.3v0h-0.5v-0.3L181,108.2z M180.3,68.1v0.3
					l0.8,0.1v-0.1c0-0.2-0.1-0.3-0.3-0.3v0.2l-0.3-0.2H180.3z M180.5,119.7l-0.1,0.3v0.2h0.1c0.2,0,0.3-0.1,0.3-0.3L180.5,119.7z
					 M180.8,122.4c-0.2,0.3-0.3,0.7-0.3,1c0.2,0,0.4-0.3,0.6-0.8L180.8,122.4z M180.5,149.9c0,0.2,0.1,0.3,0.3,0.3l0.3-0.2l0.3,0.2
					l0.3-0.2c0.2,0.1,0.3,0.2,0.5,0.2l0.1-0.3v-0.1l-0.6,0.1l-0.7-0.1C180.9,149.9,180.7,149.9,180.5,149.9z M180.6,66.7h0.2
					c0.2-0.1,0.4-0.1,0.6-0.1v-0.3h-0.1C180.8,66.4,180.6,66.5,180.6,66.7z M181.1,65.6l-0.1,0.3v0.2h0.1c0-0.1,0.1-0.3,0.2-0.5
					H181.1L181.1,65.6z M181.1,97.6c0,0.1,0,0.3-0.1,0.5v0.1h0.1c0-0.2,0.1-0.3,0.3-0.3v-0.3C181.4,97.6,181.1,97.6,181.1,97.6z
					 M181,120.1h0.1l0.3-0.2l0.2,0.3l-0.5,0.7v0.3l0.3-0.1c0.2,0,0.3,0.2,0.3,0.5h0.3c0-0.4,0.3-0.7,1-1c0.1,0.1,0.4,0.1,0.8,0.1
					c0.2-0.8,0.3-1.4,0.3-1.8h-0.3l0.1,0.3v0.1c-0.3,0.5-0.6,0.8-1,0.8c-0.2-0.1-0.4-0.1-0.5-0.1c0,0.2-0.1,0.3-0.3,0.3H182v-0.6
					h0.3v-0.3H182c0,0.3-0.2,0.5-0.7,0.5v-0.2c0.3-0.3,0.5-0.8,0.7-1.6C181.3,118.9,181,119.6,181,120.1z M181,150.7v0.1h1
					c0-0.2-0.1-0.3-0.3-0.3C181.4,150.7,181.2,150.7,181,150.7z M181.1,97.1h0.5v-0.3h-0.2C181.2,96.8,181.1,96.9,181.1,97.1z
					 M182.7,108.1h0.5l0.2,0.8c-0.4,0-0.9,0.2-1.5,0.7h-0.1c-0.2,0-0.4-0.2-0.7-0.7c0.3,0,0.5-0.1,0.5-0.3h0.5c0,0.2,0,0.3,0.1,0.3
					C182.6,108.9,182.7,108.6,182.7,108.1z M181.3,68.5c0,0.2,0.1,0.3,0.3,0.3c0-0.1,0-0.2,0.1-0.2c-0.1-0.2-0.1-0.3-0.1-0.5
					C181.4,68.1,181.3,68.3,181.3,68.5z M182.1,101.5v0.3h0.5c0.3-0.2,1-0.5,1.9-0.8c0-0.3,0.6-0.5,1.8-0.7V100
					c-0.4,0-1.5,0.4-3.2,1.1L182.1,101.5z M182.9,153.3h0.2v0.3c0,0.2-0.2,0.4-0.7,0.7c-0.2,0-0.3-0.1-0.3-0.3L182.9,153.3z
					 M182.2,66.1h0.1c0.2,0,0.3-0.1,0.3-0.3v-0.1C182.6,65.6,182.4,65.7,182.2,66.1z M182.2,117.2h0.1c0.2,0,0.3-0.1,0.3-0.3h-0.1
					C182.4,117,182.2,117.1,182.2,117.2z M182.4,69.4l0.3,0.2h0.1c0.2,0,0.4-0.3,0.7-1c-0.2,0-0.3,0-0.3-0.1
					C183,68.5,182.7,68.8,182.4,69.4z M182.7,117.7c0,0.2-0.1,0.4-0.3,0.7v0.1c0.2,0,0.5-0.3,0.7-0.8H182.7L182.7,117.7z M182.9,121
					v0.1l0.2,0.3c-0.3,0-0.5,0.4-0.7,1.1h0.3l0.7-0.5c0.1,0.2,0.1,0.4,0.1,0.5l0.5-0.3l-0.1-0.3c0-0.3,0.2-0.5,0.6-0.5v-0.3h-0.1
					c-0.4,0.3-0.7,0.5-1,0.5l0.1-0.3v-0.1C183.3,121.1,183.1,121.1,182.9,121z M184.6,105.3v0.3c-0.9,0.2-1.5,0.4-1.8,0.7h-0.3v-0.2
					C183.3,105.6,184,105.3,184.6,105.3z M182.7,67.2h0.5v-0.3h-0.1C182.8,66.9,182.7,67,182.7,67.2z M182.7,95.7V96h0.3l-0.2,0.3
					h0.7c0.2,0,0.3-0.2,0.5-0.5h-0.1l-0.8,0.1C183.1,95.8,182.9,95.7,182.7,95.7z M184,96.5l0.1,0.3v0.1H184l-1.1-0.1l-0.1,0.3
					l0.7,0.5l1-0.5c0.2,0.1,0.4,0.1,0.6,0.1c0-0.2,0.2-0.3,0.5-0.3c0-0.2-0.2-0.4-0.6-0.6h-0.5L184,96.5z M183.2,66.3v0.4h1v-1
					l0.8-0.1c0.4,0.1,0.8,0.1,1.1,0.1c0-0.2-0.2-0.3-0.5-0.5l-0.3,0.1l-0.3-0.1c-0.5,0-0.9,0.4-1.4,1.1
					C183.5,66.3,183.2,66.3,183.2,66.3z M183.2,148h1v0.3h-0.1c-0.1,0-0.1,0-0.1-0.1l-0.3,0.1h-0.3L183.2,148L183.2,148z
					 M183.7,153.3c0,0.2,0.1,0.3,0.3,0.3c0.2-0.1,0.3-0.1,0.5-0.1l0.1,0.3c-0.4,0.3-0.8,0.5-1.1,0.5l-0.3-0.5
					C183.2,153.6,183.4,153.5,183.7,153.3z M183.5,63.3V64h0.1l0.2-0.7H183.5z M183.9,70.1c0.1,0.2,0.1,0.3,0.1,0.5h0.3
					c-0.1-0.2-0.2-0.4-0.2-0.5H183.9z M184.2,68L184.2,68c0,0.3,0.2,0.4,0.5,0.6l0.2-0.3C184.7,68.3,184.4,68.2,184.2,68z
					 M184.5,67.5V68c0.6,0,1.5-0.5,2.6-1.4c-0.3,0-0.5-0.1-0.5-0.2c0.1-0.2,0.1-0.3,0.1-0.5h-0.1c-0.3,0-0.6,0.4-1,1.3L184.5,67.5z
					 M184.5,147.7l1,0.1c0.2-0.1,0.4-0.1,0.5-0.1c0,0.2-0.1,0.3-0.3,0.3h-1.1L184.5,147.7L184.5,147.7z M185,65.9
					c0,0.1,0,0.3-0.1,0.5h0.3v-0.5H185z M184.8,99v0.2h0.6V99H184.8z M187.6,147.5l1,0.1c0.2-0.1,0.5-0.1,0.8-0.1
					c0.2,0.1,0.3,0.1,0.5,0.1v0.1c-0.2,0-0.3,0.1-0.3,0.3l-0.6-0.1l-1.1,0.1v0.3c0,0.2,0.2,0.3,0.7,0.3v0.3l-1.6,0.2
					c-0.3-0.2-0.5-0.3-0.6-0.3v-0.3h0.1l0.5,0.3h0.8v-0.2c-0.2-0.3-0.3-0.5-0.3-0.6l-0.3,0.1h-1v0.3h-0.8c-0.2,0-0.3-0.1-0.3-0.3
					c0.9-0.2,1.6-0.3,2.1-0.3l-0.2-0.3L187.6,147.5z M185,105h0.5v0.3H185V105z M185,149.9c0.8,0.3,1.2,0.5,1.4,0.5v0.3H185v-0.2
					c0-0.1,0.1-0.1,0.2-0.1l-0.2-0.3V149.9z M187.9,95c0,0.5-0.2,0.7-0.5,0.7l-0.5-0.3c0,0.4-0.6,0.6-1.8,0.6v0.2
					c0.2,0,0.4,0.1,0.6,0.3h0.3l0.5-0.3h0.1c0.3,0.2,0.5,0.3,0.7,0.3h0.3v-0.1c-0.4,0-0.6-0.1-0.6-0.3h0.1c0.6,0,1,0.2,1,0.5h0.5
					l-0.2-0.3v-0.2h0.5c0-0.2-0.2-0.3-0.5-0.3v-0.3h0.3c-0.1-0.2-0.1-0.4-0.1-0.5l-0.3,0.1L187.9,95L187.9,95z M185.2,149.3h0.5v0.3
					h-0.5V149.3z M185.3,63.6v0.2h0.1c0-0.2,0.2-0.3,0.7-0.3v-0.2c0-0.2-0.1-0.3-0.3-0.3C185.6,63,185.5,63.2,185.3,63.6z
					 M185.9,61.7c0,0.3-0.2,0.5-0.5,0.5v0.3c0.5-0.3,0.8-0.5,0.8-0.7L185.9,61.7z M187.7,62.8h-0.3c-0.2,0-0.3-0.1-0.3-0.3
					c-0.5,0.1-0.8,0.3-0.8,0.6c0.1,0,0.3,0,0.5,0.1c0-0.3,0.1-0.5,0.3-0.5h0.1c0,0.2,0.1,0.4,0.3,0.7v0.1c-1,0.3-1.4,0.5-1.4,0.8
					c0.1,0,0.1,0,0.1,0.1c-0.2,0.1-0.3,0.2-0.5,0.2v0.3h0.1c0.5,0,1.2-0.4,2.1-1.1v-0.1l-0.3,0.1l-0.1-0.3c0.3-0.2,0.6-0.3,0.8-0.3
					v-0.3L188,63C187.8,63.1,187.7,63,187.7,62.8c0.3,0,0.5,0,0.7-0.1l0.1,0.3l0.7-0.3c0,0.2,0.1,0.3,0.3,0.3v-0.3
					c0-0.2-0.1-0.3-0.3-0.3c-0.2,0.1-0.4,0.2-0.5,0.2l-0.3-0.2C187.9,62.4,187.7,62.6,187.7,62.8z M185.8,108.6L185.8,108.6l0.8,0.1
					c0.2,0,0.3-0.1,0.3-0.3c-0.1,0-0.2,0-0.2-0.1C186.4,108.5,186.1,108.6,185.8,108.6z M185.9,149.8h1c0,0.2-0.1,0.3-0.3,0.3h-0.3
					C186,150.1,185.9,150,185.9,149.8z M186.4,61.7L186.4,61.7c1-0.3,1.5-0.7,1.6-1h-0.1C187.3,60.7,186.8,61.1,186.4,61.7z
					 M186.7,64.1l0.2,0.3l-0.3,0.1l-0.2-0.3L186.7,64.1z M186.4,99.9L186.4,99.9l0.3,0.1c1.3-0.5,2.1-0.8,2.3-0.8V99h-0.3
					C187.4,99.6,186.6,99.9,186.4,99.9z M188.4,97.1l-0.7-0.2h-0.1v0.2h0.5v0.1c-0.4,0-0.7,0.1-1,0.3c-0.2-0.1-0.4-0.1-0.5-0.1
					c0,0.2,0.1,0.3,0.3,0.3l2.9-0.8c0-0.2-0.1-0.3-0.3-0.3L188.4,97.1z M186.6,115.8h0.1c0.2,0,0.3-0.1,0.3-0.3h-0.1
					C186.7,115.5,186.6,115.6,186.6,115.8z M186.9,62.2L186.9,62.2c0.2-0.1,0.8-0.2,1.9-0.4c0,0.2,0.1,0.3,0.3,0.3v-0.3h0.3l0.2,0.8
					c0.2-0.1,0.4-0.1,0.8-0.1c0-0.7-0.4-1-1.3-1v0.3c-0.3,0-0.7-0.2-1.1-0.5C187.3,61.8,186.9,62,186.9,62.2z M187.1,94.2
					c0,0.1,0,0.3-0.1,0.5c0.1,0,0.1,0.1,0.1,0.2c0.2-0.1,0.3-0.2,0.5-0.2C187.6,94.6,187.4,94.4,187.1,94.2z M189,149.3l0.2,0.3
					l-1.5,0.3l0.2,0.3v0.1l-0.3-0.1l-0.5,0.3l-0.1-0.3C187.4,149.7,188,149.4,189,149.3z M187.6,106.1v0.5c0.3,0,0.4-0.3,0.5-0.8
					H188C187.7,105.8,187.6,105.9,187.6,106.1z M187.7,108.1v0.3h0.3l0.1-0.8C188.1,107.6,187.9,107.7,187.7,108.1z M187.7,153.1
					v0.2h0.7v-0.2H187.7z M187.9,94.2v0.2h0.8v-0.3L187.9,94.2z M188,65.4v0.2l0.7,0.1l0.1-0.3l-0.5-0.3
					C188.1,65.1,188,65.2,188,65.4z M188.4,95.7l0.1,0.3H188C188.1,95.8,188.2,95.7,188.4,95.7z M191,58.5c0,0.3,0.2,0.5,0.5,0.5
					v0.1c-0.6,0.6-1.2,1-1.8,1V60c0.6-0.4,1-0.7,1-0.8H190l-1.4,1.3h0.2c0.3-0.2,0.6-0.3,0.8-0.3v0.2c0,0-0.4,0.4-1.1,1.1h0.1
					c0.6,0,1-0.2,1-0.5h0.3l0.3,0.1V61c-0.1-0.2-0.2-0.4-0.2-0.5h0.3v0.3l0.3-0.2c0.5,0.5,0.8,0.7,0.8,0.7l0.3-0.2
					c0.3,0.1,0.5,0.2,0.5,0.3c0.3-0.2,0.7-0.3,1-0.3c0-0.3-0.3-0.5-1-0.5v-0.3c0.5-0.5,0.8-0.7,1-0.7v-0.3H193
					c-0.3,0.2-0.6,0.3-0.8,0.3l-0.2-0.3v-0.1h0.3v-0.1c0-0.2-0.1-0.3-0.3-0.3l-0.5,0.3h-0.1v-0.2l0.1-0.3
					C191.6,58.5,191,58.5,191,58.5z M188.4,106.5c0.1,0.2,0.1,0.3,0.1,0.5c0.3-0.2,0.6-0.3,0.8-0.3l-0.3-0.5L188.4,106.5z
					 M188.7,63.5h0.5v-0.3H189C188.8,63.2,188.7,63.3,188.7,63.5z M188.7,64.9L189,65c0.4-0.3,0.7-0.5,1-0.5h0.5
					c0-0.2,0.1-0.3,0.3-0.3v-0.5h-0.5C189.2,64.4,188.7,64.8,188.7,64.9z M189.3,97.9c0,0.3-0.1,0.5-0.3,0.8c0,0.2,0.1,0.3,0.3,0.3
					s0.4-0.2,0.6-0.6c0-0.2-0.2-0.3-0.5-0.5C189.5,97.9,189.3,97.9,189.3,97.9z M189.2,94.5v0.3c0.2,0,0.4,0.1,0.6,0.3h0.1v-0.4
					L189.2,94.5z M190.6,148h0.3c0,0.3-0.5,0.4-1.5,0.5v-0.3L190.6,148z M189.7,93.9c0.4-0.2,0.6-0.4,0.6-0.5h-0.1
					C190,93.4,189.8,93.6,189.7,93.9z M189.7,152.8v0.1c0,0.2,0.1,0.3,0.3,0.3h0.3V153c0-0.2-0.1-0.3-0.3-0.3L189.7,152.8
					L189.7,152.8z M189.8,107.3v0.3h0.3c0.3-0.8,0.5-1.2,0.5-1.4v-0.1C190.5,106,190.2,106.4,189.8,107.3z M190,94.2v0.3h0.7v-0.3
					h0.3l0.5,0.3l0.5-0.6c-0.1,0-0.2-0.1-0.2-0.2L190,94.2z M190,96.3v0.3c0.3,0,0.5,0,0.7,0.1v-0.1c0-0.2-0.1-0.3-0.3-0.3H190z
					 M190.5,62c0.2,0,0.3,0.2,0.3,0.5h0.3v-0.3l-0.1-0.3c0.2-0.1,0.3-0.1,0.5-0.1v-0.3h-0.2C190.8,61.6,190.5,61.8,190.5,62z
					 M190.6,107.3h0.5V107H191C190.7,107,190.6,107.1,190.6,107.3z M190.6,151.8h0.1c0.2,0,0.3,0.1,0.3,0.3h-0.5L190.6,151.8
					L190.6,151.8z M191.6,59.9L191.6,59.9l-0.3,0.6h0.5c0,0.2-0.1,0.3-0.3,0.3c-0.5-0.2-0.7-0.3-0.7-0.5v-0.1
					C191,60.3,191.3,60.2,191.6,59.9z M195.5,61.4h-0.2l-0.5-0.3c-1.9,1.2-3,1.8-3.4,1.8h-0.2v0.3h0.7v0.3c-0.6,0.1-1,0.3-1,0.5v0.1
					h0.3c1.1-0.7,1.8-1.3,2.3-1.9h0.2l-0.2,0.3h0.2c0.3-0.7,1-1,1.9-1c0-0.2,0.2-0.3,0.7-0.3v-0.3L195.5,61.4z M193,146.4
					c0,0.2,0.1,0.3,0.3,0.3l0.8-0.2c0,0.1,0,0.2,0.1,0.2c0-0.1,0.1-0.2,0.2-0.2l0.1,0.3c-0.2,0-0.3,0.2-0.3,0.5
					c-0.3-0.2-0.5-0.3-0.6-0.3l-0.8,0.2v-0.5h-0.1c-0.2,0-0.3,0.1-0.3,0.3c0.1,0,0.1,0.1,0.1,0.2c-0.7,0.1-1.2,0.3-1.6,0.6v-0.5
					c0.3,0,0.5-0.2,0.5-0.5l0.3,0.1h0.3l-0.1-0.3C192.3,146.5,192.7,146.4,193,146.4z M191.1,106.5L191.1,106.5
					c0.2,0.1,0.3,0,0.3-0.2v-0.2C191.2,106.2,191.1,106.3,191.1,106.5z M191.4,93.1L191.4,93.1l0.5,0.1c0.2-0.1,0.3-0.1,0.5-0.1
					v-0.5C192,92.9,191.7,93.1,191.4,93.1z M191.6,62.5v0.2c0.2,0,0.4-0.2,0.7-0.6h-0.2C191.9,62,191.7,62.2,191.6,62.5z
					 M192.9,57.3c0,0.2-0.2,0.3-0.5,0.3v0.1c0,0.2,0.1,0.3,0.3,0.3h0.3l-0.1-0.3l0,0l0.6-0.2v-0.1h-0.6V57.3z M192.4,64h0.1
					c1.1-0.6,1.7-1,2-1v-0.3h-0.2C193,63.4,192.4,63.8,192.4,64z M192.7,151.7h0.3v0.3h-0.6C192.4,151.8,192.5,151.7,192.7,151.7z
					 M192.9,108.2h0.1l0.7-0.5l0.3,0.1l0.1-0.3H194C193.4,107.6,193,107.8,192.9,108.2z M194.6,59L194.6,59c0.1,0.3,0.1,0.5,0.1,0.6
					c-0.8,0.3-1.4,0.5-1.8,0.5c0,0.2,0.1,0.3,0.3,0.3h0.7c0.6,0,1-0.3,1.2-1c-0.1-0.2-0.1-0.4-0.1-0.5L194.6,59L194.6,59z
					 M208.5,96.2l-0.3-0.2h-0.1v0.3h0.3v0.5h-0.7v0.1h0.3v0.3c-0.4,0-1,0.3-1.8,1l-0.3-0.1h-0.3c0,0.2-0.1,0.3-0.3,0.3l0.1,0.3
					l-0.3,0.2c0-0.1-0.1-0.2-0.2-0.2c0,0.2-0.1,0.3-0.3,0.3c-0.2-0.3-0.7-0.5-1.4-0.5l-0.1,0.3c0.1,0,0.1,0,0.1,0.1l-0.3,0.2
					c0-0.2-0.2-0.4-0.6-0.8v-0.2c0.1,0,0.3,0,0.5-0.1c0.2,0.1,0.4,0.1,0.5,0.1l-0.1-0.3v-0.1c0.1,0,0.3,0,0.6-0.1
					c0,0.1,0.1,0.1,0.2,0.1c0-0.5,0.4-0.8,1.3-1v-0.1l0.3,0.1l0.3-0.1c-0.1-0.2-0.1-0.4-0.1-0.5c-0.4,0-1.8,0.8-4.4,2.3h-0.3
					l0.3-0.5h-0.3c-0.4,0.2-0.6,0.3-0.6,0.5c0.2,0,0.3,0.1,0.3,0.3v0.2h-0.6l0.1-0.3H200c-0.2,0.1-0.4,0.1-0.5,0.1v-0.1
					c0.7-0.6,1-1,1-1.1c-0.1,0-0.3-0.1-0.5-0.2c0,0.2-0.3,0.4-1,0.8c-0.2-0.1-0.3-0.1-0.5-0.1c-0.7,0.4-1.3,0.6-1.6,0.6v0.5l0.1,1
					c-0.1,0.2-0.1,0.4-0.1,0.5l0.3-0.1h0.5c0,0.3,0.1,0.5,0.3,0.5l0.3-0.1c0.5,0.1,0.8,0.3,0.8,0.8c1.1-0.2,1.6-0.5,1.6-0.8v-0.2
					h-0.5l-0.6,0.5h-0.2v-0.5c0-0.1,0.6-0.6,1.8-1.3c0.4,0,0.8,0.2,1,0.5c0,0,0.2,0,0.6-0.1c0.2,0.1,0.4,0.1,0.5,0.1v0.3
					c-0.2,0-1,0.4-2.3,1.3c-0.2-0.1-0.4-0.2-0.6-0.2c-1.3,1-2.5,1.5-3.4,1.5c-0.5-0.2-0.8-0.3-1-0.3v-0.2c0.2-0.4,0.7-0.8,1.6-1.1
					c-0.1-0.2-0.2-0.4-0.2-0.5c-0.8,0-1.4,0.5-1.8,1.6h0.2c-0.5,0.7-0.8,1.3-0.8,1.6c0.1,0,0.1,0,0.1,0.1H195l-0.3-0.1
					c0,0.5-0.1,0.7-0.3,0.7c0-0.1,0-0.2-0.1-0.2v0.2l0.1,0.3l-0.6,0.2l0.3,0.5h-0.2l-0.3-0.2l-0.5,0.7l0.3,0.1l0.5-0.3l0.8,1.3
					l0.8-0.1h0.6c0-0.3,0.1-0.7,0.2-1.1h-0.2c-0.2,0-0.6,0.1-1.4,0.3v-0.1c1.6-1.5,3.4-2.5,5.5-3.1l1.8-1.3h-0.6v-0.1
					c0-0.2,0.1-0.3,0.3-0.3s0.3,0.1,0.3,0.3c1.5-0.6,2.7-1.3,3.7-2.1c-0.1,0-0.1,0-0.1-0.1h0.1c0.1,0,0.1,0,0.1,0.1
					c0.2,0,0.7-0.4,1.6-1.1c0,0.1,0,0.2,0.1,0.2c1.6-1.2,2.5-2,2.9-2.4l0.3,0.2v-0.8C209.3,95.7,208.5,95.9,208.5,96.2z M193.2,57.8
					L193.2,57.8l0.1,0.4c0.2-0.1,0.4-0.1,0.7-0.1v-0.2L193.2,57.8z M193.8,106.8l-0.1,0.3l0.6,0.2
					C194.3,107.1,194.1,107,193.8,106.8z M194.6,152.3h0.1v0.3h-0.5C194.3,152.4,194.4,152.3,194.6,152.3z M195,147l0.1,0.3
					l-0.3,0.2h-0.3C194.5,147.4,194.7,147.2,195,147z M195.5,55.7c0,0.1-0.1,0.3-0.2,0.5h0.3v-0.5H195.5z M195.3,60.9L195.3,60.9
					l0.3,0.1l0.2-0.3C195.6,60.8,195.4,60.9,195.3,60.9z M195.5,58.8V59c0.5,0,0.8,0,1,0.1c0.6-0.4,1.1-0.6,1.3-0.6
					c0-0.2-0.1-0.3-0.3-0.3c0,0.1,0,0.1-0.1,0.1v-0.5h-0.2C196,58.4,195.5,58.7,195.5,58.8z M195.6,57.5v0.2h0.2
					c0.2-0.1,0.3-0.2,0.5-0.2v-0.3C196,57.4,195.8,57.5,195.6,57.5z M195.9,149.4h0.5c0,0.2-0.1,0.3-0.3,0.3H196L195.9,149.4
					L195.9,149.4z M196.3,60.4c0.1,0.2,0.1,0.3,0.1,0.5h0.5v-0.1c-0.1-0.2-0.1-0.4-0.1-0.5c0.2,0,0.3-0.1,0.3-0.3H197L196.3,60.4z
					 M196.4,102.3h0.5c0.2,0,0.3-0.1,0.3-0.3h-0.5C196.5,102,196.4,102.1,196.4,102.3z M196.4,105.8h0.3l1.4-1l0.8,0.2l2.6-2.1h-0.1
					C198.4,104.4,196.7,105.3,196.4,105.8z M197.2,105.8c0,0.5-0.3,0.7-0.8,0.7v0.1h0.5c0.5-0.5,0.7-0.8,0.7-0.8L197.2,105.8
					L197.2,105.8z M217.8,141.5c0,0.2,0.1,0.3,0.3,0.3c0-0.2,0.1-0.3,0.3-0.3h0.3v0.1c0,0.3-0.2,0.5-0.6,0.5l0.1,0.8l-0.8,0.2
					c0-0.2,0.2-0.3,0.5-0.3v-0.5h-0.2c-0.9,0.6-1.3,1-1.3,1.1v0.2c-0.3-0.2-0.5-0.3-0.6-0.3c-0.2,0.1-0.4,0.1-0.5,0.1v0.3
					c0.5,0,0.8,0.1,0.8,0.3v0.1c-0.2,0-0.7,0.3-1.6,0.8c-0.3,0-0.7,0.3-1.4,0.8c-0.8,0.2-1.4,0.6-1.8,1.1c-1.8,0.8-2.9,1.3-3.3,1.6
					h-0.1v-0.1l0.3-0.5H208c-0.7,0.6-1.7,1.1-3.2,1.6v-0.3h-0.6v0.3h0.6c-0.3,0.3-1.3,0.7-2.9,1.1c0-0.2-0.1-0.3-0.3-0.3
					c0,0.5-0.4,0.8-1.1,1c-0.2-0.1-0.3-0.1-0.5-0.1c0,0.2-0.1,0.3-0.3,0.3c-0.8-0.3-1.3-0.7-1.5-1l0.3-0.1h0.1v0.3h0.2
					c0.2,0,0.3-0.1,0.3-0.3s-0.2-0.3-0.5-0.5h-0.3l-0.5,0.3c0-0.1-0.1-0.2-0.2-0.2c0,0.2-0.1,0.3-0.3,0.3l-0.5-0.3l-0.3,0.2v-0.3
					c1-0.3,1.6-0.5,1.8-0.5c0,0.1,0,0.1,0.1,0.1l0.8-1.3c0.2,0.1,0.4,0.2,0.6,0.2c0-0.2,0.1-0.3,0.3-0.3h0.6v0.3h-0.5v0.1
					c0.5,0,0.7,0.1,0.7,0.3c-0.4,0-0.9,0.3-1.4,0.8c-0.2-0.1-0.4-0.2-0.7-0.2c0.3,0.5,0.5,0.8,0.7,0.8l0.6-0.6l0.3,0.1
					c1.6,0,2.4-0.4,2.4-1.3h0.2c0.1,0,0.1,0,0.1,0.1l0.3-0.1l0.8,0.1v-0.1c-0.1-0.2-0.1-0.3-0.1-0.5l0.3,0.1h0.1
					c0.3,0,0.5,0,0.7-0.1l0.3,0.1l1-0.3c0,0.1,0,0.1,0.1,0.1l-0.1,0.3v0.1c0.1,0,0.3-0.2,0.5-0.5c-0.1-0.2-0.2-0.4-0.2-0.5
					c0.2-0.5,0.3-0.7,0.5-0.7l0.3,0.2c0-0.2,0.3-0.4,1-0.5v-0.2l-0.1-0.3c0.7,0,1.4-0.3,2.1-0.8c0.3-0.2,0.6-0.3,0.8-0.3l0.3,0.1
					c0.5,0,0.7-0.3,0.7-0.8l0.8,0.1v-0.1l-0.1-0.3c1.5-0.5,2.3-1,2.3-1.4h0.2c0,0.2,0.1,0.3,0.3,0.3c0.1-0.2,0.2-0.3,0.2-0.5
					l0.3,0.2c0.8-0.3,1.1-0.5,1.1-0.7l-0.1-0.3L217.8,141.5z M197.2,61.2h0.1c0.2,0,0.3-0.1,0.3-0.3h-0.1
					C197.3,60.9,197.2,61,197.2,61.2z M198.2,99.2h0.1c0,0.1-0.3,0.3-0.8,0.6h-0.3v-0.1C197.3,99.4,197.6,99.2,198.2,99.2z
					 M197.7,56.2h0.1c0,0.2,0.2,0.4,0.7,0.8h-0.2c-0.5-0.3-0.8-0.5-1-0.5C197.4,56.3,197.5,56.2,197.7,56.2z M197.4,59.7
					c0,0.2,0.1,0.3,0.3,0.3h0.3c0.5-0.3,0.8-0.5,1.1-0.5c0-0.2-0.2-0.4-0.6-0.6C197.9,59.5,197.5,59.7,197.4,59.7z M197.6,102v0.3
					h0.1c0.4-0.2,0.6-0.3,0.6-0.5v-0.1h-0.1C197.9,101.8,197.7,102,197.6,102z M197.8,55.2c0.2,0,0.3,0.1,0.3,0.3v0.2h-0.3V55.2z
					 M199.6,53.5v0.2c0,0.1-0.2,0.2-0.5,0.5c0.2,0.3,0.3,0.7,0.3,1l0.3-0.1h0.1v0.1l-0.1,0.3c0.2,0,0.3,0.1,0.3,0.3V56h-0.5
					c0-0.2-0.2-0.5-0.5-1l-0.3,0.1h-0.3v-0.3l0.3-0.5h-0.1c-0.2,0.1-0.3,0.1-0.5,0.1v-0.3L199.6,53.5z M199.1,56.1v0.3l-0.8,0.1
					v-0.3L199.1,56.1z M198.8,98.6c0.2,0.1,0.4,0.1,0.5,0.1c0,0.2-0.1,0.3-0.3,0.3L198.8,98.6L198.8,98.6z M199.1,146.5h0.1
					c0.2,0,0.3,0.2,0.5,0.5h-0.3c-0.2,0-0.3-0.1-0.3-0.3V146.5z M199.8,59.6l-0.2,0.3h0.2c0.2-0.1,0.3-0.2,0.5-0.2v-0.1
					C200.3,59.6,199.8,59.6,199.8,59.6z M200.1,145.4h0.2c0.2,0,0.3,0.1,0.3,0.3l-0.3,0.1l-0.2-0.3V145.4z M201.1,56.7h0.3V57
					c-0.3,0-0.5,0.1-0.8,0.3h-0.2C200.4,57.2,200.6,57,201.1,56.7z M200.6,59.1v0.3h0.2c0.3-0.2,0.5-0.3,0.6-0.3v-0.3
					C201,59,200.8,59.1,200.6,59.1z M200.6,91v0.5c0.5,0,1.2,0.1,2,0.3v-0.3c-0.3,0-0.6-0.2-1-0.5H200.6z M201.2,146.2
					c0,0.2-0.2,0.3-0.7,0.3l0.2,0.3c0.3-0.2,0.6-0.3,0.8-0.3v-0.3H201.2z M200.8,150.9v0.2c0.2,0,0.3-0.1,0.3-0.3v-0.2
					C200.9,150.6,200.8,150.7,200.8,150.9z M201.4,89.8c0,0.1,0,0.3-0.1,0.7h0.3l0.1-0.7H201.4z M201.6,53v0.2
					c0.2,0,0.3-0.1,0.3-0.3v-0.2C201.7,52.7,201.6,52.8,201.6,53z M201.9,99h0.2v0.3h-0.5C201.6,99.2,201.7,99,201.9,99z M204,90.4
					c0,0.2-0.5,0.3-1.4,0.5c0,0.1-0.1,0.1-0.2,0.1c-0.2-0.1-0.3-0.1-0.5-0.1c0,0.2,0.1,0.3,0.3,0.3h0.1c0.3,0,0.7-0.1,1-0.3
					c0.2,0.1,0.4,0.1,0.6,0.1c0-0.3,0.2-0.5,0.5-0.5v-0.1H204z M201.9,145.9v0.3c0.2,0,0.5,0.2,0.8,0.5h0.1l-0.3-0.5V146h0.3v-0.1
					c-0.2,0-0.3,0-0.3-0.1C202.3,145.9,202.1,145.9,201.9,145.9z M202.2,90.4h0.1c0.5-0.2,0.7-0.4,0.7-0.5h-0.2
					C202.4,90,202.2,90.2,202.2,90.4z M202.7,94.7v0.2h0.1c0.2-0.1,0.4-0.2,0.5-0.2v-0.1h-0.2C203,94.6,202.8,94.7,202.7,94.7z
					 M202.8,58.3l0.3,0.2c0-0.3,0.5-0.6,1.4-0.8c0-0.2-0.1-0.3-0.3-0.3C203.3,57.9,202.8,58.2,202.8,58.3z M203.6,101.6
					c0,0.2-0.2,0.4-0.5,0.6h0.2c0.1,0,0.3-0.2,0.5-0.5v-0.1H203.6z M203.6,94.5L203.6,94.5l0.5,0.1c0.5-0.2,0.7-0.3,0.7-0.5h-0.2
					C204.2,94.4,203.9,94.5,203.6,94.5z M203.8,54l0.1,0.3c-0.1,0.2-0.1,0.4-0.1,0.5h0.5c0-0.2,0.1-0.4,0.3-0.6L203.8,54z
					 M204,101.5v0.3h0.5c0-0.2-0.1-0.3-0.3-0.3H204z M204.3,97.9l0.1,0.8h0.3l0.1-0.8c-0.1,0-0.1-0.1-0.1-0.2
					C204.6,97.9,204.4,97.9,204.3,97.9z M204.6,89.1L204.6,89.1c0.1,0.3,0.2,0.4,0.3,0.4h0.2v-0.2c0-0.2-0.1-0.3-0.3-0.3L204.6,89.1
					L204.6,89.1z M204.6,101.3v0.2h0.2c0.2-0.1,0.3-0.2,0.5-0.2v-0.1h-0.1C204.9,101.2,204.7,101.3,204.6,101.3z M204.8,90.9
					l0.1,0.3c0.2-0.1,0.5-0.1,0.8-0.1c0-0.2-0.2-0.3-0.5-0.5h-0.1C204.9,90.6,204.8,90.7,204.8,90.9z M205.1,50.7h0.5v0.1
					c0,0.2-0.1,0.3-0.3,0.3h-0.1L205.1,50.7L205.1,50.7z M205.4,89.4c0,0.2,0.5,0.5,1.6,1c2.5-0.3,3.7-0.6,3.7-0.8
					c-0.1,0-0.1-0.1-0.1-0.2c0.1,0,0.1,0,0.1-0.1h-0.5c-0.3,0-1,0.2-1.9,0.5c0-0.2-0.1-0.3-0.3-0.3l-0.3,0.7l-1.1-0.2h-0.3v-0.3
					c0.1,0,0.3-0.1,0.7-0.2v-0.3C206.2,89.3,205.7,89.4,205.4,89.4z M205.4,97.1L205.4,97.1l0.2,0.1l0.6-0.3l0.3,0.2h0.1v-0.2
					c-0.2,0-0.3-0.1-0.3-0.3h-0.1C205.9,97,205.6,97.1,205.4,97.1z M208,49.8h0.1v0.3c-1,0.2-1.4,0.4-1.4,0.6h1
					c0-0.3,0.1-0.5,0.3-0.5s0.3,0.1,0.3,0.3l-2,0.8c0,0.1-0.2,0.3-0.6,0.5v-0.1c0.2-0.5,0.5-0.8,0.8-0.8v-0.2h-0.3v-0.1
					C206.2,50.3,206.8,50.1,208,49.8z M205.7,96v0.2c0.6-0.1,1-0.3,1-0.5l-0.3-0.2C206,95.7,205.7,95.8,205.7,96z M205.7,147.5h0.5
					v0.3h-0.5V147.5z M205.9,56.7L205.9,56.7l0.5,0.1l0.2-0.3h-0.2C206.2,56.7,206,56.7,205.9,56.7z M205.9,100.7l0.3,0.1
					c0-0.3,0.2-0.5,0.7-0.5v-0.5h-0.2C206.6,99.9,206.3,100.1,205.9,100.7z M205.9,101.1L205.9,101.1c0,0.3,0.1,0.4,0.3,0.4l0.1-0.3
					l-0.3-0.1H205.9z M206.2,92v0.3h0.5V92H206.2z M206.7,52.4L206.7,52.4c0,0.3-0.1,0.4-0.3,0.4v-0.2
					C206.4,52.5,206.5,52.4,206.7,52.4z M206.9,100.5v0.3h0.5v-0.3H206.9z M207,99.5v0.3h0.5c0-0.2-0.1-0.3-0.3-0.3H207z
					 M207.2,52.2h0.3c0.2,0,0.3,0.1,0.3,0.3l-0.3,0.1C207.3,52.6,207.2,52.5,207.2,52.2L207.2,52.2z M207.2,91v0.3h0.7v-0.2
					C207.6,91.1,207.4,91.1,207.2,91z M207.2,95.5v0.3c0.4-0.1,0.8-0.1,1.3-0.1v-0.2c-0.1,0-0.3,0-0.5-0.1
					C207.8,95.5,207.6,95.5,207.2,95.5z M207.9,99h-0.2v-0.3h-0.1c-0.2,0-0.3,0.1-0.3,0.3h0.5l-0.1,0.3v0.1h0.1
					c0.2,0,1.1-0.5,2.6-1.4v-0.3h-0.1L207.9,99z M208,51.2h0.3v0.2c0,0.2-0.1,0.3-0.3,0.3h-0.3v-0.1C207.7,51.3,207.8,51.2,208,51.2
					z M207.7,143.5v0.3h0.2c0.2,0,0.3-0.1,0.3-0.3H207.7z M208,144.5c0,0.1,0,0.3-0.1,0.5h0.1c0.2-0.1,0.4-0.2,0.5-0.2
					c0-0.2-0.1-0.3-0.3-0.3H208z M208,90.7V91c0.3-0.2,0.5-0.3,0.7-0.3v-0.3C208.4,90.6,208.2,90.7,208,90.7z M208.1,142.7
					c0.1,0.2,0.2,0.3,0.3,0.3h0.2v-0.3H208.1z M209,88.1c0,0.2,0.3,0.3,0.8,0.3v0.3h-0.1l-0.3-0.1c-0.3,0.2-0.7,0.3-1,0.3v-0.3
					C208.5,88.6,208.7,88.4,209,88.1z M209.6,49.1h0.1v0.2c0,0.3-0.4,0.4-1.3,0.5v-0.3C209,49.5,209.4,49.3,209.6,49.1z M208.5,91.5
					v0.3h0.2c0.2,0,0.3-0.1,0.3-0.3H208.5z M209.1,49.9l0.1,0.3c0,0.2-0.1,0.3-0.3,0.3l-0.1-0.3C208.8,50,209,49.9,209.1,49.9z
					 M209,90.4L209,90.4l1.1,0.1l-0.2-0.3C209.8,90.3,209.4,90.4,209,90.4z M209,144.5h0.3c0.2,0,0.3-0.1,0.3-0.3h-0.3
					C209.1,144.2,209,144.3,209,144.5z M210.4,51.1l0.1,0.3c-0.2,0.1-0.7,0.2-1.4,0.3C209.1,51.5,209.6,51.3,210.4,51.1z
					 M209.1,91.6v0.2h0.1c0.2,0,0.3-0.1,0.3-0.3v-0.1h-0.1C209.2,91.4,209.1,91.5,209.1,91.6z M210.7,49.5c0.2,0,0.3,0.1,0.3,0.3
					l-0.3,0.1h-0.8v-0.3L210.7,49.5z M209.9,96.9v0.3h0.3c0.3-0.3,0.5-0.5,0.7-0.5v-0.1h-0.2C210.4,96.8,210.1,96.9,209.9,96.9z
					 M210.4,87.8h0.3v0.1c0,0.1,0,0.1-0.1,0.1l0.1,0.3v0.2h-0.6v-0.2l0.1-0.3c-0.1,0-0.1,0-0.1-0.1L210.4,87.8z M214,47.5l0.1,0.3
					c-0.2,0-0.3,0.2-0.5,0.5l-0.3-0.2h-0.5l0.5,0.7l-0.3,0.1c0-0.1,0-0.1-0.1-0.1c0,0.2-0.4,0.5-1.3,0.8c-0.5-0.3-0.8-0.5-1.1-0.5
					v-0.3c0.2,0,0.4-0.1,0.6-0.3h0.1c0.2,0,0.3,0.1,0.3,0.3c-0.2,0-0.3,0.1-0.3,0.3l0.3,0.2l0.3-0.5l-0.2-0.3
					C212.1,48.2,212.9,47.9,214,47.5z M212,142h0.2c0,0.3-0.5,0.5-1.5,0.7h-0.1v-0.3C211.3,142.1,211.8,142,212,142z M212,88.9
					l-1.1,0.7v0.3h0.3l0.5-0.3h0.2v0.5h0.1c0.2,0,0.4-0.3,0.8-0.8v-0.1h-0.1l-0.3,0.1C212.4,89,212.2,88.9,212,88.9z M213,51.7h0.2
					V52c-1.2,0.4-1.8,0.6-2,0.6h-0.1v-0.3C211.2,52.4,211.8,52.1,213,51.7z M211.9,87.9l0.3,0.5h-1.1v-0.3L211.9,87.9z M211.1,139.8
					h0.5v-0.3h-0.2C211.2,139.5,211.1,139.6,211.1,139.8z M214.5,142.5c0.2,0,0.3,0.1,0.3,0.3c-2.1,1.1-3.3,1.7-3.5,1.9h-0.1v-0.6
					c0.2,0.1,0.4,0.1,0.5,0.1c1.2-0.7,1.8-1.1,1.8-1.3L214.5,142.5z M212.5,140.6v0.3c-0.3,0-0.5,0.1-0.8,0.3h-0.1v-0.1
					C211.6,140.7,212,140.6,212.5,140.6z M211.5,145.4v0.3l0.8,0.1l0.1-0.3v-0.1c-0.2,0.1-0.3,0.1-0.5,0.1
					C211.8,145.5,211.7,145.4,211.5,145.4z M211.7,139.3v0.3h0.5v-0.3H211.7z M213,53.5l0.2,0.3c-0.2,0.1-0.4,0.1-0.5,0.1l0.1,0.3
					c-0.1,0-0.1,0-0.1,0.1c-0.5-0.2-0.7-0.3-0.7-0.5C212.4,53.6,212.7,53.5,213,53.5z M212.8,49.3h0.1c0.2,0,0.3,0.1,0.3,0.3
					l-0.3,0.1h-0.1V49.3z M213.2,49.9l0.3,0.5h-0.3c-0.2,0-0.3-0.1-0.3-0.3L213.2,49.9z M215.8,52.5v0.2c0,0.1-0.7,0.4-2,0.8
					l0.2,0.3v0.1h-0.3l-0.2-0.6C213.8,53,214.5,52.7,215.8,52.5z M214,49.8l0.1,0.3l-0.3,0.1l-0.1-0.3L214,49.8z M213.6,51.4h0.5
					v0.3h-0.5V51.4z M213.8,87.8l0.2,0.3c0.2-0.1,0.4-0.1,0.8-0.1v-0.1h-1V87.8z M214.6,47.3h0.3v0.2c-0.2,0.3-0.3,0.6-0.3,1H214
					c0-0.2,0.2-0.3,0.5-0.3l-0.2-0.3v-0.2C214.3,47.5,214.4,47.3,214.6,47.3z M214.1,137.7v0.2h0.3l0.1-0.3
					C214.4,137.6,214.3,137.7,214.1,137.7z M214.7,139.8l-0.5,0.7h0.3c0.2,0,0.3-0.2,0.5-0.5L214.7,139.8z M215.4,141.4h0.3v0.5
					h-0.3v0.3h0.1c0.2-0.1,0.4-0.2,0.5-0.2c0,0.2-0.2,0.3-0.5,0.5l-0.5-0.3h-0.1v0.3h-0.3v-0.6C215.1,141.9,215.4,141.7,215.4,141.4
					z M216.5,46.9v0.3l-1.1,0.1h-0.3V47L216.5,46.9z M215.2,138.3v0.1h0.3c0.2,0,0.3-0.1,0.3-0.3V138h-0.3
					C215.3,138,215.2,138.1,215.2,138.3z M216.4,52.2h0.3v0.3H216C216.1,52.3,216.2,52.2,216.4,52.2z M216,137.5v0.3h0.2l1.1-0.7
					h0.5l0.8-0.6v-0.3h-0.1c-0.1,0-0.9,0.4-2.3,1.3H216z M216.5,87.9l-0.1,0.3c0.1,0,0.1,0,0.1,0.1c0.2-0.1,0.4-0.1,0.5-0.1V88
					C216.9,88.1,216.7,88,216.5,87.9z M217.3,141.2c0,0.3-0.3,0.4-0.8,0.5v-0.3L217.3,141.2z M218.1,46.4v0.3c-0.4,0-0.7,0.1-1,0.3
					c-0.2-0.1-0.4-0.2-0.5-0.2C216.7,46.6,217.2,46.5,218.1,46.4z M219,46.7c0,0.2,0.2,0.5,0.6,1.1v0.1h-0.2c-0.2,0-0.4-0.2-0.7-0.7
					c-0.7,0.2-1.3,0.3-1.8,0.3c0-0.3,0.4-0.5,1.1-0.8c0.2,0.1,0.4,0.2,0.5,0.2C218.7,46.8,218.8,46.7,219,46.7z M217,136.4h0.2
					c0.2-0.1,0.3-0.1,0.5-0.1V136h-0.1C217.4,135.9,217.2,136.1,217,136.4z M218,47.9h0.1l0.5,0.3l0.3-0.1l0.1,0.3
					c0,0.2-0.1,0.3-0.3,0.3c-1.1-0.1-1.6-0.2-1.6-0.5l0.3-0.1h0.1l0.3,0.1L218,47.9L218,47.9z M217.3,137.9v0.3l0.8,0.2
					C218.1,138.1,217.9,137.9,217.3,137.9z M219.3,51.2h0.8v0.5h-0.3c-0.3,0-0.9,0.2-1.8,0.5l-0.2-0.3L219.3,51.2z M218.3,137.2
					l0.2,0.3l1.6-1c0.2,0.1,0.4,0.1,0.7,0.1v0.5c-0.5,0.1-0.8,0.3-0.8,0.5v0.5c-1.1,0.4-1.6,0.7-1.6,0.8v0.3h0.7
					c0-0.2,0.4-0.5,1.3-0.8c0-0.1,0-0.1,0.1-0.1c0.2,0,0.3,0.1,0.3,0.3l-0.3,0.5c0.1,0,0.3,0,0.5,0.1c0-0.2,0.3-0.5,0.8-1v-0.5
					l-0.6,0.5h-0.5c0-0.3,0.3-0.5,0.8-0.5l-0.3-0.5V137h0.1l0.5,0.3c0.7-0.6,1.1-1,1.4-1c0-0.2-0.2-0.3-0.5-0.5
					c0,0.2-0.1,0.3-0.3,0.3v-0.5h-0.3c0,0.3-0.3,0.6-1,1h-0.2v-0.5l-0.3,0.2h-0.2v-0.2l0.3-0.5v-0.1
					C219.3,136.7,218.5,137.2,218.3,137.2z M223.9,44.9h0.7c0.2,0,0.3,0.1,0.3,0.3l-0.3,0.1c-0.2-0.1-0.4-0.1-0.5-0.1l-0.1,0.3
					c0.2,0.1,0.4,0.2,0.7,0.2c0,0.3-0.3,0.4-0.8,0.5l-0.2-0.3c0.1,0,0.2,0,0.2-0.1h-0.3v0.3h-0.3v-0.3h-1.6
					c-0.2,0.2-1.2,0.5-3.1,0.8v-0.5h0.1c0.1,0,0.1,0,0.1,0.1c1.5-0.5,3-0.9,4.4-1.1c0.2,0.1,0.4,0.2,0.5,0.2
					C223.6,45.1,223.7,44.9,223.9,44.9z M218.6,136.1h0.1c0.2,0,0.3-0.1,0.3-0.3h-0.1C218.7,135.8,218.6,135.9,218.6,136.1z
					 M219.3,86.3v0.3c0.4-0.1,0.7-0.4,1-0.8h-0.2C219.7,86.1,219.5,86.3,219.3,86.3z M219.6,141.9v0.5c-0.2,0-0.3-0.1-0.3-0.3
					L219.6,141.9z M219.9,87L219.9,87l0.5,0.1l0.1-0.3v-0.2C220.3,86.9,220.1,87,219.9,87z M221.1,51.4h0.1v0.1
					c0,0.2-0.2,0.3-0.5,0.5h-0.3c-0.2,0-0.3-0.1-0.3-0.3C220.5,51.7,220.8,51.6,221.1,51.4z M220.5,84.9v0.3h0.5
					c0.1,0,0.3-0.2,0.5-0.5v-0.2C221.3,84.8,221,84.9,220.5,84.9z M221.5,47.1c0.7,0.2,1.1,0.4,1.1,0.8h-0.3l-0.5-0.3h-0.3l-0.5,0.3
					h-0.3v-0.3C220.7,47.3,221,47.2,221.5,47.1z M221.1,48.8h0.1v0.3h-0.5C220.8,48.9,220.9,48.8,221.1,48.8z M221.2,135.3l-0.1,0.3
					l1.1,0.1C222.1,135.4,221.8,135.3,221.2,135.3z M221.2,86v0.3h0.5V86H221.2z M221.8,50.4l0.2,0.3c0,0.2-0.1,0.3-0.3,0.3h-0.1
					v-0.3C221.6,50.5,221.7,50.4,221.8,50.4z M222,46.1h0.5v0.3l-0.8,0.2v-0.2C221.7,46.2,221.8,46.1,222,46.1z M221.7,51.2h0.5
					c0,0.2-0.1,0.3-0.3,0.3h-0.1L221.7,51.2L221.7,51.2z M221.8,92.1h0.7c0-0.2-0.1-0.3-0.3-0.3C221.9,91.8,221.8,92,221.8,92.1z
					 M222.2,138.3l-0.1,0.3v0.1h0.6C222.6,138.7,222.5,138.5,222.2,138.3z M222.5,86.5h0.1c0.2,0,0.3-0.1,0.3-0.3h-0.1
					C222.6,86.2,222.5,86.3,222.5,86.5z M224.3,81.8c0,0.4-0.5,0.9-1.6,1.5v0.3h0.3c1.1-0.9,1.7-1.4,1.8-1.6v-0.2
					C224.7,81.8,224.3,81.8,224.3,81.8z M225.2,46.7V47l-0.6,0.1V47c-0.7,0.1-1.2,0.3-1.5,0.5c-0.2,0-0.3-0.1-0.3-0.3
					C222.8,46.9,223.6,46.8,225.2,46.7z M222.8,134.9c0.2-0.1,0.3-0.1,0.5-0.1v-0.3C223.2,134.5,223,134.6,222.8,134.9z M223.1,81.7
					L223,82h0.5C223.5,81.8,223.3,81.7,223.1,81.7z M224.3,135.3h-0.2c0-0.2,0-0.3-0.1-0.3c-0.5,0.3-0.8,0.5-0.8,0.7
					c0.1,0.2,0.2,0.3,0.2,0.5h0.8c0-0.3,0.4-0.7,1.1-1.3H225L224.3,135.3z M223.9,136.6v0.3l0.1,0.3h-0.8v0.2c0.2,0,0.3,0,0.3,0.1
					c0.8-0.2,1.1-0.6,1.1-1.1L223.9,136.6z M223.5,91.8L223.5,91.8c0,0.3,0.1,0.4,0.3,0.4h0.1v-0.1c0-0.2-0.1-0.3-0.3-0.3H223.5z
					 M224.9,48v0.3l-1.1,0.3v-0.3L224.9,48z M224.3,50.1h0.5v0.3h-0.1C224.4,50.4,224.3,50.3,224.3,50.1z M224.7,136.1
					c0,0.2,0.2,0.3,0.5,0.5v-0.5H224.7z M224.9,49h0.5v0.3h-0.5V49z M225.4,88.7L225.4,88.7l0.8,0.1v-0.1c-0.2,0-0.3,0-0.3-0.1
					C225.7,88.7,225.5,88.7,225.4,88.7z M225.9,46.4l0.3,0.2c0.2-0.1,0.4-0.2,0.5-0.2l0.3,0.5v0.3c-0.2,0-0.3-0.2-0.5-0.5l-0.3,0.1
					h-0.6v-0.1C225.6,46.5,225.7,46.4,225.9,46.4z M225.6,81.5l0.1,0.8l0.5-0.3c-0.1-0.2-0.1-0.4-0.1-0.5H225.6z M225.7,130.8h0.5
					v-0.3h-0.1C225.8,130.5,225.7,130.6,225.7,130.8z M225.9,132.1h0.2c0.2,0,0.3-0.1,0.3-0.3h-0.2
					C226,131.8,225.9,131.9,225.9,132.1z M226.2,81.3v0.2c0,0.2,0.1,0.3,0.3,0.3l0.1-0.3v-0.2H226.2z M227.3,130.6l-0.3-0.1
					c-0.2,0.1-0.3,0.1-0.5,0.1c0.1,0.2,0.1,0.5,0.1,0.8h0.5c0-0.2,0.2-0.5,0.7-1v-0.1L227.3,130.6z M227,79.6v0.2
					c0.2,0,0.4-0.2,0.6-0.7h-0.1C227.3,79.1,227.2,79.2,227,79.6z M227.5,88.9v0.3c0.7,0.2,1.2,0.3,1.4,0.3h0.2v-0.2L227.5,88.9z
					 M231.7,128.8c0,0.4-0.3,0.7-1,0.8c-2.1,1.9-3.2,3-3.2,3.2v0.2l1-0.8l0.3,0.1c0.5-1,1.1-1.4,1.6-1.4l-0.2-0.3v-0.1
					c0.2,0,0.7-0.3,1.5-0.8h0.1l-0.1-0.3h0.3v-0.5L231.7,128.8L231.7,128.8z M227.6,47.5h0.5v0.3h-0.5V47.5z M227.8,80.2h0.1
					c0.2,0,0.3-0.1,0.3-0.3h-0.1C227.9,79.9,227.8,80,227.8,80.2z M228.1,44.8v0.3h0.6c0-0.2-0.1-0.3-0.3-0.3H228.1z M228.3,133.2
					v0.5c0.2-0.1,0.3-0.1,0.5-0.1v-0.3L228.3,133.2L228.3,133.2z M228.4,131.1h0.2c0.2,0,0.3-0.1,0.3-0.3h-0.1
					C228.6,130.8,228.4,130.9,228.4,131.1z M228.8,133h0.1c0.4-0.3,0.9-0.6,1.5-0.8c0.1-0.2,0.1-0.3,0.1-0.5l-0.3-0.1
					C230,131.6,229.6,132.1,228.8,133z M229.4,49.9h0.3v0.3h-0.6C229.1,50,229.2,49.9,229.4,49.9z M229.3,129h0.5v-0.5
					C229.6,128.5,229.4,128.7,229.3,129z M229.4,90.2c0.1,0.2,0.2,0.3,0.3,0.3h0.2c0-0.2-0.1-0.3-0.3-0.3H229.4z M229.6,80.4
					L229.6,80.4c0.2,0.1,0.3,0,0.3-0.2V80C229.7,80.1,229.6,80.2,229.6,80.4z M229.9,47.7h0.5V48h-0.5V47.7z M229.9,93.7v0.2
					c0.2,0,0.4,0,0.6,0.1h0.1v-0.1c-0.1,0-0.3-0.1-0.5-0.2H229.9z M230.1,49.8h0.3l0.8,0.1v0.3h-0.3c-0.2,0-0.3-0.1-0.3-0.3
					l-0.3,0.2h-0.1L230.1,49.8L230.1,49.8z M230.1,79.9h0.5v-0.3h-0.2C230.2,79.6,230.1,79.7,230.1,79.9z M230.4,129.3h0.1
					c0.2,0,0.3-0.1,0.3-0.3v-0.2C230.7,128.8,230.6,129,230.4,129.3z M230.7,79.6c0.2,0,0.5-0.3,1-1v-0.3
					C231.3,78.3,231,78.7,230.7,79.6z M230.9,131.3v0.1h0.1c0.5-0.2,0.7-0.5,0.7-1C231.5,130.4,231.3,130.7,230.9,131.3z M231,44.9
					c0,0.2,0.1,0.3,0.3,0.3s0.3-0.2,0.5-0.5h-0.3C231.3,44.9,231.2,44.9,231,44.9z M231,75.1v0.3c0.2,0,0.3-0.1,0.3-0.3v-0.4
					C231.1,74.8,231,74.9,231,75.1z M231,94.2v0.2h0.5v-0.3C231.3,94.2,231.2,94.2,231,94.2z M231.4,49.3h0.1c0.2,0,0.3,0.1,0.3,0.3
					v0.1c-0.2-0.1-0.4-0.1-0.5-0.1L231.4,49.3L231.4,49.3z M232.2,90.7c0,0.2,0.2,0.3,0.5,0.5h0.3v-0.1c0-0.2-0.1-0.3-0.3-0.3
					L232.2,90.7L232.2,90.7z M232.2,129.6v0.3c0.3-0.2,0.5-0.3,0.6-0.3v-0.3C232.5,129.5,232.3,129.6,232.2,129.6z M232.5,77.2h0.2
					c0.2,0,0.4-0.2,0.6-0.7h-0.1C233,76.5,232.7,76.7,232.5,77.2z M233.1,45.3L233.1,45.3l0.1,0.1l1-0.1v-0.2h-0.6
					C233.4,45.2,233.2,45.3,233.1,45.3z M233.5,76.2h0.1c1.2-1.1,1.8-2,1.8-2.6C235.1,73.6,234.5,74.5,233.5,76.2z M233.6,91.1v0.2
					c0,0.2,0.1,0.3,0.3,0.3l0.1-0.3C234,91.3,233.8,91.3,233.6,91.1z M233.9,48.3L233.9,48.3l0.6,0.1v-0.1H233.9z M234.1,46.2h0.5
					v-0.3h-0.2C234.2,45.9,234.1,46.1,234.1,46.2z M234.2,96.6c0,0.2,0.1,0.3,0.3,0.3h0.1v-0.3H234.2z M235,125.1h0.2
					c0.1,0,0.4-0.3,0.8-0.8v-0.1h-0.1C235.7,124.2,235.4,124.5,235,125.1z M235.4,47.3l-0.1,0.3l0.3,0.2h0.7
					C236.2,47.7,235.9,47.5,235.4,47.3z M235.5,72.8v0.6c0.2,0,0.3-0.2,0.5-0.5v-0.1H235.5z M236,72.3v0.4c0.2-0.1,0.4-0.2,0.5-0.2
					v-0.3C236.3,72.3,236.1,72.3,236,72.3z M236,124h0.3c0.2,0,0.3-0.1,0.3-0.3v-0.3h-0.2C236.3,123.4,236.2,123.6,236,124z
					 M236.2,48.6c0,0.2,0.1,0.3,0.3,0.3h0.2c0-0.2-0.1-0.3-0.3-0.3H236.2z M237.2,122.1c0,0.2-0.2,0.5-0.5,1h0.3
					c0-0.3,0.2-0.5,0.5-0.5v-0.5H237.2L237.2,122.1z M237.2,99.4c0.2,0,0.3,0.2,0.5,0.5h-0.1c-0.2,0-0.3-0.1-0.3-0.3L237.2,99.4
					L237.2,99.4z M237.5,70.2c0,0.1-0.1,0.3-0.2,0.5v0.2h0.2c0-0.2,0.1-0.3,0.3-0.3v-0.3L237.5,70.2L237.5,70.2z M238.9,68.1v0.2
					h0.1c0.2,0,0.3-0.1,0.3-0.3v-0.3C239.2,67.6,239.1,67.8,238.9,68.1z M239.7,122.5v0.3c0.2,0,0.3-0.2,0.5-0.5v-0.2H240
					C239.8,122.3,239.7,122.4,239.7,122.5z M240.2,65.7L240.2,65.7c0.2,0.1,0.3,0,0.3-0.2v-0.2C240.3,65.4,240.2,65.5,240.2,65.7z
					 M240.6,64.9l0.3,0.1c0.3-0.8,0.5-1.4,0.5-1.6C241.1,63.5,240.9,64,240.6,64.9z"/>
			</g>
		</g>
		<g>
			<path class="st8" d="M56.4,183.4c0-0.7,0-1.5,0.1-2.5c0.3,0,0.5,0.4,0.7,1.3l3.5,7.9l0.3,1.1c-0.3-0.1-0.7-0.5-1.2-1.1
				c-0.9-1.8-2.2-3.3-4.1-4.6c-1.8-1.3-3.8-2-6-2c-1.4,0.1-2.6,0.6-3.6,1.6s-1.5,2.3-1.5,3.8c0.1,0.8,0.4,1.6,0.9,2.2
				c0.5,0.6,1.2,1.1,2,1.5s1.8,0.8,3.1,1.1c1.2,0.4,2.2,0.6,3,0.8c2.1,0.6,3.8,1.3,5.1,2.3c1.3,0.9,2.2,2,2.8,3.2
				c0.6,1.2,0.9,2.4,0.9,3.6c0,1.8-0.5,3.4-1.5,4.7s-2.2,2.3-3.8,2.9c-1.5,0.7-3.2,1-4.8,1c-0.5,0-1.4-0.1-2.7-0.3
				c-1.3-0.2-2.3-0.3-2.9-0.4c-1.7,0.7-2.5,1.8-2.3,3.5c-0.1-0.1-0.5-0.9-1.1-2.3l-3.4-8.7c-0.3-0.6-0.4-1-0.5-1.2
				c0.1-0.1,0.5,0.2,1.1,0.9c0.9,1,1.7,2,2.4,2.9s1.7,1.8,2.8,2.6s2.4,1.4,3.6,1.6c0.6,0.1,1.4,0.2,2.6,0.3c1.7,0,3.1-0.4,4.3-1.2
				c1.2-0.7,1.9-2,2.1-3.7c0.1-0.5,0.1-0.9,0.1-1.3c0-1-0.2-1.8-0.7-2.5s-1.2-1.2-2.1-1.7s-2.2-1-3.9-1.5s-3.2-1-4.4-1.4
				c-2.2-0.7-3.8-1.7-4.9-3.1c-1.1-1.4-1.6-2.9-1.6-4.7c0.1-1.7,0.5-3.1,1.3-4.2c0.8-1.1,1.9-1.9,3.2-2.5c1.3-0.5,2.9-0.8,4.7-0.8
				c0.5,0,0.8,0,1.1,0c0.5,0,1.2,0.1,2.2,0.3c0.9,0.2,1.6,0.3,1.9,0.3C55.4,183.1,55.9,183.2,56.4,183.4z"/>
			<path class="st8" d="M73.6,192.9c1.4,0,2.7,0.2,3.9,0.8c1.2,0.5,2.2,1.3,2.8,2.4s1,2.1,1.2,3.3c0.2,1.1,0.2,2.2,0.2,3.2
				c0,1.7-0.4,3.3-1.1,4.8s-1.6,2.7-2.6,3.5c-1,0.9-2.5,1.3-4.4,1.3c-2.2,0.1-3.8-0.4-4.9-1.4c-1.1-1.1-1.9-2.3-2.5-3.8
				s-0.9-3.2-0.9-5.1c0.1-1.5,0.5-3,1.2-4.4s1.6-2.5,2.7-3.3C70.3,193.4,71.8,193,73.6,192.9z M73.5,193.9c-1.6,0-2.7,0.8-3.5,2.3
				s-1.2,3.5-1.3,6c0,2.7,0.3,4.9,1.1,6.5c0.7,1.6,2,2.5,3.8,2.5c1.2,0,2.2-0.4,2.9-1.1c0.7-0.7,1.2-1.8,1.6-3.2
				c0.3-1.4,0.5-3,0.5-4.9c0-1.6-0.2-3-0.5-4.2s-0.8-2.1-1.6-2.8C75.8,194.2,74.8,193.9,73.5,193.9z"/>
			<path class="st8" d="M91.9,196.7c3.1-2.5,5.6-3.7,7.4-3.8c1.1,0,2.1,0.4,2.8,1.1c0.7,0.7,1,1.8,1,3.1v8.3c0,1.4,0.1,2.5,0.2,3.3
				c0.2,0.7,0.4,1.2,0.7,1.4c0.3,0.2,0.8,0.4,1.4,0.5c0.7,0.1,1.1,0.2,1.2,0.2c0.4,0.3,0.6,0.5,0.7,0.6c-3.7,0-7.4,0-11,0
				c0.2-0.3,0.5-0.5,0.9-0.8c0.6-0.1,1-0.2,1.2-0.4s0.5-0.7,0.6-1.4c0.2-0.7,0.3-1.9,0.3-3.4v-7.3c0-2.1-0.7-3.1-2-3.1
				c-1.1,0-3,0.9-5.5,2.6v8.9c0,1.5,0.2,2.6,0.6,3.3s1,1,1.8,1c0.7,0.4,1.1,0.6,1,0.6c-1.4,0.1-5.2,0.1-11.5,0.1
				c0.1-0.2,0.4-0.4,0.9-0.6c0.4,0,0.7-0.1,1-0.2c0.7,0,1.3-0.3,1.7-0.9c0.4-0.6,0.6-1.7,0.6-3.4V200c0-1.4-0.2-2.3-0.6-2.8
				s-1-0.7-1.8-0.7c-0.3,0-0.5-0.1-0.8,0c-0.3,0-0.6,0-1,0c0.1-0.1,0.4-0.3,0.8-0.5c2.3-0.5,4.2-1.2,5.6-2.2
				c0.8-0.7,1.3-1.2,1.5-1.6c0,1.2,0.1,1.7,0.1,1.6C91.9,193.7,91.9,196.7,91.9,196.7z"/>
			<path class="st8" d="M122.4,208.2c-1.2,0.8-2,1.4-2.4,1.6c-0.4,0.3-0.9,0.6-1.6,1c-0.7,0.4-1.4,0.6-2.1,0.8s-1.5,0.2-2.1,0.2
				c-1.2,0-2.2-0.4-2.7-1.2c-0.6-0.8-0.9-1.8-0.9-3.1v-7c0-1.2-0.1-2-0.3-2.6c-0.2-0.6-0.4-1-0.8-1.2c-0.3-0.2-0.8-0.3-1.3-0.3
				l-2.2,0.1c1.5-0.7,2.9-1.2,4.1-1.7s2.1-0.9,2.7-1.3c0.7-0.1,1.2-0.7,1.6-1.9c-0.1,11.6-0.1,16.5,0,14.8c0,2.3,0.7,3.5,2.2,3.6
				c0.2-0.1,0.5-0.1,0.8-0.1c1.2-0.3,2.9-1.2,5.1-2.7v-7.9c0-1.2-0.2-2-0.7-2.4s-1.1-0.7-1.9-0.7l-2.2,0.1c1.1-0.5,2.4-1,3.9-1.5
				s2.7-1.1,3.6-1.8c0,0.1,0.3-0.3,1-1.3c0,1,0,2,0.1,2.9v11c0,1.5,0.1,2.5,0.3,3.2s0.6,1,1,1s1.5,0.5,3.2,1.4
				c-5.1,0.2-7.6,0.2-7.4,0c-0.6,0-0.9-0.3-0.9-0.8L122.4,208.2L122.4,208.2z"/>
			<path class="st8" d="M147.4,189.2c0-2-0.3-3.4-1-4.1c-0.7-0.7-1.6-1-2.8-1l-0.7-0.2c-0.6-0.3-0.9-0.7-0.9-1
				c0-0.4,0.2-0.4,0.6,0.1h15.2c2.9,0,5,0.5,6.3,1.5c1.4,1,2.1,2.5,2.4,4.5v1c0,3.4-2.2,5.3-6.7,5.8c1.6,0,2.9,0.4,4.2,1
				c1.2,0.6,2.2,1.5,2.9,2.5s1.1,2,1.2,3.1c0,1.1-0.2,2.1-0.5,3.2c-0.3,1-0.8,2-1.6,2.9c-0.7,0.9-1.6,1.6-2.8,2.1s-2.5,0.8-4.1,0.8
				h-17.4c0-0.2,0.4-0.5,1.2-0.8c1.1,0,2-0.1,2.6-0.5c0.6-0.3,1-0.9,1.3-1.8c0.3-0.9,0.5-2.3,0.5-4.3v-14.8H147.4z M157.4,195.5
				c1.6,0,2.9-0.5,3.7-1.6c0.8-1,1.2-2.5,1.2-4.3v-1.3c-0.3-2.8-2.2-4.2-5.8-4.2c-1.5,0-2.7,0.3-3.6,0.8s-1.4,1.5-1.4,3v7.6H157.4
				L157.4,195.5z M157.1,196.5h-5.5v10.2c0,1.1,0.3,1.9,0.8,2.4c0.6,0.5,1.2,0.9,1.8,1c0.7,0.1,1.4,0.2,2.2,0.2c2.4,0,4.2-0.7,5.3-2
				s1.6-3.2,1.6-5.5C163.4,198.6,161.3,196.5,157.1,196.5z"/>
			<path class="st8" d="M182.2,200.6v-3c0-1.1-0.3-2-0.9-2.7s-1.4-1-2.4-1c-0.6,0-1.2,0.1-1.7,0.3c-0.6,0.2-1,0.5-1.4,0.8
				c-0.3,0.4-0.9,1.3-1.7,2.7c0,0.6,0.1,1.2,0.1,1.6c0.1,0.4-0.2,0.7-0.8,0.7c-1.5-0.2-2.3-0.9-2.4-2.2c0-0.8,0.4-1.5,1-2.3
				c0.7-0.8,1.6-1.4,2.7-1.9c1.2-0.5,2.5-0.8,4-0.8c4.8,0,7.2,1.7,7.2,5.2v9.3c0,1.8,0.5,2.7,1.6,2.7c0.3,0,0.5,0,0.7-0.1
				s0.3-0.2,0.4-0.4c0.1-0.2,0.3-0.4,0.4-0.8c0.2-0.4,0.4-0.8,0.6-1.4c0.2,0,0.3,0.4,0.3,1.1c0,1-0.4,1.8-1.2,2.5s-1.7,1-2.6,1
				c-2.6,0-3.9-1.3-4-4c0-0.2,0.1-0.5,0.1-0.8c-0.4,1.5-1.3,2.7-2.6,3.5s-2.7,1.3-4.1,1.3c-1.3,0-2.4-0.4-3.4-1.1
				c-1-0.7-1.5-1.7-1.6-2.8c0-1.4,0.3-2.5,0.9-3.5c0.6-0.9,1.4-1.7,2.5-2.2c1-0.6,2.3-1,3.6-1.2
				C178.8,200.9,180.4,200.7,182.2,200.6z M182.2,201.6c-0.1,0-0.2,0-0.4,0s-0.3,0-0.4,0c-1.2,0-2.3,0.2-3.4,0.6
				c-1.1,0.4-1.9,0.9-2.6,1.6c-0.7,0.7-1.3,1.7-1.9,2.8c0,0.1,0,0.2,0.1,0.5c0,0.2,0,0.4,0.1,0.5c0.2,0.8,0.6,1.5,1.1,2
				c0.6,0.5,1.5,0.7,2.8,0.6c0.8,0,1.5-0.3,2.2-0.8s1.3-1.2,1.7-2s0.7-1.9,0.7-3.2L182.2,201.6L182.2,201.6z"/>
			<path class="st8" d="M191.5,194.1l1.6-0.5c0.9,0,1.4-0.4,1.4-1.2c0-1.1,0.1-2.4,0.4-3.9c0.3-1.5,1-3,2.2-4.4s2.9-2.1,5.1-2.2
				c2.5-0.1,3.9,1.1,4.2,3.6c0,0.6-0.1,0.9-0.2,1.1c-0.1,0.1-0.5,0.5-1.1,0.9c-0.6-0.1-0.8-0.4-0.9-1.1c0-0.7-0.1-1.3-0.1-1.9
				c0.1-0.9-0.1-1.4-0.8-1.5c-0.6-0.1-1.2-0.1-1.8-0.2c-0.8,0-1.5,0.5-2.2,1.4s-1.1,2.1-1.1,3.5v5.8l3.5,0.3c0.6,0,0.9,0.1,0.9,0.4
				c-0.4,0.1-0.7,0.2-0.9,0.2h-3.5v11.8c0,1.1,0.1,2,0.4,2.6c0.2,0.6,0.6,1,1,1.2s1,0.3,1.8,0.3c0.2-0.1,0.6-0.1,0.9-0.1
				c0.7,0.2,1.1,0.5,1.1,0.9c-0.4,0.2-4.8,0.2-13.2,0c0-0.4,0.3-0.7,0.9-0.9c1,0,1.8-0.1,2.2-0.3c0.5-0.2,0.8-0.6,0.9-1.1
				c0.2-0.6,0.2-1.4,0.2-2.7v-11.8h-3.1c-0.5,0-0.8-0.1-0.8-0.4C190.6,194.1,190.9,194.1,191.5,194.1z"/>
			<path class="st8" d="M211,196.7c3.1-2.5,5.6-3.7,7.4-3.8c1.1,0,2.1,0.4,2.8,1.1c0.7,0.7,1,1.8,1,3.1v8.3c0,1.4,0.1,2.5,0.2,3.3
				c0.2,0.7,0.4,1.2,0.7,1.4s0.8,0.4,1.4,0.5c0.7,0.1,1.1,0.2,1.2,0.2c0.4,0.3,0.6,0.5,0.7,0.6c-3.7,0-7.4,0-11,0
				c0.2-0.3,0.5-0.5,0.9-0.8c0.6-0.1,1-0.2,1.2-0.4s0.5-0.7,0.6-1.4c0.2-0.7,0.3-1.9,0.3-3.4v-7.3c0-2.1-0.7-3.1-2-3.1
				c-1.1,0-3,0.9-5.5,2.6v8.9c0,1.5,0.2,2.6,0.6,3.3c0.4,0.7,1,1,1.8,1c0.7,0.4,1.1,0.6,1,0.6c-1.4,0.1-5.2,0.1-11.5,0.1
				c0.1-0.2,0.4-0.4,0.9-0.6c0.4,0,0.7-0.1,1-0.2c0.7,0,1.3-0.3,1.7-0.9c0.4-0.6,0.6-1.7,0.6-3.4V200c0-1.4-0.2-2.3-0.6-2.8
				c-0.4-0.5-1-0.7-1.8-0.7c-0.3,0-0.5-0.1-0.8,0c-0.3,0-0.6,0-1,0c0.1-0.1,0.4-0.3,0.8-0.5c2.3-0.5,4.2-1.2,5.6-2.2
				c0.8-0.7,1.3-1.2,1.5-1.6c0,1.2,0.1,1.7,0.1,1.6L211,196.7L211,196.7z"/>
			<path class="st8" d="M239.1,200.6v-3c0-1.1-0.3-2-0.9-2.7s-1.4-1-2.4-1c-0.6,0-1.2,0.1-1.7,0.3c-0.6,0.2-1,0.5-1.3,0.8
				c-0.3,0.4-0.9,1.3-1.7,2.7c0,0.6,0,1.2,0.1,1.6c0.1,0.4-0.2,0.7-0.8,0.7c-1.5-0.2-2.3-0.9-2.4-2.2c0-0.8,0.4-1.5,1-2.3
				c0.7-0.8,1.6-1.4,2.7-1.9c1.2-0.5,2.5-0.8,4-0.8c4.8,0,7.2,1.7,7.2,5.2v9.3c0,1.8,0.5,2.7,1.6,2.7c0.3,0,0.5,0,0.7-0.1
				s0.3-0.2,0.4-0.4s0.3-0.4,0.4-0.8s0.4-0.8,0.6-1.4c0.2,0,0.3,0.4,0.3,1.1c0,1-0.4,1.8-1.2,2.5c-0.8,0.7-1.7,1-2.6,1
				c-2.6,0-3.9-1.3-4-4c0-0.2,0.1-0.5,0.1-0.8c-0.4,1.5-1.3,2.7-2.6,3.5s-2.7,1.3-4.1,1.3c-1.3,0-2.4-0.4-3.4-1.1
				c-1-0.7-1.5-1.7-1.6-2.8c0-1.4,0.3-2.5,0.9-3.5c0.6-0.9,1.4-1.7,2.5-2.2c1-0.6,2.3-1,3.6-1.2
				C235.8,200.9,237.3,200.7,239.1,200.6z M239.1,201.6c-0.1,0-0.2,0-0.4,0s-0.3,0-0.4,0c-1.2,0-2.3,0.2-3.4,0.6
				c-1.1,0.4-1.9,0.9-2.6,1.6c-0.7,0.7-1.3,1.7-1.9,2.8c0,0.1,0,0.2,0.1,0.5c0,0.2,0,0.4,0.1,0.5c0.2,0.8,0.6,1.5,1.1,2
				c0.6,0.5,1.5,0.7,2.8,0.6c0.8,0,1.5-0.3,2.2-0.8s1.3-1.2,1.7-2c0.4-0.9,0.7-1.9,0.7-3.2L239.1,201.6L239.1,201.6z"/>
		</g>
	</g>
</g>
<g class="st0">
	<path class="st9" d="M130.4,15.6c0,0,4.5-6.6,11-1.6c2.5,1.9,3.7-0.3,4.4-0.7c0.3-0.3,4.7-3.5,9.6,1.9c5,5.4,58.3,79.8,58.3,79.8
		s7.3,6.2,1.3,18.5c-5.8,12.3-23.8,51.5-23.8,51.5s-2.1,3,1.8,6.5c4.1,3.5,13.5,17.4,13.5,17.4l-57.8-0.4c0,0-3.6-0.1-4.5-5
		c-0.9-5-1.3-6.6-1.3-6.6l-2,9.3c0,0-1.3,2.7-3.8,2.3c-2.6-0.3-57.6,0.6-57.6,0.6l14.6-18.9c0,0,2-2.1,0.7-5.4
		c-1.6-3.3-24.4-53.1-24.4-53.1s-4.8-7.6,1.8-16.2C78.8,86.8,130.4,15.6,130.4,15.6L130.4,15.6z M143.2,65.7L143.2,65.7l-7.2,65.8
		c0,0,5,3.3,7.1,8.3c1.1-3.8,6.9-8.6,6.9-8.6L143.2,65.7z"/>
	<path class="st10" d="M107.8,210.6H94.6v-4.1c0-1.9-0.2-3-0.5-3.6c-0.3-0.5-0.9-0.7-1.6-0.7c-0.9,0-1.6,0.3-2,1.1
		c-0.4,0.6-0.7,1.7-0.7,3.1c0,1.8,0.2,3.2,0.7,4.1c0.5,0.9,1.8,2,4,3.3c6.3,3.7,10.2,6.7,11.8,9.2c1.6,2.4,2.5,6.2,2.5,11.5
		c0,3.9-0.5,6.7-1.4,8.5c-0.9,1.9-2.6,3.3-5.2,4.6c-2.6,1.2-5.6,1.8-9.1,1.8c-3.8,0-6.9-0.6-9.6-2.1c-2.7-1.4-4.4-3.2-5.2-5.4
		c-0.8-2.2-1.3-5.3-1.3-9.3v-3.6h13.2v6.6c0,2,0.2,3.3,0.6,3.9c0.3,0.6,1,0.9,2,0.9c0.9,0,1.6-0.4,2-1.1c0.5-0.7,0.7-1.8,0.7-3.2
		c0-3.2-0.4-5.3-1.3-6.3c-0.9-1-3.1-2.6-6.6-4.9c-3.5-2.4-5.8-4-6.9-5c-1.1-1.1-2.1-2.5-2.9-4.4c-0.7-1.9-1.1-4.2-1.1-7.1
		c0-4.1,0.6-7.1,1.6-9.1c1.1-1.9,2.8-3.4,5.1-4.5c2.4-1.1,5.2-1.6,8.6-1.6c3.7,0,6.8,0.6,9.3,1.8c2.6,1.2,4.3,2.7,5.1,4.5
		c0.8,1.8,1.3,4.8,1.3,9.1V210.6z M113.4,194.2L113.4,194.2h23.5V205h-9.4v10.3h8.8v10.2h-8.8v11.9h10.4v10.8h-24.5V194.2z
		 M175.5,194.2L175.5,194.2l-7.2,54h-21.4l-8.2-54h14.9c1.7,14.9,2.9,27.5,3.7,37.8c0.8-10.4,1.6-19.7,2.4-27.7l0.9-10.1H175.5z
		 M201.4,194.2L201.4,194.2l8.1,54H195l-0.7-9.7h-5.1l-0.8,9.7h-14.6l7.2-54H201.4z M193.9,229L193.9,229
		c-0.7-6.2-1.4-13.7-2.1-22.8c-1.4,10.5-2.3,18-2.6,22.8H193.9z"/>
</g>
<g>
	<path class="st11" d="M111.7,39.2c13.8,3,24.3,10,30.4,22.2c0,21.6,0,43.2,0,64.9c-1.7-0.4-3.8-1.9-5.6-3.7c-0.3-0.2-0.6-0.5-0.9-1
		v-33v-0.1l0,0c-0.3-4.5-1.8-8.5-4.2-11.8c-0.1-0.9-0.2-1.9-0.3-2.8C129.9,61.5,128.1,50.6,111.7,39.2L111.7,39.2z M172.4,39.2
		c-13.8,3-24.3,10-30.4,22.2c0,21.6,0,43.2,0,64.9c1.7-0.4,3.8-1.9,5.6-3.7c0.3-0.2,0.6-0.5,0.8-1v-33v-0.1l0,0
		c0.3-4.5,1.8-8.5,4.3-11.8c0.1-0.9,0.2-1.9,0.3-2.8C154.2,61.5,156,50.6,172.4,39.2L172.4,39.2z"/>
	<path class="st12" d="M132.7,38.9c1.6-3.5,4.8-6.6,9.4-9.3c4.7,2.5,7.6,5.7,9.4,9.3c-2.6,4.2-5.6,7.5-9.4,9.3
		C138.6,45.8,135.1,43.4,132.7,38.9L132.7,38.9z"/>
	<path class="st12" d="M166.5,69.3c-8.2,1.8-16.2,8-16.9,19.3c0,12.8,0,19.6,0,32.4c3.7-3.2,5.2-5.3,6.4-11.1
		c0.2-10.5,0.5-17.8,0.4-20.4C156.3,82.2,159.3,74.3,166.5,69.3L166.5,69.3z"/>
	<path class="st12" d="M117.6,69.3c8.2,1.8,16.2,8,17,19.3c0,12.8,0,19.6,0,32.4c-3.8-3.2-5.3-5.3-6.4-11.1
		c-0.1-10.5-0.5-17.8-0.4-20.4C127.8,82.2,124.9,74.3,117.6,69.3L117.6,69.3z"/>
	<g>
		<g>
			<path class="st12" d="M150.7,220.4c0,0,0.3-0.4,0.7-0.1c0.2,0.1,0.2,0,0.3,0c0,0,0.3-0.2,0.6,0.1c0.3,0.3,3.5,4.9,3.5,4.9
				s0.4,0.4,0.1,1.1c-0.3,0.8-1.4,3.2-1.4,3.2s-0.1,0.2,0.1,0.4c0.2,0.2,0.8,1.1,0.8,1.1l-3.5,0c0,0-0.2,0-0.3-0.3
				c-0.1-0.3-0.1-0.4-0.1-0.4l-0.1,0.6c0,0-0.1,0.2-0.2,0.1c-0.2,0-3.5,0-3.5,0l0.9-1.2c0,0,0.1-0.1,0-0.3c-0.1-0.2-1.5-3.3-1.5-3.3
				s-0.3-0.5,0.1-1C147.6,224.8,150.7,220.4,150.7,220.4L150.7,220.4z M151.5,223.5L151.5,223.5l-0.4,4.1c0,0,0.3,0.2,0.4,0.5
				c0.1-0.2,0.4-0.5,0.4-0.5L151.5,223.5z"/>
			<g>
				<path class="st13" d="M159.6,227.9h1.4c0,0.5,0.2,1,0.5,1.3c0.3,0.3,0.7,0.5,1.2,0.5c0.5,0,0.9-0.2,1.2-0.5
					c0.3-0.3,0.5-0.7,0.5-1.3c0-0.5-0.1-0.8-0.3-1.1c-0.2-0.3-0.7-0.5-1.4-0.7c0,0-0.1,0-0.2,0c-0.9-0.2-1.5-0.6-1.9-1.1
					c-0.2-0.2-0.3-0.5-0.4-0.7c-0.1-0.3-0.1-0.5-0.1-0.8c0-0.9,0.3-1.6,0.8-2.2c0.5-0.5,1.2-0.8,2.1-0.8c0.8,0,1.4,0.2,1.9,0.7
					c0.5,0.5,0.8,1.2,0.8,2h-1.4c0-0.4-0.2-0.7-0.4-1c-0.3-0.3-0.6-0.4-1-0.4c-0.4,0-0.8,0.1-1,0.4c-0.3,0.3-0.4,0.6-0.4,1.1
					c0,0.2,0,0.3,0.1,0.4c0,0.1,0.1,0.3,0.2,0.4c0.2,0.2,0.6,0.5,1.3,0.6c0.3,0.1,0.5,0.1,0.7,0.2c0.7,0.3,1.2,0.6,1.6,1.1
					c0.4,0.5,0.5,1.1,0.5,1.8c0,1-0.3,1.8-0.9,2.4c-0.6,0.6-1.3,0.9-2.3,0.9c-0.9,0-1.6-0.3-2.2-0.9
					C159.9,229.7,159.6,228.9,159.6,227.9z"/>
				<path class="st13" d="M172.6,230.9h-5.4v-10.3h5.4v1.4h-3.9v3.1h3.9v1.4h-3.9v3.1h3.9V230.9z"/>
				<path class="st13" d="M178.6,230.9h-0.9l-4-10.3h1.6l2.9,7.7l2.9-7.7h1.6L178.6,230.9z"/>
				<path class="st13" d="M183.7,227.9l-1.2,3H181l4.1-10.3h1.5l4.1,10.3h-1.7l-1.1-3H183.7z M187.2,226.5l-1.5-3.9l-1.5,3.9H187.2z
					"/>
				<path class="st13" d="M199,225.7h6.5c-0.1,1.6-0.6,2.9-1.6,3.9c-1,1-2.2,1.5-3.7,1.5c-0.8,0-1.5-0.1-2.2-0.4
					c-0.7-0.3-1.3-0.7-1.8-1.3c-0.4-0.5-0.8-1-1-1.7c-0.2-0.6-0.3-1.3-0.3-2c0-0.7,0.1-1.4,0.4-2.1c0.3-0.6,0.7-1.2,1.2-1.8
					c0.5-0.5,1.1-0.9,1.7-1.1c0.6-0.2,1.3-0.4,2.1-0.4c1.1,0,2,0.2,2.8,0.7c0.8,0.5,1.4,1.2,1.8,2.1H203c-0.3-0.4-0.8-0.8-1.2-1
					c-0.5-0.2-1-0.3-1.6-0.3c-0.5,0-1,0.1-1.4,0.3c-0.4,0.2-0.8,0.5-1.2,0.8c-0.4,0.4-0.6,0.8-0.8,1.3c-0.2,0.5-0.3,1-0.3,1.5
					c0,0.5,0.1,1.1,0.3,1.5c0.2,0.5,0.4,0.9,0.8,1.2c0.4,0.4,0.8,0.7,1.2,0.9c0.5,0.2,0.9,0.3,1.4,0.3c0.8,0,1.5-0.2,2.1-0.6
					c0.6-0.4,1.1-1,1.5-1.9H199V225.7z"/>
				<path class="st13" d="M208.4,230.9h-1.5v-10.3h3c1.2,0,2.2,0.3,2.9,0.9c0.7,0.6,1,1.4,1,2.5c0,0.8-0.3,1.5-0.8,2.1
					c-0.6,0.6-1.3,0.9-2.1,0.9l3,4h-1.9l-3.5-4.8V230.9z M208.4,226h0.8c1,0,1.8-0.2,2.3-0.5c0.5-0.3,0.8-0.8,0.8-1.5
					c0-0.7-0.2-1.2-0.7-1.5c-0.4-0.3-1.1-0.5-2.1-0.5h-1.1V226z"/>
				<path class="st13" d="M214.7,225.7c0-0.7,0.1-1.4,0.4-2.1c0.3-0.6,0.7-1.2,1.2-1.8c0.5-0.5,1.1-0.9,1.7-1.1
					c0.6-0.3,1.3-0.4,2-0.4c0.7,0,1.4,0.1,2,0.4c0.6,0.3,1.2,0.6,1.7,1.1c0.5,0.5,0.9,1.1,1.2,1.7s0.4,1.3,0.4,2.1
					c0,0.7-0.1,1.4-0.3,2c-0.2,0.6-0.6,1.2-1,1.7c-0.5,0.6-1.1,1-1.8,1.3c-0.7,0.3-1.4,0.4-2.2,0.4c-0.8,0-1.5-0.1-2.2-0.4
					c-0.7-0.3-1.3-0.7-1.8-1.3c-0.4-0.5-0.8-1-1-1.7C214.8,227.1,214.7,226.4,214.7,225.7z M216.2,225.7c0,0.5,0.1,1.1,0.3,1.5
					c0.2,0.5,0.4,0.9,0.8,1.2c0.4,0.4,0.8,0.7,1.2,0.9c0.5,0.2,0.9,0.3,1.4,0.3c1.1,0,2-0.4,2.7-1.1c0.7-0.8,1.1-1.7,1.1-2.8
					c0-0.5-0.1-0.9-0.3-1.4c-0.2-0.4-0.4-0.8-0.8-1.2c-0.4-0.4-0.8-0.7-1.3-0.9c-0.5-0.2-1-0.3-1.5-0.3c-0.5,0-1,0.1-1.4,0.3
					c-0.4,0.2-0.8,0.5-1.2,0.8c-0.4,0.4-0.6,0.8-0.8,1.3C216.3,224.7,216.2,225.2,216.2,225.7z"/>
				<path class="st13" d="M226.6,220.6h1.5v6.6c0,0.9,0.1,1.6,0.4,2c0.3,0.4,0.8,0.5,1.4,0.5c0.6,0,1.1-0.2,1.4-0.6
					c0.3-0.4,0.4-1,0.4-1.9v-6.6h1.5v6.6c0,0.7,0,1.2-0.1,1.6c-0.1,0.4-0.2,0.7-0.4,1c-0.3,0.5-0.7,0.8-1.1,1.1
					c-0.5,0.2-1,0.3-1.6,0.3c-0.7,0-1.2-0.1-1.7-0.3c-0.5-0.2-0.9-0.6-1.2-1.1c-0.2-0.3-0.3-0.6-0.4-0.9c-0.1-0.3-0.1-0.9-0.1-1.7
					V220.6z"/>
				<path class="st13" d="M236.4,230.9h-1.5v-10.3h2.4c0.7,0,1.2,0,1.6,0.1c0.4,0.1,0.7,0.2,0.9,0.3c0.4,0.3,0.8,0.6,1,1.1
					c0.3,0.5,0.4,1,0.4,1.5c0,1-0.3,1.7-1,2.3c-0.7,0.6-1.5,0.9-2.7,0.9h-1.2V230.9z M236.4,225.4h1.1c0.8,0,1.3-0.1,1.7-0.4
					c0.4-0.3,0.5-0.7,0.5-1.3s-0.2-1-0.5-1.3s-0.9-0.4-1.6-0.4h-1.1V225.4z"/>
			</g>
		</g>
	</g>
	<rect x="44.9" y="214.8" class="st14" width="195.5" height="1.4"/>
	<g>
		<g>
			<path class="st13" d="M71.6,166.5h-8.2c-0.4-1.1-0.6-2.6-0.7-4.4c0,0,0-1.5,0-4.5c0-2-0.6-3.3-1.7-3.9c-0.9-0.5-2.7-0.7-5.2-0.7
				h-2.3v13.5h-6.6v-30.9h12.3c3.6,0,6.2,0.6,7.9,1.8c1.8,1.3,2.7,3.4,2.7,6.3c0,4.1-1.8,6.4-5.3,6.8c2.1,0.4,3.6,1.3,4.4,2.6
				c0.6,1,0.8,2.4,0.8,4.2c0,3.4,0,5,0,5C69.8,164.2,70.5,165.6,71.6,166.5z M62.7,144.1c0-1.6-0.5-2.8-1.5-3.4
				c-0.9-0.5-2.3-0.8-4.4-0.8h-3.4v8.8h4c2,0,3.4-0.3,4.2-1C62.3,147,62.7,145.8,62.7,144.1z"/>
			<path class="st13" d="M98.3,157c0,3.6-0.8,6.1-2.5,7.7c-1.8,1.7-4.8,2.6-9.1,2.6c-4.4,0-7.4-0.8-9.1-2.5
				c-1.6-1.5-2.4-4.1-2.4-7.8v-21.3H82v20.8c0,2,0.2,3.4,0.6,4.2c0.7,1.3,2,1.9,4.1,1.9c2,0,3.4-0.6,4.1-1.9
				c0.4-0.8,0.6-2.2,0.6-4.2v-20.7h6.8V157z"/>
			<path class="st13" d="M125.9,158.5c0,2.9-1,5.1-2.9,6.6c-2,1.5-4.7,2.2-8.2,2.2c-7.3,0-11-3.2-11-9.7c0-0.4,0-1.1,0.1-1.9h6.9
				c0,0.2,0,0.6,0,1.1c0,0.5,0,0.9,0,1.2c0,3.1,1.3,4.6,3.8,4.6c3,0,4.5-1.2,4.5-3.7c0-1.6-1.3-3.2-3.9-4.8
				c-2.4-1.4-4.8-2.8-7.1-4.2c-2.5-1.9-3.8-4.2-3.8-6.8c0-2.6,0.9-4.6,2.8-6.1c1.9-1.5,4.4-2.2,7.6-2.2c3.5,0,6.1,0.8,7.9,2.4
				c1.8,1.6,2.7,3.8,2.7,6.7c0,0.5,0,0.9,0,1.1h-6.5c0-1.8-0.2-3.1-0.5-3.8c-0.6-1.1-1.8-1.7-3.7-1.7c-2.3,0-3.5,1-3.5,3
				c0,1.4,1.3,2.8,3.9,4.2c4.2,2.3,6.6,3.7,7.2,4.2C124.6,153.1,125.9,155.6,125.9,158.5z"/>
			<path class="st13" d="M154.6,166.5h-6.9v-14h-9.4v14h-6.8v-30.9h6.8v12.1h9.4v-12.1h6.9V166.5z"/>
			<path class="st13" d="M184.2,166.5h-7.5l-1.8-7.8H167l-1.8,7.8h-7l8.3-30.9h9.3L184.2,166.5z M173.9,154.2l-3-13l-2.9,13H173.9z"
				/>
			<path class="st13" d="M209.2,157c0,3.1-0.7,5.4-2.2,7c-1.7,1.7-4.3,2.6-7.9,2.6h-11.2v-30.9h11c6.3,0,9.4,2.5,9.4,7.5
				c0,4.1-1.5,6.4-4.6,6.8c1.9,0.2,3.4,1.1,4.4,2.6C208.8,153.7,209.2,155.2,209.2,157z M201.3,143.8c0-1.5-0.3-2.5-1-3.1
				c-0.7-0.6-1.9-0.8-3.8-0.8h-2.1v8.4h2.3c1.8,0,3.1-0.4,3.8-1.1C201.1,146.5,201.3,145.4,201.3,143.8z M202.1,157.3
				c0-1.9-0.4-3.2-1.2-3.9c-0.8-0.7-2.3-1.1-4.5-1.1h-2v9.8h2.8c1.9,0,3.2-0.4,4-1.3C201.8,160.2,202.1,159,202.1,157.3z"/>
			<path class="st13" d="M237.7,166.5h-6.9v-14h-9.4v14h-6.8v-30.9h6.8v12.1h9.4v-12.1h6.9V166.5z"/>
		</g>
	</g>
	<g>
		<path class="st14" d="M97.4,205.8h-6.6v-13.6h-9.1v13.6h-6.6v-29.9h6.6v11.7h9.1v-11.7h6.6V205.8z"/>
		<path class="st14" d="M125.9,190.8c0,5.1-0.5,8.7-1.5,10.7c-1.6,3.4-5,5-10.1,5c-5.1,0-8.5-1.7-10.1-5c-1-2-1.4-5.5-1.4-10.7
			c0-5.1,0.5-8.7,1.4-10.7c1.7-3.4,5-5,10.1-5c5.1,0,8.5,1.7,10.1,5C125.4,182.2,125.9,185.7,125.9,190.8z M119.1,190.8
			c0-0.3,0-0.8,0-1.6c0-0.8,0-1.4,0-1.9c0-5.2-1.6-7.8-4.9-7.8c-3.2,0-4.9,2.6-4.9,7.8c0,0.5,0,1.1,0,1.9c0,0.8,0,1.3,0,1.6
			c0,0.2,0,0.7,0,1.5c0,0.8,0,1.4,0,1.9c0,5.2,1.6,7.8,4.9,7.8c3.2,0,4.8-2.6,4.8-7.7c0-0.5,0-1.1,0-1.9
			C119.1,191.6,119.1,191.1,119.1,190.8z"/>
		<path class="st14" d="M153.5,205.8h-6.8l-9.3-21l0.2,21h-6.2v-29.9h6.8l9.3,20.9l-0.2-20.9h6.3V205.8z"/>
		<path class="st14" d="M182,189c0,3.3-0.1,5.6-0.2,6.9c-0.3,2.8-1,5-2.1,6.5c-1.1,1.6-2.7,2.6-4.8,3c-1.2,0.2-3.2,0.4-6.2,0.4h-9.1
			v-29.9h10.6c5,0,8.3,1.2,10,3.6C181.4,181.2,182,184.4,182,189z M175.2,190.5c0-5.1-0.7-8.2-2-9.3c-0.7-0.6-2.2-0.9-4.4-0.9H166
			v21.1h2.9c1.2,0,2.1,0,2.5-0.1c0.9-0.2,1.6-0.5,2.1-1.1C174.7,198.8,175.2,195.6,175.2,190.5z"/>
		<path class="st14" d="M209.8,205.8h-7.2l-1.7-7.5h-7.6l-1.7,7.5h-6.8l8-29.9h8.9L209.8,205.8z M199.9,193.8l-2.9-12.6l-2.8,12.6
			H199.9z"/>
	</g>
</g>
</svg>
