<?xml version="1.0" encoding="UTF-8"?>
<svg width="23px" height="20px" viewBox="0 0 23 20" version="1.1" xmlns="http://www.w3.org/2000/svg" xmlns:xlink="http://www.w3.org/1999/xlink">
    <!-- Generator: Sketch 49.3 (51167) - http://www.bohemiancoding.com/sketch -->
    <title>twitter_icon copy</title>
    <desc>Created with Sketch.</desc>
    <defs></defs>
    <g id="Page-1" stroke="none" stroke-width="1" fill="none" fill-rule="evenodd">
        <g id="Brands-Desktop-1" transform="translate(-461.000000, -473.000000)" fill-rule="nonzero" stroke="#FFFFFF">
            <g id="Brands" transform="translate(0.000000, 1.000000)">
                <g id="Brand-Images" transform="translate(149.000000, 336.000000)">
                    <g id="Bitmap-Copy-7" transform="translate(292.000000, 0.000000)">
                        <path d="M30.8783809,142.877234 C28.8735482,137.495705 35.8961337,135.102889 38.5540981,138.740246 C38.5540981,138.740246 39.5844525,138.703157 41.4648267,137.686919 C41.4648267,137.686919 41.0164538,139.123911 39.5699995,140.074873 C39.8593068,139.836617 40.6692522,140.067702 42,139.472548 C42,139.472548 41.1610664,140.837175 39.8593068,141.751707 C39.8593068,141.751707 39.8304007,143.798606 39.5266403,145.076116 C39.22288,146.353625 38.7146366,149.956838 35.6771975,152.453751 C32.6397585,154.950746 28.4326134,155.455838 26.3352793,155.310614 C24.2380273,155.165473 21.6634142,154.367071 20,153.336327 C20,153.336327 23.8041075,153.742822 26.6101336,151.420063 C26.6101336,151.420063 23.7752014,151.550698 22.4300005,148.269889 C22.4300005,148.269889 23.3990937,148.444043 24.4405342,148.15376 C24.4405342,148.15376 20.8678397,147.500499 20.8244806,143.638959 C20.8244806,143.638959 21.9960807,144.219608 22.8639204,144.161584 C22.8639204,144.161584 19.4503736,141.548459 21.5332547,138.166026 C21.5332547,138.166026 24.9494293,142.710745 30.8783809,142.877234 Z" id="twitter_icon-copy"></path>
                    </g>
                </g>
            </g>
        </g>
    </g>
</svg>